<svg xmlns="http://www.w3.org/2000/svg" viewBox="0 0 60 60"><title>Linked In</title><path d="M55.57,0H4.43A4.36,4.36,0,0,0,0,4.3V55.7A4.37,4.37,0,0,0,4.43,60H55.57A4.37,4.37,0,0,0,60,55.7V4.3A4.36,4.36,0,0,0,55.57,0ZM18.19,50.22H9.12V23.14h9.07ZM13.66,19.43H13.6a4.67,4.67,0,0,1-5-4.68c0-2.65,2-4.68,5.13-4.68a4.7,4.7,0,0,1,5.06,4.68C18.78,17.36,16.82,19.43,13.66,19.43ZM50.87,50.22H41.81V35.73c0-3.64-1.32-6.13-4.59-6.13a5,5,0,0,0-4.65,3.3,5.89,5.89,0,0,0-.31,2.19V50.22H23.2s.12-24.54,0-27.09h9.07V27a9,9,0,0,1,8.16-4.48c6,0,10.44,3.87,10.44,12.19V50.22ZM32.21,27.06l.06-.08v.08Z"/></svg>