<svg xmlns="http://www.w3.org/2000/svg" viewBox="0 0 440.61 440.61"><title>graphic-homepage-hero</title><path d="M220.3,7.88,432.73,220.31,220.3,432.73,7.88,220.31Zm0,85L92.85,220.31,220.31,347.76,347.76,220.31Z" style="fill:#fff"/><path d="M20,40.06a20,20,0,1,1,20-20,20,20,0,0,1-20,20Zm0,60.08a20,20,0,1,1,20-20,20,20,0,0,1-20,20ZM80.11,40.06a20,20,0,1,1,20-20A20,20,0,0,1,80.11,40.06Z" style="fill:#f80;fill-rule:evenodd"/><path d="M420.58,400.56a20,20,0,1,1-20,20A20,20,0,0,1,420.58,400.56Zm0-60.09a20,20,0,1,1-20,20,20,20,0,0,1,20-20ZM360.5,400.56a20,20,0,1,1-20,20A20,20,0,0,1,360.5,400.56Z" style="fill:#400051;fill-rule:evenodd"/></svg>