<svg xmlns="http://www.w3.org/2000/svg" xmlns:xlink="http://www.w3.org/1999/xlink" width="16" height="16" viewBox="0 0 16 16">
    <defs>
        <path id="a" d="M7.333 6.667a.667.667 0 0 0-.666.666v6c0 .369.298.667.666.667h6a.667.667 0 0 0 .667-.667v-6a.667.667 0 0 0-.667-.666h-6zm6-1.334a2 2 0 0 1 2 2v6a2 2 0 0 1-2 2h-6a2 2 0 0 1-2-2v-6a2 2 0 0 1 2-2h6zM8.667.667a2 2 0 0 1 2 2v.666a.667.667 0 0 1-1.334 0v-.666A.667.667 0 0 0 8.667 2h-6A.667.667 0 0 0 2 2.667v6c0 .368.298.666.667.666h.666a.667.667 0 0 1 0 1.334h-.666a2 2 0 0 1-2-2v-6a2 2 0 0 1 2-2z"/>
    </defs>
    <use fill="#000" fill-rule="nonzero" opacity=".5" xlink:href="#a"/>
</svg>
