<svg xmlns="http://www.w3.org/2000/svg" viewBox="0 0 21.87 21.86"><title>icon-link</title><path d="M8.14,12.53a1,1,0,0,1,1.6-1.2,4,4,0,0,0,5.6.81,5.08,5.08,0,0,0,.43-.38l3-3a4,4,0,0,0-5.65-5.66L11.39,4.82A1,1,0,1,1,10,3.42l0,0,1.73-1.72a6,6,0,0,1,8.47,8.49l-3,3a6,6,0,0,1-8.48,0,6.86,6.86,0,0,1-.56-.65Zm5.6-3.2a1,1,0,0,1-.16,1.4,1,1,0,0,1-1.4-.15l0-.05a4,4,0,0,0-5.6-.81,3.91,3.91,0,0,0-.44.37l-3,3a4,4,0,0,0,5.64,5.67L10.47,17a1,1,0,0,1,1.41,0,1,1,0,0,1,0,1.41h0l-1.72,1.73a6,6,0,0,1-8.47-8.5l3-3a6,6,0,0,1,8.49,0,5.81,5.81,0,0,1,.56.65Z"/></svg>