<svg xmlns="http://www.w3.org/2000/svg" xmlns:xlink="http://www.w3.org/1999/xlink" width="24" height="24" viewBox="0 0 24 24">
    <defs>
        <path id="a" d="M11.553 1.106a1 1 0 0 1 .894 0l10 5a1 1 0 0 1 0 1.788l-10 5a1 1 0 0 1-.894 0l-10-5a1 1 0 0 1 0-1.788l10-5zM12 3.118L4.236 7 12 10.882 19.764 7 12 3.118zM2.447 16.106L12 20.882l9.553-4.776a1 1 0 0 1 .894 1.788l-10 5a1 1 0 0 1-.894 0l-10-5a1 1 0 0 1 .894-1.788zm0-5L12 15.882l9.553-4.776a1 1 0 0 1 .894 1.788l-10 5a1 1 0 0 1-.894 0l-10-5a1 1 0 0 1 .894-1.788z"/>
    </defs>
    <use fill="#000" fill-rule="nonzero" xlink:href="#a"/>
</svg>
