<svg xmlns="http://www.w3.org/2000/svg" viewBox="0 0 2989.27 1031.5"><title>logo-unison</title><path d="M1240.54,397.11c0-17.07,14.53-31.61,32.24-31.61,18.33,0,32.87,14.54,32.87,31.61v134c0,20.86,2.53,34.77,9.48,47.41,10.11,18.33,30.34,31,62.58,31s52.47-12.65,62.59-31c7-12.64,10.11-26.55,10.11-47.41v-134a32.24,32.24,0,0,1,64.48,0V536.18c0,36.66-7.59,62-22.76,82.81-22.76,30.34-62.58,46.15-114.42,46.15-51.2,0-91.66-15.81-113.78-46.15-15.81-20.86-23.39-46.15-23.39-82.81V397.11Zm351.27,0c0-17.7,14.54-31.61,32.24-31.61,18.33,0,32.24,13.91,32.24,31.61v12.64c20.86-29.08,53.73-44.25,93.56-44.25,32.86,0,62.58,8.22,83.44,27.18,21.49,19,33.5,49.94,33.5,93.56V633.53c0,17.7-15.17,31.61-32.24,31.61-18.33,0-32.87-13.91-32.87-31.61V502c0-25.92-3.79-49.3-18.33-64.47-10.12-10.12-24.66-16.44-46.15-16.44-29.08,0-51.83,13.27-65.74,37.93-10.74,19.59-15.17,43.62-15.17,67V633.53c0,17.7-15.18,31.61-32.24,31.61-17.7,0-32.24-13.91-32.24-31.61V397.11Zm386.75-31.61a31.84,31.84,0,0,1,32.24,31.61V633.53c0,17.7-15.17,31.61-32.24,31.61-18.33,0-32.24-13.91-32.24-31.61V397.11a31.84,31.84,0,0,1,32.24-31.61Zm285.84,65.74c-20.22,0-38.56-12.64-68.27-12.64-27.18,0-44.88,8.22-44.88,27.18,0,16.44,12.64,25.29,29.71,32.87,19.59,8.22,44.25,15.18,63.85,24.66,37.29,18.33,51.83,40.46,51.83,73.32,0,52.47-43.62,88.51-112.52,88.51-41.72,0-107.46-9.49-107.46-48a25.37,25.37,0,0,1,25.28-25.28c23.39,0,33.5,22.75,77.76,22.75,29.08,0,48.67-10.11,48.67-32.24,0-19-13.9-27.81-32.87-36.66-17.7-8.22-43.62-14.54-65.11-24.65-31-14.54-47.41-37.93-47.41-74,0-50.57,39.19-81.55,109.36-81.55,50.57,0,97.35,10.11,97.35,39.82,0,14.58-11.38,26-25.29,26Zm122.6-24c27.81-25.92,66.38-41.72,109.36-41.72,42.36,0,81.55,15.8,109.36,41.72,27.82,26.55,44.25,63.85,44.25,108.1,0,44.88-15.8,82.81-44.25,108.73-27.18,25.91-67,41.09-109.36,41.09-43,0-82.18-15.18-109.36-41.09-28.45-25.92-44.88-63.85-44.88-108.73,0-44.25,17.1-81.55,44.88-108.1ZM2431.25,583c15.8,17.07,38.56,27.81,65.11,27.81A87.15,87.15,0,0,0,2560.84,583c15.8-17.71,25.28-40.46,25.28-67.64s-9.48-49.94-25.28-67.64a87.16,87.16,0,0,0-64.48-27.82c-26.55,0-49.31,10.75-65.11,27.82-15.8,17.7-24.65,40.46-24.65,67.64s8.89,49.93,24.69,67.64Zm283-185.85c0-17.7,14.54-31.61,32.24-31.61,18.34,0,32.24,13.91,32.24,31.61v12.64c20.86-29.08,53.74-44.25,93.56-44.25,32.87,0,62.58,8.22,83.45,27.18,21.48,19,33.5,49.94,33.5,93.56V633.53c0,17.7-15.17,31.61-32.24,31.61-18.33,0-32.87-13.91-32.87-31.61V502c0-25.92-3.79-49.3-18.34-64.47-10.11-10.12-24.65-16.44-46.14-16.44-29.08,0-51.84,13.27-65.75,37.93-10.74,19.59-15.17,43.62-15.17,67V633.53c0,17.7-15.17,31.61-32.24,31.61-17.7,0-32.24-13.91-32.24-31.61V397.11Zm-715.2-183.37a31,31,0,1,0,0,43.8A31,31,0,0,0,1999.08,213.74ZM887.36,286.16a27.21,27.21,0,0,1,0,38.47h0a27.2,27.2,0,0,1-38.46,0l0,0a27.21,27.21,0,0,1,38.47-38.49ZM720.18,196.8h0a327.23,327.23,0,0,1,61.24,18.58v0a27.22,27.22,0,0,1,14.75,35.55l0,0a27.2,27.2,0,0,1-35.55,14.73h-.05a272.19,272.19,0,0,0-50.32-15.35c-.46-.08-.91-.17-1.37-.27a271.94,271.94,0,0,0-51-5.09c-.46,0-.93,0-1.4,0v0a108.86,108.86,0,0,1-94.26-54.41v0c-.12-.21-.25-.43-.36-.65a272.28,272.28,0,0,0-69.6-79.2c-119.22-91.48-290-69-381.52,50.23l0,0,0,0A27.21,27.21,0,1,1,67.53,127.8c.28-.36.57-.71.86-1.06a326.6,326.6,0,0,1,95-82.94c156.13-90.16,355.79-36.67,446,119.46l0,.05v0l.23.39a54.39,54.39,0,0,0,45.69,26.83c.4,0,.81,0,1.21,0a326.64,326.64,0,0,1,63.7,6.27ZM43.41,544.94c.23-.44.49-.88.75-1.31a54.41,54.41,0,0,0-.07-53.28c-.27-.45-.52-.9-.77-1.35A326.57,326.57,0,0,1,11.18,242.06a27.21,27.21,0,0,1,52.57,14.09h0A272.1,272.1,0,0,0,90.6,462q.45.75.87,1.53a108.87,108.87,0,0,1-.09,107.13c-.35.63-.71,1.26-1.11,1.87A272.29,272.29,0,0,0,56.8,672C37.19,821,142.06,957.63,291.06,977.25v.06h0a27.2,27.2,0,0,1,23.42,30.52h0A27.21,27.21,0,0,1,284,1031.26l.05,0h0a326.27,326.27,0,0,1-120.64-41C7.37,900.26-46.21,701,43.41,544.94Zm44.8,30.43a26.51,26.51,0,0,0,2.06-2.8l.08-.13a27.79,27.79,0,0,1-2.14,2.93Zm322.87,447.54a27.2,27.2,0,0,1-33.32-19.22h0A27.22,27.22,0,0,1,397,970.35h0a27.21,27.21,0,0,1,14.09,52.56Zm245.4-179.34a54.43,54.43,0,0,0-46.75,26.56c-.12.23-.25.46-.38.68a326.23,326.23,0,0,1-37.28,52v0c4.52-5.16,4.53-5.13,0,0-.28.32-.56.63-.85.93a326.51,326.51,0,0,1-45.87,42.78v0a27.21,27.21,0,0,1-38.15-5h0a27.22,27.22,0,0,1,5-38.15l0,0a272.06,272.06,0,0,0,38.93-36.47l0,0,0,0c-4.36,5-4.37,4.94,0,0,.34-.38.68-.75,1-1.1a272,272,0,0,0,29.6-41.42c.16-.3.33-.59.5-.89a108.83,108.83,0,0,1,94.2-54.32v0a272,272,0,0,0,104.13-20.72c138.55-57.39,204.51-216,147.61-354.67-.12-.26-.24-.53-.35-.8a27.21,27.21,0,0,1,50.26-20.86h0a326.57,326.57,0,0,1,24.86,125c0,180.33-146.19,326.52-326.52,326.52Zm-24-542.93q10.79-1.18,21.66-1.3a217.72,217.72,0,1,1-21.61,434.12A108.9,108.9,0,0,0,526,794.94,217.73,217.73,0,1,1,151.92,577.5a109,109,0,0,0-.83-122.11q-3.9-5.33-7.47-10.87A217.71,217.71,0,1,1,526.05,239.18,108.91,108.91,0,0,0,632.5,300.64ZM185.19,789.14a163.25,163.25,0,1,0,59.75-223,163.27,163.27,0,0,0-59.75,223ZM515.13,598.68a163.25,163.25,0,1,0,59.76-223,163.27,163.27,0,0,0-59.76,223ZM326.61,489.84a163.25,163.25,0,1,0-163.3-163.22,163.26,163.26,0,0,0,163.3,163.22Z"/></svg>