<svg xmlns="http://www.w3.org/2000/svg" viewBox="0 0 60 48.74"><title>share-twitter</title><path d="M60,5.77A24.67,24.67,0,0,1,52.93,7.7,12.33,12.33,0,0,0,58.34.9a24.83,24.83,0,0,1-7.82,3,12.31,12.31,0,0,0-21,11.22A34.92,34.92,0,0,1,4.18,2.25,12.34,12.34,0,0,0,8,18.68a12.29,12.29,0,0,1-5.58-1.55v.16a12.33,12.33,0,0,0,9.88,12.07A12.81,12.81,0,0,1,9,29.79a11.75,11.75,0,0,1-2.31-.23,12.31,12.31,0,0,0,11.49,8.55A24.69,24.69,0,0,1,2.94,43.37,25.8,25.8,0,0,1,0,43.2a34.8,34.8,0,0,0,18.87,5.54c22.64,0,35-18.76,35-35l0-1.59A24.83,24.83,0,0,0,60,5.77Z"/></svg>