<svg id="Layer_1" data-name="Layer 1" xmlns="http://www.w3.org/2000/svg" viewBox="0 0 580 436"><defs><style>.cls-1{fill:#2ad5b3;}.cls-2{fill:#0951e0;}.cls-3{fill:#520066;}.cls-4{fill:#fff;}</style></defs><title>thing12</title><rect class="cls-1" width="580" height="436" rx="14.541"/><path class="cls-2" d="M431.0072,233.6628V208.8259A99.3475,99.3475,0,0,0,344.97,258.5l21.5093,12.4185a74.5106,74.5106,0,0,1,64.5281-37.2553Zm0-24.8369a12.4185,12.4185,0,1,0,12.4184,12.4185,12.4186,12.4186,0,0,0-12.4184-12.4185ZM344.97,258.5a12.4184,12.4184,0,1,0,16.9639-4.5454A12.4185,12.4185,0,0,0,344.97,258.5Z"/><path class="cls-2" d="M381.3335,222.136a12.4184,12.4184,0,1,0,16.9638,4.5454,12.4184,12.4184,0,0,0-16.9638-4.5454Z"/><path class="cls-2" d="M344.97,258.5l21.5093,12.4185a99.3473,99.3473,0,0,0,0-99.3476L344.97,183.9891a74.51,74.51,0,0,1,0,74.51Zm21.5094,12.4184a12.4184,12.4184,0,1,0-16.9639,4.5454A12.4184,12.4184,0,0,0,366.4791,270.9181Zm0-99.3475a12.4184,12.4184,0,1,0-4.5454,16.9639A12.4182,12.4182,0,0,0,366.4791,171.5706Z"/><path class="cls-2" d="M379.7891,221.2444a12.4185,12.4185,0,1,0-12.4185,12.4185,12.4186,12.4186,0,0,0,12.4185-12.4185Z"/><path class="cls-2" d="M366.4791,171.5706,344.97,183.989a99.3475,99.3475,0,0,0,86.0374,49.6738V208.8259a74.51,74.51,0,0,1-64.528-37.2553ZM344.97,183.989a12.4184,12.4184,0,1,0,4.5454-16.9638A12.4184,12.4184,0,0,0,344.97,183.989Zm86.0375,49.6738a12.4185,12.4185,0,1,0-12.4185-12.4185A12.4185,12.4185,0,0,0,431.0072,233.6628Z"/><path class="cls-2" d="M381.3335,220.3528a12.4184,12.4184,0,1,0-4.5455-16.9639A12.4184,12.4184,0,0,0,381.3335,220.3528Z"/><path class="cls-2" d="M375.1242,231.1074a12.4184,12.4184,0,1,0-4.5454-16.9638A12.4183,12.4183,0,0,0,375.1242,231.1074Z"/><path class="cls-2" d="M330.1154,135.2069a12.4184,12.4184,0,1,0,4.5454,16.9639A12.4185,12.4185,0,0,0,330.1154,135.2069Z"/><path class="cls-3" d="M356.4966,263.3715a12.4184,12.4184,0,1,0-4.5454-16.9638A12.4183,12.4183,0,0,0,356.4966,263.3715Z"/><path class="cls-2" d="M366.4791,171.5706,344.97,183.989a99.3475,99.3475,0,0,0,86.0374,49.6738V208.8259a74.51,74.51,0,0,1-64.528-37.2553ZM344.97,183.989a12.4184,12.4184,0,1,0,4.5454-16.9638A12.4184,12.4184,0,0,0,344.97,183.989Zm86.0375,49.6738a12.4185,12.4185,0,1,0-12.4185-12.4185A12.4185,12.4185,0,0,0,431.0072,233.6628Z"/><path class="cls-2" d="M381.3335,220.3528a12.4184,12.4184,0,1,0-4.5455-16.9639A12.4184,12.4184,0,0,0,381.3335,220.3528Z"/><path class="cls-2" d="M330.1154,135.2069a12.4184,12.4184,0,1,0,4.5454,16.9639A12.4185,12.4185,0,0,0,330.1154,135.2069Z"/><path class="cls-2" d="M366.4791,171.5706,344.97,183.989a99.3475,99.3475,0,0,0,86.0374,49.6738V208.8259a74.51,74.51,0,0,1-64.528-37.2553ZM344.97,183.989a12.4184,12.4184,0,1,0,4.5454-16.9638A12.4184,12.4184,0,0,0,344.97,183.989Zm86.0375,49.6738a12.4185,12.4185,0,1,0-12.4185-12.4185A12.4185,12.4185,0,0,0,431.0072,233.6628Z"/><path class="cls-2" d="M381.3335,220.3528a12.4184,12.4184,0,1,0-4.5455-16.9639A12.4184,12.4184,0,0,0,381.3335,220.3528Z"/><path class="cls-2" d="M431.0072,233.6628V208.8259A99.3475,99.3475,0,0,0,344.97,258.5l21.5093,12.4185a74.5106,74.5106,0,0,1,64.5281-37.2553Zm0-24.8369a12.4185,12.4185,0,1,0,12.4184,12.4185,12.4186,12.4186,0,0,0-12.4184-12.4185ZM344.97,258.5a12.4184,12.4184,0,1,0,16.9639-4.5454A12.4185,12.4185,0,0,0,344.97,258.5Z"/><path class="cls-2" d="M381.3335,222.136a12.4184,12.4184,0,1,0,16.9638,4.5454,12.4184,12.4184,0,0,0-16.9638-4.5454Z"/><path class="cls-2" d="M344.97,258.5l21.5093,12.4185a99.3473,99.3473,0,0,0,0-99.3476L344.97,183.9891a74.51,74.51,0,0,1,0,74.51Zm21.5094,12.4184a12.4184,12.4184,0,1,0-16.9639,4.5454A12.4184,12.4184,0,0,0,366.4791,270.9181Zm0-99.3475a12.4184,12.4184,0,1,0-4.5454,16.9639A12.4182,12.4182,0,0,0,366.4791,171.5706Z"/><path class="cls-2" d="M379.7891,221.2444a12.4185,12.4185,0,1,0-12.4185,12.4185,12.4186,12.4186,0,0,0,12.4185-12.4185Z"/><path class="cls-2" d="M392.2076,221.2444a12.4185,12.4185,0,1,0-12.4185,12.4185,12.4186,12.4186,0,0,0,12.4185-12.4185Z"/><path class="cls-2" d="M280.4417,295.755v24.8369a99.3477,99.3477,0,0,0,86.0375-49.6737L344.97,258.5a74.5106,74.5106,0,0,1-64.5281,37.2553Zm0,24.8368a12.4185,12.4185,0,1,0-12.4185-12.4185A12.4186,12.4186,0,0,0,280.4417,320.5918Zm86.0374-49.6737a12.4184,12.4184,0,1,0-16.9639,4.5454A12.4184,12.4184,0,0,0,366.4791,270.9181Z"/><path class="cls-2" d="M330.1154,307.2819a12.4184,12.4184,0,1,0-16.9639-4.5455A12.4184,12.4184,0,0,0,330.1154,307.2819Z"/><path class="cls-2" d="M215.9136,258.5l-21.5094,12.4185a99.3476,99.3476,0,0,0,86.0375,49.6737V295.755A74.5106,74.5106,0,0,1,215.9136,258.5Zm-21.5094,12.4184a12.4184,12.4184,0,1,0,4.5454-16.9639A12.4184,12.4184,0,0,0,194.4042,270.9181Zm86.0375,49.6737a12.4185,12.4185,0,1,0-12.4185-12.4185A12.4186,12.4186,0,0,0,280.4417,320.5918Z"/><path class="cls-2" d="M230.7679,307.2819a12.4184,12.4184,0,1,0-4.5454-16.9639A12.4184,12.4184,0,0,0,230.7679,307.2819Z"/><path class="cls-2" d="M215.9136,183.989l-21.5094-12.4184a99.3476,99.3476,0,0,0,0,99.3475L215.9135,258.5a74.5106,74.5106,0,0,1,0-74.51Zm-21.5094-12.4184a12.4184,12.4184,0,1,0,16.9639-4.5454A12.4185,12.4185,0,0,0,194.4042,171.5706Zm0,99.3475a12.4184,12.4184,0,1,0,4.5454-16.9639A12.4184,12.4184,0,0,0,194.4042,270.9181Z"/><path class="cls-2" d="M181.0942,221.2444a12.4185,12.4185,0,1,0,12.4184-12.4184,12.4185,12.4185,0,0,0-12.4184,12.4184Z"/><path class="cls-2" d="M280.4417,146.7337V121.8969a99.3477,99.3477,0,0,0-86.0375,49.6737l21.5093,12.4185a74.5107,74.5107,0,0,1,64.5281-37.2554Zm0-24.8368A12.4185,12.4185,0,1,0,292.86,134.3153,12.4185,12.4185,0,0,0,280.4417,121.8969Zm-86.0375,49.6737a12.4184,12.4184,0,1,0,16.9639-4.5454A12.4185,12.4185,0,0,0,194.4042,171.5706Z"/><path class="cls-2" d="M230.7679,135.2069a12.4184,12.4184,0,1,0,16.9639,4.5454A12.4183,12.4183,0,0,0,230.7679,135.2069Z"/><path class="cls-3" d="M131.4205,221.2444a12.4185,12.4185,0,1,0,12.4184-12.4184,12.4185,12.4185,0,0,0-12.4184,12.4184Z"/><path class="cls-4" d="M301.951,208.8259,323.46,196.4075a49.6735,49.6735,0,0,0-43.0187-24.8369v24.8369a24.8366,24.8366,0,0,1,21.5093,12.4184ZM323.46,196.4075a12.4184,12.4184,0,1,0-4.5454,16.9639A12.4184,12.4184,0,0,0,323.46,196.4075Zm-43.0187-24.8369A12.4185,12.4185,0,1,0,292.86,183.989,12.4185,12.4185,0,0,0,280.4417,171.5706Z"/><path class="cls-4" d="M305.2785,178.2257A12.4184,12.4184,0,1,0,309.824,195.19,12.4183,12.4183,0,0,0,305.2785,178.2257Z"/><path class="cls-4" d="M301.951,233.6628,323.46,246.0812a49.674,49.674,0,0,0,0-49.6737L301.951,208.826a24.8366,24.8366,0,0,1,0,24.8368ZM323.46,246.0812a12.4184,12.4184,0,1,0-16.9639,4.5454A12.4185,12.4185,0,0,0,323.46,246.0812Zm0-49.6737a12.4184,12.4184,0,1,0-4.5454,16.9639A12.4184,12.4184,0,0,0,323.46,196.4075Z"/><path class="cls-4" d="M330.1154,221.2444a12.4185,12.4185,0,1,0-12.4185,12.4185,12.4186,12.4186,0,0,0,12.4185-12.4185Z"/><path class="cls-4" d="M280.4417,246.0812v24.8369A49.6738,49.6738,0,0,0,323.46,246.0812l-21.5093-12.4184a24.837,24.837,0,0,1-21.5093,12.4184Zm0,24.8369A12.4185,12.4185,0,1,0,268.0232,258.5,12.4185,12.4185,0,0,0,280.4417,270.9181ZM323.46,246.0812a12.4184,12.4184,0,1,0-16.9639,4.5454A12.4185,12.4185,0,0,0,323.46,246.0812Z"/><path class="cls-4" d="M305.2785,264.2631a12.4184,12.4184,0,1,0-16.9638-4.5454A12.4182,12.4182,0,0,0,305.2785,264.2631Z"/><path class="cls-4" d="M258.9323,233.6628l-21.5094,12.4184a49.6737,49.6737,0,0,0,43.0188,24.8369V246.0812a24.8365,24.8365,0,0,1-21.5093-12.4184Zm-21.5094,12.4184a12.4184,12.4184,0,1,0,4.5455-16.9639A12.4183,12.4183,0,0,0,237.4229,246.0812Zm43.0188,24.8369A12.4185,12.4185,0,1,0,268.0232,258.5,12.4185,12.4185,0,0,0,280.4417,270.9181Z"/><path class="cls-4" d="M255.6047,264.2631a12.4184,12.4184,0,1,0-4.5454-16.9638A12.4183,12.4183,0,0,0,255.6047,264.2631Z"/><path class="cls-4" d="M258.9323,208.8259l-21.5094-12.4184a49.674,49.674,0,0,0,0,49.6737l21.5093-12.4185a24.8371,24.8371,0,0,1,0-24.8368Zm-21.5094-12.4184a12.4184,12.4184,0,1,0,16.9639-4.5454A12.4185,12.4185,0,0,0,237.4229,196.4075Zm0,49.6737a12.4184,12.4184,0,1,0,4.5455-16.9639A12.4183,12.4183,0,0,0,237.4229,246.0812Z"/><path class="cls-4" d="M230.7679,221.2444a12.4185,12.4185,0,1,0,12.4185-12.4184,12.4185,12.4185,0,0,0-12.4185,12.4184Z"/><path class="cls-4" d="M280.4417,196.4075V171.5707a49.6739,49.6739,0,0,0-43.0187,24.8368l21.5093,12.4185a24.837,24.837,0,0,1,21.5093-12.4185Zm0-24.8369A12.4185,12.4185,0,1,0,292.86,183.989,12.4185,12.4185,0,0,0,280.4417,171.5706Zm-43.0188,24.8369a12.4184,12.4184,0,1,0,16.9639-4.5454A12.4185,12.4185,0,0,0,237.4229,196.4075Z"/><path class="cls-4" d="M255.6047,178.2257a12.4184,12.4184,0,1,0,16.9639,4.5454A12.4184,12.4184,0,0,0,255.6047,178.2257Z"/><path class="cls-2" d="M330.1154,135.2069a12.4184,12.4184,0,1,0,4.5454,16.9639A12.4185,12.4185,0,0,0,330.1154,135.2069Z"/><path class="cls-2" d="M344.97,258.5l21.5093,12.4185a99.3473,99.3473,0,0,0,0-99.3476L344.97,183.9891a74.51,74.51,0,0,1,0,74.51Zm21.5094,12.4184a12.4184,12.4184,0,1,0-16.9639,4.5454A12.4184,12.4184,0,0,0,366.4791,270.9181Zm0-99.3475a12.4184,12.4184,0,1,0-4.5454,16.9639A12.4182,12.4182,0,0,0,366.4791,171.5706Z"/><path class="cls-2" d="M379.7891,221.2444a12.4185,12.4185,0,1,0-12.4185,12.4185,12.4186,12.4186,0,0,0,12.4185-12.4185Z"/><path class="cls-2" d="M280.4417,295.755v24.8369a99.3477,99.3477,0,0,0,86.0375-49.6737L344.97,258.5a74.5106,74.5106,0,0,1-64.5281,37.2553Zm0,24.8368a12.4185,12.4185,0,1,0-12.4185-12.4185A12.4186,12.4186,0,0,0,280.4417,320.5918Zm86.0374-49.6737a12.4184,12.4184,0,1,0-16.9639,4.5454A12.4184,12.4184,0,0,0,366.4791,270.9181Z"/><path class="cls-2" d="M330.1154,307.2819a12.4184,12.4184,0,1,0-16.9639-4.5455A12.4184,12.4184,0,0,0,330.1154,307.2819Z"/><path class="cls-2" d="M215.9136,258.5l-21.5094,12.4185a99.3476,99.3476,0,0,0,86.0375,49.6737V295.755A74.5106,74.5106,0,0,1,215.9136,258.5Zm-21.5094,12.4184a12.4184,12.4184,0,1,0,4.5454-16.9639A12.4184,12.4184,0,0,0,194.4042,270.9181Zm86.0375,49.6737a12.4185,12.4185,0,1,0-12.4185-12.4185A12.4186,12.4186,0,0,0,280.4417,320.5918Z"/><path class="cls-2" d="M230.7679,307.2819a12.4184,12.4184,0,1,0-4.5454-16.9639A12.4184,12.4184,0,0,0,230.7679,307.2819Z"/><path class="cls-2" d="M215.9136,183.989l-21.5094-12.4184a99.3476,99.3476,0,0,0,0,99.3475L215.9135,258.5a74.5106,74.5106,0,0,1,0-74.51Zm-21.5094-12.4184a12.4184,12.4184,0,1,0,16.9639-4.5454A12.4185,12.4185,0,0,0,194.4042,171.5706Zm0,99.3475a12.4184,12.4184,0,1,0,4.5454-16.9639A12.4184,12.4184,0,0,0,194.4042,270.9181Z"/><path class="cls-2" d="M181.0942,221.2444a12.4185,12.4185,0,1,0,12.4184-12.4184,12.4185,12.4185,0,0,0-12.4184,12.4184Z"/><path class="cls-2" d="M280.4417,146.7337V121.8969a99.3477,99.3477,0,0,0-86.0375,49.6737l21.5093,12.4185a74.5107,74.5107,0,0,1,64.5281-37.2554Zm0-24.8368A12.4185,12.4185,0,1,0,292.86,134.3153,12.4185,12.4185,0,0,0,280.4417,121.8969Zm-86.0375,49.6737a12.4184,12.4184,0,1,0,16.9639-4.5454A12.4185,12.4185,0,0,0,194.4042,171.5706Z"/><path class="cls-2" d="M230.7679,135.2069a12.4184,12.4184,0,1,0,16.9639,4.5454A12.4183,12.4183,0,0,0,230.7679,135.2069Z"/><path class="cls-2" d="M280.4417,295.755v24.8369a99.3477,99.3477,0,0,0,86.0375-49.6737L344.97,258.5a74.5106,74.5106,0,0,1-64.5281,37.2553Zm0,24.8368a12.4185,12.4185,0,1,0-12.4185-12.4185A12.4186,12.4186,0,0,0,280.4417,320.5918Zm86.0374-49.6737a12.4184,12.4184,0,1,0-16.9639,4.5454A12.4184,12.4184,0,0,0,366.4791,270.9181Z"/><path class="cls-2" d="M330.1154,307.2819a12.4184,12.4184,0,1,0-16.9639-4.5455A12.4184,12.4184,0,0,0,330.1154,307.2819Z"/><path class="cls-2" d="M344.97,258.5l21.5093,12.4185a99.3473,99.3473,0,0,0,0-99.3476L344.97,183.9891a74.51,74.51,0,0,1,0,74.51Zm21.5094,12.4184a12.4184,12.4184,0,1,0-16.9639,4.5454A12.4184,12.4184,0,0,0,366.4791,270.9181Zm0-99.3475a12.4184,12.4184,0,1,0-4.5454,16.9639A12.4182,12.4182,0,0,0,366.4791,171.5706Z"/><path class="cls-2" d="M379.7891,221.2444a12.4185,12.4185,0,1,0-12.4185,12.4185,12.4186,12.4186,0,0,0,12.4185-12.4185Z"/><path class="cls-2" d="M366.4791,171.5706,344.97,183.989a99.3475,99.3475,0,0,0,86.0374,49.6738V208.8259a74.51,74.51,0,0,1-64.528-37.2553ZM344.97,183.989a12.4184,12.4184,0,1,0,4.5454-16.9638A12.4184,12.4184,0,0,0,344.97,183.989Zm86.0375,49.6738a12.4185,12.4185,0,1,0-12.4185-12.4185A12.4185,12.4185,0,0,0,431.0072,233.6628Z"/><path class="cls-2" d="M381.3335,220.3528a12.4184,12.4184,0,1,0-4.5455-16.9639A12.4184,12.4184,0,0,0,381.3335,220.3528Z"/><path class="cls-2" d="M431.0072,233.6628V208.8259A99.3475,99.3475,0,0,0,344.97,258.5l21.5093,12.4185a74.5106,74.5106,0,0,1,64.5281-37.2553Zm0-24.8369a12.4185,12.4185,0,1,0,12.4184,12.4185,12.4186,12.4186,0,0,0-12.4184-12.4185ZM344.97,258.5a12.4184,12.4184,0,1,0,16.9639-4.5454A12.4185,12.4185,0,0,0,344.97,258.5Z"/><path class="cls-2" d="M381.3335,222.136a12.4184,12.4184,0,1,0,16.9638,4.5454,12.4184,12.4184,0,0,0-16.9638-4.5454Z"/><path class="cls-2" d="M375.1242,211.3813a12.4184,12.4184,0,1,0,16.9639,4.5454A12.4184,12.4184,0,0,0,375.1242,211.3813Z"/><path class="cls-2" d="M431.0072,233.6628V208.8259A99.3475,99.3475,0,0,0,344.97,258.5l21.5093,12.4185a74.5106,74.5106,0,0,1,64.5281-37.2553Zm0-24.8369a12.4185,12.4185,0,1,0,12.4184,12.4185,12.4186,12.4186,0,0,0-12.4184-12.4185ZM344.97,258.5a12.4184,12.4184,0,1,0,16.9639-4.5454A12.4185,12.4185,0,0,0,344.97,258.5Z"/><path class="cls-2" d="M381.3335,222.136a12.4184,12.4184,0,1,0,16.9638,4.5454,12.4184,12.4184,0,0,0-16.9638-4.5454Z"/><path class="cls-2" d="M280.4417,295.755v24.8369a99.3477,99.3477,0,0,0,86.0375-49.6737L344.97,258.5a74.5106,74.5106,0,0,1-64.5281,37.2553Zm0,24.8368a12.4185,12.4185,0,1,0-12.4185-12.4185A12.4186,12.4186,0,0,0,280.4417,320.5918Zm86.0374-49.6737a12.4184,12.4184,0,1,0-16.9639,4.5454A12.4184,12.4184,0,0,0,366.4791,270.9181Z"/><path class="cls-2" d="M330.1154,307.2819a12.4184,12.4184,0,1,0-16.9639-4.5455A12.4184,12.4184,0,0,0,330.1154,307.2819Z"/><path class="cls-2" d="M215.9136,258.5l-21.5094,12.4185a99.3476,99.3476,0,0,0,86.0375,49.6737V295.755A74.5106,74.5106,0,0,1,215.9136,258.5Zm-21.5094,12.4184a12.4184,12.4184,0,1,0,4.5454-16.9639A12.4184,12.4184,0,0,0,194.4042,270.9181Zm86.0375,49.6737a12.4185,12.4185,0,1,0-12.4185-12.4185A12.4186,12.4186,0,0,0,280.4417,320.5918Z"/><path class="cls-2" d="M230.7679,307.2819a12.4184,12.4184,0,1,0-4.5454-16.9639A12.4184,12.4184,0,0,0,230.7679,307.2819Z"/></svg>