<svg id="Layer_1" data-name="Layer 1" xmlns="http://www.w3.org/2000/svg" viewBox="0 0 580 436"><defs><style>.cls-1{fill:#001cb7;}.cls-2{fill:#e275cf;}.cls-3{fill:#fff;}</style></defs><rect class="cls-1" width="580" height="436" rx="14.541"/><path class="cls-2" d="M354.0376,190.85a9.9026,9.9026,0,1,0-13.5272-3.6247A9.9025,9.9025,0,0,0,354.0376,190.85Z" transform="translate(0)"/><path class="cls-2" d="M225.3041,190.85a9.9026,9.9026,0,1,0-3.6246-13.5272A9.9026,9.9026,0,0,0,225.3041,190.85Z" transform="translate(0)"/><path class="cls-2" d="M341.1262,188.2923,358.278,178.39a79.2206,79.2206,0,0,0-68.607-39.61v19.8051a59.4154,59.4154,0,0,1,51.4553,29.7078Zm17.1517-9.9026a9.9026,9.9026,0,1,0-3.6246,13.5272A9.9026,9.9026,0,0,0,358.2779,178.39Zm-68.607-39.61a9.9026,9.9026,0,1,0,9.9026,9.9026A9.9025,9.9025,0,0,0,289.6709,138.7794Z" transform="translate(0)"/><path class="cls-2" d="M329.2812,149.393a9.9026,9.9026,0,1,0,3.6246,13.5272A9.9026,9.9026,0,0,0,329.2812,149.393Z" transform="translate(0)"/><path class="cls-2" d="M289.6709,158.5845V138.7794a79.22,79.22,0,0,0-68.607,39.61l17.1517,9.9026a59.4156,59.4156,0,0,1,51.4554-29.7078Zm0-19.8051a9.9026,9.9026,0,1,0,9.9026,9.9026A9.9025,9.9025,0,0,0,289.6709,138.7794Zm-68.607,39.61a9.9026,9.9026,0,1,0,13.5272-3.6246A9.9025,9.9025,0,0,0,221.0639,178.39Z" transform="translate(0)"/><path class="cls-2" d="M250.0605,149.393a9.9026,9.9026,0,1,0,13.5272,3.6247A9.9026,9.9026,0,0,0,250.0605,149.393Z" transform="translate(0)"/><path class="cls-3" d="M289.6709,198.1948a9.9025,9.9025,0,1,0-9.9026-9.9025A9.9025,9.9025,0,0,0,289.6709,198.1948Z" transform="translate(0)"/><path class="cls-2" d="M289.6709,118.9742a9.9026,9.9026,0,1,0-9.9026-9.9025A9.9025,9.9025,0,0,0,289.6709,118.9742Z" transform="translate(0)"/><path class="cls-2" d="M289.6709,158.5845a9.9026,9.9026,0,1,0-9.9026-9.9025A9.9025,9.9025,0,0,0,289.6709,158.5845Z" transform="translate(0)"/><path class="cls-2" d="M298.342,148.682a9.9026,9.9026,0,1,0-9.9026,9.9025A9.9025,9.9025,0,0,0,298.342,148.682Z" transform="translate(0)"/><path class="cls-2" d="M233.9752,260.1685a9.9026,9.9026,0,1,0-13.5272-3.6247A9.9027,9.9027,0,0,0,233.9752,260.1685Z" transform="translate(0)"/><path class="cls-2" d="M289.6709,158.5845V138.7794a79.22,79.22,0,0,0-68.607,39.61l17.1517,9.9026a59.4156,59.4156,0,0,1,51.4554-29.7078Zm0-19.8051a9.9026,9.9026,0,1,0,9.9026,9.9026A9.9025,9.9025,0,0,0,289.6709,138.7794Zm-68.607,39.61a9.9026,9.9026,0,1,0,13.5272-3.6246A9.9025,9.9025,0,0,0,221.0639,178.39Z" transform="translate(0)"/><path class="cls-2" d="M250.0605,149.393a9.9026,9.9026,0,1,0,13.5272,3.6247A9.9026,9.9026,0,0,0,250.0605,149.393Z" transform="translate(0)"/><path class="cls-2" d="M209.2188,217.289a9.9026,9.9026,0,1,0-13.5272-3.6246A9.9025,9.9025,0,0,0,209.2188,217.289Z" transform="translate(0)"/><path class="cls-3" d="M272.5191,208.0974a9.9026,9.9026,0,1,0-13.5272,3.6247A9.9025,9.9025,0,0,0,272.5191,208.0974Z" transform="translate(0)"/><path class="cls-2" d="M199.3163,200.1373l9.9026,17.1517a79.2217,79.2217,0,0,0,28.9967-28.9967L221.0639,178.39A59.4156,59.4156,0,0,1,199.3163,200.1373Zm9.9025,17.1517a9.9026,9.9026,0,1,0-13.5272-3.6246A9.9025,9.9025,0,0,0,209.2188,217.289Zm28.9967-28.9967a9.9026,9.9026,0,1,0-13.5272,3.6247A9.9025,9.9025,0,0,0,238.2155,188.2923Z" transform="translate(0)"/><path class="cls-2" d="M238.2155,188.2923a9.9026,9.9026,0,1,0-13.5272,3.6247A9.9025,9.9025,0,0,0,238.2155,188.2923Z" transform="translate(0)"/><path class="cls-2" d="M209.2188,217.289a9.9026,9.9026,0,1,0-13.5272-3.6246A9.9025,9.9025,0,0,0,209.2188,217.289Z" transform="translate(0)"/><path class="cls-2" d="M345.3665,260.1685a9.9026,9.9026,0,1,0-3.6246-13.5272A9.9026,9.9026,0,0,0,345.3665,260.1685Z" transform="translate(0)"/><path class="cls-2" d="M281,148.682a9.9026,9.9026,0,1,0,9.9026-9.9026A9.9025,9.9025,0,0,0,281,148.682Z" transform="translate(0)"/><path class="cls-2" d="M341.1262,247.7077,358.278,257.61a79.2206,79.2206,0,0,0,0-79.2206l-17.1518,9.9025a59.4151,59.4151,0,0,1,0,59.4154Zm17.1517,9.9027a9.9026,9.9026,0,1,0-13.5272,3.6246A9.9025,9.9025,0,0,0,358.2779,257.61Zm0-79.2207a9.9026,9.9026,0,1,0-3.6246,13.5272A9.9026,9.9026,0,0,0,358.2779,178.39Z" transform="translate(0)"/><path class="cls-2" d="M368.8915,218a9.9026,9.9026,0,1,0-9.9025,9.9026A9.9025,9.9025,0,0,0,368.8915,218Z" transform="translate(0)"/><path class="cls-2" d="M341.1262,188.2923,358.278,178.39a79.2206,79.2206,0,0,0-68.607-39.61v19.8051a59.4154,59.4154,0,0,1,51.4553,29.7078Zm17.1517-9.9026a9.9026,9.9026,0,1,0-3.6246,13.5272A9.9026,9.9026,0,0,0,358.2779,178.39Zm-68.607-39.61a9.9026,9.9026,0,1,0,9.9026,9.9026A9.9025,9.9025,0,0,0,289.6709,138.7794Z" transform="translate(0)"/><path class="cls-2" d="M329.2812,149.393a9.9026,9.9026,0,1,0,3.6246,13.5272A9.9026,9.9026,0,0,0,329.2812,149.393Z" transform="translate(0)"/><path class="cls-3" d="M306.8227,208.0974a9.9026,9.9026,0,1,0,3.6246-13.5272A9.9027,9.9027,0,0,0,306.8227,208.0974Z" transform="translate(0)"/><path class="cls-2" d="M375.43,168.4872a9.9026,9.9026,0,1,0,3.6246-13.5272A9.9026,9.9026,0,0,0,375.43,168.4872Z" transform="translate(0)"/><path class="cls-2" d="M341.1262,188.2923a9.9026,9.9026,0,1,0,3.6247-13.5272A9.9028,9.9028,0,0,0,341.1262,188.2923Z" transform="translate(0)"/><path class="cls-2" d="M375.43,168.4872l17.1517-9.9026A118.8308,118.8308,0,0,0,289.6708,99.1692v19.8051A99.0256,99.0256,0,0,1,375.43,168.4872Zm17.1517-9.9027a9.9026,9.9026,0,1,0-3.6247,13.5272A9.9027,9.9027,0,0,0,392.5814,158.5845Zm-102.91-59.4154a9.9026,9.9026,0,1,0,9.9026,9.9025A9.9025,9.9025,0,0,0,289.6709,99.1691Z" transform="translate(0)"/><path class="cls-2" d="M349.0863,115.0894a9.9026,9.9026,0,1,0,3.6246,13.5272A9.9026,9.9026,0,0,0,349.0863,115.0894Z" transform="translate(0)"/><path class="cls-2" d="M375.43,267.5129l17.1517,9.9026a118.8306,118.8306,0,0,0,0-118.831L375.43,168.4871a99.0254,99.0254,0,0,1,0,99.0257Zm17.1517,9.9026a9.9026,9.9026,0,1,0-13.5272,3.6246A9.9026,9.9026,0,0,0,392.5814,277.4155Zm0-118.831a9.9026,9.9026,0,1,0-3.6247,13.5272A9.9027,9.9027,0,0,0,392.5814,158.5845Z" transform="translate(0)"/><path class="cls-2" d="M289.6709,317.0257v19.8051a118.8309,118.8309,0,0,0,102.9106-59.4154L375.43,267.5129a99.026,99.026,0,0,1-85.7588,49.5128Zm0,19.8052a9.9026,9.9026,0,1,0-9.9026-9.9026A9.9025,9.9025,0,0,0,289.6709,336.8309Zm102.91-59.4154a9.9026,9.9026,0,1,0-13.5272,3.6246A9.9026,9.9026,0,0,0,392.5814,277.4155Z" transform="translate(0)"/><path class="cls-2" d="M349.0863,320.9106a9.9026,9.9026,0,1,0-13.5272-3.6246A9.9025,9.9025,0,0,0,349.0863,320.9106Z" transform="translate(0)"/><path class="cls-2" d="M230.2553,320.9106a9.9026,9.9026,0,1,0-3.6246-13.5272A9.9027,9.9027,0,0,0,230.2553,320.9106Z" transform="translate(0)"/><path class="cls-2" d="M230.2553,115.0894a9.9026,9.9026,0,1,0,13.5272,3.6247A9.9026,9.9026,0,0,0,230.2553,115.0894Z" transform="translate(0)"/><path class="cls-2" d="M341.1262,188.2923,358.278,178.39a79.2206,79.2206,0,0,0-68.607-39.61v19.8051a59.4154,59.4154,0,0,1,51.4553,29.7078Zm17.1517-9.9026a9.9026,9.9026,0,1,0-3.6246,13.5272A9.9026,9.9026,0,0,0,358.2779,178.39Zm-68.607-39.61a9.9026,9.9026,0,1,0,9.9026,9.9026A9.9025,9.9025,0,0,0,289.6709,138.7794Z" transform="translate(0)"/><path class="cls-2" d="M329.2812,149.393a9.9026,9.9026,0,1,0,3.6246,13.5272A9.9026,9.9026,0,0,0,329.2812,149.393Z" transform="translate(0)"/><path class="cls-2" d="M341.1262,247.7077,358.278,257.61a79.2206,79.2206,0,0,0,0-79.2206l-17.1518,9.9025a59.4151,59.4151,0,0,1,0,59.4154Zm17.1517,9.9027a9.9026,9.9026,0,1,0-13.5272,3.6246A9.9025,9.9025,0,0,0,358.2779,257.61Zm0-79.2207a9.9026,9.9026,0,1,0-3.6246,13.5272A9.9026,9.9026,0,0,0,358.2779,178.39Z" transform="translate(0)"/><path class="cls-2" d="M368.8915,218a9.9026,9.9026,0,1,0-9.9025,9.9026A9.9025,9.9025,0,0,0,368.8915,218Z" transform="translate(0)"/><path class="cls-2" d="M289.6709,277.4155v19.805a79.22,79.22,0,0,0,68.607-39.61l-17.1517-9.9025a59.4156,59.4156,0,0,1-51.4554,29.7077Zm0,19.805a9.9025,9.9025,0,1,0-9.9026-9.9025A9.9025,9.9025,0,0,0,289.6709,297.2205Zm68.607-39.61a9.9026,9.9026,0,1,0-13.5272,3.6246A9.9025,9.9025,0,0,0,358.2779,257.61Z" transform="translate(0)"/><path class="cls-2" d="M329.2812,286.6071a9.9026,9.9026,0,1,0-13.5272-3.6247A9.9026,9.9026,0,0,0,329.2812,286.6071Z" transform="translate(0)"/><path class="cls-2" d="M238.2155,247.7077,221.0638,257.61a79.2205,79.2205,0,0,0,68.607,39.61V277.4154a59.4155,59.4155,0,0,1-51.4553-29.7077ZM221.0639,257.61a9.9026,9.9026,0,1,0,3.6246-13.5272A9.9026,9.9026,0,0,0,221.0639,257.61Zm68.607,39.61a9.9025,9.9025,0,1,0-9.9026-9.9025A9.9025,9.9025,0,0,0,289.6709,297.2205Z" transform="translate(0)"/><path class="cls-2" d="M250.0605,286.6071a9.9026,9.9026,0,1,0-3.6246-13.5272A9.9025,9.9025,0,0,0,250.0605,286.6071Z" transform="translate(0)"/><path class="cls-2" d="M209.2188,217.289a9.9026,9.9026,0,1,0-13.5272-3.6246A9.9025,9.9025,0,0,0,209.2188,217.289Z" transform="translate(0)"/><path class="cls-2" d="M289.6709,158.5845V138.7794a79.22,79.22,0,0,0-68.607,39.61l17.1517,9.9026a59.4156,59.4156,0,0,1,51.4554-29.7078Zm0-19.8051a9.9026,9.9026,0,1,0,9.9026,9.9026A9.9025,9.9025,0,0,0,289.6709,138.7794Zm-68.607,39.61a9.9026,9.9026,0,1,0,13.5272-3.6246A9.9025,9.9025,0,0,0,221.0639,178.39Z" transform="translate(0)"/><path class="cls-2" d="M250.0605,149.393a9.9026,9.9026,0,1,0,13.5272,3.6247A9.9026,9.9026,0,0,0,250.0605,149.393Z" transform="translate(0)"/><path class="cls-2" d="M339.1837,132.2411l9.9026-17.1517a118.8313,118.8313,0,0,0-59.4154-15.92v19.8051a99.0246,99.0246,0,0,1,49.5128,13.267Zm9.9026-17.1517a9.9026,9.9026,0,1,0,3.6246,13.5272A9.9026,9.9026,0,0,0,349.0863,115.0894Zm-59.4154-15.92a9.9026,9.9026,0,1,0,9.9026,9.9025A9.9025,9.9025,0,0,0,289.6709,99.1691Z" transform="translate(0)"/><path class="cls-2" d="M289.6709,99.1691a9.9026,9.9026,0,1,0,9.9026,9.9025A9.9025,9.9025,0,0,0,289.6709,99.1691Z" transform="translate(0)"/><path class="cls-2" d="M375.43,168.4872l17.1517-9.9026a118.83,118.83,0,0,0-43.4951-43.495l-9.9026,17.1517a99.0257,99.0257,0,0,1,36.246,36.2459Zm17.1517-9.9027a9.9026,9.9026,0,1,0-3.6247,13.5272A9.9027,9.9027,0,0,0,392.5814,158.5845Zm-43.4951-43.4951a9.9026,9.9026,0,1,0,3.6246,13.5272A9.9026,9.9026,0,0,0,349.0863,115.0894Z" transform="translate(0)"/><path class="cls-2" d="M349.0863,115.0894a9.9026,9.9026,0,1,0,3.6246,13.5272A9.9026,9.9026,0,0,0,349.0863,115.0894Z" transform="translate(0)"/><path class="cls-2" d="M388.6966,218h19.8051a118.8319,118.8319,0,0,0-15.92-59.4154L375.43,168.4871A99.0262,99.0262,0,0,1,388.6965,218Zm19.8051,0a9.9026,9.9026,0,1,0-9.9025,9.9026A9.9025,9.9025,0,0,0,408.5017,218Zm-15.92-59.4155a9.9026,9.9026,0,1,0-3.6247,13.5272A9.9027,9.9027,0,0,0,392.5814,158.5845Z" transform="translate(0)"/><path class="cls-2" d="M392.5814,158.5845a9.9026,9.9026,0,1,0-3.6247,13.5272A9.9027,9.9027,0,0,0,392.5814,158.5845Z" transform="translate(0)"/><path class="cls-2" d="M375.43,267.5129l17.1517,9.9026A118.831,118.831,0,0,0,408.5017,218h-19.805A99.0259,99.0259,0,0,1,375.43,267.5129Zm17.1517,9.9026a9.9026,9.9026,0,1,0-13.5272,3.6246A9.9026,9.9026,0,0,0,392.5814,277.4155ZM408.5017,218a9.9026,9.9026,0,1,0-9.9025,9.9026A9.9025,9.9025,0,0,0,408.5017,218Z" transform="translate(0)"/><path class="cls-2" d="M339.1837,303.7588l9.9026,17.1518a118.8306,118.8306,0,0,0,43.4951-43.4951L375.43,267.5129A99.0257,99.0257,0,0,1,339.1837,303.7588Zm9.9026,17.1518a9.9026,9.9026,0,1,0-13.5272-3.6246A9.9025,9.9025,0,0,0,349.0863,320.9106Zm43.4951-43.4951a9.9026,9.9026,0,1,0-13.5272,3.6246A9.9026,9.9026,0,0,0,392.5814,277.4155Z" transform="translate(0)"/><path class="cls-2" d="M392.5814,277.4155a9.9026,9.9026,0,1,0-13.5272,3.6246A9.9026,9.9026,0,0,0,392.5814,277.4155Z" transform="translate(0)"/><path class="cls-2" d="M289.6709,317.0257v19.8051a118.8313,118.8313,0,0,0,59.4154-15.92l-9.9026-17.1517a99.0255,99.0255,0,0,1-49.5128,13.2669Zm0,19.8052a9.9026,9.9026,0,1,0-9.9026-9.9026A9.9025,9.9025,0,0,0,289.6709,336.8309Zm59.4154-15.92a9.9026,9.9026,0,1,0-13.5272-3.6246A9.9025,9.9025,0,0,0,349.0863,320.9106Z" transform="translate(0)"/><path class="cls-2" d="M349.0863,320.9106a9.9026,9.9026,0,1,0-13.5272-3.6246A9.9025,9.9025,0,0,0,349.0863,320.9106Z" transform="translate(0)"/><path class="cls-2" d="M240.158,303.7588l-9.9025,17.1518a118.8313,118.8313,0,0,0,59.4154,15.92V317.0258a99.0259,99.0259,0,0,1-49.5129-13.2669Zm-9.9027,17.1518a9.9026,9.9026,0,1,0-3.6246-13.5272A9.9027,9.9027,0,0,0,230.2553,320.9106Zm59.4156,15.92a9.9026,9.9026,0,1,0-9.9026-9.9026A9.9025,9.9025,0,0,0,289.6709,336.8309Z" transform="translate(0)"/><path class="cls-2" d="M289.6709,336.8309a9.9026,9.9026,0,1,0-9.9026-9.9026A9.9025,9.9025,0,0,0,289.6709,336.8309Z" transform="translate(0)"/><path class="cls-2" d="M230.2553,320.9106a9.9026,9.9026,0,1,0-3.6246-13.5272A9.9027,9.9027,0,0,0,230.2553,320.9106Z" transform="translate(0)"/><path class="cls-2" d="M289.6709,118.9742V99.1691a118.8313,118.8313,0,0,0-59.4154,15.92l9.9025,17.1517a99.0259,99.0259,0,0,1,49.5129-13.2669Zm0-19.8051a9.9026,9.9026,0,1,0,9.9026,9.9025A9.9025,9.9025,0,0,0,289.6709,99.1691Zm-59.4156,15.92a9.9026,9.9026,0,1,0,13.5272,3.6247A9.9026,9.9026,0,0,0,230.2553,115.0894Z" transform="translate(0)"/><path class="cls-2" d="M230.2553,115.0894a9.9026,9.9026,0,1,0,13.5272,3.6247A9.9026,9.9026,0,0,0,230.2553,115.0894Z" transform="translate(0)"/><path class="cls-3" d="M299.5735,200.8482l9.9025-17.1517a39.609,39.609,0,0,0-19.805-5.3067v19.8051a19.8056,19.8056,0,0,1,9.9025,2.6533Zm9.9025-17.1518a9.9026,9.9026,0,1,0,3.6246,13.5272A9.9026,9.9026,0,0,0,309.476,183.6964ZM289.6709,178.39a9.9026,9.9026,0,1,0,9.9026,9.9026A9.9025,9.9025,0,0,0,289.6709,178.39Z" transform="translate(0)"/><path class="cls-3" d="M289.6709,178.39a9.9026,9.9026,0,1,0,9.9026,9.9026A9.9025,9.9025,0,0,0,289.6709,178.39Z" transform="translate(0)"/><path class="cls-3" d="M306.8227,208.0974l17.1517-9.9025a39.6089,39.6089,0,0,0-14.4984-14.4984l-9.9025,17.1517A19.8044,19.8044,0,0,1,306.8227,208.0974Zm17.1516-9.9026A9.9026,9.9026,0,1,0,320.35,211.722,9.9026,9.9026,0,0,0,323.9743,198.1948ZM309.476,183.6964a9.9026,9.9026,0,1,0,3.6246,13.5272A9.9026,9.9026,0,0,0,309.476,183.6964Z" transform="translate(0)"/><path class="cls-3" d="M309.476,183.6964a9.9026,9.9026,0,1,0,3.6246,13.5272A9.9026,9.9026,0,0,0,309.476,183.6964Z" transform="translate(0)"/><path class="cls-3" d="M309.476,218h19.805a39.6115,39.6115,0,0,0-5.3067-19.8051l-17.1517,9.9026A19.8055,19.8055,0,0,1,309.476,218Zm19.8052,0a9.9026,9.9026,0,1,0-9.9026,9.9026A9.9025,9.9025,0,0,0,329.2812,218Zm-5.3069-19.8052A9.9026,9.9026,0,1,0,320.35,211.722,9.9026,9.9026,0,0,0,323.9743,198.1948Z" transform="translate(0)"/><path class="cls-3" d="M323.9743,198.1948A9.9026,9.9026,0,1,0,320.35,211.722,9.9026,9.9026,0,0,0,323.9743,198.1948Z" transform="translate(0)"/><path class="cls-3" d="M306.8227,227.9026l17.1517,9.9025A39.61,39.61,0,0,0,329.2811,218H309.476a19.8057,19.8057,0,0,1-2.6533,9.9026Zm17.1516,9.9025a9.9026,9.9026,0,1,0-13.5272,3.6247A9.9025,9.9025,0,0,0,323.9743,237.8051ZM329.2812,218a9.9026,9.9026,0,1,0-9.9026,9.9026A9.9025,9.9025,0,0,0,329.2812,218Z" transform="translate(0)"/><path class="cls-3" d="M329.2812,218a9.9026,9.9026,0,1,0-9.9026,9.9026A9.9025,9.9025,0,0,0,329.2812,218Z" transform="translate(0)"/><path class="cls-3" d="M299.5735,235.1518l9.9025,17.1517a39.6089,39.6089,0,0,0,14.4984-14.4984l-17.1517-9.9025A19.8044,19.8044,0,0,1,299.5735,235.1518Zm9.9025,17.1517a9.9026,9.9026,0,1,0-13.5272-3.6246A9.9026,9.9026,0,0,0,309.476,252.3035Zm14.4983-14.4984a9.9026,9.9026,0,1,0-13.5272,3.6247A9.9025,9.9025,0,0,0,323.9743,237.8051Z" transform="translate(0)"/><path class="cls-3" d="M323.9743,237.8051a9.9026,9.9026,0,1,0-13.5272,3.6247A9.9025,9.9025,0,0,0,323.9743,237.8051Z" transform="translate(0)"/><path class="cls-3" d="M289.6709,237.8051V257.61a39.6112,39.6112,0,0,0,19.8051-5.3067l-9.9026-17.1517a19.8055,19.8055,0,0,1-9.9026,2.6533Zm0,19.8053a9.9026,9.9026,0,1,0-9.9026-9.9026A9.9026,9.9026,0,0,0,289.6709,257.61Zm19.8051-5.3069a9.9026,9.9026,0,1,0-13.5272-3.6246A9.9026,9.9026,0,0,0,309.476,252.3035Z" transform="translate(0)"/><path class="cls-3" d="M309.476,252.3035a9.9026,9.9026,0,1,0-13.5272-3.6246A9.9026,9.9026,0,0,0,309.476,252.3035Z" transform="translate(0)"/><path class="cls-3" d="M279.7683,235.1518l-9.9025,17.1517a39.609,39.609,0,0,0,19.805,5.3067V237.8051a19.8056,19.8056,0,0,1-9.9025-2.6533Zm-9.9026,17.1517a9.9026,9.9026,0,1,0-3.6246-13.5272A9.9026,9.9026,0,0,0,269.8657,252.3035Zm19.8052,5.3069a9.9026,9.9026,0,1,0-9.9026-9.9026A9.9026,9.9026,0,0,0,289.6709,257.61Z" transform="translate(0)"/><path class="cls-3" d="M289.6709,257.61a9.9026,9.9026,0,1,0-9.9026-9.9026A9.9026,9.9026,0,0,0,289.6709,257.61Z" transform="translate(0)"/><path class="cls-3" d="M272.5191,227.9026l-17.1517,9.9025a39.6089,39.6089,0,0,0,14.4984,14.4984l9.9025-17.1517A19.8044,19.8044,0,0,1,272.5191,227.9026Zm-17.1518,9.9025a9.9026,9.9026,0,1,0,3.6246-13.5272A9.9027,9.9027,0,0,0,255.3673,237.8051Zm14.4984,14.4984a9.9026,9.9026,0,1,0-3.6246-13.5272A9.9026,9.9026,0,0,0,269.8657,252.3035Z" transform="translate(0)"/><path class="cls-3" d="M269.8657,252.3035a9.9026,9.9026,0,1,0-3.6246-13.5272A9.9026,9.9026,0,0,0,269.8657,252.3035Z" transform="translate(0)"/><path class="cls-3" d="M269.8657,218H250.0606a39.6112,39.6112,0,0,0,5.3067,19.8051l17.1518-9.9025A19.8057,19.8057,0,0,1,269.8657,218Zm-19.8052,0a9.9026,9.9026,0,1,0,9.9026-9.9025A9.9026,9.9026,0,0,0,250.0605,218Zm5.3068,19.8051a9.9026,9.9026,0,1,0,3.6246-13.5272A9.9027,9.9027,0,0,0,255.3673,237.8051Z" transform="translate(0)"/><path class="cls-3" d="M255.3673,237.8051a9.9026,9.9026,0,1,0,3.6246-13.5272A9.9027,9.9027,0,0,0,255.3673,237.8051Z" transform="translate(0)"/><path class="cls-3" d="M272.5191,208.0974l-17.1517-9.9025A39.6094,39.6094,0,0,0,250.0607,218h19.8051a19.8057,19.8057,0,0,1,2.6533-9.9026Zm-17.1518-9.9026a9.9026,9.9026,0,1,0,13.5272-3.6246A9.9027,9.9027,0,0,0,255.3673,198.1948ZM250.0605,218a9.9026,9.9026,0,1,0,9.9026-9.9025A9.9026,9.9026,0,0,0,250.0605,218Z" transform="translate(0)"/><path class="cls-3" d="M250.0605,218a9.9026,9.9026,0,1,0,9.9026-9.9025A9.9026,9.9026,0,0,0,250.0605,218Z" transform="translate(0)"/><path class="cls-3" d="M279.7683,200.8482l-9.9025-17.1517a39.6089,39.6089,0,0,0-14.4984,14.4984l17.1517,9.9025A19.8044,19.8044,0,0,1,279.7683,200.8482Zm-9.9026-17.1518a9.9026,9.9026,0,1,0,13.5272,3.6247A9.9026,9.9026,0,0,0,269.8657,183.6964Zm-14.4984,14.4984a9.9026,9.9026,0,1,0,13.5272-3.6246A9.9027,9.9027,0,0,0,255.3673,198.1948Z" transform="translate(0)"/><path class="cls-3" d="M255.3673,198.1948a9.9026,9.9026,0,1,0,13.5272-3.6246A9.9027,9.9027,0,0,0,255.3673,198.1948Z" transform="translate(0)"/><path class="cls-3" d="M289.6709,198.1948V178.39a39.6112,39.6112,0,0,0-19.8051,5.3067l9.9026,17.1518a19.8045,19.8045,0,0,1,9.9026-2.6534Zm0-19.8051a9.9026,9.9026,0,1,0,9.9026,9.9026A9.9025,9.9025,0,0,0,289.6709,178.39Zm-19.8052,5.3067a9.9026,9.9026,0,1,0,13.5272,3.6247A9.9026,9.9026,0,0,0,269.8657,183.6964Z" transform="translate(0)"/><path class="cls-3" d="M269.8657,183.6964a9.9026,9.9026,0,1,0,13.5272,3.6247A9.9026,9.9026,0,0,0,269.8657,183.6964Z" transform="translate(0)"/><path class="cls-2" d="M319.3785,166.5447l9.9026-17.1517a79.22,79.22,0,0,0-39.61-10.6136v19.8051a59.4153,59.4153,0,0,1,29.7078,7.96Zm9.9027-17.1517a9.9026,9.9026,0,1,0,3.6246,13.5272A9.9026,9.9026,0,0,0,329.2812,149.393Zm-39.61-10.6136a9.9026,9.9026,0,1,0,9.9026,9.9026A9.9025,9.9025,0,0,0,289.6709,138.7794Z" transform="translate(0)"/><path class="cls-2" d="M289.6709,138.7794a9.9026,9.9026,0,1,0,9.9026,9.9026A9.9025,9.9025,0,0,0,289.6709,138.7794Z" transform="translate(0)"/><path class="cls-2" d="M341.1262,188.2923,358.278,178.39a79.2212,79.2212,0,0,0-28.9967-28.9968l-9.9026,17.1517A59.416,59.416,0,0,1,341.1262,188.2923Zm17.1517-9.9026a9.9026,9.9026,0,1,0-3.6246,13.5272A9.9026,9.9026,0,0,0,358.2779,178.39ZM329.2812,149.393a9.9026,9.9026,0,1,0,3.6246,13.5272A9.9026,9.9026,0,0,0,329.2812,149.393Z" transform="translate(0)"/><path class="cls-2" d="M329.2812,149.393a9.9026,9.9026,0,1,0,3.6246,13.5272A9.9026,9.9026,0,0,0,329.2812,149.393Z" transform="translate(0)"/><path class="cls-2" d="M349.0863,218h19.8051a79.22,79.22,0,0,0-10.6136-39.61l-17.1518,9.9026A59.4151,59.4151,0,0,1,349.0862,218Zm19.8052,0a9.9026,9.9026,0,1,0-9.9025,9.9026A9.9025,9.9025,0,0,0,368.8915,218Zm-10.6136-39.61a9.9026,9.9026,0,1,0-3.6246,13.5272A9.9026,9.9026,0,0,0,358.2779,178.39Z" transform="translate(0)"/><path class="cls-2" d="M358.2779,178.39a9.9026,9.9026,0,1,0-3.6246,13.5272A9.9026,9.9026,0,0,0,358.2779,178.39Z" transform="translate(0)"/><path class="cls-2" d="M341.1262,247.7077,358.278,257.61A79.22,79.22,0,0,0,368.8916,218H349.0865a59.4146,59.4146,0,0,1-7.96,29.7077Zm17.1517,9.9027a9.9026,9.9026,0,1,0-13.5272,3.6246A9.9025,9.9025,0,0,0,358.2779,257.61ZM368.8915,218a9.9026,9.9026,0,1,0-9.9025,9.9026A9.9025,9.9025,0,0,0,368.8915,218Z" transform="translate(0)"/><path class="cls-2" d="M368.8915,218a9.9026,9.9026,0,1,0-9.9025,9.9026A9.9025,9.9025,0,0,0,368.8915,218Z" transform="translate(0)"/><path class="cls-2" d="M319.3785,269.4552l9.9026,17.1518A79.2223,79.2223,0,0,0,358.2779,257.61l-17.1518-9.9025A59.4153,59.4153,0,0,1,319.3785,269.4552Zm9.9027,17.1519a9.9026,9.9026,0,1,0-13.5272-3.6247A9.9026,9.9026,0,0,0,329.2812,286.6071ZM358.2779,257.61a9.9026,9.9026,0,1,0-13.5272,3.6246A9.9025,9.9025,0,0,0,358.2779,257.61Z" transform="translate(0)"/><path class="cls-2" d="M358.2779,257.61a9.9026,9.9026,0,1,0-13.5272,3.6246A9.9025,9.9025,0,0,0,358.2779,257.61Z" transform="translate(0)"/><path class="cls-2" d="M289.6709,277.4155v19.805a79.22,79.22,0,0,0,39.61-10.6135l-9.9026-17.1518a59.4153,59.4153,0,0,1-29.7078,7.96Zm0,19.805a9.9025,9.9025,0,1,0-9.9026-9.9025A9.9025,9.9025,0,0,0,289.6709,297.2205Zm39.61-10.6134a9.9026,9.9026,0,1,0-13.5272-3.6247A9.9026,9.9026,0,0,0,329.2812,286.6071Z" transform="translate(0)"/><path class="cls-2" d="M329.2812,286.6071a9.9026,9.9026,0,1,0-13.5272-3.6247A9.9026,9.9026,0,0,0,329.2812,286.6071Z" transform="translate(0)"/><path class="cls-2" d="M259.9631,269.4552l-9.9026,17.1518a79.2206,79.2206,0,0,0,39.61,10.6135V277.4154a59.4152,59.4152,0,0,1-29.7078-7.96Zm-9.9026,17.1519a9.9026,9.9026,0,1,0-3.6246-13.5272A9.9025,9.9025,0,0,0,250.0605,286.6071Zm39.61,10.6134a9.9025,9.9025,0,1,0-9.9026-9.9025A9.9025,9.9025,0,0,0,289.6709,297.2205Z" transform="translate(0)"/><path class="cls-2" d="M289.6709,297.2205a9.9025,9.9025,0,1,0-9.9026-9.9025A9.9025,9.9025,0,0,0,289.6709,297.2205Z" transform="translate(0)"/><path class="cls-2" d="M238.2155,247.7077,221.0638,257.61a79.222,79.222,0,0,0,28.9967,28.9968l9.9026-17.1518A59.4153,59.4153,0,0,1,238.2155,247.7077ZM221.0639,257.61a9.9026,9.9026,0,1,0,3.6246-13.5272A9.9026,9.9026,0,0,0,221.0639,257.61Zm28.9966,28.9967a9.9026,9.9026,0,1,0-3.6246-13.5272A9.9025,9.9025,0,0,0,250.0605,286.6071Z" transform="translate(0)"/><path class="cls-2" d="M250.0605,286.6071a9.9026,9.9026,0,1,0-3.6246-13.5272A9.9025,9.9025,0,0,0,250.0605,286.6071Z" transform="translate(0)"/><path class="cls-2" d="M221.0639,257.61a9.9026,9.9026,0,1,0,3.6246-13.5272A9.9026,9.9026,0,0,0,221.0639,257.61Z" transform="translate(0)"/><path class="cls-2" d="M259.9631,166.5447l-9.9026-17.1517A79.2212,79.2212,0,0,0,221.0638,178.39l17.1517,9.9025A59.4163,59.4163,0,0,1,259.9631,166.5447Zm-9.9026-17.1517a9.9026,9.9026,0,1,0,13.5272,3.6247A9.9026,9.9026,0,0,0,250.0605,149.393ZM221.0639,178.39a9.9026,9.9026,0,1,0,13.5272-3.6246A9.9025,9.9025,0,0,0,221.0639,178.39Z" transform="translate(0)"/><path class="cls-2" d="M221.0639,178.39a9.9026,9.9026,0,1,0,13.5272-3.6246A9.9025,9.9025,0,0,0,221.0639,178.39Z" transform="translate(0)"/><path class="cls-2" d="M289.6709,158.5845V138.7794a79.22,79.22,0,0,0-39.61,10.6136l9.9026,17.1517a59.4152,59.4152,0,0,1,29.7078-7.96Zm0-19.8051a9.9026,9.9026,0,1,0,9.9026,9.9026A9.9025,9.9025,0,0,0,289.6709,138.7794Zm-39.61,10.6136a9.9026,9.9026,0,1,0,13.5272,3.6247A9.9026,9.9026,0,0,0,250.0605,149.393Z" transform="translate(0)"/><path class="cls-2" d="M250.0605,149.393a9.9026,9.9026,0,1,0,13.5272,3.6247A9.9026,9.9026,0,0,0,250.0605,149.393Z" transform="translate(0)"/><path class="cls-2" d="M233.9752,175.8316A9.9026,9.9026,0,1,0,237.6,189.3588,9.9026,9.9026,0,0,0,233.9752,175.8316Z" transform="translate(0)"/><path class="cls-2" d="M298.342,287.318a9.9026,9.9026,0,1,0-9.9026,9.9025A9.9025,9.9025,0,0,0,298.342,287.318Z" transform="translate(0)"/><path class="cls-2" d="M209.2188,217.289a9.9026,9.9026,0,1,0-13.5272-3.6246A9.9025,9.9025,0,0,0,209.2188,217.289Z" transform="translate(0)"/><path class="cls-2" d="M238.2155,247.7077,221.0638,257.61a79.2205,79.2205,0,0,0,68.607,39.61V277.4154a59.4155,59.4155,0,0,1-51.4553-29.7077ZM221.0639,257.61a9.9026,9.9026,0,1,0,3.6246-13.5272A9.9026,9.9026,0,0,0,221.0639,257.61Zm68.607,39.61a9.9025,9.9025,0,1,0-9.9026-9.9025A9.9025,9.9025,0,0,0,289.6709,297.2205Z" transform="translate(0)"/><path class="cls-2" d="M250.0605,286.6071a9.9026,9.9026,0,1,0-3.6246-13.5272A9.9025,9.9025,0,0,0,250.0605,286.6071Z" transform="translate(0)"/><path class="cls-3" d="M272.5191,227.9026a9.9026,9.9026,0,1,0-3.6246,13.5272A9.9027,9.9027,0,0,0,272.5191,227.9026Z" transform="translate(0)"/><path class="cls-2" d="M238.2155,247.7077a9.9026,9.9026,0,1,0-3.6246,13.5272A9.9027,9.9027,0,0,0,238.2155,247.7077Z" transform="translate(0)"/><path class="cls-2" d="M281,287.318a9.9026,9.9026,0,1,0,9.9026-9.9025A9.9025,9.9025,0,0,0,281,287.318Z" transform="translate(0)"/><path class="cls-2" d="M345.3665,175.8316a9.9026,9.9026,0,1,0,13.5272,3.6247A9.9025,9.9025,0,0,0,345.3665,175.8316Z" transform="translate(0)"/><path class="cls-2" d="M289.6709,277.4155v19.805a79.22,79.22,0,0,0,68.607-39.61l-17.1517-9.9025a59.4156,59.4156,0,0,1-51.4554,29.7077Zm0,19.805a9.9025,9.9025,0,1,0-9.9026-9.9025A9.9025,9.9025,0,0,0,289.6709,297.2205Zm68.607-39.61a9.9026,9.9026,0,1,0-13.5272,3.6246A9.9025,9.9025,0,0,0,358.2779,257.61Z" transform="translate(0)"/><path class="cls-2" d="M329.2812,286.6071a9.9026,9.9026,0,1,0-13.5272-3.6247A9.9026,9.9026,0,0,0,329.2812,286.6071Z" transform="translate(0)"/><path class="cls-2" d="M341.1262,247.7077,358.278,257.61a79.2206,79.2206,0,0,0,0-79.2206l-17.1518,9.9025a59.4151,59.4151,0,0,1,0,59.4154Zm17.1517,9.9027a9.9026,9.9026,0,1,0-13.5272,3.6246A9.9025,9.9025,0,0,0,358.2779,257.61Zm0-79.2207a9.9026,9.9026,0,1,0-3.6246,13.5272A9.9026,9.9026,0,0,0,358.2779,178.39Z" transform="translate(0)"/><path class="cls-2" d="M368.8915,218a9.9026,9.9026,0,1,0-9.9025,9.9026A9.9025,9.9025,0,0,0,368.8915,218Z" transform="translate(0)"/><path class="cls-3" d="M306.8227,227.9026a9.9026,9.9026,0,1,0,13.5272-3.6247A9.9025,9.9025,0,0,0,306.8227,227.9026Z" transform="translate(0)"/><path class="cls-2" d="M375.43,267.5129a9.9026,9.9026,0,1,0,13.5272-3.6246A9.9026,9.9026,0,0,0,375.43,267.5129Z" transform="translate(0)"/><path class="cls-2" d="M341.1262,247.7077a9.9026,9.9026,0,1,0,13.5272-3.6247A9.9026,9.9026,0,0,0,341.1262,247.7077Z" transform="translate(0)"/><path class="cls-2" d="M354.0376,245.15a9.9026,9.9026,0,1,0,3.6246,13.5272A9.9026,9.9026,0,0,0,354.0376,245.15Z" transform="translate(0)"/><path class="cls-2" d="M225.3041,245.15a9.9026,9.9026,0,1,0,13.5272,3.6247A9.9026,9.9026,0,0,0,225.3041,245.15Z" transform="translate(0)"/><path class="cls-2" d="M289.6709,277.4155v19.805a79.22,79.22,0,0,0,68.607-39.61l-17.1517-9.9025a59.4156,59.4156,0,0,1-51.4554,29.7077Zm0,19.805a9.9025,9.9025,0,1,0-9.9026-9.9025A9.9025,9.9025,0,0,0,289.6709,297.2205Zm68.607-39.61a9.9026,9.9026,0,1,0-13.5272,3.6246A9.9025,9.9025,0,0,0,358.2779,257.61Z" transform="translate(0)"/><path class="cls-2" d="M329.2812,286.6071a9.9026,9.9026,0,1,0-13.5272-3.6247A9.9026,9.9026,0,0,0,329.2812,286.6071Z" transform="translate(0)"/><path class="cls-2" d="M238.2155,247.7077,221.0638,257.61a79.2205,79.2205,0,0,0,68.607,39.61V277.4154a59.4155,59.4155,0,0,1-51.4553-29.7077ZM221.0639,257.61a9.9026,9.9026,0,1,0,3.6246-13.5272A9.9026,9.9026,0,0,0,221.0639,257.61Zm68.607,39.61a9.9025,9.9025,0,1,0-9.9026-9.9025A9.9025,9.9025,0,0,0,289.6709,297.2205Z" transform="translate(0)"/><path class="cls-2" d="M250.0605,286.6071a9.9026,9.9026,0,1,0-3.6246-13.5272A9.9025,9.9025,0,0,0,250.0605,286.6071Z" transform="translate(0)"/><path class="cls-3" d="M289.6709,237.8051a9.9026,9.9026,0,1,0,9.9026,9.9026A9.9026,9.9026,0,0,0,289.6709,237.8051Z" transform="translate(0)"/><path class="cls-2" d="M289.6709,317.0257a9.9026,9.9026,0,1,0,9.9026,9.9026A9.9026,9.9026,0,0,0,289.6709,317.0257Z" transform="translate(0)"/><path class="cls-2" d="M289.6709,277.4155a9.9025,9.9025,0,1,0,9.9026,9.9025A9.9025,9.9025,0,0,0,289.6709,277.4155Z" transform="translate(0)"/></svg>