<svg id="Layer_1" data-name="Layer 1" xmlns="http://www.w3.org/2000/svg" viewBox="0 0 580 436"><defs><style>.cls-1{fill:#00507a;}.cls-2{fill:#3cd6b7;}</style></defs><title>thing3</title><rect class="cls-1" width="580" height="436" rx="14.54"/><path class="cls-2" d="M323.27,141l-10.12,5.84a23.35,23.35,0,0,0,20.24,11.69V146.84A11.68,11.68,0,0,1,323.27,141Zm-10.12,5.84a5.84,5.84,0,1,0,2.14-8A5.83,5.83,0,0,0,313.15,146.84Zm20.24,11.69a5.85,5.85,0,1,0-5.84-5.84A5.84,5.84,0,0,0,333.39,158.53Z"/><path class="cls-2" d="M206.09,160.94l-11.29-3a70.11,70.11,0,0,0,7,53.22l10.13-5.85a58.43,58.43,0,0,1-5.84-44.34Zm-11.29-3a5.84,5.84,0,1,0,7.16-4.13A5.84,5.84,0,0,0,194.8,157.91Zm7,53.22a5.85,5.85,0,1,0,2.14-8A5.86,5.86,0,0,0,201.8,211.13Z"/><path class="cls-2" d="M313.15,146.84,323.27,141a70.13,70.13,0,0,0-116.37-7.63l9.27,7.12a58.45,58.45,0,0,1,97,6.35ZM323.27,141a5.84,5.84,0,1,0-2.14,8A5.84,5.84,0,0,0,323.27,141ZM206.9,133.37a5.84,5.84,0,1,0,8.19-1.08A5.86,5.86,0,0,0,206.9,133.37Z"/><path class="cls-2" d="M333.39,287.1V275.41a23.37,23.37,0,0,0-20.24,11.69L323.27,293a11.69,11.69,0,0,1,10.12-5.85Zm0-11.69a5.85,5.85,0,1,0,5.85,5.85A5.85,5.85,0,0,0,333.39,275.41ZM313.15,287.1a5.84,5.84,0,1,0,8-2.14A5.83,5.83,0,0,0,313.15,287.1Z"/><path class="cls-2" d="M344.79,159.66l2.28-11.47a70.51,70.51,0,0,0-13.68-1.35v11.69a58.14,58.14,0,0,1,11.4,1.13Zm2.28-11.47a5.85,5.85,0,1,0,4.6,6.87,5.85,5.85,0,0,0-4.6-6.87Zm-13.68-1.35a5.85,5.85,0,1,0,5.85,5.85A5.85,5.85,0,0,0,333.39,146.84Z"/><path class="cls-2" d="M355.76,163l4.47-10.8a70.1,70.1,0,0,0-13.16-4l-2.28,11.47a58.3,58.3,0,0,1,11,3.32Zm4.47-10.8a5.84,5.84,0,1,0,3.16,7.64A5.85,5.85,0,0,0,360.23,152.18Zm-13.16-4a5.85,5.85,0,1,0,4.6,6.87,5.85,5.85,0,0,0-4.6-6.87Z"/><path class="cls-2" d="M383,167.38a5.84,5.84,0,1,0,0,8.27A5.84,5.84,0,0,0,383,167.38Z"/><path class="cls-2" d="M333.39,275.41V287.1a70.12,70.12,0,0,0,64.79-97l-10.8,4.47a58.44,58.44,0,0,1-54,80.8Zm0,11.69a5.85,5.85,0,1,0-5.84-5.84A5.85,5.85,0,0,0,333.39,287.1Zm64.79-97a5.84,5.84,0,1,0-3.16,7.63A5.84,5.84,0,0,0,398.18,190.14Z"/><path class="cls-2" d="M201.8,222.82l10.13,5.84a23.41,23.41,0,0,0,0-23.38l-10.13,5.85a11.68,11.68,0,0,1,0,11.69Zm10.13,5.84a5.85,5.85,0,1,0-8,2.14A5.85,5.85,0,0,0,211.93,228.66Zm0-23.38a5.85,5.85,0,1,0-2.14,8A5.85,5.85,0,0,0,211.93,205.28Z"/><path class="cls-2" d="M306.48,296.41l8.78,7.71a70.43,70.43,0,0,0,8-11.17l-10.12-5.85a58.45,58.45,0,0,1-6.67,9.31Zm8.78,7.71a5.85,5.85,0,1,0-8.24.54A5.84,5.84,0,0,0,315.26,304.12Zm8-11.17a5.84,5.84,0,1,0-8,2.13A5.85,5.85,0,0,0,323.27,293Z"/><path class="cls-2" d="M298.11,304.24l7.12,9.28a70.83,70.83,0,0,0,10-9.4l-8.78-7.71A58.52,58.52,0,0,1,298.11,304.24Zm7.12,9.28a5.85,5.85,0,1,0-8.2-1.08A5.86,5.86,0,0,0,305.23,313.52Zm10-9.4a5.85,5.85,0,1,0-8.24.54A5.84,5.84,0,0,0,315.26,304.12Z"/><path class="cls-2" d="M280.69,325.62a5.84,5.84,0,1,0-7.16-4.13A5.84,5.84,0,0,0,280.69,325.62Z"/><path class="cls-2" d="M211.93,228.66l-10.13-5.84a70.14,70.14,0,0,0,51.58,104.59l1.53-11.59a58.44,58.44,0,0,1-43-87.16Zm-10.13-5.84a5.85,5.85,0,1,0,8-2.14A5.85,5.85,0,0,0,201.8,222.82Zm51.58,104.59a5.85,5.85,0,1,0-5-6.56A5.85,5.85,0,0,0,253.38,327.41Z"/><path class="cls-2" d="M222.05,281.26a46.75,46.75,0,1,1,63.86,17.11A46.76,46.76,0,0,1,222.05,281.26Zm10.12-5.85A35.06,35.06,0,1,0,245,227.51,35.07,35.07,0,0,0,232.17,275.41Zm60.73-35.06a46.75,46.75,0,1,1,63.87,17.11A46.76,46.76,0,0,1,292.9,240.35ZM303,234.5a35.06,35.06,0,1,0,12.83-47.89A35,35,0,0,0,303,234.5ZM266,223q.58-5.82,1.16-11.63a23.4,23.4,0,0,0,23.62-13.64l10.65,4.81a35,35,0,0,0,1.59,32l-10.13,5.85A35,35,0,0,0,266,223Zm28.48,49.33a35,35,0,0,0-1.59-32L303,234.5a35,35,0,0,0,26.89,17.37q-.59,5.81-1.16,11.63a23.41,23.41,0,0,0-23.62,13.63l-10.65-4.81Zm-31.95,32.31a46.75,46.75,0,1,1,46.75-46.75A46.75,46.75,0,0,1,262.54,304.63Zm0-11.68a35.07,35.07,0,1,0-35.07-35.07A35.07,35.07,0,0,0,262.54,293Zm0-70.13a46.76,46.76,0,1,1,46.75-46.76A46.76,46.76,0,0,1,262.54,222.82Zm0-11.69a35.07,35.07,0,1,0-35.07-35.07A35.07,35.07,0,0,0,262.54,211.13Zm-28.49,26.3-9.49-6.82a23.37,23.37,0,0,0,0-27.27l9.49-6.82a35,35,0,0,0,28.49,14.61v11.69A35,35,0,0,0,234.05,237.43Zm57,0a35,35,0,0,0-28.48-14.61V211.13A35,35,0,0,0,291,196.52l9.5,6.82a23.37,23.37,0,0,0,0,27.27Zm82.86,2.92a46.75,46.75,0,1,1-17.11-63.87A46.75,46.75,0,0,1,373.88,240.35Zm-10.12-5.85a35.06,35.06,0,1,0-47.9,12.84A35,35,0,0,0,363.76,234.5ZM303,199.44a46.75,46.75,0,1,1-17.12-63.86A46.76,46.76,0,0,1,303,199.44ZM292.9,193.6A35.06,35.06,0,1,0,245,206.43,35.06,35.06,0,0,0,292.9,193.6Zm8.54,37.81-10.65,4.82a23.4,23.4,0,0,0-23.62-13.64q-.59-5.82-1.16-11.63A35,35,0,0,0,292.9,193.6L303,199.44a35,35,0,0,0-1.59,32Zm28.48-49.33A35,35,0,0,0,303,199.44L292.9,193.6a35,35,0,0,0,1.59-32l10.66-4.81a23.37,23.37,0,0,0,23.61,13.64q.58,5.81,1.16,11.63Z"/></svg>