<?xml version="1.0" encoding="utf-8"?>
<!-- Generator: Adobe Illustrator 24.1.0, SVG Export Plug-In . SVG Version: 6.00 Build 0)  -->
<svg version="1.1" id="Layer_1" xmlns="http://www.w3.org/2000/svg" xmlns:xlink="http://www.w3.org/1999/xlink" x="0px" y="0px"
	 viewBox="0 0 580 436" style="enable-background:new 0 0 580 436;" xml:space="preserve">
<style type="text/css">
	.st0{fill:#D0133B;}
	.st1{fill:#FFA2B6;}
</style>
<path class="st0" d="M565.5,436H14.5c-8,0-14.5-6.5-14.5-14.5V14.5C0,6.5,6.5,0,14.5,0h550.9c8,0,14.5,6.5,14.5,14.5v406.9
	C580,429.5,573.5,436,565.5,436z"/>
<g>
	<g>
		<path class="st1" d="M221.2,143.6v-11.4c-16.3,0-31.4,8.7-39.6,22.9l9.9,5.7C197.7,150.1,209,143.6,221.2,143.6L221.2,143.6z
			 M221.2,132.2c-3.2,0-5.7,2.6-5.7,5.7c0,3.2,2.6,5.7,5.7,5.7c3.2,0,5.7-2.6,5.7-5.7C226.9,134.7,224.4,132.2,221.2,132.2z
			 M181.6,155c-1.6,2.7-0.6,6.2,2.1,7.8c2.7,1.6,6.2,0.6,7.8-2.1c1.6-2.7,0.6-6.2-2.1-7.8C186.7,151.4,183.2,152.3,181.6,155z"/>
	</g>
	<g>
		<path class="st1" d="M198.4,138.3c-2.7,1.6-3.7,5.1-2.1,7.8c1.6,2.7,5.1,3.7,7.8,2.1c2.7-1.6,3.7-5.1,2.1-7.8
			C204.6,137.7,201.1,136.7,198.4,138.3z"/>
	</g>
	<g>
		<path class="st1" d="M191.5,160.7l-9.9-5.7c-8.2,14.1-8.2,31.6,0,45.7l9.9-5.7C185.4,184.4,185.4,171.4,191.5,160.7L191.5,160.7z
			 M181.6,155c-1.6,2.7-0.6,6.2,2.1,7.8c2.7,1.6,6.2,0.6,7.8-2.1c1.6-2.7,0.6-6.2-2.1-7.8C186.7,151.4,183.2,152.3,181.6,155z
			 M181.6,200.7c1.6,2.7,5.1,3.7,7.8,2.1c2.7-1.6,3.7-5.1,2.1-7.8c-1.6-2.7-5.1-3.7-7.8-2.1C181,194.5,180.1,198,181.6,200.7z"/>
	</g>
	<g>
		<path class="st1" d="M175.5,177.9c0,3.2,2.6,5.7,5.7,5.7c3.2,0,5.7-2.6,5.7-5.7c0-3.2-2.6-5.7-5.7-5.7
			C178.1,172.2,175.5,174.7,175.5,177.9z"/>
	</g>
	<g>
		<path class="st1" d="M191.5,160.7l-9.9-5.7c-8.2,14.1-8.2,31.6,0,45.7l9.9-5.7C185.4,184.4,185.4,171.4,191.5,160.7L191.5,160.7z
			 M181.6,155c-1.6,2.7-0.6,6.2,2.1,7.8c2.7,1.6,6.2,0.6,7.8-2.1c1.6-2.7,0.6-6.2-2.1-7.8C186.7,151.4,183.2,152.3,181.6,155z
			 M181.6,200.7c1.6,2.7,5.1,3.7,7.8,2.1c2.7-1.6,3.7-5.1,2.1-7.8c-1.6-2.7-5.1-3.7-7.8-2.1C181,194.5,180.1,198,181.6,200.7z"/>
	</g>
	<g>
		<path class="st1" d="M175.5,177.9c0,3.2,2.6,5.7,5.7,5.7c3.2,0,5.7-2.6,5.7-5.7c0-3.2-2.6-5.7-5.7-5.7
			C178.1,172.2,175.5,174.7,175.5,177.9z"/>
	</g>
	<g>
		<path class="st1" d="M181.6,235l9.9,5.7c8.2-14.1,8.2-31.6,0-45.7l-9.9,5.7C187.8,211.3,187.8,224.4,181.6,235z M191.5,240.7
			c1.6-2.7,0.6-6.2-2.1-7.8c-2.7-1.6-6.2-0.6-7.8,2.1c-1.6,2.7-0.6,6.2,2.1,7.8C186.5,244.4,190,243.5,191.5,240.7z M191.5,195
			c-1.6-2.7-5.1-3.7-7.8-2.1c-2.7,1.6-3.7,5.1-2.1,7.8c1.6,2.7,5.1,3.7,7.8,2.1C192.2,201.3,193.1,197.8,191.5,195z"/>
	</g>
	<g>
		<path class="st1" d="M197.7,217.9c0-3.2-2.6-5.7-5.7-5.7c-3.2,0-5.7,2.6-5.7,5.7c0,3.2,2.6,5.7,5.7,5.7S197.7,221,197.7,217.9z"/>
	</g>
	<g>
		<path class="st1" d="M191.5,240.7l-9.9-5.7c-8.2,14.1-8.2,31.6,0,45.7l9.9-5.7C185.4,264.4,185.4,251.3,191.5,240.7z M181.6,235
			c-1.6,2.7-0.6,6.2,2.1,7.8c2.7,1.6,6.2,0.6,7.8-2.1c1.6-2.7,0.6-6.2-2.1-7.8C186.7,231.4,183.2,232.3,181.6,235z M181.6,280.7
			c1.6,2.7,5.1,3.7,7.8,2.1c2.7-1.6,3.7-5.1,2.1-7.8c-1.6-2.7-5.1-3.7-7.8-2.1C181,274.5,180.1,278,181.6,280.7z"/>
	</g>
	<g>
		<path class="st1" d="M175.5,257.9c0,3.2,2.6,5.7,5.7,5.7c3.2,0,5.7-2.6,5.7-5.7c0-3.2-2.6-5.7-5.7-5.7S175.5,254.7,175.5,257.9z"
			/>
	</g>
	<g>
		<path class="st1" d="M181.6,235l9.9,5.7c8.2-14.1,8.2-31.6,0-45.7l-9.9,5.7C187.8,211.3,187.8,224.4,181.6,235z M191.5,240.7
			c1.6-2.7,0.6-6.2-2.1-7.8c-2.7-1.6-6.2-0.6-7.8,2.1c-1.6,2.7-0.6,6.2,2.1,7.8C186.5,244.4,190,243.5,191.5,240.7z M191.5,195
			c-1.6-2.7-5.1-3.7-7.8-2.1c-2.7,1.6-3.7,5.1-2.1,7.8c1.6,2.7,5.1,3.7,7.8,2.1C192.2,201.3,193.1,197.8,191.5,195z"/>
	</g>
	<g>
		<path class="st1" d="M197.7,217.9c0-3.2-2.6-5.7-5.7-5.7c-3.2,0-5.7,2.6-5.7,5.7c0,3.2,2.6,5.7,5.7,5.7S197.7,221,197.7,217.9z"/>
	</g>
	<g>
		<path class="st1" d="M191.5,240.7l-9.9-5.7c-8.2,14.1-8.2,31.6,0,45.7l9.9-5.7C185.4,264.4,185.4,251.3,191.5,240.7z M181.6,235
			c-1.6,2.7-0.6,6.2,2.1,7.8c2.7,1.6,6.2,0.6,7.8-2.1c1.6-2.7,0.6-6.2-2.1-7.8C186.7,231.4,183.2,232.3,181.6,235z M181.6,280.7
			c1.6,2.7,5.1,3.7,7.8,2.1c2.7-1.6,3.7-5.1,2.1-7.8c-1.6-2.7-5.1-3.7-7.8-2.1C181,274.5,180.1,278,181.6,280.7z"/>
	</g>
	<g>
		<path class="st1" d="M175.5,257.9c0,3.2,2.6,5.7,5.7,5.7c3.2,0,5.7-2.6,5.7-5.7c0-3.2-2.6-5.7-5.7-5.7S175.5,254.7,175.5,257.9z"
			/>
	</g>
	<g>
		<path class="st1" d="M191.5,275l-9.9,5.7c8.2,14.1,23.3,22.9,39.6,22.9v-11.4C209,292.1,197.7,285.6,191.5,275L191.5,275z
			 M181.6,280.7c1.6,2.7,5.1,3.7,7.8,2.1c2.7-1.6,3.7-5.1,2.1-7.8c-1.6-2.7-5.1-3.7-7.8-2.1C181,274.5,180.1,278,181.6,280.7z
			 M221.2,303.6c3.2,0,5.7-2.6,5.7-5.7c0-3.2-2.6-5.7-5.7-5.7c-3.2,0-5.7,2.6-5.7,5.7C215.5,301,218.1,303.6,221.2,303.6z"/>
	</g>
	<g>
		<path class="st1" d="M198.4,297.5c2.7,1.6,6.2,0.6,7.8-2.1c1.6-2.7,0.6-6.2-2.1-7.8s-6.2-0.6-7.8,2.1S195.6,295.9,198.4,297.5z"/>
	</g>
	<g>
		<path class="st1" d="M290.5,103.6V92.2c-16.3,0-31.4,8.7-39.6,22.9l9.9,5.7C266.9,110.2,278.2,103.6,290.5,103.6L290.5,103.6z
			 M290.5,92.2c-3.2,0-5.7,2.6-5.7,5.7c0,3.2,2.6,5.7,5.7,5.7c3.2,0,5.7-2.6,5.7-5.7C296.2,94.8,293.6,92.2,290.5,92.2z M250.9,115
			c-1.6,2.7-0.6,6.2,2.1,7.8c2.7,1.6,6.2,0.6,7.8-2.1c1.6-2.7,0.6-6.2-2.1-7.8C256,111.4,252.5,112.3,250.9,115z"/>
	</g>
	<g>
		<path class="st1" d="M267.6,98.3c-2.7,1.6-3.7,5.1-2.1,7.8c1.6,2.7,5.1,3.7,7.8,2.1c2.7-1.6,3.7-5.1,2.1-7.8
			C273.9,97.7,270.4,96.7,267.6,98.3z"/>
	</g>
	<g>
		<path class="st1" d="M221.2,132.2v11.4c16.3,0,31.4-8.7,39.6-22.9l-9.9-5.7C244.8,125.7,233.5,132.2,221.2,132.2L221.2,132.2z
			 M221.2,143.6c3.2,0,5.7-2.6,5.7-5.7c0-3.2-2.6-5.7-5.7-5.7c-3.2,0-5.7,2.6-5.7,5.7C215.5,141.1,218.1,143.6,221.2,143.6z
			 M260.8,120.8c1.6-2.7,0.6-6.2-2.1-7.8c-2.7-1.6-6.2-0.6-7.8,2.1s-0.6,6.2,2.1,7.8C255.7,124.4,259.2,123.5,260.8,120.8z"/>
	</g>
	<g>
		<path class="st1" d="M244.1,137.5c2.7-1.6,3.7-5.1,2.1-7.8c-1.6-2.7-5.1-3.7-7.8-2.1c-2.7,1.6-3.7,5.1-2.1,7.8
			C237.8,138.1,241.3,139.1,244.1,137.5z"/>
	</g>
	<g>
		<path class="st1" d="M221.2,143.6v-11.4c-16.3,0-31.4,8.7-39.6,22.9l9.9,5.7C197.7,150.1,209,143.6,221.2,143.6L221.2,143.6z
			 M221.2,132.2c-3.2,0-5.7,2.6-5.7,5.7c0,3.2,2.6,5.7,5.7,5.7c3.2,0,5.7-2.6,5.7-5.7C226.9,134.7,224.4,132.2,221.2,132.2z
			 M181.6,155c-1.6,2.7-0.6,6.2,2.1,7.8c2.7,1.6,6.2,0.6,7.8-2.1c1.6-2.7,0.6-6.2-2.1-7.8C186.7,151.4,183.2,152.3,181.6,155z"/>
	</g>
	<g>
		<path class="st1" d="M198.4,138.3c-2.7,1.6-3.7,5.1-2.1,7.8c1.6,2.7,5.1,3.7,7.8,2.1c2.7-1.6,3.7-5.1,2.1-7.8
			C204.6,137.7,201.1,136.7,198.4,138.3z"/>
	</g>
	<g>
		<path class="st1" d="M221.2,132.2v11.4c16.3,0,31.4-8.7,39.6-22.9l-9.9-5.7C244.8,125.7,233.5,132.2,221.2,132.2L221.2,132.2z
			 M221.2,143.6c3.2,0,5.7-2.6,5.7-5.7c0-3.2-2.6-5.7-5.7-5.7c-3.2,0-5.7,2.6-5.7,5.7C215.5,141.1,218.1,143.6,221.2,143.6z
			 M260.8,120.8c1.6-2.7,0.6-6.2-2.1-7.8c-2.7-1.6-6.2-0.6-7.8,2.1s-0.6,6.2,2.1,7.8C255.7,124.4,259.2,123.5,260.8,120.8z"/>
	</g>
	<g>
		<path class="st1" d="M244.1,137.5c2.7-1.6,3.7-5.1,2.1-7.8c-1.6-2.7-5.1-3.7-7.8-2.1c-2.7,1.6-3.7,5.1-2.1,7.8
			C237.8,138.1,241.3,139.1,244.1,137.5z"/>
	</g>
	<g>
		<path class="st1" d="M221.2,143.6v-11.4c-16.3,0-31.4,8.7-39.6,22.9l9.9,5.7C197.7,150.1,209,143.6,221.2,143.6L221.2,143.6z
			 M221.2,132.2c-3.2,0-5.7,2.6-5.7,5.7c0,3.2,2.6,5.7,5.7,5.7c3.2,0,5.7-2.6,5.7-5.7C226.9,134.7,224.4,132.2,221.2,132.2z
			 M181.6,155c-1.6,2.7-0.6,6.2,2.1,7.8c2.7,1.6,6.2,0.6,7.8-2.1c1.6-2.7,0.6-6.2-2.1-7.8C186.7,151.4,183.2,152.3,181.6,155z"/>
	</g>
	<g>
		<path class="st1" d="M198.4,138.3c-2.7,1.6-3.7,5.1-2.1,7.8c1.6,2.7,5.1,3.7,7.8,2.1c2.7-1.6,3.7-5.1,2.1-7.8
			C204.6,137.7,201.1,136.7,198.4,138.3z"/>
	</g>
	<g>
		<path class="st1" d="M221.2,132.2v11.4c16.3,0,31.4-8.7,39.6-22.9l-9.9-5.7C244.8,125.7,233.5,132.2,221.2,132.2L221.2,132.2z
			 M221.2,143.6c3.2,0,5.7-2.6,5.7-5.7c0-3.2-2.6-5.7-5.7-5.7c-3.2,0-5.7,2.6-5.7,5.7C215.5,141.1,218.1,143.6,221.2,143.6z
			 M260.8,120.8c1.6-2.7,0.6-6.2-2.1-7.8c-2.7-1.6-6.2-0.6-7.8,2.1s-0.6,6.2,2.1,7.8C255.7,124.4,259.2,123.5,260.8,120.8z"/>
	</g>
	<g>
		<path class="st1" d="M244.1,137.5c2.7-1.6,3.7-5.1,2.1-7.8c-1.6-2.7-5.1-3.7-7.8-2.1c-2.7,1.6-3.7,5.1-2.1,7.8
			C237.8,138.1,241.3,139.1,244.1,137.5z"/>
	</g>
	<g>
		<path class="st1" d="M181.6,235l9.9,5.7c8.2-14.1,8.2-31.6,0-45.7l-9.9,5.7C187.8,211.3,187.8,224.4,181.6,235z M191.5,240.7
			c1.6-2.7,0.6-6.2-2.1-7.8c-2.7-1.6-6.2-0.6-7.8,2.1c-1.6,2.7-0.6,6.2,2.1,7.8C186.5,244.4,190,243.5,191.5,240.7z M191.5,195
			c-1.6-2.7-5.1-3.7-7.8-2.1c-2.7,1.6-3.7,5.1-2.1,7.8c1.6,2.7,5.1,3.7,7.8,2.1C192.2,201.3,193.1,197.8,191.5,195z"/>
	</g>
	<g>
		<path class="st1" d="M197.7,217.9c0-3.2-2.6-5.7-5.7-5.7c-3.2,0-5.7,2.6-5.7,5.7c0,3.2,2.6,5.7,5.7,5.7S197.7,221,197.7,217.9z"/>
	</g>
	<g>
		<path class="st1" d="M191.5,160.7l-9.9-5.7c-8.2,14.1-8.2,31.6,0,45.7l9.9-5.7C185.4,184.4,185.4,171.4,191.5,160.7L191.5,160.7z
			 M181.6,155c-1.6,2.7-0.6,6.2,2.1,7.8c2.7,1.6,6.2,0.6,7.8-2.1c1.6-2.7,0.6-6.2-2.1-7.8C186.7,151.4,183.2,152.3,181.6,155z
			 M181.6,200.7c1.6,2.7,5.1,3.7,7.8,2.1c2.7-1.6,3.7-5.1,2.1-7.8c-1.6-2.7-5.1-3.7-7.8-2.1C181,194.5,180.1,198,181.6,200.7z"/>
	</g>
	<g>
		<path class="st1" d="M175.5,177.9c0,3.2,2.6,5.7,5.7,5.7c3.2,0,5.7-2.6,5.7-5.7c0-3.2-2.6-5.7-5.7-5.7
			C178.1,172.2,175.5,174.7,175.5,177.9z"/>
	</g>
	<g>
		<path class="st1" d="M221.2,143.6v-11.4c-16.3,0-31.4,8.7-39.6,22.9l9.9,5.7C197.7,150.1,209,143.6,221.2,143.6L221.2,143.6z
			 M221.2,132.2c-3.2,0-5.7,2.6-5.7,5.7c0,3.2,2.6,5.7,5.7,5.7c3.2,0,5.7-2.6,5.7-5.7C226.9,134.7,224.4,132.2,221.2,132.2z
			 M181.6,155c-1.6,2.7-0.6,6.2,2.1,7.8c2.7,1.6,6.2,0.6,7.8-2.1c1.6-2.7,0.6-6.2-2.1-7.8C186.7,151.4,183.2,152.3,181.6,155z"/>
	</g>
	<g>
		<path class="st1" d="M198.4,138.3c-2.7,1.6-3.7,5.1-2.1,7.8c1.6,2.7,5.1,3.7,7.8,2.1c2.7-1.6,3.7-5.1,2.1-7.8
			C204.6,137.7,201.1,136.7,198.4,138.3z"/>
	</g>
	<g>
		<path class="st1" d="M191.5,160.7l-9.9-5.7c-8.2,14.1-8.2,31.6,0,45.7l9.9-5.7C185.4,184.4,185.4,171.4,191.5,160.7L191.5,160.7z
			 M181.6,155c-1.6,2.7-0.6,6.2,2.1,7.8c2.7,1.6,6.2,0.6,7.8-2.1c1.6-2.7,0.6-6.2-2.1-7.8C186.7,151.4,183.2,152.3,181.6,155z
			 M181.6,200.7c1.6,2.7,5.1,3.7,7.8,2.1c2.7-1.6,3.7-5.1,2.1-7.8c-1.6-2.7-5.1-3.7-7.8-2.1C181,194.5,180.1,198,181.6,200.7z"/>
	</g>
	<g>
		<path class="st1" d="M175.5,177.9c0,3.2,2.6,5.7,5.7,5.7c3.2,0,5.7-2.6,5.7-5.7c0-3.2-2.6-5.7-5.7-5.7
			C178.1,172.2,175.5,174.7,175.5,177.9z"/>
	</g>
	<g>
		<path class="st1" d="M181.6,235l9.9,5.7c8.2-14.1,8.2-31.6,0-45.7l-9.9,5.7C187.8,211.3,187.8,224.4,181.6,235z M191.5,240.7
			c1.6-2.7,0.6-6.2-2.1-7.8c-2.7-1.6-6.2-0.6-7.8,2.1c-1.6,2.7-0.6,6.2,2.1,7.8C186.5,244.4,190,243.5,191.5,240.7z M191.5,195
			c-1.6-2.7-5.1-3.7-7.8-2.1c-2.7,1.6-3.7,5.1-2.1,7.8c1.6,2.7,5.1,3.7,7.8,2.1C192.2,201.3,193.1,197.8,191.5,195z"/>
	</g>
	<g>
		<path class="st1" d="M197.7,217.9c0-3.2-2.6-5.7-5.7-5.7c-3.2,0-5.7,2.6-5.7,5.7c0,3.2,2.6,5.7,5.7,5.7S197.7,221,197.7,217.9z"/>
	</g>
	<g>
		<path class="st1" d="M250.9,320.7l9.9-5.7c-8.2-14.1-23.3-22.9-39.6-22.9l0,11.4C233.5,303.6,244.8,310.1,250.9,320.7L250.9,320.7
			z M260.8,315c-1.6-2.7-5.1-3.7-7.8-2.1c-2.7,1.6-3.7,5.1-2.1,7.8c1.6,2.7,5.1,3.7,7.8,2.1C261.4,321.2,262.4,317.7,260.8,315z
			 M221.2,292.1c-3.2,0-5.7,2.6-5.7,5.7c0,3.2,2.6,5.7,5.7,5.7c3.2,0,5.7-2.6,5.7-5.7C226.9,294.7,224.4,292.1,221.2,292.1z"/>
	</g>
	<g>
		<path class="st1" d="M244.1,298.3c-2.7-1.6-6.2-0.6-7.8,2.1c-1.6,2.7-0.6,6.2,2.1,7.8s6.2,0.6,7.8-2.1
			C247.7,303.3,246.8,299.9,244.1,298.3z"/>
	</g>
	<g>
		<path class="st1" d="M191.5,275l-9.9,5.7c8.2,14.1,23.3,22.9,39.6,22.9v-11.4C209,292.1,197.7,285.6,191.5,275L191.5,275z
			 M181.6,280.7c1.6,2.7,5.1,3.7,7.8,2.1c2.7-1.6,3.7-5.1,2.1-7.8c-1.6-2.7-5.1-3.7-7.8-2.1C181,274.5,180.1,278,181.6,280.7z
			 M221.2,303.6c3.2,0,5.7-2.6,5.7-5.7c0-3.2-2.6-5.7-5.7-5.7c-3.2,0-5.7,2.6-5.7,5.7C215.5,301,218.1,303.6,221.2,303.6z"/>
	</g>
	<g>
		<path class="st1" d="M198.4,297.5c2.7,1.6,6.2,0.6,7.8-2.1c1.6-2.7,0.6-6.2-2.1-7.8s-6.2-0.6-7.8,2.1S195.6,295.9,198.4,297.5z"/>
	</g>
	<g>
		<path class="st1" d="M191.5,240.7l-9.9-5.7c-8.2,14.1-8.2,31.6,0,45.7l9.9-5.7C185.4,264.4,185.4,251.3,191.5,240.7z M181.6,235
			c-1.6,2.7-0.6,6.2,2.1,7.8c2.7,1.6,6.2,0.6,7.8-2.1c1.6-2.7,0.6-6.2-2.1-7.8C186.7,231.4,183.2,232.3,181.6,235z M181.6,280.7
			c1.6,2.7,5.1,3.7,7.8,2.1c2.7-1.6,3.7-5.1,2.1-7.8c-1.6-2.7-5.1-3.7-7.8-2.1C181,274.5,180.1,278,181.6,280.7z"/>
	</g>
	<g>
		<path class="st1" d="M175.5,257.9c0,3.2,2.6,5.7,5.7,5.7c3.2,0,5.7-2.6,5.7-5.7c0-3.2-2.6-5.7-5.7-5.7S175.5,254.7,175.5,257.9z"
			/>
	</g>
	<g>
		<path class="st1" d="M191.5,275l-9.9,5.7c8.2,14.1,23.3,22.9,39.6,22.9v-11.4C209,292.1,197.7,285.6,191.5,275L191.5,275z
			 M181.6,280.7c1.6,2.7,5.1,3.7,7.8,2.1c2.7-1.6,3.7-5.1,2.1-7.8c-1.6-2.7-5.1-3.7-7.8-2.1C181,274.5,180.1,278,181.6,280.7z
			 M221.2,303.6c3.2,0,5.7-2.6,5.7-5.7c0-3.2-2.6-5.7-5.7-5.7c-3.2,0-5.7,2.6-5.7,5.7C215.5,301,218.1,303.6,221.2,303.6z"/>
	</g>
	<g>
		<path class="st1" d="M198.4,297.5c2.7,1.6,6.2,0.6,7.8-2.1c1.6-2.7,0.6-6.2-2.1-7.8s-6.2-0.6-7.8,2.1S195.6,295.9,198.4,297.5z"/>
	</g>
	<g>
		<path class="st1" d="M191.5,240.7l-9.9-5.7c-8.2,14.1-8.2,31.6,0,45.7l9.9-5.7C185.4,264.4,185.4,251.3,191.5,240.7z M181.6,235
			c-1.6,2.7-0.6,6.2,2.1,7.8c2.7,1.6,6.2,0.6,7.8-2.1c1.6-2.7,0.6-6.2-2.1-7.8C186.7,231.4,183.2,232.3,181.6,235z M181.6,280.7
			c1.6,2.7,5.1,3.7,7.8,2.1c2.7-1.6,3.7-5.1,2.1-7.8c-1.6-2.7-5.1-3.7-7.8-2.1C181,274.5,180.1,278,181.6,280.7z"/>
	</g>
	<g>
		<path class="st1" d="M175.5,257.9c0,3.2,2.6,5.7,5.7,5.7c3.2,0,5.7-2.6,5.7-5.7c0-3.2-2.6-5.7-5.7-5.7S175.5,254.7,175.5,257.9z"
			/>
	</g>
	<g>
		<path class="st1" d="M191.5,275l-9.9,5.7c8.2,14.1,23.3,22.9,39.6,22.9v-11.4C209,292.1,197.7,285.6,191.5,275L191.5,275z
			 M181.6,280.7c1.6,2.7,5.1,3.7,7.8,2.1c2.7-1.6,3.7-5.1,2.1-7.8c-1.6-2.7-5.1-3.7-7.8-2.1C181,274.5,180.1,278,181.6,280.7z
			 M221.2,303.6c3.2,0,5.7-2.6,5.7-5.7c0-3.2-2.6-5.7-5.7-5.7c-3.2,0-5.7,2.6-5.7,5.7C215.5,301,218.1,303.6,221.2,303.6z"/>
	</g>
	<g>
		<path class="st1" d="M198.4,297.5c2.7,1.6,6.2,0.6,7.8-2.1c1.6-2.7,0.6-6.2-2.1-7.8s-6.2-0.6-7.8,2.1S195.6,295.9,198.4,297.5z"/>
	</g>
	<g>
		<path class="st1" d="M250.9,320.7l9.9-5.7c-8.2-14.1-23.3-22.9-39.6-22.9l0,11.4C233.5,303.6,244.8,310.1,250.9,320.7L250.9,320.7
			z M260.8,315c-1.6-2.7-5.1-3.7-7.8-2.1c-2.7,1.6-3.7,5.1-2.1,7.8c1.6,2.7,5.1,3.7,7.8,2.1C261.4,321.2,262.4,317.7,260.8,315z
			 M221.2,292.1c-3.2,0-5.7,2.6-5.7,5.7c0,3.2,2.6,5.7,5.7,5.7c3.2,0,5.7-2.6,5.7-5.7C226.9,294.7,224.4,292.1,221.2,292.1z"/>
	</g>
	<g>
		<path class="st1" d="M244.1,298.3c-2.7-1.6-6.2-0.6-7.8,2.1c-1.6,2.7-0.6,6.2,2.1,7.8s6.2,0.6,7.8-2.1
			C247.7,303.3,246.8,299.9,244.1,298.3z"/>
	</g>
	<g>
		<path class="st1" d="M260.8,315l-9.9,5.7c8.2,14.1,23.3,22.9,39.6,22.9v-11.4C278.2,332.1,266.9,325.6,260.8,315L260.8,315z
			 M250.9,320.7c1.6,2.7,5.1,3.7,7.8,2.1c2.7-1.6,3.7-5.1,2.1-7.8c-1.6-2.7-5.1-3.7-7.8-2.1C250.3,314.5,249.3,318,250.9,320.7z
			 M290.5,343.6c3.2,0,5.7-2.6,5.7-5.7c0-3.2-2.6-5.7-5.7-5.7s-5.7,2.6-5.7,5.7C284.8,341,287.3,343.6,290.5,343.6z"/>
	</g>
	<g>
		<path class="st1" d="M267.6,337.4c2.7,1.6,6.2,0.6,7.8-2.1c1.6-2.7,0.6-6.2-2.1-7.8c-2.7-1.6-6.2-0.6-7.8,2.1
			C264,332.4,264.9,335.9,267.6,337.4z"/>
	</g>
	<g>
		<path class="st1" d="M250.9,320.7l9.9-5.7c-8.2-14.1-23.3-22.9-39.6-22.9l0,11.4C233.5,303.6,244.8,310.1,250.9,320.7L250.9,320.7
			z M260.8,315c-1.6-2.7-5.1-3.7-7.8-2.1c-2.7,1.6-3.7,5.1-2.1,7.8c1.6,2.7,5.1,3.7,7.8,2.1C261.4,321.2,262.4,317.7,260.8,315z
			 M221.2,292.1c-3.2,0-5.7,2.6-5.7,5.7c0,3.2,2.6,5.7,5.7,5.7c3.2,0,5.7-2.6,5.7-5.7C226.9,294.7,224.4,292.1,221.2,292.1z"/>
	</g>
	<g>
		<path class="st1" d="M244.1,298.3c-2.7-1.6-6.2-0.6-7.8,2.1c-1.6,2.7-0.6,6.2,2.1,7.8s6.2,0.6,7.8-2.1
			C247.7,303.3,246.8,299.9,244.1,298.3z"/>
	</g>
	<g>
		<path class="st1" d="M320.2,120.8l9.9-5.7c-8.2-14.1-23.3-22.9-39.6-22.9v11.4C302.7,103.6,314.1,110.2,320.2,120.8L320.2,120.8z
			 M330.1,115c-1.6-2.7-5.1-3.7-7.8-2.1c-2.7,1.6-3.7,5.1-2.1,7.8c1.6,2.7,5.1,3.7,7.8,2.1C330.7,121.3,331.6,117.8,330.1,115z
			 M290.5,92.2c-3.2,0-5.7,2.6-5.7,5.7c0,3.2,2.6,5.7,5.7,5.7c3.2,0,5.7-2.6,5.7-5.7C296.2,94.8,293.6,92.2,290.5,92.2z"/>
	</g>
	<g>
		<path class="st1" d="M313.3,98.3c-2.7-1.6-6.2-0.6-7.8,2.1c-1.6,2.7-0.6,6.2,2.1,7.8c2.7,1.6,6.2,0.6,7.8-2.1
			C317,103.4,316.1,99.9,313.3,98.3z"/>
	</g>
	<g>
		<path class="st1" d="M290.5,103.6V92.2c-16.3,0-31.4,8.7-39.6,22.9l9.9,5.7C266.9,110.2,278.2,103.6,290.5,103.6L290.5,103.6z
			 M290.5,92.2c-3.2,0-5.7,2.6-5.7,5.7c0,3.2,2.6,5.7,5.7,5.7c3.2,0,5.7-2.6,5.7-5.7C296.2,94.8,293.6,92.2,290.5,92.2z M250.9,115
			c-1.6,2.7-0.6,6.2,2.1,7.8c2.7,1.6,6.2,0.6,7.8-2.1c1.6-2.7,0.6-6.2-2.1-7.8C256,111.4,252.5,112.3,250.9,115z"/>
	</g>
	<g>
		<path class="st1" d="M267.6,98.3c-2.7,1.6-3.7,5.1-2.1,7.8c1.6,2.7,5.1,3.7,7.8,2.1c2.7-1.6,3.7-5.1,2.1-7.8
			C273.9,97.7,270.4,96.7,267.6,98.3z"/>
	</g>
	<g>
		<path class="st1" d="M290.5,103.6V92.2c-16.3,0-31.4,8.7-39.6,22.9l9.9,5.7C266.9,110.2,278.2,103.6,290.5,103.6L290.5,103.6z
			 M290.5,92.2c-3.2,0-5.7,2.6-5.7,5.7c0,3.2,2.6,5.7,5.7,5.7c3.2,0,5.7-2.6,5.7-5.7C296.2,94.8,293.6,92.2,290.5,92.2z M250.9,115
			c-1.6,2.7-0.6,6.2,2.1,7.8c2.7,1.6,6.2,0.6,7.8-2.1c1.6-2.7,0.6-6.2-2.1-7.8C256,111.4,252.5,112.3,250.9,115z"/>
	</g>
	<g>
		<path class="st1" d="M267.6,98.3c-2.7,1.6-3.7,5.1-2.1,7.8c1.6,2.7,5.1,3.7,7.8,2.1c2.7-1.6,3.7-5.1,2.1-7.8
			C273.9,97.7,270.4,96.7,267.6,98.3z"/>
	</g>
	<g>
		<path class="st1" d="M320.2,120.8l9.9-5.7c-8.2-14.1-23.3-22.9-39.6-22.9v11.4C302.7,103.6,314.1,110.2,320.2,120.8L320.2,120.8z
			 M330.1,115c-1.6-2.7-5.1-3.7-7.8-2.1c-2.7,1.6-3.7,5.1-2.1,7.8c1.6,2.7,5.1,3.7,7.8,2.1C330.7,121.3,331.6,117.8,330.1,115z
			 M290.5,92.2c-3.2,0-5.7,2.6-5.7,5.7c0,3.2,2.6,5.7,5.7,5.7c3.2,0,5.7-2.6,5.7-5.7C296.2,94.8,293.6,92.2,290.5,92.2z"/>
	</g>
	<g>
		<path class="st1" d="M313.3,98.3c-2.7-1.6-6.2-0.6-7.8,2.1c-1.6,2.7-0.6,6.2,2.1,7.8c2.7,1.6,6.2,0.6,7.8-2.1
			C317,103.4,316.1,99.9,313.3,98.3z"/>
	</g>
	<g>
		<path class="st1" d="M330.1,115l-9.9,5.7c8.2,14.1,23.3,22.9,39.6,22.9v-11.4C347.5,132.2,336.2,125.7,330.1,115L330.1,115z
			 M320.2,120.8c1.6,2.7,5.1,3.7,7.8,2.1c2.7-1.6,3.7-5.1,2.1-7.8c-1.6-2.7-5.1-3.7-7.8-2.1C319.5,114.5,318.6,118,320.2,120.8z
			 M359.8,143.6c3.2,0,5.7-2.6,5.7-5.7c0-3.2-2.6-5.7-5.7-5.7c-3.2,0-5.7,2.6-5.7,5.7C354,141.1,356.6,143.6,359.8,143.6z"/>
	</g>
	<g>
		<path class="st1" d="M336.9,137.5c2.7,1.6,6.2,0.6,7.8-2.1c1.6-2.7,0.6-6.2-2.1-7.8c-2.7-1.6-6.2-0.6-7.8,2.1
			C333.2,132.4,334.2,135.9,336.9,137.5z"/>
	</g>
	<g>
		<path class="st1" d="M221.2,132.2v11.4c16.3,0,31.4-8.7,39.6-22.9l-9.9-5.7C244.8,125.7,233.5,132.2,221.2,132.2L221.2,132.2z
			 M221.2,143.6c3.2,0,5.7-2.6,5.7-5.7c0-3.2-2.6-5.7-5.7-5.7c-3.2,0-5.7,2.6-5.7,5.7C215.5,141.1,218.1,143.6,221.2,143.6z
			 M260.8,120.8c1.6-2.7,0.6-6.2-2.1-7.8c-2.7-1.6-6.2-0.6-7.8,2.1s-0.6,6.2,2.1,7.8C255.7,124.4,259.2,123.5,260.8,120.8z"/>
	</g>
	<g>
		<path class="st1" d="M244.1,137.5c2.7-1.6,3.7-5.1,2.1-7.8c-1.6-2.7-5.1-3.7-7.8-2.1c-2.7,1.6-3.7,5.1-2.1,7.8
			C237.8,138.1,241.3,139.1,244.1,137.5z"/>
	</g>
	<g>
		<path class="st1" d="M290.5,103.6V92.2c-16.3,0-31.4,8.7-39.6,22.9l9.9,5.7C266.9,110.2,278.2,103.6,290.5,103.6L290.5,103.6z
			 M290.5,92.2c-3.2,0-5.7,2.6-5.7,5.7c0,3.2,2.6,5.7,5.7,5.7c3.2,0,5.7-2.6,5.7-5.7C296.2,94.8,293.6,92.2,290.5,92.2z M250.9,115
			c-1.6,2.7-0.6,6.2,2.1,7.8c2.7,1.6,6.2,0.6,7.8-2.1c1.6-2.7,0.6-6.2-2.1-7.8C256,111.4,252.5,112.3,250.9,115z"/>
	</g>
	<g>
		<path class="st1" d="M267.6,98.3c-2.7,1.6-3.7,5.1-2.1,7.8c1.6,2.7,5.1,3.7,7.8,2.1c2.7-1.6,3.7-5.1,2.1-7.8
			C273.9,97.7,270.4,96.7,267.6,98.3z"/>
	</g>
	<g>
		<path class="st1" d="M320.2,120.8l9.9-5.7c-8.2-14.1-23.3-22.9-39.6-22.9v11.4C302.7,103.6,314.1,110.2,320.2,120.8L320.2,120.8z
			 M330.1,115c-1.6-2.7-5.1-3.7-7.8-2.1c-2.7,1.6-3.7,5.1-2.1,7.8c1.6,2.7,5.1,3.7,7.8,2.1C330.7,121.3,331.6,117.8,330.1,115z
			 M290.5,92.2c-3.2,0-5.7,2.6-5.7,5.7c0,3.2,2.6,5.7,5.7,5.7c3.2,0,5.7-2.6,5.7-5.7C296.2,94.8,293.6,92.2,290.5,92.2z"/>
	</g>
	<g>
		<path class="st1" d="M313.3,98.3c-2.7-1.6-6.2-0.6-7.8,2.1c-1.6,2.7-0.6,6.2,2.1,7.8c2.7,1.6,6.2,0.6,7.8-2.1
			C317,103.4,316.1,99.9,313.3,98.3z"/>
	</g>
	<g>
		<path class="st1" d="M359.8,303.6v-11.4c-16.3,0-31.4,8.7-39.6,22.9l9.9,5.7C336.2,310.1,347.5,303.6,359.8,303.6L359.8,303.6z
			 M359.8,292.1c-3.2,0-5.7,2.6-5.7,5.7c0,3.2,2.6,5.7,5.7,5.7c3.2,0,5.7-2.6,5.7-5.7C365.5,294.7,362.9,292.1,359.8,292.1z
			 M320.2,315c-1.6,2.7-0.6,6.2,2.1,7.8c2.7,1.6,6.2,0.6,7.8-2.1s0.6-6.2-2.1-7.8C325.2,311.3,321.8,312.3,320.2,315z"/>
	</g>
	<g>
		<path class="st1" d="M336.9,298.3c-2.7,1.6-3.7,5.1-2.1,7.8c1.6,2.7,5.1,3.7,7.8,2.1c2.7-1.6,3.7-5.1,2.1-7.8
			C343.1,297.6,339.6,296.7,336.9,298.3z"/>
	</g>
	<g>
		<path class="st1" d="M290.5,332.1v11.4c16.3,0,31.4-8.7,39.6-22.9l-9.9-5.7C314.1,325.6,302.7,332.1,290.5,332.1L290.5,332.1z
			 M290.5,343.6c3.2,0,5.7-2.6,5.7-5.7c0-3.2-2.6-5.7-5.7-5.7s-5.7,2.6-5.7,5.7C284.8,341,287.3,343.6,290.5,343.6z M330.1,320.7
			c1.6-2.7,0.6-6.2-2.1-7.8c-2.7-1.6-6.2-0.6-7.8,2.1s-0.6,6.2,2.1,7.8C325,324.4,328.5,323.4,330.1,320.7z"/>
	</g>
	<g>
		<path class="st1" d="M313.3,337.4c2.7-1.6,3.7-5.1,2.1-7.8c-1.6-2.7-5.1-3.7-7.8-2.1c-2.7,1.6-3.7,5.1-2.1,7.8
			C307.1,338.1,310.6,339,313.3,337.4z"/>
	</g>
	<g>
		<path class="st1" d="M260.8,315l-9.9,5.7c8.2,14.1,23.3,22.9,39.6,22.9v-11.4C278.2,332.1,266.9,325.6,260.8,315L260.8,315z
			 M250.9,320.7c1.6,2.7,5.1,3.7,7.8,2.1c2.7-1.6,3.7-5.1,2.1-7.8c-1.6-2.7-5.1-3.7-7.8-2.1C250.3,314.5,249.3,318,250.9,320.7z
			 M290.5,343.6c3.2,0,5.7-2.6,5.7-5.7c0-3.2-2.6-5.7-5.7-5.7s-5.7,2.6-5.7,5.7C284.8,341,287.3,343.6,290.5,343.6z"/>
	</g>
	<g>
		<path class="st1" d="M267.6,337.4c2.7,1.6,6.2,0.6,7.8-2.1c1.6-2.7,0.6-6.2-2.1-7.8c-2.7-1.6-6.2-0.6-7.8,2.1
			C264,332.4,264.9,335.9,267.6,337.4z"/>
	</g>
	<g>
		<path class="st1" d="M250.9,320.7l9.9-5.7c-8.2-14.1-23.3-22.9-39.6-22.9l0,11.4C233.5,303.6,244.8,310.1,250.9,320.7L250.9,320.7
			z M260.8,315c-1.6-2.7-5.1-3.7-7.8-2.1c-2.7,1.6-3.7,5.1-2.1,7.8c1.6,2.7,5.1,3.7,7.8,2.1C261.4,321.2,262.4,317.7,260.8,315z
			 M221.2,292.1c-3.2,0-5.7,2.6-5.7,5.7c0,3.2,2.6,5.7,5.7,5.7c3.2,0,5.7-2.6,5.7-5.7C226.9,294.7,224.4,292.1,221.2,292.1z"/>
	</g>
	<g>
		<path class="st1" d="M244.1,298.3c-2.7-1.6-6.2-0.6-7.8,2.1c-1.6,2.7-0.6,6.2,2.1,7.8s6.2,0.6,7.8-2.1
			C247.7,303.3,246.8,299.9,244.1,298.3z"/>
	</g>
	<g>
		<path class="st1" d="M290.5,332.1v11.4c16.3,0,31.4-8.7,39.6-22.9l-9.9-5.7C314.1,325.6,302.7,332.1,290.5,332.1L290.5,332.1z
			 M290.5,343.6c3.2,0,5.7-2.6,5.7-5.7c0-3.2-2.6-5.7-5.7-5.7s-5.7,2.6-5.7,5.7C284.8,341,287.3,343.6,290.5,343.6z M330.1,320.7
			c1.6-2.7,0.6-6.2-2.1-7.8c-2.7-1.6-6.2-0.6-7.8,2.1s-0.6,6.2,2.1,7.8C325,324.4,328.5,323.4,330.1,320.7z"/>
	</g>
	<g>
		<path class="st1" d="M313.3,337.4c2.7-1.6,3.7-5.1,2.1-7.8c-1.6-2.7-5.1-3.7-7.8-2.1c-2.7,1.6-3.7,5.1-2.1,7.8
			C307.1,338.1,310.6,339,313.3,337.4z"/>
	</g>
	<g>
		<path class="st1" d="M260.8,315l-9.9,5.7c8.2,14.1,23.3,22.9,39.6,22.9v-11.4C278.2,332.1,266.9,325.6,260.8,315L260.8,315z
			 M250.9,320.7c1.6,2.7,5.1,3.7,7.8,2.1c2.7-1.6,3.7-5.1,2.1-7.8c-1.6-2.7-5.1-3.7-7.8-2.1C250.3,314.5,249.3,318,250.9,320.7z
			 M290.5,343.6c3.2,0,5.7-2.6,5.7-5.7c0-3.2-2.6-5.7-5.7-5.7s-5.7,2.6-5.7,5.7C284.8,341,287.3,343.6,290.5,343.6z"/>
	</g>
	<g>
		<path class="st1" d="M267.6,337.4c2.7,1.6,6.2,0.6,7.8-2.1c1.6-2.7,0.6-6.2-2.1-7.8c-2.7-1.6-6.2-0.6-7.8,2.1
			C264,332.4,264.9,335.9,267.6,337.4z"/>
	</g>
	<g>
		<path class="st1" d="M260.8,315l-9.9,5.7c8.2,14.1,23.3,22.9,39.6,22.9v-11.4C278.2,332.1,266.9,325.6,260.8,315L260.8,315z
			 M250.9,320.7c1.6,2.7,5.1,3.7,7.8,2.1c2.7-1.6,3.7-5.1,2.1-7.8c-1.6-2.7-5.1-3.7-7.8-2.1C250.3,314.5,249.3,318,250.9,320.7z
			 M290.5,343.6c3.2,0,5.7-2.6,5.7-5.7c0-3.2-2.6-5.7-5.7-5.7s-5.7,2.6-5.7,5.7C284.8,341,287.3,343.6,290.5,343.6z"/>
	</g>
	<g>
		<path class="st1" d="M267.6,337.4c2.7,1.6,6.2,0.6,7.8-2.1c1.6-2.7,0.6-6.2-2.1-7.8c-2.7-1.6-6.2-0.6-7.8,2.1
			C264,332.4,264.9,335.9,267.6,337.4z"/>
	</g>
	<g>
		<path class="st1" d="M290.5,332.1v11.4c16.3,0,31.4-8.7,39.6-22.9l-9.9-5.7C314.1,325.6,302.7,332.1,290.5,332.1L290.5,332.1z
			 M290.5,343.6c3.2,0,5.7-2.6,5.7-5.7c0-3.2-2.6-5.7-5.7-5.7s-5.7,2.6-5.7,5.7C284.8,341,287.3,343.6,290.5,343.6z M330.1,320.7
			c1.6-2.7,0.6-6.2-2.1-7.8c-2.7-1.6-6.2-0.6-7.8,2.1s-0.6,6.2,2.1,7.8C325,324.4,328.5,323.4,330.1,320.7z"/>
	</g>
	<g>
		<path class="st1" d="M313.3,337.4c2.7-1.6,3.7-5.1,2.1-7.8c-1.6-2.7-5.1-3.7-7.8-2.1c-2.7,1.6-3.7,5.1-2.1,7.8
			C307.1,338.1,310.6,339,313.3,337.4z"/>
	</g>
	<g>
		<path class="st1" d="M389.4,160.7l9.9-5.7c-8.2-14.1-23.3-22.9-39.6-22.9v11.4C372,143.6,383.3,150.1,389.4,160.7L389.4,160.7z
			 M399.3,155c-1.6-2.7-5.1-3.7-7.8-2.1c-2.7,1.6-3.7,5.1-2.1,7.8c1.6,2.7,5.1,3.7,7.8,2.1C400,161.3,400.9,157.8,399.3,155z
			 M359.8,132.2c-3.2,0-5.7,2.6-5.7,5.7c0,3.2,2.6,5.7,5.7,5.7c3.2,0,5.7-2.6,5.7-5.7S362.9,132.2,359.8,132.2z"/>
	</g>
	<g>
		<path class="st1" d="M382.6,138.3c-2.7-1.6-6.2-0.6-7.8,2.1c-1.6,2.7-0.6,6.2,2.1,7.8c2.7,1.6,6.2,0.6,7.8-2.1
			C386.3,143.4,385.3,139.9,382.6,138.3z"/>
	</g>
	<g>
		<path class="st1" d="M330.1,115l-9.9,5.7c8.2,14.1,23.3,22.9,39.6,22.9v-11.4C347.5,132.2,336.2,125.7,330.1,115L330.1,115z
			 M320.2,120.8c1.6,2.7,5.1,3.7,7.8,2.1c2.7-1.6,3.7-5.1,2.1-7.8c-1.6-2.7-5.1-3.7-7.8-2.1C319.5,114.5,318.6,118,320.2,120.8z
			 M359.8,143.6c3.2,0,5.7-2.6,5.7-5.7c0-3.2-2.6-5.7-5.7-5.7c-3.2,0-5.7,2.6-5.7,5.7C354,141.1,356.6,143.6,359.8,143.6z"/>
	</g>
	<g>
		<path class="st1" d="M336.9,137.5c2.7,1.6,6.2,0.6,7.8-2.1c1.6-2.7,0.6-6.2-2.1-7.8c-2.7-1.6-6.2-0.6-7.8,2.1
			C333.2,132.4,334.2,135.9,336.9,137.5z"/>
	</g>
	<g>
		<path class="st1" d="M320.2,120.8l9.9-5.7c-8.2-14.1-23.3-22.9-39.6-22.9v11.4C302.7,103.6,314.1,110.2,320.2,120.8L320.2,120.8z
			 M330.1,115c-1.6-2.7-5.1-3.7-7.8-2.1c-2.7,1.6-3.7,5.1-2.1,7.8c1.6,2.7,5.1,3.7,7.8,2.1C330.7,121.3,331.6,117.8,330.1,115z
			 M290.5,92.2c-3.2,0-5.7,2.6-5.7,5.7c0,3.2,2.6,5.7,5.7,5.7c3.2,0,5.7-2.6,5.7-5.7C296.2,94.8,293.6,92.2,290.5,92.2z"/>
	</g>
	<g>
		<path class="st1" d="M313.3,98.3c-2.7-1.6-6.2-0.6-7.8,2.1c-1.6,2.7-0.6,6.2,2.1,7.8c2.7,1.6,6.2,0.6,7.8-2.1
			C317,103.4,316.1,99.9,313.3,98.3z"/>
	</g>
	<g>
		<path class="st1" d="M330.1,115l-9.9,5.7c8.2,14.1,23.3,22.9,39.6,22.9v-11.4C347.5,132.2,336.2,125.7,330.1,115L330.1,115z
			 M320.2,120.8c1.6,2.7,5.1,3.7,7.8,2.1c2.7-1.6,3.7-5.1,2.1-7.8c-1.6-2.7-5.1-3.7-7.8-2.1C319.5,114.5,318.6,118,320.2,120.8z
			 M359.8,143.6c3.2,0,5.7-2.6,5.7-5.7c0-3.2-2.6-5.7-5.7-5.7c-3.2,0-5.7,2.6-5.7,5.7C354,141.1,356.6,143.6,359.8,143.6z"/>
	</g>
	<g>
		<path class="st1" d="M336.9,137.5c2.7,1.6,6.2,0.6,7.8-2.1c1.6-2.7,0.6-6.2-2.1-7.8c-2.7-1.6-6.2-0.6-7.8,2.1
			C333.2,132.4,334.2,135.9,336.9,137.5z"/>
	</g>
	<g>
		<path class="st1" d="M330.1,115l-9.9,5.7c8.2,14.1,23.3,22.9,39.6,22.9v-11.4C347.5,132.2,336.2,125.7,330.1,115L330.1,115z
			 M320.2,120.8c1.6,2.7,5.1,3.7,7.8,2.1c2.7-1.6,3.7-5.1,2.1-7.8c-1.6-2.7-5.1-3.7-7.8-2.1C319.5,114.5,318.6,118,320.2,120.8z
			 M359.8,143.6c3.2,0,5.7-2.6,5.7-5.7c0-3.2-2.6-5.7-5.7-5.7c-3.2,0-5.7,2.6-5.7,5.7C354,141.1,356.6,143.6,359.8,143.6z"/>
	</g>
	<g>
		<path class="st1" d="M336.9,137.5c2.7,1.6,6.2,0.6,7.8-2.1c1.6-2.7,0.6-6.2-2.1-7.8c-2.7-1.6-6.2-0.6-7.8,2.1
			C333.2,132.4,334.2,135.9,336.9,137.5z"/>
	</g>
	<g>
		<path class="st1" d="M389.4,160.7l9.9-5.7c-8.2-14.1-23.3-22.9-39.6-22.9v11.4C372,143.6,383.3,150.1,389.4,160.7L389.4,160.7z
			 M399.3,155c-1.6-2.7-5.1-3.7-7.8-2.1c-2.7,1.6-3.7,5.1-2.1,7.8c1.6,2.7,5.1,3.7,7.8,2.1C400,161.3,400.9,157.8,399.3,155z
			 M359.8,132.2c-3.2,0-5.7,2.6-5.7,5.7c0,3.2,2.6,5.7,5.7,5.7c3.2,0,5.7-2.6,5.7-5.7S362.9,132.2,359.8,132.2z"/>
	</g>
	<g>
		<path class="st1" d="M382.6,138.3c-2.7-1.6-6.2-0.6-7.8,2.1c-1.6,2.7-0.6,6.2,2.1,7.8c2.7,1.6,6.2,0.6,7.8-2.1
			C386.3,143.4,385.3,139.9,382.6,138.3z"/>
	</g>
	<g>
		<path class="st1" d="M389.4,195l9.9,5.7c8.2-14.1,8.2-31.6,0-45.7l-9.9,5.7C395.6,171.4,395.6,184.4,389.4,195L389.4,195z
			 M399.3,200.7c1.6-2.7,0.6-6.2-2.1-7.8c-2.7-1.6-6.2-0.6-7.8,2.1s-0.6,6.2,2.1,7.8C394.3,204.4,397.8,203.5,399.3,200.7z
			 M399.3,155c-1.6-2.7-5.1-3.7-7.8-2.1c-2.7,1.6-3.7,5.1-2.1,7.8c1.6,2.7,5.1,3.7,7.8,2.1C400,161.3,400.9,157.8,399.3,155z"/>
	</g>
	<g>
		<path class="st1" d="M405.5,177.9c0-3.2-2.6-5.7-5.7-5.7c-3.2,0-5.7,2.6-5.7,5.7c0,3.2,2.6,5.7,5.7,5.7
			C402.9,183.6,405.5,181,405.5,177.9z"/>
	</g>
	<g>
		<path class="st1" d="M399.3,200.7l-9.9-5.7c-8.2,14.1-8.2,31.6,0,45.7l9.9-5.7C393.2,224.4,393.2,211.3,399.3,200.7L399.3,200.7z
			 M389.4,195c-1.6,2.7-0.6,6.2,2.1,7.8c2.7,1.6,6.2,0.6,7.8-2.1c1.6-2.7,0.6-6.2-2.1-7.8C394.5,191.4,391,192.3,389.4,195z
			 M389.4,240.7c1.6,2.7,5.1,3.7,7.8,2.1c2.7-1.6,3.7-5.1,2.1-7.8c-1.6-2.7-5.1-3.7-7.8-2.1C388.8,234.5,387.9,238,389.4,240.7z"/>
	</g>
	<g>
		<path class="st1" d="M383.3,217.9c0,3.2,2.6,5.7,5.7,5.7s5.7-2.6,5.7-5.7c0-3.2-2.6-5.7-5.7-5.7
			C385.9,212.2,383.3,214.7,383.3,217.9z"/>
	</g>
	<g>
		<path class="st1" d="M389.4,160.7l9.9-5.7c-8.2-14.1-23.3-22.9-39.6-22.9v11.4C372,143.6,383.3,150.1,389.4,160.7L389.4,160.7z
			 M399.3,155c-1.6-2.7-5.1-3.7-7.8-2.1c-2.7,1.6-3.7,5.1-2.1,7.8c1.6,2.7,5.1,3.7,7.8,2.1C400,161.3,400.9,157.8,399.3,155z
			 M359.8,132.2c-3.2,0-5.7,2.6-5.7,5.7c0,3.2,2.6,5.7,5.7,5.7c3.2,0,5.7-2.6,5.7-5.7S362.9,132.2,359.8,132.2z"/>
	</g>
	<g>
		<path class="st1" d="M382.6,138.3c-2.7-1.6-6.2-0.6-7.8,2.1c-1.6,2.7-0.6,6.2,2.1,7.8c2.7,1.6,6.2,0.6,7.8-2.1
			C386.3,143.4,385.3,139.9,382.6,138.3z"/>
	</g>
	<g>
		<path class="st1" d="M389.4,195l9.9,5.7c8.2-14.1,8.2-31.6,0-45.7l-9.9,5.7C395.6,171.4,395.6,184.4,389.4,195L389.4,195z
			 M399.3,200.7c1.6-2.7,0.6-6.2-2.1-7.8c-2.7-1.6-6.2-0.6-7.8,2.1s-0.6,6.2,2.1,7.8C394.3,204.4,397.8,203.5,399.3,200.7z
			 M399.3,155c-1.6-2.7-5.1-3.7-7.8-2.1c-2.7,1.6-3.7,5.1-2.1,7.8c1.6,2.7,5.1,3.7,7.8,2.1C400,161.3,400.9,157.8,399.3,155z"/>
	</g>
	<g>
		<path class="st1" d="M405.5,177.9c0-3.2-2.6-5.7-5.7-5.7c-3.2,0-5.7,2.6-5.7,5.7c0,3.2,2.6,5.7,5.7,5.7
			C402.9,183.6,405.5,181,405.5,177.9z"/>
	</g>
	<g>
		<path class="st1" d="M399.3,200.7l-9.9-5.7c-8.2,14.1-8.2,31.6,0,45.7l9.9-5.7C393.2,224.4,393.2,211.3,399.3,200.7L399.3,200.7z
			 M389.4,195c-1.6,2.7-0.6,6.2,2.1,7.8c2.7,1.6,6.2,0.6,7.8-2.1c1.6-2.7,0.6-6.2-2.1-7.8C394.5,191.4,391,192.3,389.4,195z
			 M389.4,240.7c1.6,2.7,5.1,3.7,7.8,2.1c2.7-1.6,3.7-5.1,2.1-7.8c-1.6-2.7-5.1-3.7-7.8-2.1C388.8,234.5,387.9,238,389.4,240.7z"/>
	</g>
	<g>
		<path class="st1" d="M383.3,217.9c0,3.2,2.6,5.7,5.7,5.7s5.7-2.6,5.7-5.7c0-3.2-2.6-5.7-5.7-5.7
			C385.9,212.2,383.3,214.7,383.3,217.9z"/>
	</g>
	<g>
		<path class="st1" d="M389.4,275l9.9,5.7c8.2-14.1,8.2-31.6,0-45.7l-9.9,5.7C395.6,251.3,395.6,264.4,389.4,275L389.4,275z
			 M399.3,280.7c1.6-2.7,0.6-6.2-2.1-7.8c-2.7-1.6-6.2-0.6-7.8,2.1c-1.6,2.7-0.6,6.2,2.1,7.8C394.3,284.4,397.8,283.5,399.3,280.7z
			 M399.3,235c-1.6-2.7-5.1-3.7-7.8-2.1c-2.7,1.6-3.7,5.1-2.1,7.8c1.6,2.7,5.1,3.7,7.8,2.1C400,241.2,400.9,237.8,399.3,235z"/>
	</g>
	<g>
		<path class="st1" d="M405.5,257.9c0-3.2-2.6-5.7-5.7-5.7c-3.2,0-5.7,2.6-5.7,5.7c0,3.2,2.6,5.7,5.7,5.7S405.5,261,405.5,257.9z"/>
	</g>
	<g>
		<path class="st1" d="M359.8,292.1v11.4c16.3,0,31.4-8.7,39.6-22.9l-9.9-5.7C383.3,285.6,372,292.1,359.8,292.1L359.8,292.1z
			 M359.8,303.6c3.2,0,5.7-2.6,5.7-5.7c0-3.2-2.6-5.7-5.7-5.7s-5.7,2.6-5.7,5.7C354,301,356.6,303.6,359.8,303.6z M399.3,280.7
			c1.6-2.7,0.6-6.2-2.1-7.8c-2.7-1.6-6.2-0.6-7.8,2.1c-1.6,2.7-0.6,6.2,2.1,7.8C394.3,284.4,397.8,283.5,399.3,280.7z"/>
	</g>
	<g>
		<path class="st1" d="M382.6,297.5c2.7-1.6,3.7-5.1,2.1-7.8c-1.6-2.7-5.1-3.7-7.8-2.1c-2.7,1.6-3.7,5.1-2.1,7.8
			C376.4,298.1,379.9,299,382.6,297.5z"/>
	</g>
	<g>
		<path class="st1" d="M359.8,303.6v-11.4c-16.3,0-31.4,8.7-39.6,22.9l9.9,5.7C336.2,310.1,347.5,303.6,359.8,303.6L359.8,303.6z
			 M359.8,292.1c-3.2,0-5.7,2.6-5.7,5.7c0,3.2,2.6,5.7,5.7,5.7c3.2,0,5.7-2.6,5.7-5.7C365.5,294.7,362.9,292.1,359.8,292.1z
			 M320.2,315c-1.6,2.7-0.6,6.2,2.1,7.8c2.7,1.6,6.2,0.6,7.8-2.1s0.6-6.2-2.1-7.8C325.2,311.3,321.8,312.3,320.2,315z"/>
	</g>
	<g>
		<path class="st1" d="M336.9,298.3c-2.7,1.6-3.7,5.1-2.1,7.8c1.6,2.7,5.1,3.7,7.8,2.1c2.7-1.6,3.7-5.1,2.1-7.8
			C343.1,297.6,339.6,296.7,336.9,298.3z"/>
	</g>
	<g>
		<path class="st1" d="M389.4,275l9.9,5.7c8.2-14.1,8.2-31.6,0-45.7l-9.9,5.7C395.6,251.3,395.6,264.4,389.4,275L389.4,275z
			 M399.3,280.7c1.6-2.7,0.6-6.2-2.1-7.8c-2.7-1.6-6.2-0.6-7.8,2.1c-1.6,2.7-0.6,6.2,2.1,7.8C394.3,284.4,397.8,283.5,399.3,280.7z
			 M399.3,235c-1.6-2.7-5.1-3.7-7.8-2.1c-2.7,1.6-3.7,5.1-2.1,7.8c1.6,2.7,5.1,3.7,7.8,2.1C400,241.2,400.9,237.8,399.3,235z"/>
	</g>
	<g>
		<path class="st1" d="M405.5,257.9c0-3.2-2.6-5.7-5.7-5.7c-3.2,0-5.7,2.6-5.7,5.7c0,3.2,2.6,5.7,5.7,5.7S405.5,261,405.5,257.9z"/>
	</g>
	<g>
		<path class="st1" d="M359.8,292.1v11.4c16.3,0,31.4-8.7,39.6-22.9l-9.9-5.7C383.3,285.6,372,292.1,359.8,292.1L359.8,292.1z
			 M359.8,303.6c3.2,0,5.7-2.6,5.7-5.7c0-3.2-2.6-5.7-5.7-5.7s-5.7,2.6-5.7,5.7C354,301,356.6,303.6,359.8,303.6z M399.3,280.7
			c1.6-2.7,0.6-6.2-2.1-7.8c-2.7-1.6-6.2-0.6-7.8,2.1c-1.6,2.7-0.6,6.2,2.1,7.8C394.3,284.4,397.8,283.5,399.3,280.7z"/>
	</g>
	<g>
		<path class="st1" d="M382.6,297.5c2.7-1.6,3.7-5.1,2.1-7.8c-1.6-2.7-5.1-3.7-7.8-2.1c-2.7,1.6-3.7,5.1-2.1,7.8
			C376.4,298.1,379.9,299,382.6,297.5z"/>
	</g>
	<g>
		<path class="st1" d="M359.8,303.6v-11.4c-16.3,0-31.4,8.7-39.6,22.9l9.9,5.7C336.2,310.1,347.5,303.6,359.8,303.6L359.8,303.6z
			 M359.8,292.1c-3.2,0-5.7,2.6-5.7,5.7c0,3.2,2.6,5.7,5.7,5.7c3.2,0,5.7-2.6,5.7-5.7C365.5,294.7,362.9,292.1,359.8,292.1z
			 M320.2,315c-1.6,2.7-0.6,6.2,2.1,7.8c2.7,1.6,6.2,0.6,7.8-2.1s0.6-6.2-2.1-7.8C325.2,311.3,321.8,312.3,320.2,315z"/>
	</g>
	<g>
		<path class="st1" d="M336.9,298.3c-2.7,1.6-3.7,5.1-2.1,7.8c1.6,2.7,5.1,3.7,7.8,2.1c2.7-1.6,3.7-5.1,2.1-7.8
			C343.1,297.6,339.6,296.7,336.9,298.3z"/>
	</g>
	<g>
		<path class="st1" d="M359.8,292.1v11.4c16.3,0,31.4-8.7,39.6-22.9l-9.9-5.7C383.3,285.6,372,292.1,359.8,292.1L359.8,292.1z
			 M359.8,303.6c3.2,0,5.7-2.6,5.7-5.7c0-3.2-2.6-5.7-5.7-5.7s-5.7,2.6-5.7,5.7C354,301,356.6,303.6,359.8,303.6z M399.3,280.7
			c1.6-2.7,0.6-6.2-2.1-7.8c-2.7-1.6-6.2-0.6-7.8,2.1c-1.6,2.7-0.6,6.2,2.1,7.8C394.3,284.4,397.8,283.5,399.3,280.7z"/>
	</g>
	<g>
		<path class="st1" d="M382.6,297.5c2.7-1.6,3.7-5.1,2.1-7.8c-1.6-2.7-5.1-3.7-7.8-2.1c-2.7,1.6-3.7,5.1-2.1,7.8
			C376.4,298.1,379.9,299,382.6,297.5z"/>
	</g>
	<g>
		<path class="st1" d="M290.5,332.1v11.4c16.3,0,31.4-8.7,39.6-22.9l-9.9-5.7C314.1,325.6,302.7,332.1,290.5,332.1L290.5,332.1z
			 M290.5,343.6c3.2,0,5.7-2.6,5.7-5.7c0-3.2-2.6-5.7-5.7-5.7s-5.7,2.6-5.7,5.7C284.8,341,287.3,343.6,290.5,343.6z M330.1,320.7
			c1.6-2.7,0.6-6.2-2.1-7.8c-2.7-1.6-6.2-0.6-7.8,2.1s-0.6,6.2,2.1,7.8C325,324.4,328.5,323.4,330.1,320.7z"/>
	</g>
	<g>
		<path class="st1" d="M313.3,337.4c2.7-1.6,3.7-5.1,2.1-7.8c-1.6-2.7-5.1-3.7-7.8-2.1c-2.7,1.6-3.7,5.1-2.1,7.8
			C307.1,338.1,310.6,339,313.3,337.4z"/>
	</g>
	<g>
		<path class="st1" d="M359.8,303.6v-11.4c-16.3,0-31.4,8.7-39.6,22.9l9.9,5.7C336.2,310.1,347.5,303.6,359.8,303.6L359.8,303.6z
			 M359.8,292.1c-3.2,0-5.7,2.6-5.7,5.7c0,3.2,2.6,5.7,5.7,5.7c3.2,0,5.7-2.6,5.7-5.7C365.5,294.7,362.9,292.1,359.8,292.1z
			 M320.2,315c-1.6,2.7-0.6,6.2,2.1,7.8c2.7,1.6,6.2,0.6,7.8-2.1s0.6-6.2-2.1-7.8C325.2,311.3,321.8,312.3,320.2,315z"/>
	</g>
	<g>
		<path class="st1" d="M336.9,298.3c-2.7,1.6-3.7,5.1-2.1,7.8c1.6,2.7,5.1,3.7,7.8,2.1c2.7-1.6,3.7-5.1,2.1-7.8
			C343.1,297.6,339.6,296.7,336.9,298.3z"/>
	</g>
	<g>
		<path class="st1" d="M389.4,195l9.9,5.7c8.2-14.1,8.2-31.6,0-45.7l-9.9,5.7C395.6,171.4,395.6,184.4,389.4,195L389.4,195z
			 M399.3,200.7c1.6-2.7,0.6-6.2-2.1-7.8c-2.7-1.6-6.2-0.6-7.8,2.1s-0.6,6.2,2.1,7.8C394.3,204.4,397.8,203.5,399.3,200.7z
			 M399.3,155c-1.6-2.7-5.1-3.7-7.8-2.1c-2.7,1.6-3.7,5.1-2.1,7.8c1.6,2.7,5.1,3.7,7.8,2.1C400,161.3,400.9,157.8,399.3,155z"/>
	</g>
	<g>
		<path class="st1" d="M405.5,177.9c0-3.2-2.6-5.7-5.7-5.7c-3.2,0-5.7,2.6-5.7,5.7c0,3.2,2.6,5.7,5.7,5.7
			C402.9,183.6,405.5,181,405.5,177.9z"/>
	</g>
	<g>
		<path class="st1" d="M389.4,160.7l9.9-5.7c-8.2-14.1-23.3-22.9-39.6-22.9v11.4C372,143.6,383.3,150.1,389.4,160.7L389.4,160.7z
			 M399.3,155c-1.6-2.7-5.1-3.7-7.8-2.1c-2.7,1.6-3.7,5.1-2.1,7.8c1.6,2.7,5.1,3.7,7.8,2.1C400,161.3,400.9,157.8,399.3,155z
			 M359.8,132.2c-3.2,0-5.7,2.6-5.7,5.7c0,3.2,2.6,5.7,5.7,5.7c3.2,0,5.7-2.6,5.7-5.7S362.9,132.2,359.8,132.2z"/>
	</g>
	<g>
		<path class="st1" d="M382.6,138.3c-2.7-1.6-6.2-0.6-7.8,2.1c-1.6,2.7-0.6,6.2,2.1,7.8c2.7,1.6,6.2,0.6,7.8-2.1
			C386.3,143.4,385.3,139.9,382.6,138.3z"/>
	</g>
	<g>
		<path class="st1" d="M389.4,195l9.9,5.7c8.2-14.1,8.2-31.6,0-45.7l-9.9,5.7C395.6,171.4,395.6,184.4,389.4,195L389.4,195z
			 M399.3,200.7c1.6-2.7,0.6-6.2-2.1-7.8c-2.7-1.6-6.2-0.6-7.8,2.1s-0.6,6.2,2.1,7.8C394.3,204.4,397.8,203.5,399.3,200.7z
			 M399.3,155c-1.6-2.7-5.1-3.7-7.8-2.1c-2.7,1.6-3.7,5.1-2.1,7.8c1.6,2.7,5.1,3.7,7.8,2.1C400,161.3,400.9,157.8,399.3,155z"/>
	</g>
	<g>
		<path class="st1" d="M405.5,177.9c0-3.2-2.6-5.7-5.7-5.7c-3.2,0-5.7,2.6-5.7,5.7c0,3.2,2.6,5.7,5.7,5.7
			C402.9,183.6,405.5,181,405.5,177.9z"/>
	</g>
	<g>
		<path class="st1" d="M389.4,275l9.9,5.7c8.2-14.1,8.2-31.6,0-45.7l-9.9,5.7C395.6,251.3,395.6,264.4,389.4,275L389.4,275z
			 M399.3,280.7c1.6-2.7,0.6-6.2-2.1-7.8c-2.7-1.6-6.2-0.6-7.8,2.1c-1.6,2.7-0.6,6.2,2.1,7.8C394.3,284.4,397.8,283.5,399.3,280.7z
			 M399.3,235c-1.6-2.7-5.1-3.7-7.8-2.1c-2.7,1.6-3.7,5.1-2.1,7.8c1.6,2.7,5.1,3.7,7.8,2.1C400,241.2,400.9,237.8,399.3,235z"/>
	</g>
	<g>
		<path class="st1" d="M405.5,257.9c0-3.2-2.6-5.7-5.7-5.7c-3.2,0-5.7,2.6-5.7,5.7c0,3.2,2.6,5.7,5.7,5.7S405.5,261,405.5,257.9z"/>
	</g>
	<g>
		<path class="st1" d="M399.3,200.7l-9.9-5.7c-8.2,14.1-8.2,31.6,0,45.7l9.9-5.7C393.2,224.4,393.2,211.3,399.3,200.7L399.3,200.7z
			 M389.4,195c-1.6,2.7-0.6,6.2,2.1,7.8c2.7,1.6,6.2,0.6,7.8-2.1c1.6-2.7,0.6-6.2-2.1-7.8C394.5,191.4,391,192.3,389.4,195z
			 M389.4,240.7c1.6,2.7,5.1,3.7,7.8,2.1c2.7-1.6,3.7-5.1,2.1-7.8c-1.6-2.7-5.1-3.7-7.8-2.1C388.8,234.5,387.9,238,389.4,240.7z"/>
	</g>
	<g>
		<path class="st1" d="M383.3,217.9c0,3.2,2.6,5.7,5.7,5.7s5.7-2.6,5.7-5.7c0-3.2-2.6-5.7-5.7-5.7
			C385.9,212.2,383.3,214.7,383.3,217.9z"/>
	</g>
	<g>
		<path class="st1" d="M399.3,200.7l-9.9-5.7c-8.2,14.1-8.2,31.6,0,45.7l9.9-5.7C393.2,224.4,393.2,211.3,399.3,200.7L399.3,200.7z
			 M389.4,195c-1.6,2.7-0.6,6.2,2.1,7.8c2.7,1.6,6.2,0.6,7.8-2.1c1.6-2.7,0.6-6.2-2.1-7.8C394.5,191.4,391,192.3,389.4,195z
			 M389.4,240.7c1.6,2.7,5.1,3.7,7.8,2.1c2.7-1.6,3.7-5.1,2.1-7.8c-1.6-2.7-5.1-3.7-7.8-2.1C388.8,234.5,387.9,238,389.4,240.7z"/>
	</g>
	<g>
		<path class="st1" d="M383.3,217.9c0,3.2,2.6,5.7,5.7,5.7s5.7-2.6,5.7-5.7c0-3.2-2.6-5.7-5.7-5.7
			C385.9,212.2,383.3,214.7,383.3,217.9z"/>
	</g>
	<g>
		<path class="st1" d="M389.4,275l9.9,5.7c8.2-14.1,8.2-31.6,0-45.7l-9.9,5.7C395.6,251.3,395.6,264.4,389.4,275L389.4,275z
			 M399.3,280.7c1.6-2.7,0.6-6.2-2.1-7.8c-2.7-1.6-6.2-0.6-7.8,2.1c-1.6,2.7-0.6,6.2,2.1,7.8C394.3,284.4,397.8,283.5,399.3,280.7z
			 M399.3,235c-1.6-2.7-5.1-3.7-7.8-2.1c-2.7,1.6-3.7,5.1-2.1,7.8c1.6,2.7,5.1,3.7,7.8,2.1C400,241.2,400.9,237.8,399.3,235z"/>
	</g>
	<g>
		<path class="st1" d="M405.5,257.9c0-3.2-2.6-5.7-5.7-5.7c-3.2,0-5.7,2.6-5.7,5.7c0,3.2,2.6,5.7,5.7,5.7S405.5,261,405.5,257.9z"/>
	</g>
	<g>
		<path class="st1" d="M359.8,292.1v11.4c16.3,0,31.4-8.7,39.6-22.9l-9.9-5.7C383.3,285.6,372,292.1,359.8,292.1L359.8,292.1z
			 M359.8,303.6c3.2,0,5.7-2.6,5.7-5.7c0-3.2-2.6-5.7-5.7-5.7s-5.7,2.6-5.7,5.7C354,301,356.6,303.6,359.8,303.6z M399.3,280.7
			c1.6-2.7,0.6-6.2-2.1-7.8c-2.7-1.6-6.2-0.6-7.8,2.1c-1.6,2.7-0.6,6.2,2.1,7.8C394.3,284.4,397.8,283.5,399.3,280.7z"/>
	</g>
	<g>
		<path class="st1" d="M382.6,297.5c2.7-1.6,3.7-5.1,2.1-7.8c-1.6-2.7-5.1-3.7-7.8-2.1c-2.7,1.6-3.7,5.1-2.1,7.8
			C376.4,298.1,379.9,299,382.6,297.5z"/>
	</g>
</g>
</svg>
