<svg id="Layer_1" data-name="Layer 1" xmlns="http://www.w3.org/2000/svg" viewBox="0 0 580 436"><defs><style>.cls-1{fill:#ffc41f;}.cls-2{fill:#00adeb;}</style></defs><rect class="cls-1" width="580" height="436" rx="14.541"/><path class="cls-2" d="M229.1374,152.0981v-10.12a40.4811,40.4811,0,0,0-35.0576,20.24l8.7643,5.06a30.3613,30.3613,0,0,1,26.2933-15.18Zm0-10.12a5.06,5.06,0,1,0,5.06,5.06A5.06,5.06,0,0,0,229.1374,141.9779Zm-35.0576,20.24a5.06,5.06,0,1,0,6.9122-1.8522A5.06,5.06,0,0,0,194.08,162.2184Z"/><path class="cls-2" d="M208.8969,147.4013a5.06,5.06,0,1,0,6.9122,1.8521A5.06,5.06,0,0,0,208.8969,147.4013Z"/><path class="cls-2" d="M202.8441,167.2785l-8.7643-5.06a40.4809,40.4809,0,0,0,0,40.481l8.7644-5.06a30.36,30.36,0,0,1,0-30.3608Zm-8.7643-5.06a5.06,5.06,0,1,0,6.9122-1.8522A5.06,5.06,0,0,0,194.08,162.2184Zm0,40.4809a5.06,5.06,0,1,0,1.8522-6.9122A5.06,5.06,0,0,0,194.08,202.6993Z"/><path class="cls-2" d="M188.6564,182.4588a5.06,5.06,0,1,0,5.06-5.06A5.06,5.06,0,0,0,188.6564,182.4588Z"/><path class="cls-2" d="M202.8441,167.2785l-8.7643-5.06a40.4809,40.4809,0,0,0,0,40.481l8.7644-5.06a30.36,30.36,0,0,1,0-30.3608Zm-8.7643-5.06a5.06,5.06,0,1,0,6.9122-1.8522A5.06,5.06,0,0,0,194.08,162.2184Zm0,40.4809a5.06,5.06,0,1,0,1.8522-6.9122A5.06,5.06,0,0,0,194.08,202.6993Z"/><path class="cls-2" d="M188.6564,182.4588a5.06,5.06,0,1,0,5.06-5.06A5.06,5.06,0,0,0,188.6564,182.4588Z"/><path class="cls-2" d="M194.08,233.06l8.7643,5.06a40.4807,40.4807,0,0,0,0-40.481l-8.7643,5.06A30.361,30.361,0,0,1,194.08,233.06Zm8.7644,5.06a5.06,5.06,0,1,0-6.9122,1.8522A5.06,5.06,0,0,0,202.8442,238.12Zm0-40.481a5.06,5.06,0,1,0-1.8522,6.9122A5.06,5.06,0,0,0,202.8442,197.6392Z"/><path class="cls-2" d="M208.2676,217.88a5.06,5.06,0,1,0-5.06,5.06A5.06,5.06,0,0,0,208.2676,217.88Z"/><path class="cls-2" d="M202.8442,238.12l-8.7643-5.06a40.4809,40.4809,0,0,0,0,40.4811l8.7643-5.06A30.361,30.361,0,0,1,202.8442,238.12Zm-8.7644-5.06a5.06,5.06,0,1,0,6.9122-1.8521A5.06,5.06,0,0,0,194.08,233.06Zm0,40.481a5.06,5.06,0,1,0,1.8521-6.9122A5.06,5.06,0,0,0,194.08,273.5411Z"/><path class="cls-2" d="M188.6563,253.3006a5.06,5.06,0,1,0,5.06-5.06A5.06,5.06,0,0,0,188.6563,253.3006Z"/><path class="cls-2" d="M194.08,233.06l8.7643,5.06a40.4807,40.4807,0,0,0,0-40.481l-8.7643,5.06A30.361,30.361,0,0,1,194.08,233.06Zm8.7644,5.06a5.06,5.06,0,1,0-6.9122,1.8522A5.06,5.06,0,0,0,202.8442,238.12Zm0-40.481a5.06,5.06,0,1,0-1.8522,6.9122A5.06,5.06,0,0,0,202.8442,197.6392Z"/><path class="cls-2" d="M208.2676,217.88a5.06,5.06,0,1,0-5.06,5.06A5.06,5.06,0,0,0,208.2676,217.88Z"/><path class="cls-2" d="M202.8442,238.12l-8.7643-5.06a40.4809,40.4809,0,0,0,0,40.4811l8.7643-5.06A30.361,30.361,0,0,1,202.8442,238.12Zm-8.7644-5.06a5.06,5.06,0,1,0,6.9122-1.8521A5.06,5.06,0,0,0,194.08,233.06Zm0,40.481a5.06,5.06,0,1,0,1.8521-6.9122A5.06,5.06,0,0,0,194.08,273.5411Z"/><path class="cls-2" d="M188.6563,253.3006a5.06,5.06,0,1,0,5.06-5.06A5.06,5.06,0,0,0,188.6563,253.3006Z"/><path class="cls-2" d="M202.8442,268.481l-8.7644,5.06a40.4814,40.4814,0,0,0,35.0576,20.2406v-10.12a30.3607,30.3607,0,0,1-26.2932-15.18Zm-8.7644,5.06a5.06,5.06,0,1,0,1.8521-6.9122A5.06,5.06,0,0,0,194.08,273.5411Zm35.0576,20.2405a5.06,5.06,0,1,0-5.06-5.06A5.06,5.06,0,0,0,229.1374,293.7816Z"/><path class="cls-2" d="M208.8968,288.3582a5.06,5.06,0,1,0-1.8521-6.9123A5.06,5.06,0,0,0,208.8968,288.3582Z"/><path class="cls-2" d="M290.4882,116.6772v-10.12a40.481,40.481,0,0,0-35.0576,20.2406l8.7643,5.06a30.3609,30.3609,0,0,1,26.2933-15.18Zm0-10.12a5.06,5.06,0,1,0,5.06,5.06A5.06,5.06,0,0,0,290.4881,106.5569Zm-35.0575,20.24a5.06,5.06,0,1,0,6.9122-1.8521A5.06,5.06,0,0,0,255.4306,126.7974Z"/><path class="cls-2" d="M270.2476,111.98a5.06,5.06,0,1,0,6.9123,1.8521A5.06,5.06,0,0,0,270.2476,111.98Z"/><path class="cls-2" d="M264.195,131.8576l-8.7644-5.06a40.4812,40.4812,0,0,0,0,40.481l8.7644-5.06a30.361,30.361,0,0,1,0-30.3608Zm-8.7644-5.06a5.06,5.06,0,1,0,6.9122-1.8521A5.06,5.06,0,0,0,255.4306,126.7974Zm0,40.481a5.06,5.06,0,1,0,1.8522-6.9122A5.06,5.06,0,0,0,255.4305,167.2784Z"/><path class="cls-2" d="M250.0071,147.0379a5.06,5.06,0,1,0,5.06-5.06A5.06,5.06,0,0,0,250.0071,147.0379Z"/><path class="cls-2" d="M255.4305,167.2784l8.7644-5.06a40.4811,40.4811,0,0,0-35.0576-20.24v10.12a30.3608,30.3608,0,0,1,26.2932,15.18Zm8.7645-5.06a5.06,5.06,0,1,0-1.8522,6.9122A5.06,5.06,0,0,0,264.195,162.2184Zm-35.0576-20.24a5.06,5.06,0,1,0,5.06,5.06A5.06,5.06,0,0,0,229.1374,141.9779Z"/><path class="cls-2" d="M249.3779,147.4013a5.06,5.06,0,1,0,1.8522,6.9122A5.06,5.06,0,0,0,249.3779,147.4013Z"/><path class="cls-2" d="M229.1374,141.9779v10.12a40.4811,40.4811,0,0,0,35.0576-20.24l-8.7644-5.06a30.3607,30.3607,0,0,1-26.2932,15.18Zm0,10.12a5.06,5.06,0,1,0-5.06-5.06A5.06,5.06,0,0,0,229.1374,152.0981Zm35.0576-20.24a5.06,5.06,0,1,0-6.9123,1.8521A5.06,5.06,0,0,0,264.195,131.8576Z"/><path class="cls-2" d="M249.3779,146.6747a5.06,5.06,0,1,0-6.9123-1.8522A5.06,5.06,0,0,0,249.3779,146.6747Z"/><path class="cls-2" d="M251.908,151.0568a5.06,5.06,0,1,0-6.9123-1.8521A5.06,5.06,0,0,0,251.908,151.0568Z"/><path class="cls-2" d="M229.1374,152.0981v-10.12a40.4811,40.4811,0,0,0-35.0576,20.24l8.7643,5.06a30.3613,30.3613,0,0,1,26.2933-15.18Zm0-10.12a5.06,5.06,0,1,0,5.06,5.06A5.06,5.06,0,0,0,229.1374,141.9779Zm-35.0576,20.24a5.06,5.06,0,1,0,6.9122-1.8522A5.06,5.06,0,0,0,194.08,162.2184Z"/><path class="cls-2" d="M208.8969,147.4013a5.06,5.06,0,1,0,6.9122,1.8521A5.06,5.06,0,0,0,208.8969,147.4013Z"/><path class="cls-2" d="M229.1374,141.9779v10.12a40.4811,40.4811,0,0,0,35.0576-20.24l-8.7644-5.06a30.3607,30.3607,0,0,1-26.2932,15.18Zm0,10.12a5.06,5.06,0,1,0-5.06-5.06A5.06,5.06,0,0,0,229.1374,152.0981Zm35.0576-20.24a5.06,5.06,0,1,0-6.9123,1.8521A5.06,5.06,0,0,0,264.195,131.8576Z"/><path class="cls-2" d="M249.3779,146.6747a5.06,5.06,0,1,0-6.9123-1.8522A5.06,5.06,0,0,0,249.3779,146.6747Z"/><path class="cls-2" d="M229.1374,152.0981v-10.12a40.4811,40.4811,0,0,0-35.0576,20.24l8.7643,5.06a30.3613,30.3613,0,0,1,26.2933-15.18Zm0-10.12a5.06,5.06,0,1,0,5.06,5.06A5.06,5.06,0,0,0,229.1374,141.9779Zm-35.0576,20.24a5.06,5.06,0,1,0,6.9122-1.8522A5.06,5.06,0,0,0,194.08,162.2184Z"/><path class="cls-2" d="M208.8969,147.4013a5.06,5.06,0,1,0,6.9122,1.8521A5.06,5.06,0,0,0,208.8969,147.4013Z"/><path class="cls-2" d="M229.1374,141.9779v10.12a40.4811,40.4811,0,0,0,35.0576-20.24l-8.7644-5.06a30.3607,30.3607,0,0,1-26.2932,15.18Zm0,10.12a5.06,5.06,0,1,0-5.06-5.06A5.06,5.06,0,0,0,229.1374,152.0981Zm35.0576-20.24a5.06,5.06,0,1,0-6.9123,1.8521A5.06,5.06,0,0,0,264.195,131.8576Z"/><path class="cls-2" d="M249.3779,146.6747a5.06,5.06,0,1,0-6.9123-1.8522A5.06,5.06,0,0,0,249.3779,146.6747Z"/><path class="cls-2" d="M264.195,131.8576l-8.7644-5.06a40.4812,40.4812,0,0,0,0,40.481l8.7644-5.06a30.361,30.361,0,0,1,0-30.3608Zm-8.7644-5.06a5.06,5.06,0,1,0,6.9122-1.8521A5.06,5.06,0,0,0,255.4306,126.7974Zm0,40.481a5.06,5.06,0,1,0,1.8522-6.9122A5.06,5.06,0,0,0,255.4305,167.2784Z"/><path class="cls-2" d="M250.0071,147.0379a5.06,5.06,0,1,0,5.06-5.06A5.06,5.06,0,0,0,250.0071,147.0379Z"/><path class="cls-2" d="M255.4305,167.2784l8.7644-5.06a40.4811,40.4811,0,0,0-35.0576-20.24v10.12a30.3608,30.3608,0,0,1,26.2932,15.18Zm8.7645-5.06a5.06,5.06,0,1,0-1.8522,6.9122A5.06,5.06,0,0,0,264.195,162.2184Zm-35.0576-20.24a5.06,5.06,0,1,0,5.06,5.06A5.06,5.06,0,0,0,229.1374,141.9779Z"/><path class="cls-2" d="M249.3779,147.4013a5.06,5.06,0,1,0,1.8522,6.9122A5.06,5.06,0,0,0,249.3779,147.4013Z"/><path class="cls-2" d="M251.908,143.0191a5.06,5.06,0,1,0,1.8521,6.9122A5.06,5.06,0,0,0,251.908,143.0191Z"/><path class="cls-2" d="M264.195,162.2184l-8.7644,5.06a40.4811,40.4811,0,0,0,35.0576,20.24v-10.12a30.3608,30.3608,0,0,1-26.2932-15.18Zm-8.7645,5.06a5.06,5.06,0,1,0,1.8522-6.9122A5.06,5.06,0,0,0,255.4305,167.2784Zm35.0577,20.2406a5.06,5.06,0,1,0-5.06-5.06A5.06,5.06,0,0,0,290.4882,187.519Z"/><path class="cls-2" d="M270.2476,182.0955a5.06,5.06,0,1,0-1.8521-6.9122A5.06,5.06,0,0,0,270.2476,182.0955Z"/><path class="cls-2" d="M194.08,233.06l8.7643,5.06a40.4807,40.4807,0,0,0,0-40.481l-8.7643,5.06A30.361,30.361,0,0,1,194.08,233.06Zm8.7644,5.06a5.06,5.06,0,1,0-6.9122,1.8522A5.06,5.06,0,0,0,202.8442,238.12Zm0-40.481a5.06,5.06,0,1,0-1.8522,6.9122A5.06,5.06,0,0,0,202.8442,197.6392Z"/><path class="cls-2" d="M208.2676,217.88a5.06,5.06,0,1,0-5.06,5.06A5.06,5.06,0,0,0,208.2676,217.88Z"/><path class="cls-2" d="M202.8441,167.2785l-8.7643-5.06a40.4809,40.4809,0,0,0,0,40.481l8.7644-5.06a30.36,30.36,0,0,1,0-30.3608Zm-8.7643-5.06a5.06,5.06,0,1,0,6.9122-1.8522A5.06,5.06,0,0,0,194.08,162.2184Zm0,40.4809a5.06,5.06,0,1,0,1.8522-6.9122A5.06,5.06,0,0,0,194.08,202.6993Z"/><path class="cls-2" d="M188.6564,182.4588a5.06,5.06,0,1,0,5.06-5.06A5.06,5.06,0,0,0,188.6564,182.4588Z"/><path class="cls-2" d="M229.1374,172.3386v-10.12a20.2406,20.2406,0,0,0-17.5287,10.12l8.7643,5.06a10.12,10.12,0,0,1,8.7644-5.06Zm0-10.12a5.06,5.06,0,1,0,5.06,5.06A5.06,5.06,0,0,0,229.1374,162.2183Zm-17.5288,10.12a5.06,5.06,0,1,0,6.9122-1.8521A5.06,5.06,0,0,0,211.6086,172.3386Z"/><path class="cls-2" d="M219.0171,164.93a5.06,5.06,0,1,0,6.9123,1.8522A5.06,5.06,0,0,0,219.0171,164.93Z"/><path class="cls-2" d="M237.9018,177.3987l8.7644-5.06a20.24,20.24,0,0,0-17.5288-10.12v10.12a10.12,10.12,0,0,1,8.7644,5.06Zm8.7644-5.06a5.06,5.06,0,1,0-1.8522,6.9122A5.06,5.06,0,0,0,246.6662,172.3386Zm-17.5288-10.12a5.06,5.06,0,1,0,5.06,5.06A5.06,5.06,0,0,0,229.1374,162.2183Z"/><path class="cls-2" d="M239.2576,164.93a5.06,5.06,0,1,0,1.8522,6.9122A5.06,5.06,0,0,0,239.2576,164.93Z"/><path class="cls-2" d="M237.9017,187.519l8.7644,5.06a20.2406,20.2406,0,0,0,0-20.24l-8.7644,5.06A10.12,10.12,0,0,1,237.9017,187.519Zm8.7645,5.06a5.06,5.06,0,1,0-6.9123,1.8521A5.06,5.06,0,0,0,246.6662,192.5791Zm0-20.24a5.06,5.06,0,1,0-1.8522,6.9122A5.06,5.06,0,0,0,246.6662,172.3386Z"/><path class="cls-2" d="M249.3779,182.4588a5.06,5.06,0,1,0-5.06,5.06A5.06,5.06,0,0,0,249.3779,182.4588Z"/><path class="cls-2" d="M229.1374,192.5791v10.12a20.24,20.24,0,0,0,17.5287-10.12l-8.7643-5.06A10.12,10.12,0,0,1,229.1374,192.5791Zm0,10.12a5.06,5.06,0,1,0-5.06-5.06A5.06,5.06,0,0,0,229.1374,202.6993Zm17.5288-10.12a5.06,5.06,0,1,0-6.9123,1.8521A5.06,5.06,0,0,0,246.6662,192.5791Z"/><path class="cls-2" d="M239.2576,199.9876a5.06,5.06,0,1,0-6.9122-1.8521A5.06,5.06,0,0,0,239.2576,199.9876Z"/><path class="cls-2" d="M220.373,187.519l-8.7644,5.06a20.24,20.24,0,0,0,17.5288,10.12v-10.12a10.12,10.12,0,0,1-8.7643-5.06Zm-8.7644,5.06a5.06,5.06,0,1,0,1.8521-6.9123A5.06,5.06,0,0,0,211.6086,192.5791Zm17.5288,10.12a5.06,5.06,0,1,0-5.06-5.06A5.06,5.06,0,0,0,229.1374,202.6993Z"/><path class="cls-2" d="M219.0172,199.9876a5.06,5.06,0,1,0-1.8522-6.9122A5.06,5.06,0,0,0,219.0172,199.9876Z"/><path class="cls-2" d="M220.3729,177.3987l-8.7643-5.06a20.2406,20.2406,0,0,0,0,20.24l8.7644-5.06A10.12,10.12,0,0,1,220.3729,177.3987Zm-8.7643-5.06a5.06,5.06,0,1,0,6.9122-1.8521A5.06,5.06,0,0,0,211.6086,172.3386Zm0,20.24a5.06,5.06,0,1,0,1.8521-6.9123A5.06,5.06,0,0,0,211.6086,192.5791Z"/><path class="cls-2" d="M229.1374,152.0981v-10.12a40.4811,40.4811,0,0,0-35.0576,20.24l8.7643,5.06a30.3613,30.3613,0,0,1,26.2933-15.18Zm0-10.12a5.06,5.06,0,1,0,5.06,5.06A5.06,5.06,0,0,0,229.1374,141.9779Zm-35.0576,20.24a5.06,5.06,0,1,0,6.9122-1.8522A5.06,5.06,0,0,0,194.08,162.2184Z"/><path class="cls-2" d="M208.8969,147.4013a5.06,5.06,0,1,0,6.9122,1.8521A5.06,5.06,0,0,0,208.8969,147.4013Z"/><path class="cls-2" d="M255.4305,167.2784l8.7644-5.06a40.4811,40.4811,0,0,0-35.0576-20.24v10.12a30.3608,30.3608,0,0,1,26.2932,15.18Zm8.7645-5.06a5.06,5.06,0,1,0-1.8522,6.9122A5.06,5.06,0,0,0,264.195,162.2184Zm-35.0576-20.24a5.06,5.06,0,1,0,5.06,5.06A5.06,5.06,0,0,0,229.1374,141.9779Z"/><path class="cls-2" d="M249.3779,147.4013a5.06,5.06,0,1,0,1.8522,6.9122A5.06,5.06,0,0,0,249.3779,147.4013Z"/><path class="cls-2" d="M202.8441,167.2785l-8.7643-5.06a40.4809,40.4809,0,0,0,0,40.481l8.7644-5.06a30.36,30.36,0,0,1,0-30.3608Zm-8.7643-5.06a5.06,5.06,0,1,0,6.9122-1.8522A5.06,5.06,0,0,0,194.08,162.2184Zm0,40.4809a5.06,5.06,0,1,0,1.8522-6.9122A5.06,5.06,0,0,0,194.08,202.6993Z"/><path class="cls-2" d="M188.6564,182.4588a5.06,5.06,0,1,0,5.06-5.06A5.06,5.06,0,0,0,188.6564,182.4588Z"/><path class="cls-2" d="M194.08,233.06l8.7643,5.06a40.4807,40.4807,0,0,0,0-40.481l-8.7643,5.06A30.361,30.361,0,0,1,194.08,233.06Zm8.7644,5.06a5.06,5.06,0,1,0-6.9122,1.8522A5.06,5.06,0,0,0,202.8442,238.12Zm0-40.481a5.06,5.06,0,1,0-1.8522,6.9122A5.06,5.06,0,0,0,202.8442,197.6392Z"/><path class="cls-2" d="M208.2676,217.88a5.06,5.06,0,1,0-5.06,5.06A5.06,5.06,0,0,0,208.2676,217.88Z"/><path class="cls-2" d="M290.4882,258.3607v-10.12a40.4811,40.4811,0,0,0-35.0576,20.24l8.7644,5.06a30.3607,30.3607,0,0,1,26.2932-15.18Zm0-10.12a5.06,5.06,0,1,0,5.06,5.06A5.06,5.06,0,0,0,290.4881,248.24ZM255.4306,268.481a5.06,5.06,0,1,0,6.9123-1.8521A5.06,5.06,0,0,0,255.4306,268.481Z"/><path class="cls-2" d="M270.2476,253.6639a5.06,5.06,0,1,0,6.9123,1.8521A5.06,5.06,0,0,0,270.2476,253.6639Z"/><path class="cls-2" d="M264.195,273.5411l-8.7644-5.06a40.4812,40.4812,0,0,0,0,40.481l8.7644-5.06A30.3607,30.3607,0,0,1,264.195,273.5411Zm-8.7644-5.06a5.06,5.06,0,1,0,6.9123-1.8521A5.06,5.06,0,0,0,255.4306,268.481Zm0,40.481a5.06,5.06,0,1,0,1.8522-6.9123A5.06,5.06,0,0,0,255.4305,308.962Z"/><path class="cls-2" d="M250.0071,288.7215a5.06,5.06,0,1,0,5.06-5.06A5.06,5.06,0,0,0,250.0071,288.7215Z"/><path class="cls-2" d="M255.4305,308.962l8.7644-5.06a40.4812,40.4812,0,0,0-35.0576-20.2406v10.12a30.3607,30.3607,0,0,1,26.2932,15.18Zm8.7645-5.06a5.06,5.06,0,1,0-1.8521,6.9123A5.06,5.06,0,0,0,264.195,303.9019Zm-35.0576-20.24a5.06,5.06,0,1,0,5.06,5.06A5.06,5.06,0,0,0,229.1374,283.6614Z"/><path class="cls-2" d="M249.3779,289.0848a5.06,5.06,0,1,0,1.8521,6.9123A5.06,5.06,0,0,0,249.3779,289.0848Z"/><path class="cls-2" d="M229.1374,283.6614v10.12a40.4808,40.4808,0,0,0,35.0576-20.2405l-8.7644-5.06a30.3607,30.3607,0,0,1-26.2932,15.18Zm0,10.12a5.06,5.06,0,1,0-5.06-5.06A5.06,5.06,0,0,0,229.1374,293.7816Zm35.0576-20.2405a5.06,5.06,0,1,0-6.9123,1.8521A5.06,5.06,0,0,0,264.195,273.5411Z"/><path class="cls-2" d="M249.3779,288.3582a5.06,5.06,0,1,0-6.9123-1.8521A5.06,5.06,0,0,0,249.3779,288.3582Z"/><path class="cls-2" d="M251.908,292.7405a5.06,5.06,0,1,0-6.9123-1.8522A5.06,5.06,0,0,0,251.908,292.7405Z"/><path class="cls-2" d="M202.8442,268.481l-8.7644,5.06a40.4814,40.4814,0,0,0,35.0576,20.2406v-10.12a30.3607,30.3607,0,0,1-26.2932-15.18Zm-8.7644,5.06a5.06,5.06,0,1,0,1.8521-6.9122A5.06,5.06,0,0,0,194.08,273.5411Zm35.0576,20.2405a5.06,5.06,0,1,0-5.06-5.06A5.06,5.06,0,0,0,229.1374,293.7816Z"/><path class="cls-2" d="M208.8968,288.3582a5.06,5.06,0,1,0-1.8521-6.9123A5.06,5.06,0,0,0,208.8968,288.3582Z"/><path class="cls-2" d="M202.8442,238.12l-8.7643-5.06a40.4809,40.4809,0,0,0,0,40.4811l8.7643-5.06A30.361,30.361,0,0,1,202.8442,238.12Zm-8.7644-5.06a5.06,5.06,0,1,0,6.9122-1.8521A5.06,5.06,0,0,0,194.08,233.06Zm0,40.481a5.06,5.06,0,1,0,1.8521-6.9122A5.06,5.06,0,0,0,194.08,273.5411Z"/><path class="cls-2" d="M188.6563,253.3006a5.06,5.06,0,1,0,5.06-5.06A5.06,5.06,0,0,0,188.6563,253.3006Z"/><path class="cls-2" d="M229.1374,283.6614v10.12a40.4808,40.4808,0,0,0,35.0576-20.2405l-8.7644-5.06a30.3607,30.3607,0,0,1-26.2932,15.18Zm0,10.12a5.06,5.06,0,1,0-5.06-5.06A5.06,5.06,0,0,0,229.1374,293.7816Zm35.0576-20.2405a5.06,5.06,0,1,0-6.9123,1.8521A5.06,5.06,0,0,0,264.195,273.5411Z"/><path class="cls-2" d="M249.3779,288.3582a5.06,5.06,0,1,0-6.9123-1.8521A5.06,5.06,0,0,0,249.3779,288.3582Z"/><path class="cls-2" d="M202.8442,268.481l-8.7644,5.06a40.4814,40.4814,0,0,0,35.0576,20.2406v-10.12a30.3607,30.3607,0,0,1-26.2932-15.18Zm-8.7644,5.06a5.06,5.06,0,1,0,1.8521-6.9122A5.06,5.06,0,0,0,194.08,273.5411Zm35.0576,20.2405a5.06,5.06,0,1,0-5.06-5.06A5.06,5.06,0,0,0,229.1374,293.7816Z"/><path class="cls-2" d="M208.8968,288.3582a5.06,5.06,0,1,0-1.8521-6.9123A5.06,5.06,0,0,0,208.8968,288.3582Z"/><path class="cls-2" d="M202.8442,238.12l-8.7643-5.06a40.4809,40.4809,0,0,0,0,40.4811l8.7643-5.06A30.361,30.361,0,0,1,202.8442,238.12Zm-8.7644-5.06a5.06,5.06,0,1,0,6.9122-1.8521A5.06,5.06,0,0,0,194.08,233.06Zm0,40.481a5.06,5.06,0,1,0,1.8521-6.9122A5.06,5.06,0,0,0,194.08,273.5411Z"/><path class="cls-2" d="M188.6563,253.3006a5.06,5.06,0,1,0,5.06-5.06A5.06,5.06,0,0,0,188.6563,253.3006Z"/><path class="cls-2" d="M202.8442,268.481l-8.7644,5.06a40.4814,40.4814,0,0,0,35.0576,20.2406v-10.12a30.3607,30.3607,0,0,1-26.2932-15.18Zm-8.7644,5.06a5.06,5.06,0,1,0,1.8521-6.9122A5.06,5.06,0,0,0,194.08,273.5411Zm35.0576,20.2405a5.06,5.06,0,1,0-5.06-5.06A5.06,5.06,0,0,0,229.1374,293.7816Z"/><path class="cls-2" d="M208.8968,288.3582a5.06,5.06,0,1,0-1.8521-6.9123A5.06,5.06,0,0,0,208.8968,288.3582Z"/><path class="cls-2" d="M229.1374,283.6614v10.12a40.4808,40.4808,0,0,0,35.0576-20.2405l-8.7644-5.06a30.3607,30.3607,0,0,1-26.2932,15.18Zm0,10.12a5.06,5.06,0,1,0-5.06-5.06A5.06,5.06,0,0,0,229.1374,293.7816Zm35.0576-20.2405a5.06,5.06,0,1,0-6.9123,1.8521A5.06,5.06,0,0,0,264.195,273.5411Z"/><path class="cls-2" d="M249.3779,288.3582a5.06,5.06,0,1,0-6.9123-1.8521A5.06,5.06,0,0,0,249.3779,288.3582Z"/><path class="cls-2" d="M264.195,273.5411l-8.7644-5.06a40.4812,40.4812,0,0,0,0,40.481l8.7644-5.06A30.3607,30.3607,0,0,1,264.195,273.5411Zm-8.7644-5.06a5.06,5.06,0,1,0,6.9123-1.8521A5.06,5.06,0,0,0,255.4306,268.481Zm0,40.481a5.06,5.06,0,1,0,1.8522-6.9123A5.06,5.06,0,0,0,255.4305,308.962Z"/><path class="cls-2" d="M250.0071,288.7215a5.06,5.06,0,1,0,5.06-5.06A5.06,5.06,0,0,0,250.0071,288.7215Z"/><path class="cls-2" d="M255.4305,308.962l8.7644-5.06a40.4812,40.4812,0,0,0-35.0576-20.2406v10.12a30.3607,30.3607,0,0,1,26.2932,15.18Zm8.7645-5.06a5.06,5.06,0,1,0-1.8521,6.9123A5.06,5.06,0,0,0,264.195,303.9019Zm-35.0576-20.24a5.06,5.06,0,1,0,5.06,5.06A5.06,5.06,0,0,0,229.1374,283.6614Z"/><path class="cls-2" d="M249.3779,289.0848a5.06,5.06,0,1,0,1.8521,6.9123A5.06,5.06,0,0,0,249.3779,289.0848Z"/><path class="cls-2" d="M251.9079,284.7026a5.06,5.06,0,1,0,1.8522,6.9123A5.06,5.06,0,0,0,251.9079,284.7026Z"/><path class="cls-2" d="M264.195,303.9019l-8.7644,5.06a40.4814,40.4814,0,0,0,35.0576,20.2406v-10.12a30.3607,30.3607,0,0,1-26.2932-15.18Zm-8.7645,5.06a5.06,5.06,0,1,0,1.8522-6.9123A5.06,5.06,0,0,0,255.4305,308.962Zm35.0576,20.24a5.06,5.06,0,1,0-5.06-5.06A5.06,5.06,0,0,0,290.4881,329.2025Z"/><path class="cls-2" d="M270.2476,323.7791a5.06,5.06,0,1,0-1.8521-6.9123A5.06,5.06,0,0,0,270.2476,323.7791Z"/><path class="cls-2" d="M255.4305,308.962l8.7644-5.06a40.4812,40.4812,0,0,0-35.0576-20.2406v10.12a30.3607,30.3607,0,0,1,26.2932,15.18Zm8.7645-5.06a5.06,5.06,0,1,0-1.8521,6.9123A5.06,5.06,0,0,0,264.195,303.9019Zm-35.0576-20.24a5.06,5.06,0,1,0,5.06,5.06A5.06,5.06,0,0,0,229.1374,283.6614Z"/><path class="cls-2" d="M249.3779,289.0848a5.06,5.06,0,1,0,1.8521,6.9123A5.06,5.06,0,0,0,249.3779,289.0848Z"/><path class="cls-2" d="M316.7814,131.8576l8.7644-5.06a40.4814,40.4814,0,0,0-35.0577-20.24v10.12a30.3605,30.3605,0,0,1,26.2932,15.18Zm8.7644-5.06a5.06,5.06,0,1,0-1.8522,6.9123A5.06,5.06,0,0,0,325.5458,126.7974Zm-35.0577-20.24a5.06,5.06,0,1,0,5.06,5.06A5.06,5.06,0,0,0,290.4881,106.5569Z"/><path class="cls-2" d="M310.7286,111.98a5.06,5.06,0,1,0,1.8522,6.9123A5.06,5.06,0,0,0,310.7286,111.98Z"/><path class="cls-2" d="M290.4882,116.6772v-10.12a40.481,40.481,0,0,0-35.0576,20.2406l8.7643,5.06a30.3609,30.3609,0,0,1,26.2933-15.18Zm0-10.12a5.06,5.06,0,1,0,5.06,5.06A5.06,5.06,0,0,0,290.4881,106.5569Zm-35.0575,20.24a5.06,5.06,0,1,0,6.9122-1.8521A5.06,5.06,0,0,0,255.4306,126.7974Z"/><path class="cls-2" d="M270.2476,111.98a5.06,5.06,0,1,0,6.9123,1.8521A5.06,5.06,0,0,0,270.2476,111.98Z"/><path class="cls-2" d="M290.4882,116.6772v-10.12a40.481,40.481,0,0,0-35.0576,20.2406l8.7643,5.06a30.3609,30.3609,0,0,1,26.2933-15.18Zm0-10.12a5.06,5.06,0,1,0,5.06,5.06A5.06,5.06,0,0,0,290.4881,106.5569Zm-35.0575,20.24a5.06,5.06,0,1,0,6.9122-1.8521A5.06,5.06,0,0,0,255.4306,126.7974Z"/><path class="cls-2" d="M270.2476,111.98a5.06,5.06,0,1,0,6.9123,1.8521A5.06,5.06,0,0,0,270.2476,111.98Z"/><path class="cls-2" d="M316.7814,131.8576l8.7644-5.06a40.4814,40.4814,0,0,0-35.0577-20.24v10.12a30.3605,30.3605,0,0,1,26.2932,15.18Zm8.7644-5.06a5.06,5.06,0,1,0-1.8522,6.9123A5.06,5.06,0,0,0,325.5458,126.7974Zm-35.0577-20.24a5.06,5.06,0,1,0,5.06,5.06A5.06,5.06,0,0,0,290.4881,106.5569Z"/><path class="cls-2" d="M310.7286,111.98a5.06,5.06,0,1,0,1.8522,6.9123A5.06,5.06,0,0,0,310.7286,111.98Z"/><path class="cls-2" d="M325.5458,126.7974l-8.7644,5.06a40.4811,40.4811,0,0,0,35.0576,20.24v-10.12a30.3605,30.3605,0,0,1-26.2932-15.18Zm-8.7644,5.06a5.06,5.06,0,1,0,1.8521-6.9123A5.06,5.06,0,0,0,316.7814,131.8576Zm35.0576,20.24a5.06,5.06,0,1,0-5.06-5.06A5.06,5.06,0,0,0,351.839,152.0981Z"/><path class="cls-2" d="M331.5984,146.6746a5.06,5.06,0,1,0-1.8521-6.9122A5.06,5.06,0,0,0,331.5984,146.6746Z"/><path class="cls-2" d="M351.839,152.0981v-10.12a40.481,40.481,0,0,0-35.0576,20.2406l8.7643,5.06a30.3609,30.3609,0,0,1,26.2933-15.18Zm0-10.12a5.06,5.06,0,1,0,5.06,5.06A5.06,5.06,0,0,0,351.8389,141.9778Zm-35.0575,20.2406a5.06,5.06,0,1,0,6.9122-1.8522A5.06,5.06,0,0,0,316.7814,162.2184Z"/><path class="cls-2" d="M331.5984,147.4012a5.06,5.06,0,1,0,6.9123,1.8521A5.06,5.06,0,0,0,331.5984,147.4012Z"/><path class="cls-2" d="M316.7814,162.2184l8.7643,5.06a40.4811,40.4811,0,0,0,0-40.4811l-8.7644,5.06a30.361,30.361,0,0,1,0,30.3608Zm8.7643,5.06a5.06,5.06,0,1,0-6.9122,1.8521A5.06,5.06,0,0,0,325.5457,167.2785Zm0-40.4811a5.06,5.06,0,1,0-1.8522,6.9123A5.06,5.06,0,0,0,325.5458,126.7974Z"/><path class="cls-2" d="M330.9692,147.0379a5.06,5.06,0,1,0-5.06,5.06A5.06,5.06,0,0,0,330.9692,147.0379Z"/><path class="cls-2" d="M336.0294,147.0379a5.06,5.06,0,1,0-5.06,5.06A5.06,5.06,0,0,0,336.0294,147.0379Z"/><path class="cls-2" d="M325.5457,167.2785l-8.7643-5.06a40.4809,40.4809,0,0,0,0,40.481l8.7644-5.06a30.3607,30.3607,0,0,1,0-30.3608Zm-8.7643-5.06a5.06,5.06,0,1,0,6.9122-1.8522A5.06,5.06,0,0,0,316.7814,162.2184Zm0,40.4809a5.06,5.06,0,1,0,1.8521-6.9122A5.06,5.06,0,0,0,316.7813,202.6993Z"/><path class="cls-2" d="M311.3579,182.4588a5.06,5.06,0,1,0,5.06-5.06A5.06,5.06,0,0,0,311.3579,182.4588Z"/><path class="cls-2" d="M316.7813,202.6993l8.7644-5.06a40.4811,40.4811,0,0,0-35.0576-20.24v10.12a30.3608,30.3608,0,0,1,26.2932,15.18Zm8.7645-5.06a5.06,5.06,0,1,0-1.8522,6.9122A5.06,5.06,0,0,0,325.5458,197.6393Zm-35.0577-20.2406a5.06,5.06,0,1,0,5.06,5.06A5.06,5.06,0,0,0,290.4881,177.3987Z"/><path class="cls-2" d="M310.7287,182.8221a5.06,5.06,0,1,0,1.8521,6.9123A5.06,5.06,0,0,0,310.7287,182.8221Z"/><path class="cls-2" d="M290.4881,177.3987v10.12a40.4811,40.4811,0,0,0,35.0575-20.24l-8.7643-5.06a30.3613,30.3613,0,0,1-26.2933,15.18Zm0,10.12a5.06,5.06,0,1,0-5.06-5.06A5.06,5.06,0,0,0,290.4882,187.519Zm35.0575-20.24a5.06,5.06,0,1,0-6.9122,1.8521A5.06,5.06,0,0,0,325.5457,167.2785Z"/><path class="cls-2" d="M310.7286,182.0955a5.06,5.06,0,1,0-6.9122-1.8521A5.06,5.06,0,0,0,310.7286,182.0955Z"/><path class="cls-2" d="M313.2588,186.4777a5.06,5.06,0,1,0-6.9123-1.8521A5.06,5.06,0,0,0,313.2588,186.4777Z"/><path class="cls-2" d="M264.195,162.2184l-8.7644,5.06a40.4811,40.4811,0,0,0,35.0576,20.24v-10.12a30.3608,30.3608,0,0,1-26.2932-15.18Zm-8.7645,5.06a5.06,5.06,0,1,0,1.8522-6.9122A5.06,5.06,0,0,0,255.4305,167.2784Zm35.0577,20.2406a5.06,5.06,0,1,0-5.06-5.06A5.06,5.06,0,0,0,290.4882,187.519Z"/><path class="cls-2" d="M270.2476,182.0955a5.06,5.06,0,1,0-1.8521-6.9122A5.06,5.06,0,0,0,270.2476,182.0955Z"/><path class="cls-2" d="M255.4305,167.2784l8.7644-5.06a40.4811,40.4811,0,0,0-35.0576-20.24v10.12a30.3608,30.3608,0,0,1,26.2932,15.18Zm8.7645-5.06a5.06,5.06,0,1,0-1.8522,6.9122A5.06,5.06,0,0,0,264.195,162.2184Zm-35.0576-20.24a5.06,5.06,0,1,0,5.06,5.06A5.06,5.06,0,0,0,229.1374,141.9779Z"/><path class="cls-2" d="M249.3779,147.4013a5.06,5.06,0,1,0,1.8522,6.9122A5.06,5.06,0,0,0,249.3779,147.4013Z"/><path class="cls-2" d="M229.1374,141.9779v10.12a40.4811,40.4811,0,0,0,35.0576-20.24l-8.7644-5.06a30.3607,30.3607,0,0,1-26.2932,15.18Zm0,10.12a5.06,5.06,0,1,0-5.06-5.06A5.06,5.06,0,0,0,229.1374,152.0981Zm35.0576-20.24a5.06,5.06,0,1,0-6.9123,1.8521A5.06,5.06,0,0,0,264.195,131.8576Z"/><path class="cls-2" d="M249.3779,146.6747a5.06,5.06,0,1,0-6.9123-1.8522A5.06,5.06,0,0,0,249.3779,146.6747Z"/><path class="cls-2" d="M264.195,131.8576l-8.7644-5.06a40.4812,40.4812,0,0,0,0,40.481l8.7644-5.06a30.361,30.361,0,0,1,0-30.3608Zm-8.7644-5.06a5.06,5.06,0,1,0,6.9122-1.8521A5.06,5.06,0,0,0,255.4306,126.7974Zm0,40.481a5.06,5.06,0,1,0,1.8522-6.9122A5.06,5.06,0,0,0,255.4305,167.2784Z"/><path class="cls-2" d="M250.0071,147.0379a5.06,5.06,0,1,0,5.06-5.06A5.06,5.06,0,0,0,250.0071,147.0379Z"/><path class="cls-2" d="M244.9471,147.0379a5.06,5.06,0,1,0,5.06-5.06A5.06,5.06,0,0,0,244.9471,147.0379Z"/><path class="cls-2" d="M290.4882,136.9177v-10.12a20.2407,20.2407,0,0,0-17.5288,10.12l8.7644,5.06A10.12,10.12,0,0,1,290.4882,136.9177Zm0-10.12a5.06,5.06,0,1,0,5.06,5.06A5.06,5.06,0,0,0,290.4882,126.7974Zm-17.5289,10.12a5.06,5.06,0,1,0,6.9123-1.8521A5.06,5.06,0,0,0,272.9593,136.9177Z"/><path class="cls-2" d="M280.368,129.5091a5.06,5.06,0,1,0,6.9122,1.8522A5.06,5.06,0,0,0,280.368,129.5091Z"/><path class="cls-2" d="M281.7238,152.0981l-8.7644,5.06a20.24,20.24,0,0,0,17.5288,10.12v-10.12a10.12,10.12,0,0,1-8.7644-5.06Zm-8.7644,5.06a5.06,5.06,0,1,0,1.8521-6.9122A5.06,5.06,0,0,0,272.9594,157.1582Zm17.5288,10.12a5.06,5.06,0,1,0-5.06-5.06A5.06,5.06,0,0,0,290.4882,167.2784Z"/><path class="cls-2" d="M280.3679,164.5667a5.06,5.06,0,1,0-1.8522-6.9122A5.06,5.06,0,0,0,280.3679,164.5667Z"/><path class="cls-2" d="M281.7238,141.9778l-8.7644-5.06a20.2406,20.2406,0,0,0,0,20.24l8.7644-5.06A10.12,10.12,0,0,1,281.7238,141.9778Zm-8.7645-5.06a5.06,5.06,0,1,0,6.9123-1.8521A5.06,5.06,0,0,0,272.9593,136.9177Zm0,20.24a5.06,5.06,0,1,0,1.8521-6.9122A5.06,5.06,0,0,0,272.9594,157.1582Z"/><path class="cls-2" d="M270.2477,147.0379a5.06,5.06,0,1,0,5.06-5.06A5.06,5.06,0,0,0,270.2477,147.0379Z"/><path class="cls-2" d="M290.4882,116.6772v-10.12a40.481,40.481,0,0,0-35.0576,20.2406l8.7643,5.06a30.3609,30.3609,0,0,1,26.2933-15.18Zm0-10.12a5.06,5.06,0,1,0,5.06,5.06A5.06,5.06,0,0,0,290.4881,106.5569Zm-35.0575,20.24a5.06,5.06,0,1,0,6.9122-1.8521A5.06,5.06,0,0,0,255.4306,126.7974Z"/><path class="cls-2" d="M270.2476,111.98a5.06,5.06,0,1,0,6.9123,1.8521A5.06,5.06,0,0,0,270.2476,111.98Z"/><path class="cls-2" d="M316.7814,131.8576l8.7644-5.06a40.4814,40.4814,0,0,0-35.0577-20.24v10.12a30.3605,30.3605,0,0,1,26.2932,15.18Zm8.7644-5.06a5.06,5.06,0,1,0-1.8522,6.9123A5.06,5.06,0,0,0,325.5458,126.7974Zm-35.0577-20.24a5.06,5.06,0,1,0,5.06,5.06A5.06,5.06,0,0,0,290.4881,106.5569Z"/><path class="cls-2" d="M310.7286,111.98a5.06,5.06,0,1,0,1.8522,6.9123A5.06,5.06,0,0,0,310.7286,111.98Z"/><path class="cls-2" d="M316.7814,162.2184l8.7643,5.06a40.4811,40.4811,0,0,0,0-40.4811l-8.7644,5.06a30.361,30.361,0,0,1,0,30.3608Zm8.7643,5.06a5.06,5.06,0,1,0-6.9122,1.8521A5.06,5.06,0,0,0,325.5457,167.2785Zm0-40.4811a5.06,5.06,0,1,0-1.8522,6.9123A5.06,5.06,0,0,0,325.5458,126.7974Z"/><path class="cls-2" d="M330.9692,147.0379a5.06,5.06,0,1,0-5.06,5.06A5.06,5.06,0,0,0,330.9692,147.0379Z"/><path class="cls-2" d="M290.4881,177.3987v10.12a40.4811,40.4811,0,0,0,35.0575-20.24l-8.7643-5.06a30.3613,30.3613,0,0,1-26.2933,15.18Zm0,10.12a5.06,5.06,0,1,0-5.06-5.06A5.06,5.06,0,0,0,290.4882,187.519Zm35.0575-20.24a5.06,5.06,0,1,0-6.9122,1.8521A5.06,5.06,0,0,0,325.5457,167.2785Z"/><path class="cls-2" d="M310.7286,182.0955a5.06,5.06,0,1,0-6.9122-1.8521A5.06,5.06,0,0,0,310.7286,182.0955Z"/><path class="cls-2" d="M264.195,162.2184l-8.7644,5.06a40.4811,40.4811,0,0,0,35.0576,20.24v-10.12a30.3608,30.3608,0,0,1-26.2932-15.18Zm-8.7645,5.06a5.06,5.06,0,1,0,1.8522-6.9122A5.06,5.06,0,0,0,255.4305,167.2784Zm35.0577,20.2406a5.06,5.06,0,1,0-5.06-5.06A5.06,5.06,0,0,0,290.4882,187.519Z"/><path class="cls-2" d="M270.2476,182.0955a5.06,5.06,0,1,0-1.8521-6.9122A5.06,5.06,0,0,0,270.2476,182.0955Z"/><path class="cls-2" d="M264.195,131.8576l-8.7644-5.06a40.4812,40.4812,0,0,0,0,40.481l8.7644-5.06a30.361,30.361,0,0,1,0-30.3608Zm-8.7644-5.06a5.06,5.06,0,1,0,6.9122-1.8521A5.06,5.06,0,0,0,255.4306,126.7974Zm0,40.481a5.06,5.06,0,1,0,1.8522-6.9122A5.06,5.06,0,0,0,255.4305,167.2784Z"/><path class="cls-2" d="M250.0071,147.0379a5.06,5.06,0,1,0,5.06-5.06A5.06,5.06,0,0,0,250.0071,147.0379Z"/><path class="cls-2" d="M264.195,162.2184l-8.7644,5.06a40.4811,40.4811,0,0,0,35.0576,20.24v-10.12a30.3608,30.3608,0,0,1-26.2932-15.18Zm-8.7645,5.06a5.06,5.06,0,1,0,1.8522-6.9122A5.06,5.06,0,0,0,255.4305,167.2784Zm35.0577,20.2406a5.06,5.06,0,1,0-5.06-5.06A5.06,5.06,0,0,0,290.4882,187.519Z"/><path class="cls-2" d="M270.2476,182.0955a5.06,5.06,0,1,0-1.8521-6.9122A5.06,5.06,0,0,0,270.2476,182.0955Z"/><path class="cls-2" d="M290.4881,177.3987v10.12a40.4811,40.4811,0,0,0,35.0575-20.24l-8.7643-5.06a30.3613,30.3613,0,0,1-26.2933,15.18Zm0,10.12a5.06,5.06,0,1,0-5.06-5.06A5.06,5.06,0,0,0,290.4882,187.519Zm35.0575-20.24a5.06,5.06,0,1,0-6.9122,1.8521A5.06,5.06,0,0,0,325.5457,167.2785Z"/><path class="cls-2" d="M310.7286,182.0955a5.06,5.06,0,1,0-6.9122-1.8521A5.06,5.06,0,0,0,310.7286,182.0955Z"/><path class="cls-2" d="M325.5457,167.2785l-8.7643-5.06a40.4809,40.4809,0,0,0,0,40.481l8.7644-5.06a30.3607,30.3607,0,0,1,0-30.3608Zm-8.7643-5.06a5.06,5.06,0,1,0,6.9122-1.8522A5.06,5.06,0,0,0,316.7814,162.2184Zm0,40.4809a5.06,5.06,0,1,0,1.8521-6.9122A5.06,5.06,0,0,0,316.7813,202.6993Z"/><path class="cls-2" d="M311.3579,182.4588a5.06,5.06,0,1,0,5.06-5.06A5.06,5.06,0,0,0,311.3579,182.4588Z"/><path class="cls-2" d="M316.7813,202.6993l8.7644-5.06a40.4811,40.4811,0,0,0-35.0576-20.24v10.12a30.3608,30.3608,0,0,1,26.2932,15.18Zm8.7645-5.06a5.06,5.06,0,1,0-1.8522,6.9122A5.06,5.06,0,0,0,325.5458,197.6393Zm-35.0577-20.2406a5.06,5.06,0,1,0,5.06,5.06A5.06,5.06,0,0,0,290.4881,177.3987Z"/><path class="cls-2" d="M310.7287,182.8221a5.06,5.06,0,1,0,1.8521,6.9123A5.06,5.06,0,0,0,310.7287,182.8221Z"/><path class="cls-2" d="M313.2587,178.44a5.06,5.06,0,1,0,1.8522,6.9122A5.06,5.06,0,0,0,313.2587,178.44Z"/><path class="cls-2" d="M325.5458,197.6393l-8.7644,5.06a40.4811,40.4811,0,0,0,35.0576,20.24V212.82a30.3608,30.3608,0,0,1-26.2932-15.18Zm-8.7645,5.06a5.06,5.06,0,1,0,1.8521-6.9122A5.06,5.06,0,0,0,316.7813,202.6993Zm35.0576,20.24a5.06,5.06,0,1,0-5.06-5.06A5.06,5.06,0,0,0,351.8389,222.94Z"/><path class="cls-2" d="M331.5984,217.5164a5.06,5.06,0,1,0-1.8521-6.9122A5.06,5.06,0,0,0,331.5984,217.5164Z"/><path class="cls-2" d="M351.8389,222.94V212.82a40.4811,40.4811,0,0,0-35.0576,20.24l8.7644,5.06a30.3609,30.3609,0,0,1,26.2932-15.18Zm0-10.12a5.06,5.06,0,1,0,5.06,5.06A5.06,5.06,0,0,0,351.8389,212.82Zm-35.0576,20.24a5.06,5.06,0,1,0,6.9123-1.8521A5.06,5.06,0,0,0,316.7813,233.06Z"/><path class="cls-2" d="M331.5984,218.2431a5.06,5.06,0,1,0,6.9123,1.8521A5.06,5.06,0,0,0,331.5984,218.2431Z"/><path class="cls-2" d="M316.7813,233.06l8.7644,5.06a40.4812,40.4812,0,0,0,0-40.481l-8.7644,5.06a30.3612,30.3612,0,0,1,0,30.3609Zm8.7645,5.06a5.06,5.06,0,1,0-6.9123,1.8521A5.06,5.06,0,0,0,325.5458,238.12Zm0-40.481a5.06,5.06,0,1,0-1.8522,6.9122A5.06,5.06,0,0,0,325.5458,197.6393Z"/><path class="cls-2" d="M330.9692,217.88a5.06,5.06,0,1,0-5.06,5.06A5.06,5.06,0,0,0,330.9692,217.88Z"/><path class="cls-2" d="M336.0293,217.88a5.06,5.06,0,1,0-5.06,5.06A5.06,5.06,0,0,0,336.0293,217.88Z"/><path class="cls-2" d="M325.5458,238.12l-8.7644-5.06a40.4809,40.4809,0,0,0,0,40.481l8.7644-5.06a30.3607,30.3607,0,0,1,0-30.3608Zm-8.7645-5.06a5.06,5.06,0,1,0,6.9123-1.8521A5.06,5.06,0,0,0,316.7813,233.06Zm0,40.481a5.06,5.06,0,1,0,1.8521-6.9122A5.06,5.06,0,0,0,316.7814,273.5411Z"/><path class="cls-2" d="M311.358,253.3006a5.06,5.06,0,1,0,5.06-5.06A5.06,5.06,0,0,0,311.358,253.3006Z"/><path class="cls-2" d="M316.7814,273.5411l8.7644-5.06a40.4811,40.4811,0,0,0-35.0576-20.24v10.12a30.3606,30.3606,0,0,1,26.2931,15.18Zm8.7643-5.06a5.06,5.06,0,1,0-1.8521,6.9122A5.06,5.06,0,0,0,325.5457,268.481ZM290.4881,248.24a5.06,5.06,0,1,0,5.06,5.06A5.06,5.06,0,0,0,290.4881,248.24Z"/><path class="cls-2" d="M310.7287,253.6639a5.06,5.06,0,1,0,1.8521,6.9122A5.06,5.06,0,0,0,310.7287,253.6639Z"/><path class="cls-2" d="M290.4881,248.24v10.12a40.4811,40.4811,0,0,0,35.0576-20.24l-8.7643-5.06a30.3613,30.3613,0,0,1-26.2933,15.18Zm0,10.12a5.06,5.06,0,1,0-5.06-5.06A5.06,5.06,0,0,0,290.4882,258.3607Zm35.0576-20.24a5.06,5.06,0,1,0-6.9123,1.8521A5.06,5.06,0,0,0,325.5458,238.12Z"/><path class="cls-2" d="M310.7287,252.9373a5.06,5.06,0,1,0-6.9122-1.8521A5.06,5.06,0,0,0,310.7287,252.9373Z"/><path class="cls-2" d="M313.2587,257.32a5.06,5.06,0,1,0-6.9122-1.8521A5.06,5.06,0,0,0,313.2587,257.32Z"/><path class="cls-2" d="M290.4882,258.3607v-10.12a40.4811,40.4811,0,0,0-35.0576,20.24l8.7644,5.06a30.3607,30.3607,0,0,1,26.2932-15.18Zm0-10.12a5.06,5.06,0,1,0,5.06,5.06A5.06,5.06,0,0,0,290.4881,248.24ZM255.4306,268.481a5.06,5.06,0,1,0,6.9123-1.8521A5.06,5.06,0,0,0,255.4306,268.481Z"/><path class="cls-2" d="M270.2476,253.6639a5.06,5.06,0,1,0,6.9123,1.8521A5.06,5.06,0,0,0,270.2476,253.6639Z"/><path class="cls-2" d="M290.4882,207.76v-10.12A20.2407,20.2407,0,0,0,272.96,207.76l8.7643,5.06a10.12,10.12,0,0,1,8.7644-5.06Zm0-10.12a5.06,5.06,0,1,0,5.06,5.06A5.06,5.06,0,0,0,290.4881,197.6392Zm-17.5287,10.12a5.06,5.06,0,1,0,6.9122-1.8521A5.06,5.06,0,0,0,272.9594,207.76Z"/><path class="cls-2" d="M280.3679,200.3509a5.06,5.06,0,1,0,6.9122,1.8521A5.06,5.06,0,0,0,280.3679,200.3509Z"/><path class="cls-2" d="M299.2526,212.82l8.7644-5.06a20.24,20.24,0,0,0-17.5288-10.12v10.12a10.12,10.12,0,0,1,8.7643,5.06Zm8.7644-5.06a5.06,5.06,0,1,0-1.8522,6.9122A5.06,5.06,0,0,0,308.017,207.76Zm-17.5289-10.12a5.06,5.06,0,1,0,5.06,5.06A5.06,5.06,0,0,0,290.4881,197.6392Z"/><path class="cls-2" d="M300.6084,200.3509a5.06,5.06,0,1,0,1.8521,6.9123A5.06,5.06,0,0,0,300.6084,200.3509Z"/><path class="cls-2" d="M299.2525,222.94l8.7644,5.06a20.2406,20.2406,0,0,0,0-20.24l-8.7644,5.06A10.12,10.12,0,0,1,299.2525,222.94ZM308.017,228a5.06,5.06,0,1,0-6.9123,1.8521A5.06,5.06,0,0,0,308.017,228Zm0-20.24a5.06,5.06,0,1,0-1.8522,6.9122A5.06,5.06,0,0,0,308.017,207.76Z"/><path class="cls-2" d="M310.7286,217.88a5.06,5.06,0,1,0-5.06,5.06A5.06,5.06,0,0,0,310.7286,217.88Z"/><path class="cls-2" d="M290.4881,228v10.12A20.24,20.24,0,0,0,308.0169,228l-8.7644-5.06A10.12,10.12,0,0,1,290.4881,228Zm0,10.12a5.06,5.06,0,1,0-5.06-5.06A5.06,5.06,0,0,0,290.4882,238.12ZM308.017,228a5.06,5.06,0,1,0-6.9123,1.8521A5.06,5.06,0,0,0,308.017,228Z"/><path class="cls-2" d="M300.6084,235.4085a5.06,5.06,0,1,0-6.9123-1.8521A5.06,5.06,0,0,0,300.6084,235.4085Z"/><path class="cls-2" d="M316.7813,202.6993l8.7644-5.06a40.4811,40.4811,0,0,0-35.0576-20.24v10.12a30.3608,30.3608,0,0,1,26.2932,15.18Zm8.7645-5.06a5.06,5.06,0,1,0-1.8522,6.9122A5.06,5.06,0,0,0,325.5458,197.6393Zm-35.0577-20.2406a5.06,5.06,0,1,0,5.06,5.06A5.06,5.06,0,0,0,290.4881,177.3987Z"/><path class="cls-2" d="M310.7287,182.8221a5.06,5.06,0,1,0,1.8521,6.9123A5.06,5.06,0,0,0,310.7287,182.8221Z"/><path class="cls-2" d="M316.7813,233.06l8.7644,5.06a40.4812,40.4812,0,0,0,0-40.481l-8.7644,5.06a30.3612,30.3612,0,0,1,0,30.3609Zm8.7645,5.06a5.06,5.06,0,1,0-6.9123,1.8521A5.06,5.06,0,0,0,325.5458,238.12Zm0-40.481a5.06,5.06,0,1,0-1.8522,6.9122A5.06,5.06,0,0,0,325.5458,197.6393Z"/><path class="cls-2" d="M330.9692,217.88a5.06,5.06,0,1,0-5.06,5.06A5.06,5.06,0,0,0,330.9692,217.88Z"/><path class="cls-2" d="M290.4881,248.24v10.12a40.4811,40.4811,0,0,0,35.0576-20.24l-8.7643-5.06a30.3613,30.3613,0,0,1-26.2933,15.18Zm0,10.12a5.06,5.06,0,1,0-5.06-5.06A5.06,5.06,0,0,0,290.4882,258.3607Zm35.0576-20.24a5.06,5.06,0,1,0-6.9123,1.8521A5.06,5.06,0,0,0,325.5458,238.12Z"/><path class="cls-2" d="M310.7287,252.9373a5.06,5.06,0,1,0-6.9122-1.8521A5.06,5.06,0,0,0,310.7287,252.9373Z"/><path class="cls-2" d="M290.4882,258.3607v-10.12a40.4811,40.4811,0,0,0-35.0576,20.24l8.7644,5.06a30.3607,30.3607,0,0,1,26.2932-15.18Zm0-10.12a5.06,5.06,0,1,0,5.06,5.06A5.06,5.06,0,0,0,290.4881,248.24ZM255.4306,268.481a5.06,5.06,0,1,0,6.9123-1.8521A5.06,5.06,0,0,0,255.4306,268.481Z"/><path class="cls-2" d="M270.2476,253.6639a5.06,5.06,0,1,0,6.9123,1.8521A5.06,5.06,0,0,0,270.2476,253.6639Z"/><path class="cls-2" d="M290.4881,248.24v10.12a40.4811,40.4811,0,0,0,35.0576-20.24l-8.7643-5.06a30.3613,30.3613,0,0,1-26.2933,15.18Zm0,10.12a5.06,5.06,0,1,0-5.06-5.06A5.06,5.06,0,0,0,290.4882,258.3607Zm35.0576-20.24a5.06,5.06,0,1,0-6.9123,1.8521A5.06,5.06,0,0,0,325.5458,238.12Z"/><path class="cls-2" d="M310.7287,252.9373a5.06,5.06,0,1,0-6.9122-1.8521A5.06,5.06,0,0,0,310.7287,252.9373Z"/><path class="cls-2" d="M325.5458,238.12l-8.7644-5.06a40.4809,40.4809,0,0,0,0,40.481l8.7644-5.06a30.3607,30.3607,0,0,1,0-30.3608Zm-8.7645-5.06a5.06,5.06,0,1,0,6.9123-1.8521A5.06,5.06,0,0,0,316.7813,233.06Zm0,40.481a5.06,5.06,0,1,0,1.8521-6.9122A5.06,5.06,0,0,0,316.7814,273.5411Z"/><path class="cls-2" d="M311.358,253.3006a5.06,5.06,0,1,0,5.06-5.06A5.06,5.06,0,0,0,311.358,253.3006Z"/><path class="cls-2" d="M316.7814,273.5411l8.7644-5.06a40.4811,40.4811,0,0,0-35.0576-20.24v10.12a30.3606,30.3606,0,0,1,26.2931,15.18Zm8.7643-5.06a5.06,5.06,0,1,0-1.8521,6.9122A5.06,5.06,0,0,0,325.5457,268.481ZM290.4881,248.24a5.06,5.06,0,1,0,5.06,5.06A5.06,5.06,0,0,0,290.4881,248.24Z"/><path class="cls-2" d="M310.7287,253.6639a5.06,5.06,0,1,0,1.8521,6.9122A5.06,5.06,0,0,0,310.7287,253.6639Z"/><path class="cls-2" d="M313.2587,249.2817a5.06,5.06,0,1,0,1.8522,6.9122A5.06,5.06,0,0,0,313.2587,249.2817Z"/><path class="cls-2" d="M325.5457,268.481l-8.7644,5.06a40.4814,40.4814,0,0,0,35.0577,20.2405v-10.12a30.3608,30.3608,0,0,1-26.2932-15.18Zm-8.7643,5.06a5.06,5.06,0,1,0,1.8521-6.9122A5.06,5.06,0,0,0,316.7814,273.5411Zm35.0576,20.2405a5.06,5.06,0,1,0-5.06-5.06A5.06,5.06,0,0,0,351.839,293.7816Z"/><path class="cls-2" d="M331.5985,288.3582a5.06,5.06,0,1,0-1.8522-6.9123A5.06,5.06,0,0,0,331.5985,288.3582Z"/><path class="cls-2" d="M351.839,293.7816v-10.12a40.4807,40.4807,0,0,0-35.0576,20.24l8.7643,5.06a30.3609,30.3609,0,0,1,26.2933-15.18Zm0-10.12a5.06,5.06,0,1,0,5.06,5.06A5.06,5.06,0,0,0,351.839,283.6614Zm-35.0576,20.24a5.06,5.06,0,1,0,6.9122-1.8521A5.06,5.06,0,0,0,316.7814,303.9019Z"/><path class="cls-2" d="M331.5985,289.0848a5.06,5.06,0,1,0,6.9122,1.8521A5.06,5.06,0,0,0,331.5985,289.0848Z"/><path class="cls-2" d="M316.7814,303.9019l8.7643,5.06a40.4809,40.4809,0,0,0,0-40.481l-8.7644,5.06A30.3607,30.3607,0,0,1,316.7814,303.9019Zm8.7644,5.06a5.06,5.06,0,1,0-6.9123,1.8521A5.06,5.06,0,0,0,325.5458,308.962Zm0-40.481a5.06,5.06,0,1,0-1.8521,6.9122A5.06,5.06,0,0,0,325.5457,268.481Z"/><path class="cls-2" d="M330.9692,288.7215a5.06,5.06,0,1,0-5.06,5.06A5.06,5.06,0,0,0,330.9692,288.7215Z"/><path class="cls-2" d="M336.0293,288.7215a5.06,5.06,0,1,0-5.06,5.06A5.06,5.06,0,0,0,336.0293,288.7215Z"/><path class="cls-2" d="M290.4882,319.0823v10.12a40.4809,40.4809,0,0,0,35.0576-20.24l-8.7644-5.06a30.3607,30.3607,0,0,1-26.2932,15.18Zm0,10.12a5.06,5.06,0,1,0-5.06-5.06A5.06,5.06,0,0,0,290.4881,329.2025Zm35.0577-20.24a5.06,5.06,0,1,0-6.9123,1.8521A5.06,5.06,0,0,0,325.5458,308.962Z"/><path class="cls-2" d="M310.7286,323.7791a5.06,5.06,0,1,0-6.9122-1.8521A5.06,5.06,0,0,0,310.7286,323.7791Z"/><path class="cls-2" d="M264.195,303.9019l-8.7644,5.06a40.4814,40.4814,0,0,0,35.0576,20.2406v-10.12a30.3607,30.3607,0,0,1-26.2932-15.18Zm-8.7645,5.06a5.06,5.06,0,1,0,1.8522-6.9123A5.06,5.06,0,0,0,255.4305,308.962Zm35.0576,20.24a5.06,5.06,0,1,0-5.06-5.06A5.06,5.06,0,0,0,290.4881,329.2025Z"/><path class="cls-2" d="M270.2476,323.7791a5.06,5.06,0,1,0-1.8521-6.9123A5.06,5.06,0,0,0,270.2476,323.7791Z"/><path class="cls-2" d="M255.4305,308.962l8.7644-5.06a40.4812,40.4812,0,0,0-35.0576-20.2406v10.12a30.3607,30.3607,0,0,1,26.2932,15.18Zm8.7645-5.06a5.06,5.06,0,1,0-1.8521,6.9123A5.06,5.06,0,0,0,264.195,303.9019Zm-35.0576-20.24a5.06,5.06,0,1,0,5.06,5.06A5.06,5.06,0,0,0,229.1374,283.6614Z"/><path class="cls-2" d="M249.3779,289.0848a5.06,5.06,0,1,0,1.8521,6.9123A5.06,5.06,0,0,0,249.3779,289.0848Z"/><path class="cls-2" d="M229.1374,283.6614v10.12a40.4808,40.4808,0,0,0,35.0576-20.2405l-8.7644-5.06a30.3607,30.3607,0,0,1-26.2932,15.18Zm0,10.12a5.06,5.06,0,1,0-5.06-5.06A5.06,5.06,0,0,0,229.1374,293.7816Zm35.0576-20.2405a5.06,5.06,0,1,0-6.9123,1.8521A5.06,5.06,0,0,0,264.195,273.5411Z"/><path class="cls-2" d="M249.3779,288.3582a5.06,5.06,0,1,0-6.9123-1.8521A5.06,5.06,0,0,0,249.3779,288.3582Z"/><path class="cls-2" d="M264.195,273.5411l-8.7644-5.06a40.4812,40.4812,0,0,0,0,40.481l8.7644-5.06A30.3607,30.3607,0,0,1,264.195,273.5411Zm-8.7644-5.06a5.06,5.06,0,1,0,6.9123-1.8521A5.06,5.06,0,0,0,255.4306,268.481Zm0,40.481a5.06,5.06,0,1,0,1.8522-6.9123A5.06,5.06,0,0,0,255.4305,308.962Z"/><path class="cls-2" d="M250.0071,288.7215a5.06,5.06,0,1,0,5.06-5.06A5.06,5.06,0,0,0,250.0071,288.7215Z"/><path class="cls-2" d="M244.947,288.7215a5.06,5.06,0,1,0,5.06-5.06A5.06,5.06,0,0,0,244.947,288.7215Z"/><path class="cls-2" d="M290.4882,298.8418v10.12a20.24,20.24,0,0,0,17.5287-10.12l-8.7643-5.06a10.12,10.12,0,0,1-8.7644,5.06Zm0,10.12a5.06,5.06,0,1,0-5.06-5.06A5.06,5.06,0,0,0,290.4882,308.9621Zm17.5287-10.12a5.06,5.06,0,1,0-6.9122,1.8522A5.06,5.06,0,0,0,308.0169,298.8417Z"/><path class="cls-2" d="M300.6084,306.25a5.06,5.06,0,1,0-6.9122-1.8521A5.06,5.06,0,0,0,300.6084,306.25Z"/><path class="cls-2" d="M281.7238,293.7816l-8.7644,5.06a20.24,20.24,0,0,0,17.5288,10.12v-10.12a10.12,10.12,0,0,1-8.7644-5.06Zm-8.7645,5.06a5.06,5.06,0,1,0,1.8522-6.9122A5.06,5.06,0,0,0,272.9593,298.8418Zm17.5289,10.12a5.06,5.06,0,1,0-5.06-5.06A5.06,5.06,0,0,0,290.4882,308.9621Z"/><path class="cls-2" d="M280.3679,306.25a5.06,5.06,0,1,0-1.8522-6.9123A5.06,5.06,0,0,0,280.3679,306.25Z"/><path class="cls-2" d="M281.7238,283.6614l-8.7644-5.06a20.24,20.24,0,0,0,0,20.24l8.7644-5.06a10.12,10.12,0,0,1,0-10.12Zm-8.7645-5.06a5.06,5.06,0,1,0,6.9123-1.8521A5.06,5.06,0,0,0,272.9593,278.6012Zm0,20.2406a5.06,5.06,0,1,0,1.8522-6.9122A5.06,5.06,0,0,0,272.9593,298.8418Z"/><path class="cls-2" d="M270.2476,288.7215a5.06,5.06,0,1,0,5.06-5.06A5.06,5.06,0,0,0,270.2476,288.7215Z"/><path class="cls-2" d="M290.4882,258.3607v-10.12a40.4811,40.4811,0,0,0-35.0576,20.24l8.7644,5.06a30.3607,30.3607,0,0,1,26.2932-15.18Zm0-10.12a5.06,5.06,0,1,0,5.06,5.06A5.06,5.06,0,0,0,290.4881,248.24ZM255.4306,268.481a5.06,5.06,0,1,0,6.9123-1.8521A5.06,5.06,0,0,0,255.4306,268.481Z"/><path class="cls-2" d="M270.2476,253.6639a5.06,5.06,0,1,0,6.9123,1.8521A5.06,5.06,0,0,0,270.2476,253.6639Z"/><path class="cls-2" d="M316.7814,273.5411l8.7644-5.06a40.4811,40.4811,0,0,0-35.0576-20.24v10.12a30.3606,30.3606,0,0,1,26.2931,15.18Zm8.7643-5.06a5.06,5.06,0,1,0-1.8521,6.9122A5.06,5.06,0,0,0,325.5457,268.481ZM290.4881,248.24a5.06,5.06,0,1,0,5.06,5.06A5.06,5.06,0,0,0,290.4881,248.24Z"/><path class="cls-2" d="M310.7287,253.6639a5.06,5.06,0,1,0,1.8521,6.9122A5.06,5.06,0,0,0,310.7287,253.6639Z"/><path class="cls-2" d="M316.7814,303.9019l8.7643,5.06a40.4809,40.4809,0,0,0,0-40.481l-8.7644,5.06A30.3607,30.3607,0,0,1,316.7814,303.9019Zm8.7644,5.06a5.06,5.06,0,1,0-6.9123,1.8521A5.06,5.06,0,0,0,325.5458,308.962Zm0-40.481a5.06,5.06,0,1,0-1.8521,6.9122A5.06,5.06,0,0,0,325.5457,268.481Z"/><path class="cls-2" d="M330.9692,288.7215a5.06,5.06,0,1,0-5.06,5.06A5.06,5.06,0,0,0,330.9692,288.7215Z"/><path class="cls-2" d="M290.4882,319.0823v10.12a40.4809,40.4809,0,0,0,35.0576-20.24l-8.7644-5.06a30.3607,30.3607,0,0,1-26.2932,15.18Zm0,10.12a5.06,5.06,0,1,0-5.06-5.06A5.06,5.06,0,0,0,290.4881,329.2025Zm35.0577-20.24a5.06,5.06,0,1,0-6.9123,1.8521A5.06,5.06,0,0,0,325.5458,308.962Z"/><path class="cls-2" d="M310.7286,323.7791a5.06,5.06,0,1,0-6.9122-1.8521A5.06,5.06,0,0,0,310.7286,323.7791Z"/><path class="cls-2" d="M264.195,303.9019l-8.7644,5.06a40.4814,40.4814,0,0,0,35.0576,20.2406v-10.12a30.3607,30.3607,0,0,1-26.2932-15.18Zm-8.7645,5.06a5.06,5.06,0,1,0,1.8522-6.9123A5.06,5.06,0,0,0,255.4305,308.962Zm35.0576,20.24a5.06,5.06,0,1,0-5.06-5.06A5.06,5.06,0,0,0,290.4881,329.2025Z"/><path class="cls-2" d="M270.2476,323.7791a5.06,5.06,0,1,0-1.8521-6.9123A5.06,5.06,0,0,0,270.2476,323.7791Z"/><path class="cls-2" d="M264.195,273.5411l-8.7644-5.06a40.4812,40.4812,0,0,0,0,40.481l8.7644-5.06A30.3607,30.3607,0,0,1,264.195,273.5411Zm-8.7644-5.06a5.06,5.06,0,1,0,6.9123-1.8521A5.06,5.06,0,0,0,255.4306,268.481Zm0,40.481a5.06,5.06,0,1,0,1.8522-6.9123A5.06,5.06,0,0,0,255.4305,308.962Z"/><path class="cls-2" d="M250.0071,288.7215a5.06,5.06,0,1,0,5.06-5.06A5.06,5.06,0,0,0,250.0071,288.7215Z"/><path class="cls-2" d="M264.195,303.9019l-8.7644,5.06a40.4814,40.4814,0,0,0,35.0576,20.2406v-10.12a30.3607,30.3607,0,0,1-26.2932-15.18Zm-8.7645,5.06a5.06,5.06,0,1,0,1.8522-6.9123A5.06,5.06,0,0,0,255.4305,308.962Zm35.0576,20.24a5.06,5.06,0,1,0-5.06-5.06A5.06,5.06,0,0,0,290.4881,329.2025Z"/><path class="cls-2" d="M270.2476,323.7791a5.06,5.06,0,1,0-1.8521-6.9123A5.06,5.06,0,0,0,270.2476,323.7791Z"/><path class="cls-2" d="M290.4882,319.0823v10.12a40.4809,40.4809,0,0,0,35.0576-20.24l-8.7644-5.06a30.3607,30.3607,0,0,1-26.2932,15.18Zm0,10.12a5.06,5.06,0,1,0-5.06-5.06A5.06,5.06,0,0,0,290.4881,329.2025Zm35.0577-20.24a5.06,5.06,0,1,0-6.9123,1.8521A5.06,5.06,0,0,0,325.5458,308.962Z"/><path class="cls-2" d="M310.7286,323.7791a5.06,5.06,0,1,0-6.9122-1.8521A5.06,5.06,0,0,0,310.7286,323.7791Z"/><path class="cls-2" d="M378.1322,167.2785l8.7643-5.06a40.4811,40.4811,0,0,0-35.0576-20.24v10.12a30.3605,30.3605,0,0,1,26.2932,15.18Zm8.7643-5.06a5.06,5.06,0,1,0-1.8521,6.9122A5.06,5.06,0,0,0,386.8965,162.2183Zm-35.0576-20.24a5.06,5.06,0,1,0,5.06,5.06A5.06,5.06,0,0,0,351.8389,141.9778Z"/><path class="cls-2" d="M372.0794,147.4012a5.06,5.06,0,1,0,1.8522,6.9123A5.06,5.06,0,0,0,372.0794,147.4012Z"/><path class="cls-2" d="M351.839,152.0981v-10.12a40.481,40.481,0,0,0-35.0576,20.2406l8.7643,5.06a30.3609,30.3609,0,0,1,26.2933-15.18Zm0-10.12a5.06,5.06,0,1,0,5.06,5.06A5.06,5.06,0,0,0,351.8389,141.9778Zm-35.0575,20.2406a5.06,5.06,0,1,0,6.9122-1.8522A5.06,5.06,0,0,0,316.7814,162.2184Z"/><path class="cls-2" d="M331.5984,147.4012a5.06,5.06,0,1,0,6.9123,1.8521A5.06,5.06,0,0,0,331.5984,147.4012Z"/><path class="cls-2" d="M316.7814,162.2184l8.7643,5.06a40.4811,40.4811,0,0,0,0-40.4811l-8.7644,5.06a30.361,30.361,0,0,1,0,30.3608Zm8.7643,5.06a5.06,5.06,0,1,0-6.9122,1.8521A5.06,5.06,0,0,0,325.5457,167.2785Zm0-40.4811a5.06,5.06,0,1,0-1.8522,6.9123A5.06,5.06,0,0,0,325.5458,126.7974Z"/><path class="cls-2" d="M330.9692,147.0379a5.06,5.06,0,1,0-5.06,5.06A5.06,5.06,0,0,0,330.9692,147.0379Z"/><path class="cls-2" d="M325.5458,126.7974l-8.7644,5.06a40.4811,40.4811,0,0,0,35.0576,20.24v-10.12a30.3605,30.3605,0,0,1-26.2932-15.18Zm-8.7644,5.06a5.06,5.06,0,1,0,1.8521-6.9123A5.06,5.06,0,0,0,316.7814,131.8576Zm35.0576,20.24a5.06,5.06,0,1,0-5.06-5.06A5.06,5.06,0,0,0,351.839,152.0981Z"/><path class="cls-2" d="M331.5984,146.6746a5.06,5.06,0,1,0-1.8521-6.9122A5.06,5.06,0,0,0,331.5984,146.6746Z"/><path class="cls-2" d="M329.0684,151.0568a5.06,5.06,0,1,0-1.8522-6.9122A5.06,5.06,0,0,0,329.0684,151.0568Z"/><path class="cls-2" d="M316.7814,131.8576l8.7644-5.06a40.4814,40.4814,0,0,0-35.0577-20.24v10.12a30.3605,30.3605,0,0,1,26.2932,15.18Zm8.7644-5.06a5.06,5.06,0,1,0-1.8522,6.9123A5.06,5.06,0,0,0,325.5458,126.7974Zm-35.0577-20.24a5.06,5.06,0,1,0,5.06,5.06A5.06,5.06,0,0,0,290.4881,106.5569Z"/><path class="cls-2" d="M310.7286,111.98a5.06,5.06,0,1,0,1.8522,6.9123A5.06,5.06,0,0,0,310.7286,111.98Z"/><path class="cls-2" d="M325.5458,126.7974l-8.7644,5.06a40.4811,40.4811,0,0,0,35.0576,20.24v-10.12a30.3605,30.3605,0,0,1-26.2932-15.18Zm-8.7644,5.06a5.06,5.06,0,1,0,1.8521-6.9123A5.06,5.06,0,0,0,316.7814,131.8576Zm35.0576,20.24a5.06,5.06,0,1,0-5.06-5.06A5.06,5.06,0,0,0,351.839,152.0981Z"/><path class="cls-2" d="M331.5984,146.6746a5.06,5.06,0,1,0-1.8521-6.9122A5.06,5.06,0,0,0,331.5984,146.6746Z"/><path class="cls-2" d="M316.7814,162.2184l8.7643,5.06a40.4811,40.4811,0,0,0,0-40.4811l-8.7644,5.06a30.361,30.361,0,0,1,0,30.3608Zm8.7643,5.06a5.06,5.06,0,1,0-6.9122,1.8521A5.06,5.06,0,0,0,325.5457,167.2785Zm0-40.4811a5.06,5.06,0,1,0-1.8522,6.9123A5.06,5.06,0,0,0,325.5458,126.7974Z"/><path class="cls-2" d="M330.9692,147.0379a5.06,5.06,0,1,0-5.06,5.06A5.06,5.06,0,0,0,330.9692,147.0379Z"/><path class="cls-2" d="M325.5458,126.7974l-8.7644,5.06a40.4811,40.4811,0,0,0,35.0576,20.24v-10.12a30.3605,30.3605,0,0,1-26.2932-15.18Zm-8.7644,5.06a5.06,5.06,0,1,0,1.8521-6.9123A5.06,5.06,0,0,0,316.7814,131.8576Zm35.0576,20.24a5.06,5.06,0,1,0-5.06-5.06A5.06,5.06,0,0,0,351.839,152.0981Z"/><path class="cls-2" d="M331.5984,146.6746a5.06,5.06,0,1,0-1.8521-6.9122A5.06,5.06,0,0,0,331.5984,146.6746Z"/><path class="cls-2" d="M351.839,152.0981v-10.12a40.481,40.481,0,0,0-35.0576,20.2406l8.7643,5.06a30.3609,30.3609,0,0,1,26.2933-15.18Zm0-10.12a5.06,5.06,0,1,0,5.06,5.06A5.06,5.06,0,0,0,351.8389,141.9778Zm-35.0575,20.2406a5.06,5.06,0,1,0,6.9122-1.8522A5.06,5.06,0,0,0,316.7814,162.2184Z"/><path class="cls-2" d="M331.5984,147.4012a5.06,5.06,0,1,0,6.9123,1.8521A5.06,5.06,0,0,0,331.5984,147.4012Z"/><path class="cls-2" d="M329.0684,143.019a5.06,5.06,0,1,0,6.9122,1.8521A5.06,5.06,0,0,0,329.0684,143.019Z"/><path class="cls-2" d="M378.1322,167.2785l8.7643-5.06a40.4811,40.4811,0,0,0-35.0576-20.24v10.12a30.3605,30.3605,0,0,1,26.2932,15.18Zm8.7643-5.06a5.06,5.06,0,1,0-1.8521,6.9122A5.06,5.06,0,0,0,386.8965,162.2183Zm-35.0576-20.24a5.06,5.06,0,1,0,5.06,5.06A5.06,5.06,0,0,0,351.8389,141.9778Z"/><path class="cls-2" d="M372.0794,147.4012a5.06,5.06,0,1,0,1.8522,6.9123A5.06,5.06,0,0,0,372.0794,147.4012Z"/><path class="cls-2" d="M378.1321,197.6392l8.7644,5.06a40.4809,40.4809,0,0,0,0-40.481l-8.7644,5.06a30.3607,30.3607,0,0,1,0,30.3608Zm8.7644,5.06a5.06,5.06,0,1,0-6.9122,1.8521A5.06,5.06,0,0,0,386.8965,202.6994Zm0-40.4811a5.06,5.06,0,1,0-1.8521,6.9122A5.06,5.06,0,0,0,386.8965,162.2183Z"/><path class="cls-2" d="M392.32,182.4588a5.06,5.06,0,1,0-5.06,5.06A5.06,5.06,0,0,0,392.32,182.4588Z"/><path class="cls-2" d="M386.8965,202.6994l-8.7643-5.06a40.4809,40.4809,0,0,0,0,40.481l8.7644-5.06a30.3607,30.3607,0,0,1,0-30.3608Zm-8.7644-5.06a5.06,5.06,0,1,0,6.9123-1.8521A5.06,5.06,0,0,0,378.1321,197.6392Zm0,40.4811a5.06,5.06,0,1,0,1.8521-6.9123A5.06,5.06,0,0,0,378.1322,238.12Z"/><path class="cls-2" d="M372.7087,217.88a5.06,5.06,0,1,0,5.06-5.06A5.06,5.06,0,0,0,372.7087,217.88Z"/><path class="cls-2" d="M378.1322,238.12l8.7644-5.06a40.4813,40.4813,0,0,0-35.0576-20.24v10.12a30.36,30.36,0,0,1,26.2931,15.18Zm8.7643-5.06a5.06,5.06,0,1,0-1.8521,6.9123A5.06,5.06,0,0,0,386.8965,233.06Zm-35.0576-20.24a5.06,5.06,0,1,0,5.06,5.06A5.06,5.06,0,0,0,351.8389,212.82Z"/><path class="cls-2" d="M372.08,218.243a5.06,5.06,0,1,0,1.8521,6.9123A5.06,5.06,0,0,0,372.08,218.243Z"/><path class="cls-2" d="M351.8389,212.82v10.12a40.4811,40.4811,0,0,0,35.0576-20.24l-8.7643-5.06a30.3613,30.3613,0,0,1-26.2933,15.18Zm0,10.12a5.06,5.06,0,1,0-5.06-5.06A5.06,5.06,0,0,0,351.8389,222.94Zm35.0576-20.24a5.06,5.06,0,1,0-6.9122,1.8521A5.06,5.06,0,0,0,386.8965,202.6994Z"/><path class="cls-2" d="M372.0794,217.5164a5.06,5.06,0,1,0-6.9122-1.8521A5.06,5.06,0,0,0,372.0794,217.5164Z"/><path class="cls-2" d="M374.61,221.8986a5.06,5.06,0,1,0-6.9122-1.8521A5.06,5.06,0,0,0,374.61,221.8986Z"/><path class="cls-2" d="M351.8389,222.94V212.82a40.4811,40.4811,0,0,0-35.0576,20.24l8.7644,5.06a30.3609,30.3609,0,0,1,26.2932-15.18Zm0-10.12a5.06,5.06,0,1,0,5.06,5.06A5.06,5.06,0,0,0,351.8389,212.82Zm-35.0576,20.24a5.06,5.06,0,1,0,6.9123-1.8521A5.06,5.06,0,0,0,316.7813,233.06Z"/><path class="cls-2" d="M331.5984,218.2431a5.06,5.06,0,1,0,6.9123,1.8521A5.06,5.06,0,0,0,331.5984,218.2431Z"/><path class="cls-2" d="M316.7813,233.06l8.7644,5.06a40.4812,40.4812,0,0,0,0-40.481l-8.7644,5.06a30.3612,30.3612,0,0,1,0,30.3609Zm8.7645,5.06a5.06,5.06,0,1,0-6.9123,1.8521A5.06,5.06,0,0,0,325.5458,238.12Zm0-40.481a5.06,5.06,0,1,0-1.8522,6.9122A5.06,5.06,0,0,0,325.5458,197.6393Z"/><path class="cls-2" d="M330.9692,217.88a5.06,5.06,0,1,0-5.06,5.06A5.06,5.06,0,0,0,330.9692,217.88Z"/><path class="cls-2" d="M325.5458,197.6393l-8.7644,5.06a40.4811,40.4811,0,0,0,35.0576,20.24V212.82a30.3608,30.3608,0,0,1-26.2932-15.18Zm-8.7645,5.06a5.06,5.06,0,1,0,1.8521-6.9122A5.06,5.06,0,0,0,316.7813,202.6993Zm35.0576,20.24a5.06,5.06,0,1,0-5.06-5.06A5.06,5.06,0,0,0,351.8389,222.94Z"/><path class="cls-2" d="M331.5984,217.5164a5.06,5.06,0,1,0-1.8521-6.9122A5.06,5.06,0,0,0,331.5984,217.5164Z"/><path class="cls-2" d="M329.0683,221.8986a5.06,5.06,0,1,0-1.8521-6.9122A5.06,5.06,0,0,0,329.0683,221.8986Z"/><path class="cls-2" d="M316.7813,202.6993l8.7644-5.06a40.4811,40.4811,0,0,0-35.0576-20.24v10.12a30.3608,30.3608,0,0,1,26.2932,15.18Zm8.7645-5.06a5.06,5.06,0,1,0-1.8522,6.9122A5.06,5.06,0,0,0,325.5458,197.6393Zm-35.0577-20.2406a5.06,5.06,0,1,0,5.06,5.06A5.06,5.06,0,0,0,290.4881,177.3987Z"/><path class="cls-2" d="M310.7287,182.8221a5.06,5.06,0,1,0,1.8521,6.9123A5.06,5.06,0,0,0,310.7287,182.8221Z"/><path class="cls-2" d="M290.4881,177.3987v10.12a40.4811,40.4811,0,0,0,35.0575-20.24l-8.7643-5.06a30.3613,30.3613,0,0,1-26.2933,15.18Zm0,10.12a5.06,5.06,0,1,0-5.06-5.06A5.06,5.06,0,0,0,290.4882,187.519Zm35.0575-20.24a5.06,5.06,0,1,0-6.9122,1.8521A5.06,5.06,0,0,0,325.5457,167.2785Z"/><path class="cls-2" d="M310.7286,182.0955a5.06,5.06,0,1,0-6.9122-1.8521A5.06,5.06,0,0,0,310.7286,182.0955Z"/><path class="cls-2" d="M325.5457,167.2785l-8.7643-5.06a40.4809,40.4809,0,0,0,0,40.481l8.7644-5.06a30.3607,30.3607,0,0,1,0-30.3608Zm-8.7643-5.06a5.06,5.06,0,1,0,6.9122-1.8522A5.06,5.06,0,0,0,316.7814,162.2184Zm0,40.4809a5.06,5.06,0,1,0,1.8521-6.9122A5.06,5.06,0,0,0,316.7813,202.6993Z"/><path class="cls-2" d="M311.3579,182.4588a5.06,5.06,0,1,0,5.06-5.06A5.06,5.06,0,0,0,311.3579,182.4588Z"/><path class="cls-2" d="M306.2978,182.4588a5.06,5.06,0,1,0,5.06-5.06A5.06,5.06,0,0,0,306.2978,182.4588Z"/><path class="cls-2" d="M351.839,152.0981v-10.12a40.481,40.481,0,0,0-35.0576,20.2406l8.7643,5.06a30.3609,30.3609,0,0,1,26.2933-15.18Zm0-10.12a5.06,5.06,0,1,0,5.06,5.06A5.06,5.06,0,0,0,351.8389,141.9778Zm-35.0575,20.2406a5.06,5.06,0,1,0,6.9122-1.8522A5.06,5.06,0,0,0,316.7814,162.2184Z"/><path class="cls-2" d="M331.5984,147.4012a5.06,5.06,0,1,0,6.9123,1.8521A5.06,5.06,0,0,0,331.5984,147.4012Z"/><path class="cls-2" d="M378.1322,167.2785l8.7643-5.06a40.4811,40.4811,0,0,0-35.0576-20.24v10.12a30.3605,30.3605,0,0,1,26.2932,15.18Zm8.7643-5.06a5.06,5.06,0,1,0-1.8521,6.9122A5.06,5.06,0,0,0,386.8965,162.2183Zm-35.0576-20.24a5.06,5.06,0,1,0,5.06,5.06A5.06,5.06,0,0,0,351.8389,141.9778Z"/><path class="cls-2" d="M372.0794,147.4012a5.06,5.06,0,1,0,1.8522,6.9123A5.06,5.06,0,0,0,372.0794,147.4012Z"/><path class="cls-2" d="M378.1321,197.6392l8.7644,5.06a40.4809,40.4809,0,0,0,0-40.481l-8.7644,5.06a30.3607,30.3607,0,0,1,0,30.3608Zm8.7644,5.06a5.06,5.06,0,1,0-6.9122,1.8521A5.06,5.06,0,0,0,386.8965,202.6994Zm0-40.4811a5.06,5.06,0,1,0-1.8521,6.9122A5.06,5.06,0,0,0,386.8965,162.2183Z"/><path class="cls-2" d="M392.32,182.4588a5.06,5.06,0,1,0-5.06,5.06A5.06,5.06,0,0,0,392.32,182.4588Z"/><path class="cls-2" d="M351.8389,212.82v10.12a40.4811,40.4811,0,0,0,35.0576-20.24l-8.7643-5.06a30.3613,30.3613,0,0,1-26.2933,15.18Zm0,10.12a5.06,5.06,0,1,0-5.06-5.06A5.06,5.06,0,0,0,351.8389,222.94Zm35.0576-20.24a5.06,5.06,0,1,0-6.9122,1.8521A5.06,5.06,0,0,0,386.8965,202.6994Z"/><path class="cls-2" d="M372.0794,217.5164a5.06,5.06,0,1,0-6.9122-1.8521A5.06,5.06,0,0,0,372.0794,217.5164Z"/><path class="cls-2" d="M325.5458,197.6393l-8.7644,5.06a40.4811,40.4811,0,0,0,35.0576,20.24V212.82a30.3608,30.3608,0,0,1-26.2932-15.18Zm-8.7645,5.06a5.06,5.06,0,1,0,1.8521-6.9122A5.06,5.06,0,0,0,316.7813,202.6993Zm35.0576,20.24a5.06,5.06,0,1,0-5.06-5.06A5.06,5.06,0,0,0,351.8389,222.94Z"/><path class="cls-2" d="M331.5984,217.5164a5.06,5.06,0,1,0-1.8521-6.9122A5.06,5.06,0,0,0,331.5984,217.5164Z"/><path class="cls-2" d="M325.5457,167.2785l-8.7643-5.06a40.4809,40.4809,0,0,0,0,40.481l8.7644-5.06a30.3607,30.3607,0,0,1,0-30.3608Zm-8.7643-5.06a5.06,5.06,0,1,0,6.9122-1.8522A5.06,5.06,0,0,0,316.7814,162.2184Zm0,40.4809a5.06,5.06,0,1,0,1.8521-6.9122A5.06,5.06,0,0,0,316.7813,202.6993Z"/><path class="cls-2" d="M311.3579,182.4588a5.06,5.06,0,1,0,5.06-5.06A5.06,5.06,0,0,0,311.3579,182.4588Z"/><path class="cls-2" d="M316.7813,233.06l8.7644,5.06a40.4812,40.4812,0,0,0,0-40.481l-8.7644,5.06a30.3612,30.3612,0,0,1,0,30.3609Zm8.7645,5.06a5.06,5.06,0,1,0-6.9123,1.8521A5.06,5.06,0,0,0,325.5458,238.12Zm0-40.481a5.06,5.06,0,1,0-1.8522,6.9122A5.06,5.06,0,0,0,325.5458,197.6393Z"/><path class="cls-2" d="M330.9692,217.88a5.06,5.06,0,1,0-5.06,5.06A5.06,5.06,0,0,0,330.9692,217.88Z"/><path class="cls-2" d="M325.5458,197.6393l-8.7644,5.06a40.4811,40.4811,0,0,0,35.0576,20.24V212.82a30.3608,30.3608,0,0,1-26.2932-15.18Zm-8.7645,5.06a5.06,5.06,0,1,0,1.8521-6.9122A5.06,5.06,0,0,0,316.7813,202.6993Zm35.0576,20.24a5.06,5.06,0,1,0-5.06-5.06A5.06,5.06,0,0,0,351.8389,222.94Z"/><path class="cls-2" d="M331.5984,217.5164a5.06,5.06,0,1,0-1.8521-6.9122A5.06,5.06,0,0,0,331.5984,217.5164Z"/><path class="cls-2" d="M351.8389,222.94V212.82a40.4811,40.4811,0,0,0-35.0576,20.24l8.7644,5.06a30.3609,30.3609,0,0,1,26.2932-15.18Zm0-10.12a5.06,5.06,0,1,0,5.06,5.06A5.06,5.06,0,0,0,351.8389,212.82Zm-35.0576,20.24a5.06,5.06,0,1,0,6.9123-1.8521A5.06,5.06,0,0,0,316.7813,233.06Z"/><path class="cls-2" d="M331.5984,218.2431a5.06,5.06,0,1,0,6.9123,1.8521A5.06,5.06,0,0,0,331.5984,218.2431Z"/><path class="cls-2" d="M329.0684,213.8608a5.06,5.06,0,1,0,6.9122,1.8521A5.06,5.06,0,0,0,329.0684,213.8608Z"/><path class="cls-2" d="M351.8389,212.82v10.12a40.4811,40.4811,0,0,0,35.0576-20.24l-8.7643-5.06a30.3613,30.3613,0,0,1-26.2933,15.18Zm0,10.12a5.06,5.06,0,1,0-5.06-5.06A5.06,5.06,0,0,0,351.8389,222.94Zm35.0576-20.24a5.06,5.06,0,1,0-6.9122,1.8521A5.06,5.06,0,0,0,386.8965,202.6994Z"/><path class="cls-2" d="M372.0794,217.5164a5.06,5.06,0,1,0-6.9122-1.8521A5.06,5.06,0,0,0,372.0794,217.5164Z"/><path class="cls-2" d="M386.8965,202.6994l-8.7643-5.06a40.4809,40.4809,0,0,0,0,40.481l8.7644-5.06a30.3607,30.3607,0,0,1,0-30.3608Zm-8.7644-5.06a5.06,5.06,0,1,0,6.9123-1.8521A5.06,5.06,0,0,0,378.1321,197.6392Zm0,40.4811a5.06,5.06,0,1,0,1.8521-6.9123A5.06,5.06,0,0,0,378.1322,238.12Z"/><path class="cls-2" d="M372.7087,217.88a5.06,5.06,0,1,0,5.06-5.06A5.06,5.06,0,0,0,372.7087,217.88Z"/><path class="cls-2" d="M378.1322,238.12l8.7644-5.06a40.4813,40.4813,0,0,0-35.0576-20.24v10.12a30.36,30.36,0,0,1,26.2931,15.18Zm8.7643-5.06a5.06,5.06,0,1,0-1.8521,6.9123A5.06,5.06,0,0,0,386.8965,233.06Zm-35.0576-20.24a5.06,5.06,0,1,0,5.06,5.06A5.06,5.06,0,0,0,351.8389,212.82Z"/><path class="cls-2" d="M372.08,218.243a5.06,5.06,0,1,0,1.8521,6.9123A5.06,5.06,0,0,0,372.08,218.243Z"/><path class="cls-2" d="M374.61,213.8609a5.06,5.06,0,1,0,1.8522,6.9122A5.06,5.06,0,0,0,374.61,213.8609Z"/><path class="cls-2" d="M378.1321,268.481l8.7644,5.06a40.4812,40.4812,0,0,0,0-40.481l-8.7644,5.06a30.3612,30.3612,0,0,1,0,30.3609Zm8.7644,5.06a5.06,5.06,0,1,0-6.9122,1.8521A5.06,5.06,0,0,0,386.8965,273.5412Zm0-40.4811a5.06,5.06,0,1,0-1.8521,6.9123A5.06,5.06,0,0,0,386.8965,233.06Z"/><path class="cls-2" d="M392.32,253.3006a5.06,5.06,0,1,0-5.06,5.06A5.06,5.06,0,0,0,392.32,253.3006Z"/><path class="cls-2" d="M351.839,283.6614v10.12a40.4809,40.4809,0,0,0,35.0576-20.2405l-8.7644-5.06a30.3607,30.3607,0,0,1-26.2932,15.18Zm0,10.12a5.06,5.06,0,1,0-5.06-5.06A5.06,5.06,0,0,0,351.839,293.7816Zm35.0575-20.24a5.06,5.06,0,1,0-6.9122,1.8521A5.06,5.06,0,0,0,386.8965,273.5412Z"/><path class="cls-2" d="M372.08,288.3582a5.06,5.06,0,1,0-6.9123-1.8521A5.06,5.06,0,0,0,372.08,288.3582Z"/><path class="cls-2" d="M351.839,293.7816v-10.12a40.4807,40.4807,0,0,0-35.0576,20.24l8.7643,5.06a30.3609,30.3609,0,0,1,26.2933-15.18Zm0-10.12a5.06,5.06,0,1,0,5.06,5.06A5.06,5.06,0,0,0,351.839,283.6614Zm-35.0576,20.24a5.06,5.06,0,1,0,6.9122-1.8521A5.06,5.06,0,0,0,316.7814,303.9019Z"/><path class="cls-2" d="M331.5985,289.0848a5.06,5.06,0,1,0,6.9122,1.8521A5.06,5.06,0,0,0,331.5985,289.0848Z"/><path class="cls-2" d="M316.7814,303.9019l8.7643,5.06a40.4809,40.4809,0,0,0,0-40.481l-8.7644,5.06A30.3607,30.3607,0,0,1,316.7814,303.9019Zm8.7644,5.06a5.06,5.06,0,1,0-6.9123,1.8521A5.06,5.06,0,0,0,325.5458,308.962Zm0-40.481a5.06,5.06,0,1,0-1.8521,6.9122A5.06,5.06,0,0,0,325.5457,268.481Z"/><path class="cls-2" d="M330.9692,288.7215a5.06,5.06,0,1,0-5.06,5.06A5.06,5.06,0,0,0,330.9692,288.7215Z"/><path class="cls-2" d="M325.5457,268.481l-8.7644,5.06a40.4814,40.4814,0,0,0,35.0577,20.2405v-10.12a30.3608,30.3608,0,0,1-26.2932-15.18Zm-8.7643,5.06a5.06,5.06,0,1,0,1.8521-6.9122A5.06,5.06,0,0,0,316.7814,273.5411Zm35.0576,20.2405a5.06,5.06,0,1,0-5.06-5.06A5.06,5.06,0,0,0,351.839,293.7816Z"/><path class="cls-2" d="M331.5985,288.3582a5.06,5.06,0,1,0-1.8522-6.9123A5.06,5.06,0,0,0,331.5985,288.3582Z"/><path class="cls-2" d="M329.0684,292.74a5.06,5.06,0,1,0-1.8522-6.9122A5.06,5.06,0,0,0,329.0684,292.74Z"/><path class="cls-2" d="M316.7814,273.5411l8.7644-5.06a40.4811,40.4811,0,0,0-35.0576-20.24v10.12a30.3606,30.3606,0,0,1,26.2931,15.18Zm8.7643-5.06a5.06,5.06,0,1,0-1.8521,6.9122A5.06,5.06,0,0,0,325.5457,268.481ZM290.4881,248.24a5.06,5.06,0,1,0,5.06,5.06A5.06,5.06,0,0,0,290.4881,248.24Z"/><path class="cls-2" d="M310.7287,253.6639a5.06,5.06,0,1,0,1.8521,6.9122A5.06,5.06,0,0,0,310.7287,253.6639Z"/><path class="cls-2" d="M290.4881,248.24v10.12a40.4811,40.4811,0,0,0,35.0576-20.24l-8.7643-5.06a30.3613,30.3613,0,0,1-26.2933,15.18Zm0,10.12a5.06,5.06,0,1,0-5.06-5.06A5.06,5.06,0,0,0,290.4882,258.3607Zm35.0576-20.24a5.06,5.06,0,1,0-6.9123,1.8521A5.06,5.06,0,0,0,325.5458,238.12Z"/><path class="cls-2" d="M310.7287,252.9373a5.06,5.06,0,1,0-6.9122-1.8521A5.06,5.06,0,0,0,310.7287,252.9373Z"/><path class="cls-2" d="M325.5458,238.12l-8.7644-5.06a40.4809,40.4809,0,0,0,0,40.481l8.7644-5.06a30.3607,30.3607,0,0,1,0-30.3608Zm-8.7645-5.06a5.06,5.06,0,1,0,6.9123-1.8521A5.06,5.06,0,0,0,316.7813,233.06Zm0,40.481a5.06,5.06,0,1,0,1.8521-6.9122A5.06,5.06,0,0,0,316.7814,273.5411Z"/><path class="cls-2" d="M311.358,253.3006a5.06,5.06,0,1,0,5.06-5.06A5.06,5.06,0,0,0,311.358,253.3006Z"/><path class="cls-2" d="M306.2978,253.3006a5.06,5.06,0,1,0,5.06-5.06A5.06,5.06,0,0,0,306.2978,253.3006Z"/><path class="cls-2" d="M351.8389,222.94V212.82a40.4811,40.4811,0,0,0-35.0576,20.24l8.7644,5.06a30.3609,30.3609,0,0,1,26.2932-15.18Zm0-10.12a5.06,5.06,0,1,0,5.06,5.06A5.06,5.06,0,0,0,351.8389,212.82Zm-35.0576,20.24a5.06,5.06,0,1,0,6.9123-1.8521A5.06,5.06,0,0,0,316.7813,233.06Z"/><path class="cls-2" d="M331.5984,218.2431a5.06,5.06,0,1,0,6.9123,1.8521A5.06,5.06,0,0,0,331.5984,218.2431Z"/><path class="cls-2" d="M378.1322,238.12l8.7644-5.06a40.4813,40.4813,0,0,0-35.0576-20.24v10.12a30.36,30.36,0,0,1,26.2931,15.18Zm8.7643-5.06a5.06,5.06,0,1,0-1.8521,6.9123A5.06,5.06,0,0,0,386.8965,233.06Zm-35.0576-20.24a5.06,5.06,0,1,0,5.06,5.06A5.06,5.06,0,0,0,351.8389,212.82Z"/><path class="cls-2" d="M372.08,218.243a5.06,5.06,0,1,0,1.8521,6.9123A5.06,5.06,0,0,0,372.08,218.243Z"/><path class="cls-2" d="M378.1321,268.481l8.7644,5.06a40.4812,40.4812,0,0,0,0-40.481l-8.7644,5.06a30.3612,30.3612,0,0,1,0,30.3609Zm8.7644,5.06a5.06,5.06,0,1,0-6.9122,1.8521A5.06,5.06,0,0,0,386.8965,273.5412Zm0-40.4811a5.06,5.06,0,1,0-1.8521,6.9123A5.06,5.06,0,0,0,386.8965,233.06Z"/><path class="cls-2" d="M392.32,253.3006a5.06,5.06,0,1,0-5.06,5.06A5.06,5.06,0,0,0,392.32,253.3006Z"/><path class="cls-2" d="M351.839,283.6614v10.12a40.4809,40.4809,0,0,0,35.0576-20.2405l-8.7644-5.06a30.3607,30.3607,0,0,1-26.2932,15.18Zm0,10.12a5.06,5.06,0,1,0-5.06-5.06A5.06,5.06,0,0,0,351.839,293.7816Zm35.0575-20.24a5.06,5.06,0,1,0-6.9122,1.8521A5.06,5.06,0,0,0,386.8965,273.5412Z"/><path class="cls-2" d="M372.08,288.3582a5.06,5.06,0,1,0-6.9123-1.8521A5.06,5.06,0,0,0,372.08,288.3582Z"/><path class="cls-2" d="M325.5457,268.481l-8.7644,5.06a40.4814,40.4814,0,0,0,35.0577,20.2405v-10.12a30.3608,30.3608,0,0,1-26.2932-15.18Zm-8.7643,5.06a5.06,5.06,0,1,0,1.8521-6.9122A5.06,5.06,0,0,0,316.7814,273.5411Zm35.0576,20.2405a5.06,5.06,0,1,0-5.06-5.06A5.06,5.06,0,0,0,351.839,293.7816Z"/><path class="cls-2" d="M331.5985,288.3582a5.06,5.06,0,1,0-1.8522-6.9123A5.06,5.06,0,0,0,331.5985,288.3582Z"/><path class="cls-2" d="M325.5458,238.12l-8.7644-5.06a40.4809,40.4809,0,0,0,0,40.481l8.7644-5.06a30.3607,30.3607,0,0,1,0-30.3608Zm-8.7645-5.06a5.06,5.06,0,1,0,6.9123-1.8521A5.06,5.06,0,0,0,316.7813,233.06Zm0,40.481a5.06,5.06,0,1,0,1.8521-6.9122A5.06,5.06,0,0,0,316.7814,273.5411Z"/><path class="cls-2" d="M311.358,253.3006a5.06,5.06,0,1,0,5.06-5.06A5.06,5.06,0,0,0,311.358,253.3006Z"/><path class="cls-2" d="M316.7814,303.9019l8.7643,5.06a40.4809,40.4809,0,0,0,0-40.481l-8.7644,5.06A30.3607,30.3607,0,0,1,316.7814,303.9019Zm8.7644,5.06a5.06,5.06,0,1,0-6.9123,1.8521A5.06,5.06,0,0,0,325.5458,308.962Zm0-40.481a5.06,5.06,0,1,0-1.8521,6.9122A5.06,5.06,0,0,0,325.5457,268.481Z"/><path class="cls-2" d="M330.9692,288.7215a5.06,5.06,0,1,0-5.06,5.06A5.06,5.06,0,0,0,330.9692,288.7215Z"/><path class="cls-2" d="M325.5457,268.481l-8.7644,5.06a40.4814,40.4814,0,0,0,35.0577,20.2405v-10.12a30.3608,30.3608,0,0,1-26.2932-15.18Zm-8.7643,5.06a5.06,5.06,0,1,0,1.8521-6.9122A5.06,5.06,0,0,0,316.7814,273.5411Zm35.0576,20.2405a5.06,5.06,0,1,0-5.06-5.06A5.06,5.06,0,0,0,351.839,293.7816Z"/><path class="cls-2" d="M331.5985,288.3582a5.06,5.06,0,1,0-1.8522-6.9123A5.06,5.06,0,0,0,331.5985,288.3582Z"/><path class="cls-2" d="M351.839,293.7816v-10.12a40.4807,40.4807,0,0,0-35.0576,20.24l8.7643,5.06a30.3609,30.3609,0,0,1,26.2933-15.18Zm0-10.12a5.06,5.06,0,1,0,5.06,5.06A5.06,5.06,0,0,0,351.839,283.6614Zm-35.0576,20.24a5.06,5.06,0,1,0,6.9122-1.8521A5.06,5.06,0,0,0,316.7814,303.9019Z"/><path class="cls-2" d="M331.5985,289.0848a5.06,5.06,0,1,0,6.9122,1.8521A5.06,5.06,0,0,0,331.5985,289.0848Z"/><path class="cls-2" d="M329.0684,284.7026a5.06,5.06,0,1,0,6.9122,1.8522A5.06,5.06,0,0,0,329.0684,284.7026Z"/><path class="cls-2" d="M351.839,283.6614v10.12a40.4809,40.4809,0,0,0,35.0576-20.2405l-8.7644-5.06a30.3607,30.3607,0,0,1-26.2932,15.18Zm0,10.12a5.06,5.06,0,1,0-5.06-5.06A5.06,5.06,0,0,0,351.839,293.7816Zm35.0575-20.24a5.06,5.06,0,1,0-6.9122,1.8521A5.06,5.06,0,0,0,386.8965,273.5412Z"/><path class="cls-2" d="M372.08,288.3582a5.06,5.06,0,1,0-6.9123-1.8521A5.06,5.06,0,0,0,372.08,288.3582Z"/><path class="cls-2" d="M290.4882,319.0823v10.12a40.4809,40.4809,0,0,0,35.0576-20.24l-8.7644-5.06a30.3607,30.3607,0,0,1-26.2932,15.18Zm0,10.12a5.06,5.06,0,1,0-5.06-5.06A5.06,5.06,0,0,0,290.4881,329.2025Zm35.0577-20.24a5.06,5.06,0,1,0-6.9123,1.8521A5.06,5.06,0,0,0,325.5458,308.962Z"/><path class="cls-2" d="M310.7286,323.7791a5.06,5.06,0,1,0-6.9122-1.8521A5.06,5.06,0,0,0,310.7286,323.7791Z"/><path class="cls-2" d="M351.839,293.7816v-10.12a40.4807,40.4807,0,0,0-35.0576,20.24l8.7643,5.06a30.3609,30.3609,0,0,1,26.2933-15.18Zm0-10.12a5.06,5.06,0,1,0,5.06,5.06A5.06,5.06,0,0,0,351.839,283.6614Zm-35.0576,20.24a5.06,5.06,0,1,0,6.9122-1.8521A5.06,5.06,0,0,0,316.7814,303.9019Z"/><path class="cls-2" d="M331.5985,289.0848a5.06,5.06,0,1,0,6.9122,1.8521A5.06,5.06,0,0,0,331.5985,289.0848Z"/><path class="cls-2" d="M378.1321,197.6392l8.7644,5.06a40.4809,40.4809,0,0,0,0-40.481l-8.7644,5.06a30.3607,30.3607,0,0,1,0,30.3608Zm8.7644,5.06a5.06,5.06,0,1,0-6.9122,1.8521A5.06,5.06,0,0,0,386.8965,202.6994Zm0-40.4811a5.06,5.06,0,1,0-1.8521,6.9122A5.06,5.06,0,0,0,386.8965,162.2183Z"/><path class="cls-2" d="M392.32,182.4588a5.06,5.06,0,1,0-5.06,5.06A5.06,5.06,0,0,0,392.32,182.4588Z"/><path class="cls-2" d="M378.1322,167.2785l8.7643-5.06a40.4811,40.4811,0,0,0-35.0576-20.24v10.12a30.3605,30.3605,0,0,1,26.2932,15.18Zm8.7643-5.06a5.06,5.06,0,1,0-1.8521,6.9122A5.06,5.06,0,0,0,386.8965,162.2183Zm-35.0576-20.24a5.06,5.06,0,1,0,5.06,5.06A5.06,5.06,0,0,0,351.8389,141.9778Z"/><path class="cls-2" d="M372.0794,147.4012a5.06,5.06,0,1,0,1.8522,6.9123A5.06,5.06,0,0,0,372.0794,147.4012Z"/><path class="cls-2" d="M378.1321,197.6392l8.7644,5.06a40.4809,40.4809,0,0,0,0-40.481l-8.7644,5.06a30.3607,30.3607,0,0,1,0,30.3608Zm8.7644,5.06a5.06,5.06,0,1,0-6.9122,1.8521A5.06,5.06,0,0,0,386.8965,202.6994Zm0-40.4811a5.06,5.06,0,1,0-1.8521,6.9122A5.06,5.06,0,0,0,386.8965,162.2183Z"/><path class="cls-2" d="M392.32,182.4588a5.06,5.06,0,1,0-5.06,5.06A5.06,5.06,0,0,0,392.32,182.4588Z"/><path class="cls-2" d="M378.1321,268.481l8.7644,5.06a40.4812,40.4812,0,0,0,0-40.481l-8.7644,5.06a30.3612,30.3612,0,0,1,0,30.3609Zm8.7644,5.06a5.06,5.06,0,1,0-6.9122,1.8521A5.06,5.06,0,0,0,386.8965,273.5412Zm0-40.4811a5.06,5.06,0,1,0-1.8521,6.9123A5.06,5.06,0,0,0,386.8965,233.06Z"/><path class="cls-2" d="M392.32,253.3006a5.06,5.06,0,1,0-5.06,5.06A5.06,5.06,0,0,0,392.32,253.3006Z"/><path class="cls-2" d="M378.1322,238.12l8.7644-5.06a40.4813,40.4813,0,0,0-35.0576-20.24v10.12a30.36,30.36,0,0,1,26.2931,15.18Zm8.7643-5.06a5.06,5.06,0,1,0-1.8521,6.9123A5.06,5.06,0,0,0,386.8965,233.06Zm-35.0576-20.24a5.06,5.06,0,1,0,5.06,5.06A5.06,5.06,0,0,0,351.8389,212.82Z"/><path class="cls-2" d="M372.08,218.243a5.06,5.06,0,1,0,1.8521,6.9123A5.06,5.06,0,0,0,372.08,218.243Z"/><path class="cls-2" d="M351.8389,212.82v10.12a40.4811,40.4811,0,0,0,35.0576-20.24l-8.7643-5.06a30.3613,30.3613,0,0,1-26.2933,15.18Zm0,10.12a5.06,5.06,0,1,0-5.06-5.06A5.06,5.06,0,0,0,351.8389,222.94Zm35.0576-20.24a5.06,5.06,0,1,0-6.9122,1.8521A5.06,5.06,0,0,0,386.8965,202.6994Z"/><path class="cls-2" d="M372.0794,217.5164a5.06,5.06,0,1,0-6.9122-1.8521A5.06,5.06,0,0,0,372.0794,217.5164Z"/><path class="cls-2" d="M386.8965,202.6994l-8.7643-5.06a40.4809,40.4809,0,0,0,0,40.481l8.7644-5.06a30.3607,30.3607,0,0,1,0-30.3608Zm-8.7644-5.06a5.06,5.06,0,1,0,6.9123-1.8521A5.06,5.06,0,0,0,378.1321,197.6392Zm0,40.4811a5.06,5.06,0,1,0,1.8521-6.9123A5.06,5.06,0,0,0,378.1322,238.12Z"/><path class="cls-2" d="M372.7087,217.88a5.06,5.06,0,1,0,5.06-5.06A5.06,5.06,0,0,0,372.7087,217.88Z"/><path class="cls-2" d="M367.6486,217.88a5.06,5.06,0,1,0,5.06-5.06A5.06,5.06,0,0,0,367.6486,217.88Z"/><path class="cls-2" d="M386.8965,202.6994l-8.7643-5.06a40.4809,40.4809,0,0,0,0,40.481l8.7644-5.06a30.3607,30.3607,0,0,1,0-30.3608Zm-8.7644-5.06a5.06,5.06,0,1,0,6.9123-1.8521A5.06,5.06,0,0,0,378.1321,197.6392Zm0,40.4811a5.06,5.06,0,1,0,1.8521-6.9123A5.06,5.06,0,0,0,378.1322,238.12Z"/><path class="cls-2" d="M372.7087,217.88a5.06,5.06,0,1,0,5.06-5.06A5.06,5.06,0,0,0,372.7087,217.88Z"/><path class="cls-2" d="M378.1321,268.481l8.7644,5.06a40.4812,40.4812,0,0,0,0-40.481l-8.7644,5.06a30.3612,30.3612,0,0,1,0,30.3609Zm8.7644,5.06a5.06,5.06,0,1,0-6.9122,1.8521A5.06,5.06,0,0,0,386.8965,273.5412Zm0-40.4811a5.06,5.06,0,1,0-1.8521,6.9123A5.06,5.06,0,0,0,386.8965,233.06Z"/><path class="cls-2" d="M392.32,253.3006a5.06,5.06,0,1,0-5.06,5.06A5.06,5.06,0,0,0,392.32,253.3006Z"/><path class="cls-2" d="M351.839,283.6614v10.12a40.4809,40.4809,0,0,0,35.0576-20.2405l-8.7644-5.06a30.3607,30.3607,0,0,1-26.2932,15.18Zm0,10.12a5.06,5.06,0,1,0-5.06-5.06A5.06,5.06,0,0,0,351.839,293.7816Zm35.0575-20.24a5.06,5.06,0,1,0-6.9122,1.8521A5.06,5.06,0,0,0,386.8965,273.5412Z"/><path class="cls-2" d="M372.08,288.3582a5.06,5.06,0,1,0-6.9123-1.8521A5.06,5.06,0,0,0,372.08,288.3582Z"/></svg>