<svg id="Layer_1" data-name="Layer 1" xmlns="http://www.w3.org/2000/svg" viewBox="0 0 580 436"><defs><style>.cls-1{fill:#f80;}.cls-2,.cls-5{fill:none;}.cls-3{opacity:0;}.cls-4{fill:#ffc94a;}.cls-5{stroke:#8f228f;stroke-miterlimit:10;stroke-width:2px;}</style></defs><title>thing11</title><rect class="cls-1" width="580" height="436" rx="14.541"/><rect class="cls-2" x="290" y="218" width="290" height="218"/><g class="cls-3"><path class="cls-4" d="M212.1543,297.1573a57.5628,57.5628,0,1,1,78.6323,21.07,57.5629,57.5629,0,0,1-78.6323-21.07Zm12.4627-7.1953a43.1722,43.1722,0,1,0,15.8021-58.9743A43.1722,43.1722,0,0,0,224.617,289.962ZM299.3933,246.79a57.5628,57.5628,0,1,1,78.6323,21.0694A57.5628,57.5628,0,0,1,299.3933,246.79Zm12.4627-7.1954A43.1721,43.1721,0,1,0,327.6581,180.62a43.1721,43.1721,0,0,0-15.8021,58.9742Zm-49.8508-14.3907A57.5628,57.5628,0,1,1,319.568,167.641a57.5627,57.5627,0,0,1-57.5628,57.5628Zm0-14.3907a43.1721,43.1721,0,1,0-43.1721-43.1721A43.1721,43.1721,0,0,0,262.0052,210.8131ZM362.74,268.3759A100.7349,100.7349,0,1,0,262.0052,369.1108,100.735,100.735,0,0,0,362.74,268.3759Zm87.239-50.3674a100.7349,100.7349,0,1,0-100.735,100.7349A100.7349,100.7349,0,0,0,449.9791,218.0085ZM312.3726,80.4019a100.7349,100.7349,0,1,0,36.8715,137.6065A100.735,100.735,0,0,0,312.3726,80.4019ZM349.2539,318.76,174.7468,218.0084,349.2539,117.2567ZM299.3947,289.974a57.634,57.634,0,0,1,49.8592-28.7862q0,7.1966,0,14.3931a43.2259,43.2259,0,0,0-37.3944,21.59l-12.4648-7.1966Zm-87.2536-50.3759a43.1552,43.1552,0,0,0-.0062-43.1757l12.4627-7.1953a57.54,57.54,0,0,1,.0083,57.5676Zm87.2618-93.56,12.4627-7.1954a43.1549,43.1549,0,0,0,37.3882,21.5933v14.3931a57.54,57.54,0,0,1-49.8508-28.791Z" transform="translate(-0.5537)"/></g><path class="cls-5" d="M212.1543,297.1573a57.5628,57.5628,0,1,1,78.6323,21.07,57.5629,57.5629,0,0,1-78.6323-21.07Zm12.4627-7.1953a43.1722,43.1722,0,1,0,15.8021-58.9743A43.1722,43.1722,0,0,0,224.617,289.962ZM299.3933,246.79a57.5628,57.5628,0,1,1,78.6323,21.0694A57.5628,57.5628,0,0,1,299.3933,246.79Zm12.4627-7.1954A43.1721,43.1721,0,1,0,327.6581,180.62a43.1721,43.1721,0,0,0-15.8021,58.9742Zm-49.8508-14.3907A57.5628,57.5628,0,1,1,319.568,167.641a57.5627,57.5627,0,0,1-57.5628,57.5628Zm0-14.3907a43.1721,43.1721,0,1,0-43.1721-43.1721A43.1721,43.1721,0,0,0,262.0052,210.8131ZM362.74,268.3759A100.7349,100.7349,0,1,0,262.0052,369.1108,100.735,100.735,0,0,0,362.74,268.3759Zm87.239-50.3674a100.7349,100.7349,0,1,0-100.735,100.7349A100.7349,100.7349,0,0,0,449.9791,218.0085ZM312.3726,80.4019a100.7349,100.7349,0,1,0,36.8715,137.6065A100.735,100.735,0,0,0,312.3726,80.4019ZM349.2539,318.76,174.7468,218.0084,349.2539,117.2567ZM299.3947,289.974a57.634,57.634,0,0,1,49.8592-28.7862q0,7.1966,0,14.3931a43.2259,43.2259,0,0,0-37.3944,21.59l-12.4648-7.1966Zm-87.2536-50.3759a43.1552,43.1552,0,0,0-.0062-43.1757l12.4627-7.1953a57.54,57.54,0,0,1,.0083,57.5676Zm87.2618-93.56,12.4627-7.1954a43.1549,43.1549,0,0,0,37.3882,21.5933v14.3931a57.54,57.54,0,0,1-49.8508-28.791Z" transform="translate(-0.5537)"/></svg>