<svg id="Layer_1" data-name="Layer 1" xmlns="http://www.w3.org/2000/svg" viewBox="0 0 580 436"><defs><style>.cls-1{fill:#ffc41f;}.cls-2{fill:none;}.cls-3{fill:#ffc94a;fill-opacity:0;stroke:#8f228f;stroke-miterlimit:10;stroke-width:2px;}</style></defs><title>thing11</title><rect class="cls-1" width="580" height="436" rx="14.541"/><rect class="cls-2" x="290" y="218" width="290" height="218"/><path class="cls-3" d="M217.8031,288.8771c-14.693-24.2982-5.9736-55.3683,19.4755-69.3969s57.9907-5.7035,72.6837,18.5948,5.9736,55.3683-19.4755,69.3969-57.9907,5.7035-72.6837-18.5948Zm11.52-6.35c11.02,18.2236,35.4259,24.4676,54.5128,13.9461s25.6264-33.824,14.6067-52.0477-35.426-24.4677-54.5129-13.9462S218.3032,264.3031,229.323,282.5269Zm69.1194-38.1016c-14.693-24.2982-5.9736-55.3683,19.4755-69.3969s57.9907-5.7035,72.6837,18.5948,5.9736,55.3683-19.4755,69.3969-57.9907,5.7035-72.6837-18.5948Zm11.52-6.35c11.02,18.2237,35.4259,24.4677,54.5128,13.9462s25.6264-33.824,14.6066-52.0477-35.4259-24.4676-54.5128-13.9462-25.6264,33.824-14.6066,52.0478Zm-46.08-12.7c-29.386,0-53.2082-22.7449-53.2081-50.8021s23.8221-50.8021,53.2081-50.802,53.2082,22.7449,53.2081,50.8021-23.8221,50.8021-53.2081,50.802Zm0-12.7005c22.0395,0,39.9061-17.0586,39.9061-38.1015s-17.8665-38.1016-39.9061-38.1016-39.9061,17.0586-39.9061,38.1015S241.8431,212.674,263.8827,212.674Zm80.6393,6.35c-25.7128-42.522-82.6606-57.0911-127.1964-32.541s-59.795,78.9227-34.0822,121.4446,82.6606,57.091,127.1964,32.5409S370.2348,261.5462,344.522,219.0243Zm80.6393-44.4518c-25.7128-42.522-82.6606-57.0911-127.1964-32.541s-59.795,78.9227-34.0822,121.4446,82.6606,57.091,127.1964,32.5409S450.8741,217.0944,425.1613,174.5725ZM263.8826,85.6688c-51.4255,0-93.1142,39.8034-93.1142,88.9036s41.6886,88.9036,93.1143,88.9036,93.1142-39.8035,93.1142-88.9036-41.6886-88.9036-93.1143-88.9036ZM344.531,307.9427,183.2254,219.0242,344.531,130.1058Zm-46.0873-25.4053a51.8235,51.8235,0,0,1,19.4832-18.5906,54.91,54.91,0,0,1,26.6041-6.8146q0,6.3513,0,12.7026a41.1841,41.1841,0,0,0-19.9531,5.111,38.8679,38.8679,0,0,0-14.6124,13.943l-11.5219-6.3514Zm-80.6528-44.4592a36.6008,36.6008,0,0,0-.0058-38.1047l11.52-6.35a48.8008,48.8008,0,0,1,.0077,50.8063Zm80.66-82.5713,11.52-6.35a40.2822,40.2822,0,0,0,34.56,19.0571v12.7027c-18.3714-.0164-36.2332-9.1264-46.08-25.41Z" transform="translate(-0.5537)"/></svg>