<svg id="Layer_1" data-name="Layer 1" xmlns="http://www.w3.org/2000/svg" viewBox="0 0 580 436.39"><defs><style>.cls-1{fill:#fff;}.cls-2{fill:#ffc41f;}.cls-3{fill:#00adeb;}</style></defs><title>thing6</title><rect class="cls-1" width="580" height="218.82"/><rect class="cls-2" y="0.39" width="580" height="436" rx="14.54"/><path class="cls-3" d="M291.62,141.58l11.78-6.81a54.42,54.42,0,0,0-47.13-27.21v13.61A40.82,40.82,0,0,1,291.62,141.58Zm11.78-6.81a6.8,6.8,0,1,0-2.49,9.3A6.8,6.8,0,0,0,303.4,134.77Zm-47.13-27.21a6.81,6.81,0,1,0,6.8,6.8A6.81,6.81,0,0,0,256.27,107.56Z" transform="translate(0)"/><path class="cls-3" d="M283.48,114.85a6.81,6.81,0,1,0,2.49,9.3A6.8,6.8,0,0,0,283.48,114.85Z" transform="translate(0)"/><path class="cls-3" d="M229.05,114.85a6.81,6.81,0,1,0,9.3,2.49A6.81,6.81,0,0,0,229.05,114.85Z" transform="translate(0)"/><path class="cls-3" d="M229.05,114.85a6.81,6.81,0,1,0,9.3,2.49A6.81,6.81,0,0,0,229.05,114.85Z" transform="translate(0)"/><path class="cls-3" d="M220.91,141.58l-11.78-6.81a54.44,54.44,0,0,0,0,54.43l11.78-6.8A40.83,40.83,0,0,1,220.91,141.58Zm-11.78-6.81a6.8,6.8,0,1,0,9.29-2.49A6.81,6.81,0,0,0,209.13,134.77Zm0,54.43a6.8,6.8,0,1,0,2.49-9.29A6.79,6.79,0,0,0,209.13,189.2Z" transform="translate(0)"/><path class="cls-3" d="M201.84,162a6.81,6.81,0,1,0,6.8-6.81A6.79,6.79,0,0,0,201.84,162Z" transform="translate(0)"/><path class="cls-3" d="M374.11,189.2l11.78-6.8a54.43,54.43,0,0,0-47.13-27.22v13.61A40.82,40.82,0,0,1,374.11,189.2Zm11.78-6.8a6.8,6.8,0,1,0-2.49,9.29A6.79,6.79,0,0,0,385.89,182.4Zm-47.13-27.22a6.81,6.81,0,1,0,6.8,6.81A6.81,6.81,0,0,0,338.76,155.18Z" transform="translate(0)"/><path class="cls-3" d="M366,162.48a6.8,6.8,0,1,0,2.49,9.29A6.79,6.79,0,0,0,366,162.48Z" transform="translate(0)"/><path class="cls-3" d="M303.4,134.77l-11.78,6.81a54.42,54.42,0,0,0,47.14,27.21V155.18A40.84,40.84,0,0,1,303.4,134.77Zm-11.78,6.81a6.8,6.8,0,1,0,2.49-9.3A6.8,6.8,0,0,0,291.62,141.58Zm47.14,27.21A6.81,6.81,0,1,0,332,162,6.8,6.8,0,0,0,338.76,168.79Z" transform="translate(0)"/><path class="cls-3" d="M311.54,161.5a6.8,6.8,0,1,0-2.49-9.29A6.8,6.8,0,0,0,311.54,161.5Z" transform="translate(0)"/><path class="cls-3" d="M291.62,141.58l11.78-6.81a54.42,54.42,0,0,0-47.13-27.21v13.61A40.82,40.82,0,0,1,291.62,141.58Zm11.78-6.81a6.8,6.8,0,1,0-2.49,9.3A6.8,6.8,0,0,0,303.4,134.77Zm-47.13-27.21a6.81,6.81,0,1,0,6.8,6.8A6.81,6.81,0,0,0,256.27,107.56Z" transform="translate(0)"/><path class="cls-3" d="M283.48,114.85a6.81,6.81,0,1,0,2.49,9.3A6.8,6.8,0,0,0,283.48,114.85Z" transform="translate(0)"/><path class="cls-3" d="M303.4,134.77l-11.78,6.81a54.42,54.42,0,0,0,47.14,27.21V155.18A40.84,40.84,0,0,1,303.4,134.77Zm-11.78,6.81a6.8,6.8,0,1,0,2.49-9.3A6.8,6.8,0,0,0,291.62,141.58Zm47.14,27.21A6.81,6.81,0,1,0,332,162,6.8,6.8,0,0,0,338.76,168.79Z" transform="translate(0)"/><path class="cls-3" d="M311.54,161.5a6.8,6.8,0,1,0-2.49-9.29A6.8,6.8,0,0,0,311.54,161.5Z" transform="translate(0)"/><path class="cls-3" d="M291.62,141.58l11.78-6.81a54.42,54.42,0,0,0-47.13-27.21v13.61A40.82,40.82,0,0,1,291.62,141.58Zm11.78-6.81a6.8,6.8,0,1,0-2.49,9.3A6.8,6.8,0,0,0,303.4,134.77Zm-47.13-27.21a6.81,6.81,0,1,0,6.8,6.8A6.81,6.81,0,0,0,256.27,107.56Z" transform="translate(0)"/><path class="cls-3" d="M283.48,114.85a6.81,6.81,0,1,0,2.49,9.3A6.8,6.8,0,0,0,283.48,114.85Z" transform="translate(0)"/><path class="cls-3" d="M303.4,134.77l-11.78,6.81a54.42,54.42,0,0,0,47.14,27.21V155.18A40.84,40.84,0,0,1,303.4,134.77Zm-11.78,6.81a6.8,6.8,0,1,0,2.49-9.3A6.8,6.8,0,0,0,291.62,141.58Zm47.14,27.21A6.81,6.81,0,1,0,332,162,6.8,6.8,0,0,0,338.76,168.79Z" transform="translate(0)"/><path class="cls-3" d="M311.54,161.5a6.8,6.8,0,1,0-2.49-9.29A6.8,6.8,0,0,0,311.54,161.5Z" transform="translate(0)"/><path class="cls-3" d="M291.62,236.83,303.4,230a54.42,54.42,0,0,0-47.13-27.21v13.61A40.82,40.82,0,0,1,291.62,236.83ZM303.4,230a6.8,6.8,0,1,0-2.49,9.3A6.8,6.8,0,0,0,303.4,230Zm-47.13-27.21a6.81,6.81,0,1,0,6.8,6.8A6.81,6.81,0,0,0,256.27,202.81Z" transform="translate(0)"/><path class="cls-3" d="M283.48,210.1a6.81,6.81,0,1,0,2.49,9.29A6.8,6.8,0,0,0,283.48,210.1Z" transform="translate(0)"/><path class="cls-3" d="M256.27,216.42V202.81A54.42,54.42,0,0,0,209.13,230l11.78,6.81A40.84,40.84,0,0,1,256.27,216.42Zm0-13.61a6.81,6.81,0,1,0,6.8,6.8A6.81,6.81,0,0,0,256.27,202.81ZM209.13,230a6.8,6.8,0,1,0,9.29-2.49A6.81,6.81,0,0,0,209.13,230Z" transform="translate(0)"/><path class="cls-3" d="M229.05,210.1a6.81,6.81,0,1,0,9.3,2.49A6.8,6.8,0,0,0,229.05,210.1Z" transform="translate(0)"/><path class="cls-3" d="M209.13,230l11.78,6.81a54.4,54.4,0,0,0,0-54.43l-11.78,6.8a40.83,40.83,0,0,1,0,40.82Zm11.78,6.81a6.8,6.8,0,1,0-9.29,2.49A6.8,6.8,0,0,0,220.91,236.83Zm0-54.43a6.8,6.8,0,1,0-2.49,9.29A6.79,6.79,0,0,0,220.91,182.4Z" transform="translate(0)"/><path class="cls-3" d="M228.21,209.61a6.81,6.81,0,1,0-6.81,6.81A6.81,6.81,0,0,0,228.21,209.61Z" transform="translate(0)"/><path class="cls-3" d="M220.91,182.4l-11.78,6.8a54.43,54.43,0,0,0,47.14,27.22V202.81A40.84,40.84,0,0,1,220.91,182.4Zm-11.78,6.8a6.8,6.8,0,1,0,2.49-9.29A6.79,6.79,0,0,0,209.13,189.2Zm47.14,27.22a6.81,6.81,0,1,0-6.81-6.81A6.81,6.81,0,0,0,256.27,216.42Z" transform="translate(0)"/><path class="cls-3" d="M229.05,209.12a6.8,6.8,0,1,0-2.49-9.29A6.8,6.8,0,0,0,229.05,209.12Z" transform="translate(0)"/><path class="cls-3" d="M225.65,215a6.81,6.81,0,1,0-2.49-9.3A6.8,6.8,0,0,0,225.65,215Z" transform="translate(0)"/><path class="cls-3" d="M220.91,141.58l-11.78-6.81a54.44,54.44,0,0,0,0,54.43l11.78-6.8A40.83,40.83,0,0,1,220.91,141.58Zm-11.78-6.81a6.8,6.8,0,1,0,9.29-2.49A6.81,6.81,0,0,0,209.13,134.77Zm0,54.43a6.8,6.8,0,1,0,2.49-9.29A6.79,6.79,0,0,0,209.13,189.2Z" transform="translate(0)"/><path class="cls-3" d="M201.84,162a6.81,6.81,0,1,0,6.8-6.81A6.79,6.79,0,0,0,201.84,162Z" transform="translate(0)"/><path class="cls-3" d="M229.05,114.85a6.81,6.81,0,1,0,9.3,2.49A6.81,6.81,0,0,0,229.05,114.85Z" transform="translate(0)"/><path class="cls-3" d="M291.62,141.58l11.78-6.81a54.42,54.42,0,0,0-47.13-27.21v13.61A40.82,40.82,0,0,1,291.62,141.58Zm11.78-6.81a6.8,6.8,0,1,0-2.49,9.3A6.8,6.8,0,0,0,303.4,134.77Zm-47.13-27.21a6.81,6.81,0,1,0,6.8,6.8A6.81,6.81,0,0,0,256.27,107.56Z" transform="translate(0)"/><path class="cls-3" d="M283.48,114.85a6.81,6.81,0,1,0,2.49,9.3A6.8,6.8,0,0,0,283.48,114.85Z" transform="translate(0)"/><path class="cls-3" d="M220.91,182.4l-11.78,6.8a54.43,54.43,0,0,0,47.14,27.22V202.81A40.84,40.84,0,0,1,220.91,182.4Zm-11.78,6.8a6.8,6.8,0,1,0,2.49-9.29A6.79,6.79,0,0,0,209.13,189.2Zm47.14,27.22a6.81,6.81,0,1,0-6.81-6.81A6.81,6.81,0,0,0,256.27,216.42Z" transform="translate(0)"/><path class="cls-3" d="M229.05,209.12a6.8,6.8,0,1,0-2.49-9.29A6.8,6.8,0,0,0,229.05,209.12Z" transform="translate(0)"/><path class="cls-3" d="M220.91,141.58l-11.78-6.81a54.44,54.44,0,0,0,0,54.43l11.78-6.8A40.83,40.83,0,0,1,220.91,141.58Zm-11.78-6.81a6.8,6.8,0,1,0,9.29-2.49A6.81,6.81,0,0,0,209.13,134.77Zm0,54.43a6.8,6.8,0,1,0,2.49-9.29A6.79,6.79,0,0,0,209.13,189.2Z" transform="translate(0)"/><path class="cls-3" d="M201.84,162a6.81,6.81,0,1,0,6.8-6.81A6.79,6.79,0,0,0,201.84,162Z" transform="translate(0)"/><path class="cls-3" d="M229.05,114.85a6.81,6.81,0,1,0,9.3,2.49A6.81,6.81,0,0,0,229.05,114.85Z" transform="translate(0)"/><path class="cls-3" d="M220.91,141.58l-11.78-6.81a54.44,54.44,0,0,0,0,54.43l11.78-6.8A40.83,40.83,0,0,1,220.91,141.58Zm-11.78-6.81a6.8,6.8,0,1,0,9.29-2.49A6.81,6.81,0,0,0,209.13,134.77Zm0,54.43a6.8,6.8,0,1,0,2.49-9.29A6.79,6.79,0,0,0,209.13,189.2Z" transform="translate(0)"/><path class="cls-3" d="M201.84,162a6.81,6.81,0,1,0,6.8-6.81A6.79,6.79,0,0,0,201.84,162Z" transform="translate(0)"/><path class="cls-3" d="M220.91,182.4l-11.78,6.8a54.43,54.43,0,0,0,47.14,27.22V202.81A40.84,40.84,0,0,1,220.91,182.4Zm-11.78,6.8a6.8,6.8,0,1,0,2.49-9.29A6.79,6.79,0,0,0,209.13,189.2Zm47.14,27.22a6.81,6.81,0,1,0-6.81-6.81A6.81,6.81,0,0,0,256.27,216.42Z" transform="translate(0)"/><path class="cls-3" d="M229.05,209.12a6.8,6.8,0,1,0-2.49-9.29A6.8,6.8,0,0,0,229.05,209.12Z" transform="translate(0)"/><path class="cls-3" d="M256.27,216.42V202.81A54.42,54.42,0,0,0,209.13,230l11.78,6.81A40.84,40.84,0,0,1,256.27,216.42Zm0-13.61a6.81,6.81,0,1,0,6.8,6.8A6.81,6.81,0,0,0,256.27,202.81ZM209.13,230a6.8,6.8,0,1,0,9.29-2.49A6.81,6.81,0,0,0,209.13,230Z" transform="translate(0)"/><path class="cls-3" d="M229.05,210.1a6.81,6.81,0,1,0,9.3,2.49A6.8,6.8,0,0,0,229.05,210.1Z" transform="translate(0)"/><path class="cls-3" d="M209.13,230l11.78,6.81a54.4,54.4,0,0,0,0-54.43l-11.78,6.8a40.83,40.83,0,0,1,0,40.82Zm11.78,6.81a6.8,6.8,0,1,0-9.29,2.49A6.8,6.8,0,0,0,220.91,236.83Zm0-54.43a6.8,6.8,0,1,0-2.49,9.29A6.79,6.79,0,0,0,220.91,182.4Z" transform="translate(0)"/><path class="cls-3" d="M228.21,209.61a6.81,6.81,0,1,0-6.81,6.81A6.81,6.81,0,0,0,228.21,209.61Z" transform="translate(0)"/><path class="cls-3" d="M235,209.61a6.81,6.81,0,1,0-6.8,6.81A6.81,6.81,0,0,0,235,209.61Z" transform="translate(0)"/><path class="cls-3" d="M220.91,236.83,209.13,230a54.44,54.44,0,0,0,0,54.43l11.78-6.8a40.83,40.83,0,0,1,0-40.82ZM209.13,230a6.8,6.8,0,1,0,9.29-2.49A6.81,6.81,0,0,0,209.13,230Zm0,54.43a6.8,6.8,0,1,0,2.49-9.29A6.79,6.79,0,0,0,209.13,284.45Z" transform="translate(0)"/><path class="cls-3" d="M201.84,257.24a6.81,6.81,0,1,0,6.8-6.81A6.79,6.79,0,0,0,201.84,257.24Z" transform="translate(0)"/><path class="cls-3" d="M209.13,230l11.78,6.81a54.4,54.4,0,0,0,0-54.43l-11.78,6.8a40.83,40.83,0,0,1,0,40.82Zm11.78,6.81a6.8,6.8,0,1,0-9.29,2.49A6.8,6.8,0,0,0,220.91,236.83Zm0-54.43a6.8,6.8,0,1,0-2.49,9.29A6.79,6.79,0,0,0,220.91,182.4Z" transform="translate(0)"/><path class="cls-3" d="M228.21,209.61a6.81,6.81,0,1,0-6.81,6.81A6.81,6.81,0,0,0,228.21,209.61Z" transform="translate(0)"/><path class="cls-3" d="M374.11,230l11.78,6.81a54.44,54.44,0,0,0,0-54.43l-11.78,6.8a40.83,40.83,0,0,1,0,40.82Zm11.78,6.81a6.8,6.8,0,1,0-9.29,2.49A6.8,6.8,0,0,0,385.89,236.83Zm0-54.43a6.8,6.8,0,1,0-2.49,9.29A6.79,6.79,0,0,0,385.89,182.4Z" transform="translate(0)"/><path class="cls-3" d="M393.18,209.61a6.8,6.8,0,1,0-6.8,6.81A6.8,6.8,0,0,0,393.18,209.61Z" transform="translate(0)"/><path class="cls-3" d="M374.11,189.2l11.78-6.8a54.43,54.43,0,0,0-47.13-27.22v13.61A40.82,40.82,0,0,1,374.11,189.2Zm11.78-6.8a6.8,6.8,0,1,0-2.49,9.29A6.79,6.79,0,0,0,385.89,182.4Zm-47.13-27.22a6.81,6.81,0,1,0,6.8,6.81A6.81,6.81,0,0,0,338.76,155.18Z" transform="translate(0)"/><path class="cls-3" d="M366,162.48a6.8,6.8,0,1,0,2.49,9.29A6.79,6.79,0,0,0,366,162.48Z" transform="translate(0)"/><path class="cls-3" d="M374.11,189.2l11.78-6.8a54.43,54.43,0,0,0-47.13-27.22v13.61A40.82,40.82,0,0,1,374.11,189.2Zm11.78-6.8a6.8,6.8,0,1,0-2.49,9.29A6.79,6.79,0,0,0,385.89,182.4Zm-47.13-27.22a6.81,6.81,0,1,0,6.8,6.81A6.81,6.81,0,0,0,338.76,155.18Z" transform="translate(0)"/><path class="cls-3" d="M366,162.48a6.8,6.8,0,1,0,2.49,9.29A6.79,6.79,0,0,0,366,162.48Z" transform="translate(0)"/><path class="cls-3" d="M374.11,230l11.78,6.81a54.44,54.44,0,0,0,0-54.43l-11.78,6.8a40.83,40.83,0,0,1,0,40.82Zm11.78,6.81a6.8,6.8,0,1,0-9.29,2.49A6.8,6.8,0,0,0,385.89,236.83Zm0-54.43a6.8,6.8,0,1,0-2.49,9.29A6.79,6.79,0,0,0,385.89,182.4Z" transform="translate(0)"/><path class="cls-3" d="M393.18,209.61a6.8,6.8,0,1,0-6.8,6.81A6.8,6.8,0,0,0,393.18,209.61Z" transform="translate(0)"/><path class="cls-3" d="M338.76,250.43V264a54.42,54.42,0,0,0,47.13-27.21L374.11,230A40.82,40.82,0,0,1,338.76,250.43Zm0,13.61a6.81,6.81,0,1,0-6.81-6.8A6.8,6.8,0,0,0,338.76,264Zm47.13-27.21a6.8,6.8,0,1,0-9.29,2.49A6.8,6.8,0,0,0,385.89,236.83Z" transform="translate(0)"/><path class="cls-3" d="M366,256.75a6.8,6.8,0,1,0-9.29-2.49A6.8,6.8,0,0,0,366,256.75Z" transform="translate(0)"/><path class="cls-3" d="M338.76,264V250.43a54.43,54.43,0,0,0-47.14,27.22l11.78,6.8A40.82,40.82,0,0,1,338.76,264Zm0-13.61a6.81,6.81,0,1,0,6.8,6.81A6.81,6.81,0,0,0,338.76,250.43Zm-47.14,27.22a6.8,6.8,0,1,0,9.29-2.49A6.8,6.8,0,0,0,291.62,277.65Z" transform="translate(0)"/><path class="cls-3" d="M311.54,257.73a6.8,6.8,0,1,0,9.29,2.49A6.8,6.8,0,0,0,311.54,257.73Z" transform="translate(0)"/><path class="cls-3" d="M291.62,277.65l11.78,6.8a54.4,54.4,0,0,0,0-54.43l-11.78,6.81a40.83,40.83,0,0,1,0,40.82Zm11.78,6.8a6.8,6.8,0,1,0-9.29,2.49A6.79,6.79,0,0,0,303.4,284.45Zm0-54.43a6.8,6.8,0,1,0-2.49,9.3A6.8,6.8,0,0,0,303.4,230Z" transform="translate(0)"/><path class="cls-3" d="M310.7,257.24a6.81,6.81,0,1,0-6.81,6.8A6.81,6.81,0,0,0,310.7,257.24Z" transform="translate(0)"/><path class="cls-3" d="M303.4,230l-11.78,6.81A54.42,54.42,0,0,0,338.76,264V250.43A40.84,40.84,0,0,1,303.4,230Zm-11.78,6.81a6.8,6.8,0,1,0,2.49-9.3A6.8,6.8,0,0,0,291.62,236.83ZM338.76,264a6.81,6.81,0,1,0-6.81-6.8A6.8,6.8,0,0,0,338.76,264Z" transform="translate(0)"/><path class="cls-3" d="M311.54,256.75a6.8,6.8,0,1,0-2.49-9.29A6.8,6.8,0,0,0,311.54,256.75Z" transform="translate(0)"/><path class="cls-3" d="M308.14,262.64a6.8,6.8,0,1,0-2.49-9.29A6.79,6.79,0,0,0,308.14,262.64Z" transform="translate(0)"/><path class="cls-3" d="M283.48,210.1a6.81,6.81,0,1,0,2.49,9.29A6.8,6.8,0,0,0,283.48,210.1Z" transform="translate(0)"/><path class="cls-3" d="M303.4,134.77l-11.78,6.81a54.42,54.42,0,0,0,47.14,27.21V155.18A40.84,40.84,0,0,1,303.4,134.77Zm-11.78,6.81a6.8,6.8,0,1,0,2.49-9.3A6.8,6.8,0,0,0,291.62,141.58Zm47.14,27.21A6.81,6.81,0,1,0,332,162,6.8,6.8,0,0,0,338.76,168.79Z" transform="translate(0)"/><path class="cls-3" d="M311.54,161.5a6.8,6.8,0,1,0-2.49-9.29A6.8,6.8,0,0,0,311.54,161.5Z" transform="translate(0)"/><path class="cls-3" d="M374.11,189.2l11.78-6.8a54.43,54.43,0,0,0-47.13-27.22v13.61A40.82,40.82,0,0,1,374.11,189.2Zm11.78-6.8a6.8,6.8,0,1,0-2.49,9.29A6.79,6.79,0,0,0,385.89,182.4Zm-47.13-27.22a6.81,6.81,0,1,0,6.8,6.81A6.81,6.81,0,0,0,338.76,155.18Z" transform="translate(0)"/><path class="cls-3" d="M366,162.48a6.8,6.8,0,1,0,2.49,9.29A6.79,6.79,0,0,0,366,162.48Z" transform="translate(0)"/><path class="cls-3" d="M374.11,230l11.78,6.81a54.44,54.44,0,0,0,0-54.43l-11.78,6.8a40.83,40.83,0,0,1,0,40.82Zm11.78,6.81a6.8,6.8,0,1,0-9.29,2.49A6.8,6.8,0,0,0,385.89,236.83Zm0-54.43a6.8,6.8,0,1,0-2.49,9.29A6.79,6.79,0,0,0,385.89,182.4Z" transform="translate(0)"/><path class="cls-3" d="M393.18,209.61a6.8,6.8,0,1,0-6.8,6.81A6.8,6.8,0,0,0,393.18,209.61Z" transform="translate(0)"/><path class="cls-3" d="M338.76,250.43V264a54.42,54.42,0,0,0,47.13-27.21L374.11,230A40.82,40.82,0,0,1,338.76,250.43Zm0,13.61a6.81,6.81,0,1,0-6.81-6.8A6.8,6.8,0,0,0,338.76,264Zm47.13-27.21a6.8,6.8,0,1,0-9.29,2.49A6.8,6.8,0,0,0,385.89,236.83Z" transform="translate(0)"/><path class="cls-3" d="M366,256.75a6.8,6.8,0,1,0-9.29-2.49A6.8,6.8,0,0,0,366,256.75Z" transform="translate(0)"/><path class="cls-3" d="M303.4,230l-11.78,6.81A54.42,54.42,0,0,0,338.76,264V250.43A40.84,40.84,0,0,1,303.4,230Zm-11.78,6.81a6.8,6.8,0,1,0,2.49-9.3A6.8,6.8,0,0,0,291.62,236.83ZM338.76,264a6.81,6.81,0,1,0-6.81-6.8A6.8,6.8,0,0,0,338.76,264Z" transform="translate(0)"/><path class="cls-3" d="M311.54,256.75a6.8,6.8,0,1,0-2.49-9.29A6.8,6.8,0,0,0,311.54,256.75Z" transform="translate(0)"/><path class="cls-3" d="M283.48,210.1a6.81,6.81,0,1,0,2.49,9.29A6.8,6.8,0,0,0,283.48,210.1Z" transform="translate(0)"/><path class="cls-3" d="M303.4,230l-11.78,6.81A54.42,54.42,0,0,0,338.76,264V250.43A40.84,40.84,0,0,1,303.4,230Zm-11.78,6.81a6.8,6.8,0,1,0,2.49-9.3A6.8,6.8,0,0,0,291.62,236.83ZM338.76,264a6.81,6.81,0,1,0-6.81-6.8A6.8,6.8,0,0,0,338.76,264Z" transform="translate(0)"/><path class="cls-3" d="M311.54,256.75a6.8,6.8,0,1,0-2.49-9.29A6.8,6.8,0,0,0,311.54,256.75Z" transform="translate(0)"/><path class="cls-3" d="M338.76,264V250.43a54.43,54.43,0,0,0-47.14,27.22l11.78,6.8A40.82,40.82,0,0,1,338.76,264Zm0-13.61a6.81,6.81,0,1,0,6.8,6.81A6.81,6.81,0,0,0,338.76,250.43Zm-47.14,27.22a6.8,6.8,0,1,0,9.29-2.49A6.8,6.8,0,0,0,291.62,277.65Z" transform="translate(0)"/><path class="cls-3" d="M311.54,257.73a6.8,6.8,0,1,0,9.29,2.49A6.8,6.8,0,0,0,311.54,257.73Z" transform="translate(0)"/><path class="cls-3" d="M291.62,277.65l11.78,6.8a54.4,54.4,0,0,0,0-54.43l-11.78,6.81a40.83,40.83,0,0,1,0,40.82Zm11.78,6.8a6.8,6.8,0,1,0-9.29,2.49A6.79,6.79,0,0,0,303.4,284.45Zm0-54.43a6.8,6.8,0,1,0-2.49,9.3A6.8,6.8,0,0,0,303.4,230Z" transform="translate(0)"/><path class="cls-3" d="M310.7,257.24a6.81,6.81,0,1,0-6.81,6.8A6.81,6.81,0,0,0,310.7,257.24Z" transform="translate(0)"/><path class="cls-3" d="M317.5,257.24a6.81,6.81,0,1,0-6.8,6.8A6.81,6.81,0,0,0,317.5,257.24Z" transform="translate(0)"/><path class="cls-3" d="M283.48,304.37a6.8,6.8,0,1,0-9.29-2.49A6.8,6.8,0,0,0,283.48,304.37Z" transform="translate(0)"/><path class="cls-3" d="M220.91,277.65l-11.78,6.8a54.43,54.43,0,0,0,47.14,27.22V298.06A40.84,40.84,0,0,1,220.91,277.65Zm-11.78,6.8a6.8,6.8,0,1,0,2.49-9.29A6.79,6.79,0,0,0,209.13,284.45Zm47.14,27.22a6.81,6.81,0,1,0-6.81-6.81A6.81,6.81,0,0,0,256.27,311.67Z" transform="translate(0)"/><path class="cls-3" d="M229.05,304.37a6.8,6.8,0,1,0-2.49-9.29A6.8,6.8,0,0,0,229.05,304.37Z" transform="translate(0)"/><path class="cls-3" d="M220.91,236.83,209.13,230a54.44,54.44,0,0,0,0,54.43l11.78-6.8a40.83,40.83,0,0,1,0-40.82ZM209.13,230a6.8,6.8,0,1,0,9.29-2.49A6.81,6.81,0,0,0,209.13,230Zm0,54.43a6.8,6.8,0,1,0,2.49-9.29A6.79,6.79,0,0,0,209.13,284.45Z" transform="translate(0)"/><path class="cls-3" d="M201.84,257.24a6.81,6.81,0,1,0,6.8-6.81A6.79,6.79,0,0,0,201.84,257.24Z" transform="translate(0)"/><path class="cls-3" d="M209.13,230l11.78,6.81a54.4,54.4,0,0,0,0-54.43l-11.78,6.8a40.83,40.83,0,0,1,0,40.82Zm11.78,6.81a6.8,6.8,0,1,0-9.29,2.49A6.8,6.8,0,0,0,220.91,236.83Zm0-54.43a6.8,6.8,0,1,0-2.49,9.29A6.79,6.79,0,0,0,220.91,182.4Z" transform="translate(0)"/><path class="cls-3" d="M228.21,209.61a6.81,6.81,0,1,0-6.81,6.81A6.81,6.81,0,0,0,228.21,209.61Z" transform="translate(0)"/><path class="cls-3" d="M220.91,182.4l-11.78,6.8a54.43,54.43,0,0,0,47.14,27.22V202.81A40.84,40.84,0,0,1,220.91,182.4Zm-11.78,6.8a6.8,6.8,0,1,0,2.49-9.29A6.79,6.79,0,0,0,209.13,189.2Zm47.14,27.22a6.81,6.81,0,1,0-6.81-6.81A6.81,6.81,0,0,0,256.27,216.42Z" transform="translate(0)"/><path class="cls-3" d="M229.05,209.12a6.8,6.8,0,1,0-2.49-9.29A6.8,6.8,0,0,0,229.05,209.12Z" transform="translate(0)"/><path class="cls-3" d="M256.27,216.42V202.81A54.42,54.42,0,0,0,209.13,230l11.78,6.81A40.84,40.84,0,0,1,256.27,216.42Zm0-13.61a6.81,6.81,0,1,0,6.8,6.8A6.81,6.81,0,0,0,256.27,202.81ZM209.13,230a6.8,6.8,0,1,0,9.29-2.49A6.81,6.81,0,0,0,209.13,230Z" transform="translate(0)"/><path class="cls-3" d="M229.05,210.1a6.81,6.81,0,1,0,9.3,2.49A6.8,6.8,0,0,0,229.05,210.1Z" transform="translate(0)"/><path class="cls-3" d="M225.65,204.21a6.8,6.8,0,1,0,9.29,2.49A6.8,6.8,0,0,0,225.65,204.21Z" transform="translate(0)"/><path class="cls-3" d="M283.48,210.1a6.81,6.81,0,1,0,2.49,9.29A6.8,6.8,0,0,0,283.48,210.1Z" transform="translate(0)"/><path class="cls-3" d="M291.62,277.65l11.78,6.8a54.4,54.4,0,0,0,0-54.43l-11.78,6.81a40.83,40.83,0,0,1,0,40.82Zm11.78,6.8a6.8,6.8,0,1,0-9.29,2.49A6.79,6.79,0,0,0,303.4,284.45Zm0-54.43a6.8,6.8,0,1,0-2.49,9.3A6.8,6.8,0,0,0,303.4,230Z" transform="translate(0)"/><path class="cls-3" d="M310.7,257.24a6.81,6.81,0,1,0-6.81,6.8A6.81,6.81,0,0,0,310.7,257.24Z" transform="translate(0)"/><path class="cls-3" d="M283.48,304.37a6.8,6.8,0,1,0-9.29-2.49A6.8,6.8,0,0,0,283.48,304.37Z" transform="translate(0)"/><path class="cls-3" d="M220.91,277.65l-11.78,6.8a54.43,54.43,0,0,0,47.14,27.22V298.06A40.84,40.84,0,0,1,220.91,277.65Zm-11.78,6.8a6.8,6.8,0,1,0,2.49-9.29A6.79,6.79,0,0,0,209.13,284.45Zm47.14,27.22a6.81,6.81,0,1,0-6.81-6.81A6.81,6.81,0,0,0,256.27,311.67Z" transform="translate(0)"/><path class="cls-3" d="M229.05,304.37a6.8,6.8,0,1,0-2.49-9.29A6.8,6.8,0,0,0,229.05,304.37Z" transform="translate(0)"/><path class="cls-3" d="M220.91,236.83,209.13,230a54.44,54.44,0,0,0,0,54.43l11.78-6.8a40.83,40.83,0,0,1,0-40.82ZM209.13,230a6.8,6.8,0,1,0,9.29-2.49A6.81,6.81,0,0,0,209.13,230Zm0,54.43a6.8,6.8,0,1,0,2.49-9.29A6.79,6.79,0,0,0,209.13,284.45Z" transform="translate(0)"/><path class="cls-3" d="M201.84,257.24a6.81,6.81,0,1,0,6.8-6.81A6.79,6.79,0,0,0,201.84,257.24Z" transform="translate(0)"/><path class="cls-3" d="M256.27,216.42V202.81A54.42,54.42,0,0,0,209.13,230l11.78,6.81A40.84,40.84,0,0,1,256.27,216.42Zm0-13.61a6.81,6.81,0,1,0,6.8,6.8A6.81,6.81,0,0,0,256.27,202.81ZM209.13,230a6.8,6.8,0,1,0,9.29-2.49A6.81,6.81,0,0,0,209.13,230Z" transform="translate(0)"/><path class="cls-3" d="M229.05,210.1a6.81,6.81,0,1,0,9.3,2.49A6.8,6.8,0,0,0,229.05,210.1Z" transform="translate(0)"/><path class="cls-3" d="M220.91,236.83,209.13,230a54.44,54.44,0,0,0,0,54.43l11.78-6.8a40.83,40.83,0,0,1,0-40.82ZM209.13,230a6.8,6.8,0,1,0,9.29-2.49A6.81,6.81,0,0,0,209.13,230Zm0,54.43a6.8,6.8,0,1,0,2.49-9.29A6.79,6.79,0,0,0,209.13,284.45Z" transform="translate(0)"/><path class="cls-3" d="M201.84,257.24a6.81,6.81,0,1,0,6.8-6.81A6.79,6.79,0,0,0,201.84,257.24Z" transform="translate(0)"/><path class="cls-3" d="M220.91,277.65l-11.78,6.8a54.43,54.43,0,0,0,47.14,27.22V298.06A40.84,40.84,0,0,1,220.91,277.65Zm-11.78,6.8a6.8,6.8,0,1,0,2.49-9.29A6.79,6.79,0,0,0,209.13,284.45Zm47.14,27.22a6.81,6.81,0,1,0-6.81-6.81A6.81,6.81,0,0,0,256.27,311.67Z" transform="translate(0)"/><path class="cls-3" d="M229.05,304.37a6.8,6.8,0,1,0-2.49-9.29A6.8,6.8,0,0,0,229.05,304.37Z" transform="translate(0)"/><path class="cls-3" d="M338.76,250.43V264a54.42,54.42,0,0,0,47.13-27.21L374.11,230A40.82,40.82,0,0,1,338.76,250.43Zm0,13.61a6.81,6.81,0,1,0-6.81-6.8A6.8,6.8,0,0,0,338.76,264Zm47.13-27.21a6.8,6.8,0,1,0-9.29,2.49A6.8,6.8,0,0,0,385.89,236.83Z" transform="translate(0)"/><path class="cls-3" d="M366,256.75a6.8,6.8,0,1,0-9.29-2.49A6.8,6.8,0,0,0,366,256.75Z" transform="translate(0)"/><path class="cls-3" d="M374.11,230l11.78,6.81a54.44,54.44,0,0,0,0-54.43l-11.78,6.8a40.83,40.83,0,0,1,0,40.82Zm11.78,6.81a6.8,6.8,0,1,0-9.29,2.49A6.8,6.8,0,0,0,385.89,236.83Zm0-54.43a6.8,6.8,0,1,0-2.49,9.29A6.79,6.79,0,0,0,385.89,182.4Z" transform="translate(0)"/><path class="cls-3" d="M393.18,209.61a6.8,6.8,0,1,0-6.8,6.81A6.8,6.8,0,0,0,393.18,209.61Z" transform="translate(0)"/><path class="cls-3" d="M338.76,250.43V264a54.42,54.42,0,0,0,47.13-27.21L374.11,230A40.82,40.82,0,0,1,338.76,250.43Zm0,13.61a6.81,6.81,0,1,0-6.81-6.8A6.8,6.8,0,0,0,338.76,264Zm47.13-27.21a6.8,6.8,0,1,0-9.29,2.49A6.8,6.8,0,0,0,385.89,236.83Z" transform="translate(0)"/><path class="cls-3" d="M366,256.75a6.8,6.8,0,1,0-9.29-2.49A6.8,6.8,0,0,0,366,256.75Z" transform="translate(0)"/><path class="cls-3" d="M283.48,304.37a6.8,6.8,0,1,0-9.29-2.49A6.8,6.8,0,0,0,283.48,304.37Z" transform="translate(0)"/><path class="cls-3" d="M291.62,277.65l11.78,6.8a54.4,54.4,0,0,0,0-54.43l-11.78,6.81a40.83,40.83,0,0,1,0,40.82Zm11.78,6.8a6.8,6.8,0,1,0-9.29,2.49A6.79,6.79,0,0,0,303.4,284.45Zm0-54.43a6.8,6.8,0,1,0-2.49,9.3A6.8,6.8,0,0,0,303.4,230Z" transform="translate(0)"/><path class="cls-3" d="M310.7,257.24a6.81,6.81,0,1,0-6.81,6.8A6.81,6.81,0,0,0,310.7,257.24Z" transform="translate(0)"/><path class="cls-3" d="M303.4,230l-11.78,6.81A54.42,54.42,0,0,0,338.76,264V250.43A40.84,40.84,0,0,1,303.4,230Zm-11.78,6.81a6.8,6.8,0,1,0,2.49-9.3A6.8,6.8,0,0,0,291.62,236.83ZM338.76,264a6.81,6.81,0,1,0-6.81-6.8A6.8,6.8,0,0,0,338.76,264Z" transform="translate(0)"/><path class="cls-3" d="M311.54,256.75a6.8,6.8,0,1,0-2.49-9.29A6.8,6.8,0,0,0,311.54,256.75Z" transform="translate(0)"/><path class="cls-3" d="M338.76,264V250.43a54.43,54.43,0,0,0-47.14,27.22l11.78,6.8A40.82,40.82,0,0,1,338.76,264Zm0-13.61a6.81,6.81,0,1,0,6.8,6.81A6.81,6.81,0,0,0,338.76,250.43Zm-47.14,27.22a6.8,6.8,0,1,0,9.29-2.49A6.8,6.8,0,0,0,291.62,277.65Z" transform="translate(0)"/><path class="cls-3" d="M311.54,257.73a6.8,6.8,0,1,0,9.29,2.49A6.8,6.8,0,0,0,311.54,257.73Z" transform="translate(0)"/><path class="cls-3" d="M308.14,251.83a6.81,6.81,0,1,0,9.29,2.49A6.81,6.81,0,0,0,308.14,251.83Z" transform="translate(0)"/><path class="cls-3" d="M338.76,264V250.43a54.43,54.43,0,0,0-47.14,27.22l11.78,6.8A40.82,40.82,0,0,1,338.76,264Zm0-13.61a6.81,6.81,0,1,0,6.8,6.81A6.81,6.81,0,0,0,338.76,250.43Zm-47.14,27.22a6.8,6.8,0,1,0,9.29-2.49A6.8,6.8,0,0,0,291.62,277.65Z" transform="translate(0)"/><path class="cls-3" d="M311.54,257.73a6.8,6.8,0,1,0,9.29,2.49A6.8,6.8,0,0,0,311.54,257.73Z" transform="translate(0)"/><path class="cls-3" d="M283.48,304.37a6.8,6.8,0,1,0-9.29-2.49A6.8,6.8,0,0,0,283.48,304.37Z" transform="translate(0)"/><path class="cls-3" d="M220.91,277.65l-11.78,6.8a54.43,54.43,0,0,0,47.14,27.22V298.06A40.84,40.84,0,0,1,220.91,277.65Zm-11.78,6.8a6.8,6.8,0,1,0,2.49-9.29A6.79,6.79,0,0,0,209.13,284.45Zm47.14,27.22a6.81,6.81,0,1,0-6.81-6.81A6.81,6.81,0,0,0,256.27,311.67Z" transform="translate(0)"/><path class="cls-3" d="M229.05,304.37a6.8,6.8,0,1,0-2.49-9.29A6.8,6.8,0,0,0,229.05,304.37Z" transform="translate(0)"/></svg>