<svg id="Layer_1" data-name="Layer 1" xmlns="http://www.w3.org/2000/svg" viewBox="0 0 580 436"><defs><style>.cls-1{fill:#001cb7;}.cls-2{fill:#e275cf;}</style></defs><title>thing1</title><rect class="cls-1" width="580" height="436" rx="14.54"/><path class="cls-2" d="M246.24,168.91l6.33-3.66a29.23,29.23,0,0,0-25.32-14.61v7.3a21.91,21.91,0,0,1,19,11Zm6.33-3.66a3.66,3.66,0,1,0-1.33,5A3.66,3.66,0,0,0,252.57,165.25Zm-25.32-14.61a3.65,3.65,0,1,0,3.66,3.65A3.65,3.65,0,0,0,227.25,150.64Z" transform="translate(-0.55)"/><path class="cls-2" d="M241.87,154.55a3.65,3.65,0,1,0,1.34,5A3.65,3.65,0,0,0,241.87,154.55Z" transform="translate(-0.55)"/><path class="cls-2" d="M227.25,157.94v-7.3a29.26,29.26,0,0,0-25.32,14.61l6.33,3.66a21.93,21.93,0,0,1,19-11Zm0-7.3a3.65,3.65,0,1,0,3.66,3.65A3.65,3.65,0,0,0,227.25,150.64Zm-25.32,14.61a3.66,3.66,0,1,0,5-1.33A3.66,3.66,0,0,0,201.93,165.25Z" transform="translate(-0.55)"/><path class="cls-2" d="M212.63,154.55a3.66,3.66,0,1,0,5,1.34A3.66,3.66,0,0,0,212.63,154.55Z" transform="translate(-0.55)"/><path class="cls-2" d="M182.94,176.22v7.31a29.24,29.24,0,0,0,25.32-14.62l-6.33-3.66a21.91,21.91,0,0,1-19,11Zm0,7.31a3.66,3.66,0,1,0-3.65-3.66A3.66,3.66,0,0,0,182.94,183.53Zm25.32-14.62a3.66,3.66,0,1,0-5,1.34,3.66,3.66,0,0,0,5-1.34Z" transform="translate(-0.55)"/><path class="cls-2" d="M197.56,179.61a3.65,3.65,0,1,0-5-1.34A3.65,3.65,0,0,0,197.56,179.61Z" transform="translate(-0.55)"/><path class="cls-2" d="M182.94,183.53v-7.31a29.25,29.25,0,0,0-25.32,14.62l6.33,3.65a21.94,21.94,0,0,1,19-11Zm0-7.31a3.66,3.66,0,1,0,3.66,3.65A3.64,3.64,0,0,0,182.94,176.22Zm-25.32,14.62a3.65,3.65,0,1,0,5-1.34,3.65,3.65,0,0,0-5,1.34Z" transform="translate(-0.55)"/><path class="cls-2" d="M168.32,180.13a3.66,3.66,0,1,0,5,1.34,3.67,3.67,0,0,0-5-1.34Z" transform="translate(-0.55)"/><path class="cls-2" d="M182.94,176.22v7.31a29.24,29.24,0,0,0,25.32-14.62l-6.33-3.66a21.91,21.91,0,0,1-19,11Zm0,7.31a3.66,3.66,0,1,0-3.65-3.66A3.66,3.66,0,0,0,182.94,183.53Zm25.32-14.62a3.66,3.66,0,1,0-5,1.34,3.66,3.66,0,0,0,5-1.34Z" transform="translate(-0.55)"/><path class="cls-2" d="M197.56,179.61a3.65,3.65,0,1,0-5-1.34A3.65,3.65,0,0,0,197.56,179.61Z" transform="translate(-0.55)"/><path class="cls-2" d="M334.86,168.91l6.33-3.66a29.23,29.23,0,0,0-25.32-14.61v7.3a21.91,21.91,0,0,1,19,11Zm6.33-3.66a3.66,3.66,0,1,0-1.33,5A3.66,3.66,0,0,0,341.19,165.25Zm-25.32-14.61a3.65,3.65,0,1,0,3.66,3.65A3.65,3.65,0,0,0,315.87,150.64Z" transform="translate(-0.55)"/><path class="cls-2" d="M330.49,154.55a3.65,3.65,0,1,0,1.34,5A3.65,3.65,0,0,0,330.49,154.55Z" transform="translate(-0.55)"/><path class="cls-2" d="M315.87,157.94v-7.3a29.26,29.26,0,0,0-25.32,14.61l6.33,3.66a21.93,21.93,0,0,1,19-11Zm0-7.3a3.65,3.65,0,1,0,3.66,3.65A3.65,3.65,0,0,0,315.87,150.64Zm-25.32,14.61a3.66,3.66,0,1,0,5-1.33A3.66,3.66,0,0,0,290.55,165.25Z" transform="translate(-0.55)"/><path class="cls-2" d="M301.26,154.55a3.65,3.65,0,1,0,5,1.34A3.65,3.65,0,0,0,301.26,154.55Z" transform="translate(-0.55)"/><path class="cls-2" d="M271.56,176.22v7.31a29.24,29.24,0,0,0,25.32-14.62l-6.33-3.66a21.91,21.91,0,0,1-19,11Zm0,7.31a3.66,3.66,0,1,0-3.65-3.66A3.66,3.66,0,0,0,271.56,183.53Zm25.32-14.62a3.66,3.66,0,1,0-5,1.34A3.66,3.66,0,0,0,296.88,168.91Z" transform="translate(-0.55)"/><path class="cls-2" d="M286.18,179.61a3.65,3.65,0,1,0-5-1.34A3.65,3.65,0,0,0,286.18,179.61Z" transform="translate(-0.55)"/><path class="cls-2" d="M252.57,165.25l-6.33,3.66a29.27,29.27,0,0,0,25.32,14.62v-7.31a21.93,21.93,0,0,1-19-11Zm-6.33,3.66a3.66,3.66,0,1,0,1.34-5A3.66,3.66,0,0,0,246.24,168.91Zm25.32,14.62a3.66,3.66,0,1,0-3.65-3.66A3.66,3.66,0,0,0,271.56,183.53Z" transform="translate(-0.55)"/><path class="cls-2" d="M257,179.61a3.65,3.65,0,1,0-1.34-5A3.65,3.65,0,0,0,257,179.61Z" transform="translate(-0.55)"/><path class="cls-2" d="M271.56,176.22v7.31a29.24,29.24,0,0,0,25.32-14.62l-6.33-3.66a21.91,21.91,0,0,1-19,11Zm0,7.31a3.66,3.66,0,1,0-3.65-3.66A3.66,3.66,0,0,0,271.56,183.53Zm25.32-14.62a3.66,3.66,0,1,0-5,1.34A3.66,3.66,0,0,0,296.88,168.91Z" transform="translate(-0.55)"/><path class="cls-2" d="M286.18,179.61a3.65,3.65,0,1,0-5-1.34A3.65,3.65,0,0,0,286.18,179.61Z" transform="translate(-0.55)"/><path class="cls-2" d="M252.57,165.25l-6.33,3.66a29.27,29.27,0,0,0,25.32,14.62v-7.31a21.93,21.93,0,0,1-19-11Zm-6.33,3.66a3.66,3.66,0,1,0,1.34-5A3.66,3.66,0,0,0,246.24,168.91Zm25.32,14.62a3.66,3.66,0,1,0-3.65-3.66A3.66,3.66,0,0,0,271.56,183.53Z" transform="translate(-0.55)"/><path class="cls-2" d="M257,179.61a3.65,3.65,0,1,0-1.34-5A3.65,3.65,0,0,0,257,179.61Z" transform="translate(-0.55)"/><path class="cls-2" d="M246.24,168.91l6.33-3.66a29.23,29.23,0,0,0-25.32-14.61v7.3a21.91,21.91,0,0,1,19,11Zm6.33-3.66a3.66,3.66,0,1,0-1.33,5A3.66,3.66,0,0,0,252.57,165.25Zm-25.32-14.61a3.65,3.65,0,1,0,3.66,3.65A3.65,3.65,0,0,0,227.25,150.64Z" transform="translate(-0.55)"/><path class="cls-2" d="M241.87,154.55a3.65,3.65,0,1,0,1.34,5A3.65,3.65,0,0,0,241.87,154.55Z" transform="translate(-0.55)"/><path class="cls-2" d="M227.25,157.94v-7.3a29.26,29.26,0,0,0-25.32,14.61l6.33,3.66a21.93,21.93,0,0,1,19-11Zm0-7.3a3.65,3.65,0,1,0,3.66,3.65A3.65,3.65,0,0,0,227.25,150.64Zm-25.32,14.61a3.66,3.66,0,1,0,5-1.33A3.66,3.66,0,0,0,201.93,165.25Z" transform="translate(-0.55)"/><path class="cls-2" d="M212.63,154.55a3.66,3.66,0,1,0,5,1.34A3.66,3.66,0,0,0,212.63,154.55Z" transform="translate(-0.55)"/><path class="cls-2" d="M246.24,168.91l6.33-3.66a29.23,29.23,0,0,0-25.32-14.61v7.3a21.91,21.91,0,0,1,19,11Zm6.33-3.66a3.66,3.66,0,1,0-1.33,5A3.66,3.66,0,0,0,252.57,165.25Zm-25.32-14.61a3.65,3.65,0,1,0,3.66,3.65A3.65,3.65,0,0,0,227.25,150.64Z" transform="translate(-0.55)"/><path class="cls-2" d="M241.87,154.55a3.65,3.65,0,1,0,1.34,5A3.65,3.65,0,0,0,241.87,154.55Z" transform="translate(-0.55)"/><path class="cls-2" d="M227.25,157.94v-7.3a29.26,29.26,0,0,0-25.32,14.61l6.33,3.66a21.93,21.93,0,0,1,19-11Zm0-7.3a3.65,3.65,0,1,0,3.66,3.65A3.65,3.65,0,0,0,227.25,150.64Zm-25.32,14.61a3.66,3.66,0,1,0,5-1.33A3.66,3.66,0,0,0,201.93,165.25Z" transform="translate(-0.55)"/><path class="cls-2" d="M212.63,154.55a3.66,3.66,0,1,0,5,1.34A3.66,3.66,0,0,0,212.63,154.55Z" transform="translate(-0.55)"/><path class="cls-2" d="M182.94,176.22v7.31a29.24,29.24,0,0,0,25.32-14.62l-6.33-3.66a21.91,21.91,0,0,1-19,11Zm0,7.31a3.66,3.66,0,1,0-3.65-3.66A3.66,3.66,0,0,0,182.94,183.53Zm25.32-14.62a3.66,3.66,0,1,0-5,1.34,3.66,3.66,0,0,0,5-1.34Z" transform="translate(-0.55)"/><path class="cls-2" d="M197.56,179.61a3.65,3.65,0,1,0-5-1.34A3.65,3.65,0,0,0,197.56,179.61Z" transform="translate(-0.55)"/><path class="cls-2" d="M157.62,242l6.33,3.66a29.21,29.21,0,0,0,0-29.24l-6.33,3.65a21.92,21.92,0,0,1,0,21.93Zm6.33,3.66a3.66,3.66,0,1,0-5,1.33A3.67,3.67,0,0,0,164,245.66Zm0-29.24a3.65,3.65,0,1,0-1.33,5A3.65,3.65,0,0,0,164,216.42Z" transform="translate(-0.55)"/><path class="cls-2" d="M167.87,231a3.66,3.66,0,1,0-3.65,3.65A3.66,3.66,0,0,0,167.87,231Z" transform="translate(-0.55)"/><path class="cls-2" d="M182.94,183.53v-7.31a29.25,29.25,0,0,0-25.32,14.62l6.33,3.65a21.94,21.94,0,0,1,19-11Zm0-7.31a3.66,3.66,0,1,0,3.66,3.65A3.64,3.64,0,0,0,182.94,176.22Zm-25.32,14.62a3.65,3.65,0,1,0,5-1.34,3.65,3.65,0,0,0-5,1.34Z" transform="translate(-0.55)"/><path class="cls-2" d="M168.32,180.13a3.66,3.66,0,1,0,5,1.34,3.67,3.67,0,0,0-5-1.34Z" transform="translate(-0.55)"/><path class="cls-2" d="M164,194.49l-6.33-3.65a29.24,29.24,0,0,0,0,29.23l6.33-3.65a22,22,0,0,1,0-21.93Zm-6.33-3.65a3.65,3.65,0,1,0,5-1.34,3.65,3.65,0,0,0-5,1.34Zm0,29.23a3.65,3.65,0,1,0,1.34-5,3.66,3.66,0,0,0-1.34,5Z" transform="translate(-0.55)"/><path class="cls-2" d="M153.71,205.45a3.66,3.66,0,1,0,3.65-3.65A3.65,3.65,0,0,0,153.71,205.45Z" transform="translate(-0.55)"/><path class="cls-2" d="M182.94,183.53v-7.31a29.25,29.25,0,0,0-25.32,14.62l6.33,3.65a21.94,21.94,0,0,1,19-11Zm0-7.31a3.66,3.66,0,1,0,3.66,3.65A3.64,3.64,0,0,0,182.94,176.22Zm-25.32,14.62a3.65,3.65,0,1,0,5-1.34,3.65,3.65,0,0,0-5,1.34Z" transform="translate(-0.55)"/><path class="cls-2" d="M168.32,180.13a3.66,3.66,0,1,0,5,1.34,3.67,3.67,0,0,0-5-1.34Z" transform="translate(-0.55)"/><path class="cls-2" d="M423.48,168.91l6.33-3.66a29.23,29.23,0,0,0-25.32-14.61v7.3a21.91,21.91,0,0,1,19,11Zm6.33-3.66a3.66,3.66,0,1,0-1.33,5A3.65,3.65,0,0,0,429.81,165.25Zm-25.32-14.61a3.65,3.65,0,1,0,3.66,3.65A3.65,3.65,0,0,0,404.49,150.64Z" transform="translate(-0.55)"/><path class="cls-2" d="M419.11,154.55a3.65,3.65,0,1,0,1.34,5A3.65,3.65,0,0,0,419.11,154.55Z" transform="translate(-0.55)"/><path class="cls-2" d="M404.49,157.94v-7.3a29.26,29.26,0,0,0-25.32,14.61l6.33,3.66a21.93,21.93,0,0,1,19-11Zm0-7.3a3.65,3.65,0,1,0,3.66,3.65A3.65,3.65,0,0,0,404.49,150.64Zm-25.32,14.61a3.66,3.66,0,1,0,5-1.33A3.66,3.66,0,0,0,379.17,165.25Z" transform="translate(-0.55)"/><path class="cls-2" d="M389.88,154.55a3.65,3.65,0,1,0,5,1.34A3.65,3.65,0,0,0,389.88,154.55Z" transform="translate(-0.55)"/><path class="cls-2" d="M360.18,176.22v7.31a29.24,29.24,0,0,0,25.32-14.62l-6.33-3.66a21.91,21.91,0,0,1-19,11Zm0,7.31a3.66,3.66,0,1,0-3.65-3.66A3.66,3.66,0,0,0,360.18,183.53Zm25.32-14.62a3.66,3.66,0,1,0-5,1.34A3.66,3.66,0,0,0,385.5,168.91Z" transform="translate(-0.55)"/><path class="cls-2" d="M374.8,179.61a3.65,3.65,0,1,0-5-1.34A3.65,3.65,0,0,0,374.8,179.61Z" transform="translate(-0.55)"/><path class="cls-2" d="M341.19,165.25l-6.33,3.66a29.27,29.27,0,0,0,25.32,14.62v-7.31a21.93,21.93,0,0,1-19-11Zm-6.33,3.66a3.66,3.66,0,1,0,1.34-5A3.66,3.66,0,0,0,334.86,168.91Zm25.32,14.62a3.66,3.66,0,1,0-3.65-3.66A3.66,3.66,0,0,0,360.18,183.53Z" transform="translate(-0.55)"/><path class="cls-2" d="M345.57,179.61a3.65,3.65,0,1,0-1.34-5A3.65,3.65,0,0,0,345.57,179.61Z" transform="translate(-0.55)"/><path class="cls-2" d="M360.18,176.22v7.31a29.24,29.24,0,0,0,25.32-14.62l-6.33-3.66a21.91,21.91,0,0,1-19,11Zm0,7.31a3.66,3.66,0,1,0-3.65-3.66A3.66,3.66,0,0,0,360.18,183.53Zm25.32-14.62a3.66,3.66,0,1,0-5,1.34A3.66,3.66,0,0,0,385.5,168.91Z" transform="translate(-0.55)"/><path class="cls-2" d="M374.8,179.61a3.65,3.65,0,1,0-5-1.34A3.65,3.65,0,0,0,374.8,179.61Z" transform="translate(-0.55)"/><path class="cls-2" d="M341.19,165.25l-6.33,3.66a29.27,29.27,0,0,0,25.32,14.62v-7.31a21.93,21.93,0,0,1-19-11Zm-6.33,3.66a3.66,3.66,0,1,0,1.34-5A3.66,3.66,0,0,0,334.86,168.91Zm25.32,14.62a3.66,3.66,0,1,0-3.65-3.66A3.66,3.66,0,0,0,360.18,183.53Z" transform="translate(-0.55)"/><path class="cls-2" d="M345.57,179.61a3.65,3.65,0,1,0-1.34-5A3.65,3.65,0,0,0,345.57,179.61Z" transform="translate(-0.55)"/><path class="cls-2" d="M334.86,168.91l6.33-3.66a29.23,29.23,0,0,0-25.32-14.61v7.3a21.91,21.91,0,0,1,19,11Zm6.33-3.66a3.66,3.66,0,1,0-1.33,5A3.66,3.66,0,0,0,341.19,165.25Zm-25.32-14.61a3.65,3.65,0,1,0,3.66,3.65A3.65,3.65,0,0,0,315.87,150.64Z" transform="translate(-0.55)"/><path class="cls-2" d="M330.49,154.55a3.65,3.65,0,1,0,1.34,5A3.65,3.65,0,0,0,330.49,154.55Z" transform="translate(-0.55)"/><path class="cls-2" d="M334.86,220.07l6.33-3.65a29.22,29.22,0,0,0-25.32-14.62v7.31a21.92,21.92,0,0,1,19,11Zm6.33-3.65a3.65,3.65,0,1,0-1.33,5A3.65,3.65,0,0,0,341.19,216.42ZM315.87,201.8a3.66,3.66,0,1,0,3.66,3.65A3.66,3.66,0,0,0,315.87,201.8Z" transform="translate(-0.55)"/><path class="cls-2" d="M330.49,205.72a3.65,3.65,0,1,0,1.34,5A3.66,3.66,0,0,0,330.49,205.72Z" transform="translate(-0.55)"/><path class="cls-2" d="M315.87,209.11V201.8a29.25,29.25,0,0,0-25.32,14.62l6.33,3.65a21.94,21.94,0,0,1,19-11Zm0-7.31a3.66,3.66,0,1,0,3.66,3.65A3.66,3.66,0,0,0,315.87,201.8Zm-25.32,14.62a3.65,3.65,0,1,0,5-1.34A3.65,3.65,0,0,0,290.55,216.42Z" transform="translate(-0.55)"/><path class="cls-2" d="M301.26,205.72a3.65,3.65,0,1,0,5,1.33A3.65,3.65,0,0,0,301.26,205.72Z" transform="translate(-0.55)"/><path class="cls-2" d="M315.87,157.94v-7.3a29.26,29.26,0,0,0-25.32,14.61l6.33,3.66a21.93,21.93,0,0,1,19-11Zm0-7.3a3.65,3.65,0,1,0,3.66,3.65A3.65,3.65,0,0,0,315.87,150.64Zm-25.32,14.61a3.66,3.66,0,1,0,5-1.33A3.66,3.66,0,0,0,290.55,165.25Z" transform="translate(-0.55)"/><path class="cls-2" d="M301.26,154.55a3.65,3.65,0,1,0,5,1.34A3.65,3.65,0,0,0,301.26,154.55Z" transform="translate(-0.55)"/><path class="cls-2" d="M334.86,168.91l6.33-3.66a29.23,29.23,0,0,0-25.32-14.61v7.3a21.91,21.91,0,0,1,19,11Zm6.33-3.66a3.66,3.66,0,1,0-1.33,5A3.66,3.66,0,0,0,341.19,165.25Zm-25.32-14.61a3.65,3.65,0,1,0,3.66,3.65A3.65,3.65,0,0,0,315.87,150.64Z" transform="translate(-0.55)"/><path class="cls-2" d="M330.49,154.55a3.65,3.65,0,1,0,1.34,5A3.65,3.65,0,0,0,330.49,154.55Z" transform="translate(-0.55)"/><path class="cls-2" d="M315.87,157.94v-7.3a29.26,29.26,0,0,0-25.32,14.61l6.33,3.66a21.93,21.93,0,0,1,19-11Zm0-7.3a3.65,3.65,0,1,0,3.66,3.65A3.65,3.65,0,0,0,315.87,150.64Zm-25.32,14.61a3.66,3.66,0,1,0,5-1.33A3.66,3.66,0,0,0,290.55,165.25Z" transform="translate(-0.55)"/><path class="cls-2" d="M301.26,154.55a3.65,3.65,0,1,0,5,1.34A3.65,3.65,0,0,0,301.26,154.55Z" transform="translate(-0.55)"/><path class="cls-2" d="M271.56,176.22v7.31a29.24,29.24,0,0,0,25.32-14.62l-6.33-3.66a21.91,21.91,0,0,1-19,11Zm0,7.31a3.66,3.66,0,1,0-3.65-3.66A3.66,3.66,0,0,0,271.56,183.53Zm25.32-14.62a3.66,3.66,0,1,0-5,1.34A3.66,3.66,0,0,0,296.88,168.91Z" transform="translate(-0.55)"/><path class="cls-2" d="M286.18,179.61a3.65,3.65,0,1,0-5-1.34A3.65,3.65,0,0,0,286.18,179.61Z" transform="translate(-0.55)"/><path class="cls-2" d="M271.56,227.38v7.31a29.22,29.22,0,0,0,25.32-14.62l-6.33-3.65a21.92,21.92,0,0,1-19,11Zm0,7.31a3.66,3.66,0,1,0-3.65-3.65A3.65,3.65,0,0,0,271.56,234.69Zm25.32-14.62a3.65,3.65,0,1,0-5,1.34A3.66,3.66,0,0,0,296.88,220.07Z" transform="translate(-0.55)"/><path class="cls-2" d="M286.18,230.77a3.65,3.65,0,1,0-5-1.33A3.65,3.65,0,0,0,286.18,230.77Z" transform="translate(-0.55)"/><path class="cls-2" d="M271.56,234.69v-7.31A29.27,29.27,0,0,0,246.24,242l6.33,3.66a21.93,21.93,0,0,1,19-11Zm0-7.31a3.66,3.66,0,1,0,3.66,3.66A3.66,3.66,0,0,0,271.56,227.38ZM246.24,242a3.66,3.66,0,1,0,5-1.34A3.65,3.65,0,0,0,246.24,242Z" transform="translate(-0.55)"/><path class="cls-2" d="M257,231.3a3.65,3.65,0,1,0,5,1.34A3.65,3.65,0,0,0,257,231.3Z" transform="translate(-0.55)"/><path class="cls-2" d="M252.57,165.25l-6.33,3.66a29.27,29.27,0,0,0,25.32,14.62v-7.31a21.93,21.93,0,0,1-19-11Zm-6.33,3.66a3.66,3.66,0,1,0,1.34-5A3.66,3.66,0,0,0,246.24,168.91Zm25.32,14.62a3.66,3.66,0,1,0-3.65-3.66A3.66,3.66,0,0,0,271.56,183.53Z" transform="translate(-0.55)"/><path class="cls-2" d="M257,179.61a3.65,3.65,0,1,0-1.34-5A3.65,3.65,0,0,0,257,179.61Z" transform="translate(-0.55)"/><path class="cls-2" d="M271.56,227.38v7.31a29.22,29.22,0,0,0,25.32-14.62l-6.33-3.65a21.92,21.92,0,0,1-19,11Zm0,7.31a3.66,3.66,0,1,0-3.65-3.65A3.65,3.65,0,0,0,271.56,234.69Zm25.32-14.62a3.65,3.65,0,1,0-5,1.34A3.66,3.66,0,0,0,296.88,220.07Z" transform="translate(-0.55)"/><path class="cls-2" d="M286.18,230.77a3.65,3.65,0,1,0-5-1.33A3.65,3.65,0,0,0,286.18,230.77Z" transform="translate(-0.55)"/><path class="cls-2" d="M252.57,245.66,246.24,242a29.26,29.26,0,0,0,0,29.24l6.33-3.66a22,22,0,0,1,0-21.92ZM246.24,242a3.66,3.66,0,1,0,5-1.34A3.65,3.65,0,0,0,246.24,242Zm0,29.24a3.66,3.66,0,1,0,1.34-5A3.66,3.66,0,0,0,246.24,271.24Z" transform="translate(-0.55)"/><path class="cls-2" d="M242.33,256.62A3.66,3.66,0,1,0,246,253,3.64,3.64,0,0,0,242.33,256.62Z" transform="translate(-0.55)"/><path class="cls-2" d="M246.24,271.24l6.33-3.66A29.23,29.23,0,0,0,227.25,253v7.3a21.91,21.91,0,0,1,19,11Zm6.33-3.66a3.66,3.66,0,1,0-1.33,5A3.66,3.66,0,0,0,252.57,267.58ZM227.25,253a3.65,3.65,0,1,0,3.66,3.65A3.65,3.65,0,0,0,227.25,253Z" transform="translate(-0.55)"/><path class="cls-2" d="M241.87,256.88a3.65,3.65,0,1,0,1.34,5A3.65,3.65,0,0,0,241.87,256.88Z" transform="translate(-0.55)"/><path class="cls-2" d="M227.25,253v7.3a29.23,29.23,0,0,0,25.32-14.61L246.24,242A21.91,21.91,0,0,1,227.25,253Zm0,7.3a3.65,3.65,0,1,0-3.65-3.65A3.65,3.65,0,0,0,227.25,260.27Zm25.32-14.61a3.66,3.66,0,1,0-5,1.33A3.67,3.67,0,0,0,252.57,245.66Z" transform="translate(-0.55)"/><path class="cls-2" d="M241.87,256.36a3.65,3.65,0,1,0-5-1.34A3.65,3.65,0,0,0,241.87,256.36Z" transform="translate(-0.55)"/><path class="cls-2" d="M243.7,259.52a3.66,3.66,0,1,0-5-1.34A3.65,3.65,0,0,0,243.7,259.52Z" transform="translate(-0.55)"/><path class="cls-2" d="M227.25,260.27V253a29.26,29.26,0,0,0-25.32,14.61l6.33,3.66a21.93,21.93,0,0,1,19-11Zm0-7.3a3.65,3.65,0,1,0,3.66,3.65A3.65,3.65,0,0,0,227.25,253Zm-25.32,14.61a3.66,3.66,0,1,0,5-1.33A3.66,3.66,0,0,0,201.93,267.58Z" transform="translate(-0.55)"/><path class="cls-2" d="M212.63,256.88a3.66,3.66,0,1,0,5,1.34A3.66,3.66,0,0,0,212.63,256.88Z" transform="translate(-0.55)"/><path class="cls-2" d="M227.25,253v7.3a29.23,29.23,0,0,0,25.32-14.61L246.24,242A21.91,21.91,0,0,1,227.25,253Zm0,7.3a3.65,3.65,0,1,0-3.65-3.65A3.65,3.65,0,0,0,227.25,260.27Zm25.32-14.61a3.66,3.66,0,1,0-5,1.33A3.67,3.67,0,0,0,252.57,245.66Z" transform="translate(-0.55)"/><path class="cls-2" d="M241.87,256.36a3.65,3.65,0,1,0-5-1.34A3.65,3.65,0,0,0,241.87,256.36Z" transform="translate(-0.55)"/><path class="cls-2" d="M182.94,278.55v7.31a29.24,29.24,0,0,0,25.32-14.62l-6.33-3.66a21.91,21.91,0,0,1-19,11Zm0,7.31a3.66,3.66,0,1,0-3.65-3.66A3.66,3.66,0,0,0,182.94,285.86Zm25.32-14.62a3.66,3.66,0,1,0-5,1.34,3.66,3.66,0,0,0,5-1.34Z" transform="translate(-0.55)"/><path class="cls-2" d="M197.56,281.94a3.65,3.65,0,1,0-5-1.34A3.65,3.65,0,0,0,197.56,281.94Z" transform="translate(-0.55)"/><path class="cls-2" d="M164,267.58l-6.33,3.66a29.27,29.27,0,0,0,25.32,14.62v-7.31a21.93,21.93,0,0,1-19-11Zm-6.33,3.66a3.66,3.66,0,1,0,1.34-5,3.66,3.66,0,0,0-1.34,5Zm25.32,14.62a3.66,3.66,0,1,0-3.65-3.66A3.66,3.66,0,0,0,182.94,285.86Z" transform="translate(-0.55)"/><path class="cls-2" d="M168.32,281.94a3.66,3.66,0,1,0-1.33-5,3.66,3.66,0,0,0,1.33,5Z" transform="translate(-0.55)"/><path class="cls-2" d="M157.62,242l6.33,3.66a29.21,29.21,0,0,0,0-29.24l-6.33,3.65a21.92,21.92,0,0,1,0,21.93Zm6.33,3.66a3.66,3.66,0,1,0-5,1.33A3.67,3.67,0,0,0,164,245.66Zm0-29.24a3.65,3.65,0,1,0-1.33,5A3.65,3.65,0,0,0,164,216.42Z" transform="translate(-0.55)"/><path class="cls-2" d="M167.87,231a3.66,3.66,0,1,0-3.65,3.65A3.66,3.66,0,0,0,167.87,231Z" transform="translate(-0.55)"/><path class="cls-2" d="M182.94,278.55v7.31a29.24,29.24,0,0,0,25.32-14.62l-6.33-3.66a21.91,21.91,0,0,1-19,11Zm0,7.31a3.66,3.66,0,1,0-3.65-3.66A3.66,3.66,0,0,0,182.94,285.86Zm25.32-14.62a3.66,3.66,0,1,0-5,1.34,3.66,3.66,0,0,0,5-1.34Z" transform="translate(-0.55)"/><path class="cls-2" d="M197.56,281.94a3.65,3.65,0,1,0-5-1.34A3.65,3.65,0,0,0,197.56,281.94Z" transform="translate(-0.55)"/><path class="cls-2" d="M164,267.58l-6.33,3.66a29.27,29.27,0,0,0,25.32,14.62v-7.31a21.93,21.93,0,0,1-19-11Zm-6.33,3.66a3.66,3.66,0,1,0,1.34-5,3.66,3.66,0,0,0-1.34,5Zm25.32,14.62a3.66,3.66,0,1,0-3.65-3.66A3.66,3.66,0,0,0,182.94,285.86Z" transform="translate(-0.55)"/><path class="cls-2" d="M168.32,281.94a3.66,3.66,0,1,0-1.33-5,3.66,3.66,0,0,0,1.33,5Z" transform="translate(-0.55)"/><path class="cls-2" d="M164,245.66,157.62,242a29.26,29.26,0,0,0,0,29.24l6.33-3.66a22,22,0,0,1,0-21.92ZM157.62,242a3.66,3.66,0,1,0,5-1.34,3.65,3.65,0,0,0-5,1.34Zm0,29.24a3.66,3.66,0,1,0,1.34-5,3.66,3.66,0,0,0-1.34,5Z" transform="translate(-0.55)"/><path class="cls-2" d="M153.71,256.62a3.66,3.66,0,1,0,3.65-3.65A3.64,3.64,0,0,0,153.71,256.62Z" transform="translate(-0.55)"/><path class="cls-2" d="M423.48,190.84l6.33,3.65a29.21,29.21,0,0,0,0-29.24l-6.33,3.66a21.92,21.92,0,0,1,0,21.93Zm6.33,3.65a3.65,3.65,0,1,0-5,1.34A3.66,3.66,0,0,0,429.81,194.49Zm0-29.24a3.66,3.66,0,1,0-1.33,5A3.65,3.65,0,0,0,429.81,165.25Z" transform="translate(-0.55)"/><path class="cls-2" d="M433.73,179.87a3.66,3.66,0,1,0-3.65,3.66A3.64,3.64,0,0,0,433.73,179.87Z" transform="translate(-0.55)"/><path class="cls-2" d="M423.48,168.91l6.33-3.66a29.23,29.23,0,0,0-25.32-14.61v7.3a21.91,21.91,0,0,1,19,11Zm6.33-3.66a3.66,3.66,0,1,0-1.33,5A3.65,3.65,0,0,0,429.81,165.25Zm-25.32-14.61a3.65,3.65,0,1,0,3.66,3.65A3.65,3.65,0,0,0,404.49,150.64Z" transform="translate(-0.55)"/><path class="cls-2" d="M419.11,154.55a3.65,3.65,0,1,0,1.34,5A3.65,3.65,0,0,0,419.11,154.55Z" transform="translate(-0.55)"/><path class="cls-2" d="M404.49,209.11V201.8a29.25,29.25,0,0,0-25.32,14.62l6.33,3.65a21.94,21.94,0,0,1,19-11Zm0-7.31a3.66,3.66,0,1,0,3.66,3.65A3.66,3.66,0,0,0,404.49,201.8Zm-25.32,14.62a3.65,3.65,0,1,0,5-1.34A3.65,3.65,0,0,0,379.17,216.42Z" transform="translate(-0.55)"/><path class="cls-2" d="M389.88,205.72a3.65,3.65,0,1,0,5,1.33A3.65,3.65,0,0,0,389.88,205.72Z" transform="translate(-0.55)"/><path class="cls-2" d="M404.49,157.94v-7.3a29.26,29.26,0,0,0-25.32,14.61l6.33,3.66a21.93,21.93,0,0,1,19-11Zm0-7.3a3.65,3.65,0,1,0,3.66,3.65A3.65,3.65,0,0,0,404.49,150.64Zm-25.32,14.61a3.66,3.66,0,1,0,5-1.33A3.66,3.66,0,0,0,379.17,165.25Z" transform="translate(-0.55)"/><path class="cls-2" d="M389.88,154.55a3.65,3.65,0,1,0,5,1.34A3.65,3.65,0,0,0,389.88,154.55Z" transform="translate(-0.55)"/><path class="cls-2" d="M423.48,168.91l6.33-3.66a29.23,29.23,0,0,0-25.32-14.61v7.3a21.91,21.91,0,0,1,19,11Zm6.33-3.66a3.66,3.66,0,1,0-1.33,5A3.65,3.65,0,0,0,429.81,165.25Zm-25.32-14.61a3.65,3.65,0,1,0,3.66,3.65A3.65,3.65,0,0,0,404.49,150.64Z" transform="translate(-0.55)"/><path class="cls-2" d="M419.11,154.55a3.65,3.65,0,1,0,1.34,5A3.65,3.65,0,0,0,419.11,154.55Z" transform="translate(-0.55)"/><path class="cls-2" d="M423.48,190.84l6.33,3.65a29.21,29.21,0,0,0,0-29.24l-6.33,3.66a21.92,21.92,0,0,1,0,21.93Zm6.33,3.65a3.65,3.65,0,1,0-5,1.34A3.66,3.66,0,0,0,429.81,194.49Zm0-29.24a3.66,3.66,0,1,0-1.33,5A3.65,3.65,0,0,0,429.81,165.25Z" transform="translate(-0.55)"/><path class="cls-2" d="M433.73,179.87a3.66,3.66,0,1,0-3.65,3.66A3.64,3.64,0,0,0,433.73,179.87Z" transform="translate(-0.55)"/><path class="cls-2" d="M404.49,157.94v-7.3a29.26,29.26,0,0,0-25.32,14.61l6.33,3.66a21.93,21.93,0,0,1,19-11Zm0-7.3a3.65,3.65,0,1,0,3.66,3.65A3.65,3.65,0,0,0,404.49,150.64Zm-25.32,14.61a3.66,3.66,0,1,0,5-1.33A3.66,3.66,0,0,0,379.17,165.25Z" transform="translate(-0.55)"/><path class="cls-2" d="M389.88,154.55a3.65,3.65,0,1,0,5,1.34A3.65,3.65,0,0,0,389.88,154.55Z" transform="translate(-0.55)"/><path class="cls-2" d="M360.18,176.22v7.31a29.24,29.24,0,0,0,25.32-14.62l-6.33-3.66a21.91,21.91,0,0,1-19,11Zm0,7.31a3.66,3.66,0,1,0-3.65-3.66A3.66,3.66,0,0,0,360.18,183.53Zm25.32-14.62a3.66,3.66,0,1,0-5,1.34A3.66,3.66,0,0,0,385.5,168.91Z" transform="translate(-0.55)"/><path class="cls-2" d="M374.8,179.61a3.65,3.65,0,1,0-5-1.34A3.65,3.65,0,0,0,374.8,179.61Z" transform="translate(-0.55)"/><path class="cls-2" d="M360.18,227.38v7.31a29.22,29.22,0,0,0,25.32-14.62l-6.33-3.65a21.92,21.92,0,0,1-19,11Zm0,7.31a3.66,3.66,0,1,0-3.65-3.65A3.65,3.65,0,0,0,360.18,234.69Zm25.32-14.62a3.65,3.65,0,1,0-5,1.34A3.66,3.66,0,0,0,385.5,220.07Z" transform="translate(-0.55)"/><path class="cls-2" d="M374.8,230.77a3.65,3.65,0,1,0-5-1.33A3.65,3.65,0,0,0,374.8,230.77Z" transform="translate(-0.55)"/><path class="cls-2" d="M360.18,234.69v-7.31A29.27,29.27,0,0,0,334.86,242l6.33,3.66a21.93,21.93,0,0,1,19-11Zm0-7.31a3.66,3.66,0,1,0,3.66,3.66A3.66,3.66,0,0,0,360.18,227.38ZM334.86,242a3.66,3.66,0,1,0,5-1.34A3.65,3.65,0,0,0,334.86,242Z" transform="translate(-0.55)"/><path class="cls-2" d="M345.57,231.3a3.65,3.65,0,1,0,5,1.34A3.65,3.65,0,0,0,345.57,231.3Z" transform="translate(-0.55)"/><path class="cls-2" d="M334.86,242l6.33,3.66a29.21,29.21,0,0,0,0-29.24l-6.33,3.65a21.92,21.92,0,0,1,0,21.93Zm6.33,3.66a3.66,3.66,0,1,0-5,1.33A3.67,3.67,0,0,0,341.19,245.66Zm0-29.24a3.65,3.65,0,1,0-1.33,5A3.65,3.65,0,0,0,341.19,216.42Z" transform="translate(-0.55)"/><path class="cls-2" d="M345.11,231a3.66,3.66,0,1,0-3.65,3.65A3.66,3.66,0,0,0,345.11,231Z" transform="translate(-0.55)"/><path class="cls-2" d="M341.19,216.42l-6.33,3.65a29.25,29.25,0,0,0,25.32,14.62v-7.31a21.94,21.94,0,0,1-19-11Zm-6.33,3.65a3.65,3.65,0,1,0,1.34-5A3.66,3.66,0,0,0,334.86,220.07Zm25.32,14.62a3.66,3.66,0,1,0-3.65-3.65A3.65,3.65,0,0,0,360.18,234.69Z" transform="translate(-0.55)"/><path class="cls-2" d="M345.57,230.77a3.65,3.65,0,1,0-1.34-5A3.65,3.65,0,0,0,345.57,230.77Z" transform="translate(-0.55)"/><path class="cls-2" d="M343.74,233.94a3.65,3.65,0,1,0-1.34-5A3.65,3.65,0,0,0,343.74,233.94Z" transform="translate(-0.55)"/><path class="cls-2" d="M341.19,165.25l-6.33,3.66a29.27,29.27,0,0,0,25.32,14.62v-7.31a21.93,21.93,0,0,1-19-11Zm-6.33,3.66a3.66,3.66,0,1,0,1.34-5A3.66,3.66,0,0,0,334.86,168.91Zm25.32,14.62a3.66,3.66,0,1,0-3.65-3.66A3.66,3.66,0,0,0,360.18,183.53Z" transform="translate(-0.55)"/><path class="cls-2" d="M345.57,179.61a3.65,3.65,0,1,0-1.34-5A3.65,3.65,0,0,0,345.57,179.61Z" transform="translate(-0.55)"/><path class="cls-2" d="M360.18,227.38v7.31a29.22,29.22,0,0,0,25.32-14.62l-6.33-3.65a21.92,21.92,0,0,1-19,11Zm0,7.31a3.66,3.66,0,1,0-3.65-3.65A3.65,3.65,0,0,0,360.18,234.69Zm25.32-14.62a3.65,3.65,0,1,0-5,1.34A3.66,3.66,0,0,0,385.5,220.07Z" transform="translate(-0.55)"/><path class="cls-2" d="M374.8,230.77a3.65,3.65,0,1,0-5-1.33A3.65,3.65,0,0,0,374.8,230.77Z" transform="translate(-0.55)"/><path class="cls-2" d="M341.19,216.42l-6.33,3.65a29.25,29.25,0,0,0,25.32,14.62v-7.31a21.94,21.94,0,0,1-19-11Zm-6.33,3.65a3.65,3.65,0,1,0,1.34-5A3.66,3.66,0,0,0,334.86,220.07Zm25.32,14.62a3.66,3.66,0,1,0-3.65-3.65A3.65,3.65,0,0,0,360.18,234.69Z" transform="translate(-0.55)"/><path class="cls-2" d="M345.57,230.77a3.65,3.65,0,1,0-1.34-5A3.65,3.65,0,0,0,345.57,230.77Z" transform="translate(-0.55)"/><path class="cls-2" d="M334.86,220.07l6.33-3.65a29.22,29.22,0,0,0-25.32-14.62v7.31a21.92,21.92,0,0,1,19,11Zm6.33-3.65a3.65,3.65,0,1,0-1.33,5A3.65,3.65,0,0,0,341.19,216.42ZM315.87,201.8a3.66,3.66,0,1,0,3.66,3.65A3.66,3.66,0,0,0,315.87,201.8Z" transform="translate(-0.55)"/><path class="cls-2" d="M330.49,205.72a3.65,3.65,0,1,0,1.34,5A3.66,3.66,0,0,0,330.49,205.72Z" transform="translate(-0.55)"/><path class="cls-2" d="M315.87,253v7.3a29.23,29.23,0,0,0,25.32-14.61L334.86,242a21.91,21.91,0,0,1-19,11Zm0,7.3a3.65,3.65,0,1,0-3.65-3.65A3.65,3.65,0,0,0,315.87,260.27Zm25.32-14.61a3.66,3.66,0,1,0-5,1.33A3.67,3.67,0,0,0,341.19,245.66Z" transform="translate(-0.55)"/><path class="cls-2" d="M330.49,256.36a3.65,3.65,0,1,0-5-1.34A3.65,3.65,0,0,0,330.49,256.36Z" transform="translate(-0.55)"/><path class="cls-2" d="M315.87,260.27V253a29.26,29.26,0,0,0-25.32,14.61l6.33,3.66a21.93,21.93,0,0,1,19-11Zm0-7.3a3.65,3.65,0,1,0,3.66,3.65A3.65,3.65,0,0,0,315.87,253Zm-25.32,14.61a3.66,3.66,0,1,0,5-1.33A3.66,3.66,0,0,0,290.55,267.58Z" transform="translate(-0.55)"/><path class="cls-2" d="M301.26,256.88a3.65,3.65,0,1,0,5,1.34A3.65,3.65,0,0,0,301.26,256.88Z" transform="translate(-0.55)"/><path class="cls-2" d="M315.87,209.11V201.8a29.25,29.25,0,0,0-25.32,14.62l6.33,3.65a21.94,21.94,0,0,1,19-11Zm0-7.31a3.66,3.66,0,1,0,3.66,3.65A3.66,3.66,0,0,0,315.87,201.8Zm-25.32,14.62a3.65,3.65,0,1,0,5-1.34A3.65,3.65,0,0,0,290.55,216.42Z" transform="translate(-0.55)"/><path class="cls-2" d="M301.26,205.72a3.65,3.65,0,1,0,5,1.33A3.65,3.65,0,0,0,301.26,205.72Z" transform="translate(-0.55)"/><path class="cls-2" d="M334.86,220.07l6.33-3.65a29.22,29.22,0,0,0-25.32-14.62v7.31a21.92,21.92,0,0,1,19,11Zm6.33-3.65a3.65,3.65,0,1,0-1.33,5A3.65,3.65,0,0,0,341.19,216.42ZM315.87,201.8a3.66,3.66,0,1,0,3.66,3.65A3.66,3.66,0,0,0,315.87,201.8Z" transform="translate(-0.55)"/><path class="cls-2" d="M330.49,205.72a3.65,3.65,0,1,0,1.34,5A3.66,3.66,0,0,0,330.49,205.72Z" transform="translate(-0.55)"/><path class="cls-2" d="M334.86,242l6.33,3.66a29.21,29.21,0,0,0,0-29.24l-6.33,3.65a21.92,21.92,0,0,1,0,21.93Zm6.33,3.66a3.66,3.66,0,1,0-5,1.33A3.67,3.67,0,0,0,341.19,245.66Zm0-29.24a3.65,3.65,0,1,0-1.33,5A3.65,3.65,0,0,0,341.19,216.42Z" transform="translate(-0.55)"/><path class="cls-2" d="M345.11,231a3.66,3.66,0,1,0-3.65,3.65A3.66,3.66,0,0,0,345.11,231Z" transform="translate(-0.55)"/><path class="cls-2" d="M315.87,253v7.3a29.23,29.23,0,0,0,25.32-14.61L334.86,242a21.91,21.91,0,0,1-19,11Zm0,7.3a3.65,3.65,0,1,0-3.65-3.65A3.65,3.65,0,0,0,315.87,260.27Zm25.32-14.61a3.66,3.66,0,1,0-5,1.33A3.67,3.67,0,0,0,341.19,245.66Z" transform="translate(-0.55)"/><path class="cls-2" d="M330.49,256.36a3.65,3.65,0,1,0-5-1.34A3.65,3.65,0,0,0,330.49,256.36Z" transform="translate(-0.55)"/><path class="cls-2" d="M315.87,209.11V201.8a29.25,29.25,0,0,0-25.32,14.62l6.33,3.65a21.94,21.94,0,0,1,19-11Zm0-7.31a3.66,3.66,0,1,0,3.66,3.65A3.66,3.66,0,0,0,315.87,201.8Zm-25.32,14.62a3.65,3.65,0,1,0,5-1.34A3.65,3.65,0,0,0,290.55,216.42Z" transform="translate(-0.55)"/><path class="cls-2" d="M301.26,205.72a3.65,3.65,0,1,0,5,1.33A3.65,3.65,0,0,0,301.26,205.72Z" transform="translate(-0.55)"/><path class="cls-2" d="M271.56,227.38v7.31a29.22,29.22,0,0,0,25.32-14.62l-6.33-3.65a21.92,21.92,0,0,1-19,11Zm0,7.31a3.66,3.66,0,1,0-3.65-3.65A3.65,3.65,0,0,0,271.56,234.69Zm25.32-14.62a3.65,3.65,0,1,0-5,1.34A3.66,3.66,0,0,0,296.88,220.07Z" transform="translate(-0.55)"/><path class="cls-2" d="M286.18,230.77a3.65,3.65,0,1,0-5-1.33A3.65,3.65,0,0,0,286.18,230.77Z" transform="translate(-0.55)"/><path class="cls-2" d="M271.56,278.55v7.31a29.24,29.24,0,0,0,25.32-14.62l-6.33-3.66a21.91,21.91,0,0,1-19,11Zm0,7.31a3.66,3.66,0,1,0-3.65-3.66A3.66,3.66,0,0,0,271.56,285.86Zm25.32-14.62a3.66,3.66,0,1,0-5,1.34A3.66,3.66,0,0,0,296.88,271.24Z" transform="translate(-0.55)"/><path class="cls-2" d="M286.18,281.94a3.65,3.65,0,1,0-5-1.34A3.65,3.65,0,0,0,286.18,281.94Z" transform="translate(-0.55)"/><path class="cls-2" d="M252.57,267.58l-6.33,3.66a29.27,29.27,0,0,0,25.32,14.62v-7.31a21.93,21.93,0,0,1-19-11Zm-6.33,3.66a3.66,3.66,0,1,0,1.34-5A3.66,3.66,0,0,0,246.24,271.24Zm25.32,14.62a3.66,3.66,0,1,0-3.65-3.66A3.66,3.66,0,0,0,271.56,285.86Z" transform="translate(-0.55)"/><path class="cls-2" d="M257,281.94a3.65,3.65,0,1,0-1.34-5A3.65,3.65,0,0,0,257,281.94Z" transform="translate(-0.55)"/><path class="cls-2" d="M257,231.3a3.65,3.65,0,1,0,5,1.34A3.65,3.65,0,0,0,257,231.3Z" transform="translate(-0.55)"/><path class="cls-2" d="M271.56,278.55v7.31a29.24,29.24,0,0,0,25.32-14.62l-6.33-3.66a21.91,21.91,0,0,1-19,11Zm0,7.31a3.66,3.66,0,1,0-3.65-3.66A3.66,3.66,0,0,0,271.56,285.86Zm25.32-14.62a3.66,3.66,0,1,0-5,1.34A3.66,3.66,0,0,0,296.88,271.24Z" transform="translate(-0.55)"/><path class="cls-2" d="M286.18,281.94a3.65,3.65,0,1,0-5-1.34A3.65,3.65,0,0,0,286.18,281.94Z" transform="translate(-0.55)"/><path class="cls-2" d="M252.57,267.58l-6.33,3.66a29.27,29.27,0,0,0,25.32,14.62v-7.31a21.93,21.93,0,0,1-19-11Zm-6.33,3.66a3.66,3.66,0,1,0,1.34-5A3.66,3.66,0,0,0,246.24,271.24Zm25.32,14.62a3.66,3.66,0,1,0-3.65-3.66A3.66,3.66,0,0,0,271.56,285.86Z" transform="translate(-0.55)"/><path class="cls-2" d="M257,281.94a3.65,3.65,0,1,0-1.34-5A3.65,3.65,0,0,0,257,281.94Z" transform="translate(-0.55)"/><path class="cls-2" d="M252.57,245.66,246.24,242a29.26,29.26,0,0,0,0,29.24l6.33-3.66a22,22,0,0,1,0-21.92ZM246.24,242a3.66,3.66,0,1,0,5-1.34A3.65,3.65,0,0,0,246.24,242Zm0,29.24a3.66,3.66,0,1,0,1.34-5A3.66,3.66,0,0,0,246.24,271.24Z" transform="translate(-0.55)"/><path class="cls-2" d="M242.33,256.62A3.66,3.66,0,1,0,246,253,3.64,3.64,0,0,0,242.33,256.62Z" transform="translate(-0.55)"/><path class="cls-2" d="M257,231.3a3.65,3.65,0,1,0,5,1.34A3.65,3.65,0,0,0,257,231.3Z" transform="translate(-0.55)"/><path class="cls-2" d="M227.25,253v7.3a29.23,29.23,0,0,0,25.32-14.61L246.24,242A21.91,21.91,0,0,1,227.25,253Zm0,7.3a3.65,3.65,0,1,0-3.65-3.65A3.65,3.65,0,0,0,227.25,260.27Zm25.32-14.61a3.66,3.66,0,1,0-5,1.33A3.67,3.67,0,0,0,252.57,245.66Z" transform="translate(-0.55)"/><path class="cls-2" d="M241.87,256.36a3.65,3.65,0,1,0-5-1.34A3.65,3.65,0,0,0,241.87,256.36Z" transform="translate(-0.55)"/><path class="cls-2" d="M252.57,245.66,246.24,242a29.26,29.26,0,0,0,0,29.24l6.33-3.66a22,22,0,0,1,0-21.92ZM246.24,242a3.66,3.66,0,1,0,5-1.34A3.65,3.65,0,0,0,246.24,242Zm0,29.24a3.66,3.66,0,1,0,1.34-5A3.66,3.66,0,0,0,246.24,271.24Z" transform="translate(-0.55)"/><path class="cls-2" d="M242.33,256.62A3.66,3.66,0,1,0,246,253,3.64,3.64,0,0,0,242.33,256.62Z" transform="translate(-0.55)"/><path class="cls-2" d="M246.24,271.24l6.33-3.66A29.23,29.23,0,0,0,227.25,253v7.3a21.91,21.91,0,0,1,19,11Zm6.33-3.66a3.66,3.66,0,1,0-1.33,5A3.66,3.66,0,0,0,252.57,267.58ZM227.25,253a3.65,3.65,0,1,0,3.66,3.65A3.65,3.65,0,0,0,227.25,253Z" transform="translate(-0.55)"/><path class="cls-2" d="M241.87,256.88a3.65,3.65,0,1,0,1.34,5A3.65,3.65,0,0,0,241.87,256.88Z" transform="translate(-0.55)"/><path class="cls-2" d="M243.7,253.72a3.66,3.66,0,1,0,1.34,5A3.66,3.66,0,0,0,243.7,253.72Z" transform="translate(-0.55)"/><path class="cls-2" d="M227.25,260.27V253a29.26,29.26,0,0,0-25.32,14.61l6.33,3.66a21.93,21.93,0,0,1,19-11Zm0-7.3a3.65,3.65,0,1,0,3.66,3.65A3.65,3.65,0,0,0,227.25,253Zm-25.32,14.61a3.66,3.66,0,1,0,5-1.33A3.66,3.66,0,0,0,201.93,267.58Z" transform="translate(-0.55)"/><path class="cls-2" d="M212.63,256.88a3.66,3.66,0,1,0,5,1.34A3.66,3.66,0,0,0,212.63,256.88Z" transform="translate(-0.55)"/><path class="cls-2" d="M246.24,271.24l6.33-3.66A29.23,29.23,0,0,0,227.25,253v7.3a21.91,21.91,0,0,1,19,11Zm6.33-3.66a3.66,3.66,0,1,0-1.33,5A3.66,3.66,0,0,0,252.57,267.58ZM227.25,253a3.65,3.65,0,1,0,3.66,3.65A3.65,3.65,0,0,0,227.25,253Z" transform="translate(-0.55)"/><path class="cls-2" d="M241.87,256.88a3.65,3.65,0,1,0,1.34,5A3.65,3.65,0,0,0,241.87,256.88Z" transform="translate(-0.55)"/><path class="cls-2" d="M227.25,260.27V253a29.26,29.26,0,0,0-25.32,14.61l6.33,3.66a21.93,21.93,0,0,1,19-11Zm0-7.3a3.65,3.65,0,1,0,3.66,3.65A3.65,3.65,0,0,0,227.25,253Zm-25.32,14.61a3.66,3.66,0,1,0,5-1.33A3.66,3.66,0,0,0,201.93,267.58Z" transform="translate(-0.55)"/><path class="cls-2" d="M212.63,256.88a3.66,3.66,0,1,0,5,1.34A3.66,3.66,0,0,0,212.63,256.88Z" transform="translate(-0.55)"/><path class="cls-2" d="M182.94,278.55v7.31a29.24,29.24,0,0,0,25.32-14.62l-6.33-3.66a21.91,21.91,0,0,1-19,11Zm0,7.31a3.66,3.66,0,1,0-3.65-3.66A3.66,3.66,0,0,0,182.94,285.86Zm25.32-14.62a3.66,3.66,0,1,0-5,1.34,3.66,3.66,0,0,0,5-1.34Z" transform="translate(-0.55)"/><path class="cls-2" d="M197.56,281.94a3.65,3.65,0,1,0-5-1.34A3.65,3.65,0,0,0,197.56,281.94Z" transform="translate(-0.55)"/><path class="cls-2" d="M164,267.58l-6.33,3.66a29.27,29.27,0,0,0,25.32,14.62v-7.31a21.93,21.93,0,0,1-19-11Zm-6.33,3.66a3.66,3.66,0,1,0,1.34-5,3.66,3.66,0,0,0-1.34,5Zm25.32,14.62a3.66,3.66,0,1,0-3.65-3.66A3.66,3.66,0,0,0,182.94,285.86Z" transform="translate(-0.55)"/><path class="cls-2" d="M168.32,281.94a3.66,3.66,0,1,0-1.33-5,3.66,3.66,0,0,0,1.33,5Z" transform="translate(-0.55)"/><path class="cls-2" d="M423.48,190.84l6.33,3.65a29.21,29.21,0,0,0,0-29.24l-6.33,3.66a21.92,21.92,0,0,1,0,21.93Zm6.33,3.65a3.65,3.65,0,1,0-5,1.34A3.66,3.66,0,0,0,429.81,194.49Zm0-29.24a3.66,3.66,0,1,0-1.33,5A3.65,3.65,0,0,0,429.81,165.25Z" transform="translate(-0.55)"/><path class="cls-2" d="M433.73,179.87a3.66,3.66,0,1,0-3.65,3.66A3.64,3.64,0,0,0,433.73,179.87Z" transform="translate(-0.55)"/><path class="cls-2" d="M404.49,209.11V201.8a29.25,29.25,0,0,0-25.32,14.62l6.33,3.65a21.94,21.94,0,0,1,19-11Zm0-7.31a3.66,3.66,0,1,0,3.66,3.65A3.66,3.66,0,0,0,404.49,201.8Zm-25.32,14.62a3.65,3.65,0,1,0,5-1.34A3.65,3.65,0,0,0,379.17,216.42Z" transform="translate(-0.55)"/><path class="cls-2" d="M389.88,205.72a3.65,3.65,0,1,0,5,1.33A3.65,3.65,0,0,0,389.88,205.72Z" transform="translate(-0.55)"/><path class="cls-2" d="M404.49,209.11V201.8a29.25,29.25,0,0,0-25.32,14.62l6.33,3.65a21.94,21.94,0,0,1,19-11Zm0-7.31a3.66,3.66,0,1,0,3.66,3.65A3.66,3.66,0,0,0,404.49,201.8Zm-25.32,14.62a3.65,3.65,0,1,0,5-1.34A3.65,3.65,0,0,0,379.17,216.42Z" transform="translate(-0.55)"/><path class="cls-2" d="M389.88,205.72a3.65,3.65,0,1,0,5,1.33A3.65,3.65,0,0,0,389.88,205.72Z" transform="translate(-0.55)"/><path class="cls-2" d="M360.18,227.38v7.31a29.22,29.22,0,0,0,25.32-14.62l-6.33-3.65a21.92,21.92,0,0,1-19,11Zm0,7.31a3.66,3.66,0,1,0-3.65-3.65A3.65,3.65,0,0,0,360.18,234.69Zm25.32-14.62a3.65,3.65,0,1,0-5,1.34A3.66,3.66,0,0,0,385.5,220.07Z" transform="translate(-0.55)"/><path class="cls-2" d="M374.8,230.77a3.65,3.65,0,1,0-5-1.33A3.65,3.65,0,0,0,374.8,230.77Z" transform="translate(-0.55)"/><path class="cls-2" d="M443.09,137.07a3.66,3.66,0,1,0-1.33-5A3.66,3.66,0,0,0,443.09,137.07Z" transform="translate(-0.55)"/><path class="cls-2" d="M334.86,242l6.33,3.66a29.21,29.21,0,0,0,0-29.24l-6.33,3.65a21.92,21.92,0,0,1,0,21.93Zm6.33,3.66a3.66,3.66,0,1,0-5,1.33A3.67,3.67,0,0,0,341.19,245.66Zm0-29.24a3.65,3.65,0,1,0-1.33,5A3.65,3.65,0,0,0,341.19,216.42Z" transform="translate(-0.55)"/><path class="cls-2" d="M345.11,231a3.66,3.66,0,1,0-3.65,3.65A3.66,3.66,0,0,0,345.11,231Z" transform="translate(-0.55)"/><path class="cls-2" d="M341.19,216.42l-6.33,3.65a29.25,29.25,0,0,0,25.32,14.62v-7.31a21.94,21.94,0,0,1-19-11Zm-6.33,3.65a3.65,3.65,0,1,0,1.34-5A3.66,3.66,0,0,0,334.86,220.07Zm25.32,14.62a3.66,3.66,0,1,0-3.65-3.65A3.65,3.65,0,0,0,360.18,234.69Z" transform="translate(-0.55)"/><path class="cls-2" d="M345.57,230.77a3.65,3.65,0,1,0-1.34-5A3.65,3.65,0,0,0,345.57,230.77Z" transform="translate(-0.55)"/><path class="cls-2" d="M360.18,234.69v-7.31A29.27,29.27,0,0,0,334.86,242l6.33,3.66a21.93,21.93,0,0,1,19-11Zm0-7.31a3.66,3.66,0,1,0,3.66,3.66A3.66,3.66,0,0,0,360.18,227.38ZM334.86,242a3.66,3.66,0,1,0,5-1.34A3.65,3.65,0,0,0,334.86,242Z" transform="translate(-0.55)"/><path class="cls-2" d="M345.57,231.3a3.65,3.65,0,1,0,5,1.34A3.65,3.65,0,0,0,345.57,231.3Z" transform="translate(-0.55)"/><path class="cls-2" d="M343.74,228.13a3.65,3.65,0,1,0,5,1.34A3.66,3.66,0,0,0,343.74,228.13Z" transform="translate(-0.55)"/><path class="cls-2" d="M360.18,234.69v-7.31A29.27,29.27,0,0,0,334.86,242l6.33,3.66a21.93,21.93,0,0,1,19-11Zm0-7.31a3.66,3.66,0,1,0,3.66,3.66A3.66,3.66,0,0,0,360.18,227.38ZM334.86,242a3.66,3.66,0,1,0,5-1.34A3.65,3.65,0,0,0,334.86,242Z" transform="translate(-0.55)"/><path class="cls-2" d="M345.57,231.3a3.65,3.65,0,1,0,5,1.34A3.65,3.65,0,0,0,345.57,231.3Z" transform="translate(-0.55)"/><path class="cls-2" d="M315.87,253v7.3a29.23,29.23,0,0,0,25.32-14.61L334.86,242a21.91,21.91,0,0,1-19,11Zm0,7.3a3.65,3.65,0,1,0-3.65-3.65A3.65,3.65,0,0,0,315.87,260.27Zm25.32-14.61a3.66,3.66,0,1,0-5,1.33A3.67,3.67,0,0,0,341.19,245.66Z" transform="translate(-0.55)"/><path class="cls-2" d="M330.49,256.36a3.65,3.65,0,1,0-5-1.34A3.65,3.65,0,0,0,330.49,256.36Z" transform="translate(-0.55)"/><path class="cls-2" d="M315.87,260.27V253a29.26,29.26,0,0,0-25.32,14.61l6.33,3.66a21.93,21.93,0,0,1,19-11Zm0-7.3a3.65,3.65,0,1,0,3.66,3.65A3.65,3.65,0,0,0,315.87,253Zm-25.32,14.61a3.66,3.66,0,1,0,5-1.33A3.66,3.66,0,0,0,290.55,267.58Z" transform="translate(-0.55)"/><path class="cls-2" d="M301.26,256.88a3.65,3.65,0,1,0,5,1.34A3.65,3.65,0,0,0,301.26,256.88Z" transform="translate(-0.55)"/><path class="cls-2" d="M315.87,260.27V253a29.26,29.26,0,0,0-25.32,14.61l6.33,3.66a21.93,21.93,0,0,1,19-11Zm0-7.3a3.65,3.65,0,1,0,3.66,3.65A3.65,3.65,0,0,0,315.87,253Zm-25.32,14.61a3.66,3.66,0,1,0,5-1.33A3.66,3.66,0,0,0,290.55,267.58Z" transform="translate(-0.55)"/><path class="cls-2" d="M301.26,256.88a3.65,3.65,0,1,0,5,1.34A3.65,3.65,0,0,0,301.26,256.88Z" transform="translate(-0.55)"/><path class="cls-2" d="M271.56,278.55v7.31a29.24,29.24,0,0,0,25.32-14.62l-6.33-3.66a21.91,21.91,0,0,1-19,11Zm0,7.31a3.66,3.66,0,1,0-3.65-3.66A3.66,3.66,0,0,0,271.56,285.86Zm25.32-14.62a3.66,3.66,0,1,0-5,1.34A3.66,3.66,0,0,0,296.88,271.24Z" transform="translate(-0.55)"/><path class="cls-2" d="M286.18,281.94a3.65,3.65,0,1,0-5-1.34A3.65,3.65,0,0,0,286.18,281.94Z" transform="translate(-0.55)"/><path class="cls-2" d="M252.57,267.58l-6.33,3.66a29.27,29.27,0,0,0,25.32,14.62v-7.31a21.93,21.93,0,0,1-19-11Zm-6.33,3.66a3.66,3.66,0,1,0,1.34-5A3.66,3.66,0,0,0,246.24,271.24Zm25.32,14.62a3.66,3.66,0,1,0-3.65-3.66A3.66,3.66,0,0,0,271.56,285.86Z" transform="translate(-0.55)"/><path class="cls-2" d="M257,281.94a3.65,3.65,0,1,0-1.34-5A3.65,3.65,0,0,0,257,281.94Z" transform="translate(-0.55)"/><path class="cls-2" d="M404.49,201.8v7.31a29.22,29.22,0,0,0,25.32-14.62l-6.33-3.65a21.92,21.92,0,0,1-19,11Zm0,7.31a3.66,3.66,0,1,0-3.65-3.66A3.66,3.66,0,0,0,404.49,209.11Zm25.32-14.62a3.65,3.65,0,1,0-5,1.34A3.66,3.66,0,0,0,429.81,194.49Z" transform="translate(-0.55)"/><path class="cls-2" d="M139.45,307.85a3.66,3.66,0,1,0-1.33-5,3.67,3.67,0,0,0,1.33,5Z" transform="translate(-0.55)"/></svg>