<svg id="Layer_1" data-name="Layer 1" xmlns="http://www.w3.org/2000/svg" viewBox="0 0 580 436"><defs><style>.cls-1{fill:#00507a;}.cls-2{fill:#8c0;}.cls-3{fill:#efefef;}</style></defs><title>thing10</title><rect class="cls-1" width="580" height="436" rx="14.54"/><path class="cls-2" d="M355,140.5l13.81,15A81.45,81.45,0,0,0,393,77.7l-19.86,4.48A61.07,61.07,0,0,1,355,140.5Zm13.81,15a10.18,10.18,0,1,0-14.38-.58A10.19,10.19,0,0,0,368.83,155.46ZM393,77.7a10.18,10.18,0,1,0-7.69,12.17A10.19,10.19,0,0,0,393,77.7Z" transform="translate(-0.55)"/><path class="cls-2" d="M391.35,119.82a10.18,10.18,0,1,0-12.74,6.7A10.17,10.17,0,0,0,391.35,119.82Z" transform="translate(-0.55)"/><path class="cls-2" d="M355,140.5l13.81,15A81.45,81.45,0,0,0,393,77.7l-19.86,4.48A61.07,61.07,0,0,1,355,140.5Zm13.81,15a10.18,10.18,0,1,0-14.38-.58A10.19,10.19,0,0,0,368.83,155.46ZM393,77.7a10.18,10.18,0,1,0-7.69,12.17A10.19,10.19,0,0,0,393,77.7Z" transform="translate(-0.55)"/><path class="cls-2" d="M391.35,119.82a10.18,10.18,0,1,0-12.74,6.7A10.17,10.17,0,0,0,391.35,119.82Z" transform="translate(-0.55)"/><path class="cls-2" d="M295.45,153.93l-6.06,19.44a81.44,81.44,0,0,0,79.44-17.91L355,140.5a61.07,61.07,0,0,1-59.57,13.43Zm-6.06,19.44a10.18,10.18,0,1,0-6.69-12.75A10.19,10.19,0,0,0,289.39,173.37Zm79.44-17.91a10.18,10.18,0,1,0-14.38-.58A10.19,10.19,0,0,0,368.83,155.46Z" transform="translate(-0.55)"/><path class="cls-2" d="M331.51,175.05a10.18,10.18,0,1,0-12.17-7.69A10.16,10.16,0,0,0,331.51,175.05Z" transform="translate(-0.55)"/><path class="cls-2" d="M289.39,173.37l6.06-19.44A81.44,81.44,0,0,0,216,171.84l13.81,15a61,61,0,0,1,59.57-13.43Zm6.06-19.44a10.18,10.18,0,1,0,6.69,12.74A10.19,10.19,0,0,0,295.45,153.93ZM216,171.84a10.18,10.18,0,1,0,14.38.58A10.19,10.19,0,0,0,216,171.84Z" transform="translate(-0.55)"/><path class="cls-2" d="M253.33,152.24a10.18,10.18,0,1,0,12.17,7.69A10.18,10.18,0,0,0,253.33,152.24Z" transform="translate(-0.55)"/><path class="cls-2" d="M242.08,119.9a10.18,10.18,0,1,0,.57-14.39A10.18,10.18,0,0,0,242.08,119.9Z" transform="translate(-0.55)"/><path class="cls-2" d="M355,140.5l13.81,15A81.45,81.45,0,0,0,393,77.7l-19.86,4.48A61.07,61.07,0,0,1,355,140.5Zm13.81,15a10.18,10.18,0,1,0-14.38-.58A10.19,10.19,0,0,0,368.83,155.46ZM393,77.7a10.18,10.18,0,1,0-7.69,12.17A10.19,10.19,0,0,0,393,77.7Z" transform="translate(-0.55)"/><path class="cls-2" d="M391.35,119.82a10.18,10.18,0,1,0-12.74,6.7A10.17,10.17,0,0,0,391.35,119.82Z" transform="translate(-0.55)"/><path class="cls-2" d="M295.45,153.93l-6.06,19.44a81.44,81.44,0,0,0,79.44-17.91L355,140.5a61.07,61.07,0,0,1-59.57,13.43Zm-6.06,19.44a10.18,10.18,0,1,0-6.69-12.75A10.19,10.19,0,0,0,289.39,173.37Zm79.44-17.91a10.18,10.18,0,1,0-14.38-.58A10.19,10.19,0,0,0,368.83,155.46Z" transform="translate(-0.55)"/><path class="cls-2" d="M331.51,175.05a10.18,10.18,0,1,0-12.17-7.69A10.16,10.16,0,0,0,331.51,175.05Z" transform="translate(-0.55)"/><path class="cls-2" d="M392.1,258.65l-6.05,19.44a81.46,81.46,0,0,0,79.44-17.92l-13.81-15a61.09,61.09,0,0,1-59.58,13.44Zm-6.05,19.44a10.18,10.18,0,1,0-6.69-12.75A10.18,10.18,0,0,0,386.05,278.09Zm79.44-17.92a10.18,10.18,0,1,0-14.39-.57A10.17,10.17,0,0,0,465.49,260.17Z" transform="translate(-0.55)"/><path class="cls-2" d="M428.17,279.77A10.18,10.18,0,1,0,416,272.08,10.18,10.18,0,0,0,428.17,279.77Z" transform="translate(-0.55)"/><path class="cls-2" d="M386.05,278.09l6.05-19.44a81.44,81.44,0,0,0-79.44,17.91l13.81,15a61.07,61.07,0,0,1,59.58-13.43Zm6.05-19.44a10.18,10.18,0,1,0,6.69,12.74A10.17,10.17,0,0,0,392.1,258.65Zm-79.44,17.91a10.18,10.18,0,1,0,14.39.58A10.18,10.18,0,0,0,312.66,276.56Z" transform="translate(-0.55)"/><path class="cls-2" d="M350,257a10.18,10.18,0,1,0,12.17,7.69A10.19,10.19,0,0,0,350,257Z" transform="translate(-0.55)"/><path class="cls-2" d="M295.45,153.93l-6.06,19.44a81.44,81.44,0,0,0,79.44-17.91L355,140.5a61.07,61.07,0,0,1-59.57,13.43Zm-6.06,19.44a10.18,10.18,0,1,0-6.69-12.75A10.19,10.19,0,0,0,289.39,173.37Zm79.44-17.91a10.18,10.18,0,1,0-14.38-.58A10.19,10.19,0,0,0,368.83,155.46Z" transform="translate(-0.55)"/><path class="cls-2" d="M331.51,175.05a10.18,10.18,0,1,0-12.17-7.69A10.16,10.16,0,0,0,331.51,175.05Z" transform="translate(-0.55)"/><path class="cls-2" d="M355,140.5l13.81,15A81.45,81.45,0,0,0,393,77.7l-19.86,4.48A61.07,61.07,0,0,1,355,140.5Zm13.81,15a10.18,10.18,0,1,0-14.38-.58A10.19,10.19,0,0,0,368.83,155.46ZM393,77.7a10.18,10.18,0,1,0-7.69,12.17A10.19,10.19,0,0,0,393,77.7Z" transform="translate(-0.55)"/><path class="cls-2" d="M391.35,119.82a10.18,10.18,0,1,0-12.74,6.7A10.17,10.17,0,0,0,391.35,119.82Z" transform="translate(-0.55)"/><path class="cls-2" d="M392.1,258.65l-6.05,19.44a81.46,81.46,0,0,0,79.44-17.92l-13.81-15a61.09,61.09,0,0,1-59.58,13.44Zm-6.05,19.44a10.18,10.18,0,1,0-6.69-12.75A10.18,10.18,0,0,0,386.05,278.09Zm79.44-17.92a10.18,10.18,0,1,0-14.39-.57A10.17,10.17,0,0,0,465.49,260.17Z" transform="translate(-0.55)"/><path class="cls-2" d="M428.17,279.77A10.18,10.18,0,1,0,416,272.08,10.18,10.18,0,0,0,428.17,279.77Z" transform="translate(-0.55)"/><path class="cls-2" d="M295.45,153.93l-6.06,19.44a81.44,81.44,0,0,0,79.44-17.91L355,140.5a61.07,61.07,0,0,1-59.57,13.43Zm-6.06,19.44a10.18,10.18,0,1,0-6.69-12.75A10.19,10.19,0,0,0,289.39,173.37Zm79.44-17.91a10.18,10.18,0,1,0-14.38-.58A10.19,10.19,0,0,0,368.83,155.46Z" transform="translate(-0.55)"/><path class="cls-2" d="M331.51,175.05a10.18,10.18,0,1,0-12.17-7.69A10.16,10.16,0,0,0,331.51,175.05Z" transform="translate(-0.55)"/><path class="cls-2" d="M386.05,278.09l6.05-19.44a81.44,81.44,0,0,0-79.44,17.91l13.81,15a61.07,61.07,0,0,1,59.58-13.43Zm6.05-19.44a10.18,10.18,0,1,0,6.69,12.74A10.17,10.17,0,0,0,392.1,258.65Zm-79.44,17.91a10.18,10.18,0,1,0,14.39.58A10.18,10.18,0,0,0,312.66,276.56Z" transform="translate(-0.55)"/><path class="cls-2" d="M350,257a10.18,10.18,0,1,0,12.17,7.69A10.19,10.19,0,0,0,350,257Z" transform="translate(-0.55)"/><path class="cls-2" d="M253.09,290,247,309.43a81.44,81.44,0,0,0,79.44-17.91l-13.81-15A61,61,0,0,1,253.09,290ZM247,309.43a10.18,10.18,0,1,0-6.69-12.74A10.18,10.18,0,0,0,247,309.43Zm79.44-17.91a10.18,10.18,0,1,0-14.38-.58A10.18,10.18,0,0,0,326.47,291.52Z" transform="translate(-0.55)"/><path class="cls-2" d="M289.15,311.12A10.18,10.18,0,1,0,277,303.43,10.18,10.18,0,0,0,289.15,311.12Z" transform="translate(-0.55)"/><path class="cls-2" d="M211.66,245.12l-19.86,4.47A81.45,81.45,0,0,0,247,309.43L253.09,290a61.06,61.06,0,0,1-41.43-44.87Zm-19.86,4.47a10.18,10.18,0,1,0,7.69-12.16A10.18,10.18,0,0,0,191.8,249.59ZM247,309.43a10.18,10.18,0,1,0-6.69-12.74A10.18,10.18,0,0,0,247,309.43Z" transform="translate(-0.55)"/><path class="cls-2" d="M211.4,286.91a10.18,10.18,0,1,0,.58-14.38A10.19,10.19,0,0,0,211.4,286.91Z" transform="translate(-0.55)"/><path class="cls-2" d="M229.82,186.8l-13.81-15a81.43,81.43,0,0,0-24.21,77.75l19.86-4.47a61.07,61.07,0,0,1,18.16-58.32Zm-13.81-15a10.18,10.18,0,1,0,14.38.58A10.19,10.19,0,0,0,216,171.84ZM191.8,249.59a10.18,10.18,0,1,0,7.69-12.16A10.18,10.18,0,0,0,191.8,249.59Z" transform="translate(-0.55)"/><path class="cls-2" d="M193.49,207.48a10.18,10.18,0,1,0,12.74-6.7,10.17,10.17,0,0,0-12.74,6.7Z" transform="translate(-0.55)"/><path class="cls-2" d="M253.33,152.24a10.18,10.18,0,1,0,12.17,7.69A10.18,10.18,0,0,0,253.33,152.24Z" transform="translate(-0.55)"/><path class="cls-2" d="M241,328.87l-6,19.44a122.16,122.16,0,0,0,119.16-26.87l-13.81-15A101.8,101.8,0,0,1,241,328.87Zm-6,19.44a10.18,10.18,0,1,0-6.69-12.75A10.19,10.19,0,0,0,234.93,348.31Zm119.16-26.87a10.18,10.18,0,1,0-14.39-.58A10.17,10.17,0,0,0,354.09,321.44Z" transform="translate(-0.55)"/><path class="cls-2" d="M298.11,350.84a10.18,10.18,0,1,0-12.17-7.69A10.18,10.18,0,0,0,298.11,350.84Z" transform="translate(-0.55)"/><path class="cls-2" d="M181.48,314.53a10.18,10.18,0,1,0,.58-14.38A10.18,10.18,0,0,0,181.48,314.53Z" transform="translate(-0.55)"/><path class="cls-2" d="M202.2,156.88l-13.81-15a122.19,122.19,0,0,0-36.31,116.63l19.86-4.48a101.81,101.81,0,0,1,30.26-97.19Zm-13.81-15a10.18,10.18,0,1,0,14.39.58A10.18,10.18,0,0,0,188.39,141.92ZM152.08,258.55a10.18,10.18,0,1,0,7.7-12.17A10.18,10.18,0,0,0,152.08,258.55Z" transform="translate(-0.55)"/><path class="cls-2" d="M154.61,195.37a10.18,10.18,0,1,0,12.75-6.69A10.19,10.19,0,0,0,154.61,195.37Z" transform="translate(-0.55)"/><path class="cls-2" d="M265.19,251.12l-6.05,19.44a40.72,40.72,0,0,0,39.72-9l-13.81-15a20.38,20.38,0,0,1-19.86,4.48Zm-6.05,19.44a10.18,10.18,0,1,0-6.7-12.75A10.18,10.18,0,0,0,259.14,270.56Zm39.72-9a10.18,10.18,0,1,0-14.39-.58A10.17,10.17,0,0,0,298.86,261.6Z" transform="translate(-0.55)"/><path class="cls-2" d="M280.2,271.4A10.18,10.18,0,1,0,268,263.71,10.19,10.19,0,0,0,280.2,271.4Z" transform="translate(-0.55)"/><path class="cls-2" d="M251.38,236.16l-19.86,4.48a40.73,40.73,0,0,0,27.62,29.92l6.05-19.44a20.36,20.36,0,0,1-13.81-15Zm-19.86,4.48a10.18,10.18,0,1,0,7.69-12.17A10.19,10.19,0,0,0,231.52,240.64Zm27.62,29.92a10.18,10.18,0,1,0-6.7-12.75A10.18,10.18,0,0,0,259.14,270.56Z" transform="translate(-0.55)"/><path class="cls-2" d="M241.32,259.3a10.18,10.18,0,1,0,.58-14.39A10.18,10.18,0,0,0,241.32,259.3Z" transform="translate(-0.55)"/><path class="cls-2" d="M257.43,216.72l-13.81-15a40.75,40.75,0,0,0-12.1,38.88l19.86-4.48a20.37,20.37,0,0,1,6.05-19.44Zm-13.81-15a10.18,10.18,0,1,0,14.39.58A10.19,10.19,0,0,0,243.62,201.76Zm-12.1,38.88a10.18,10.18,0,1,0,7.69-12.17A10.19,10.19,0,0,0,231.52,240.64Z" transform="translate(-0.55)"/><path class="cls-2" d="M232.36,219.58a10.18,10.18,0,1,0,12.75-6.69A10.18,10.18,0,0,0,232.36,219.58Z" transform="translate(-0.55)"/><path class="cls-2" d="M277.29,212.24l6-19.43a40.72,40.72,0,0,0-39.72,8.95l13.81,15a20.38,20.38,0,0,1,19.86-4.48Zm6-19.43a10.18,10.18,0,1,0,6.7,12.74A10.17,10.17,0,0,0,283.34,192.81Zm-39.72,8.95a10.18,10.18,0,1,0,14.39.58A10.19,10.19,0,0,0,243.62,201.76Z" transform="translate(-0.55)"/><path class="cls-2" d="M262.28,192a10.18,10.18,0,1,0,12.17,7.69A10.19,10.19,0,0,0,262.28,192Z" transform="translate(-0.55)"/><path class="cls-2" d="M253.09,290,247,309.43a81.44,81.44,0,0,0,79.44-17.91l-13.81-15A61,61,0,0,1,253.09,290ZM247,309.43a10.18,10.18,0,1,0-6.69-12.74A10.18,10.18,0,0,0,247,309.43Zm79.44-17.91a10.18,10.18,0,1,0-14.38-.58A10.18,10.18,0,0,0,326.47,291.52Z" transform="translate(-0.55)"/><path class="cls-2" d="M289.15,311.12A10.18,10.18,0,1,0,277,303.43,10.18,10.18,0,0,0,289.15,311.12Z" transform="translate(-0.55)"/><path class="cls-2" d="M211.66,245.12l-19.86,4.47A81.45,81.45,0,0,0,247,309.43L253.09,290a61.06,61.06,0,0,1-41.43-44.87Zm-19.86,4.47a10.18,10.18,0,1,0,7.69-12.16A10.18,10.18,0,0,0,191.8,249.59ZM247,309.43a10.18,10.18,0,1,0-6.69-12.74A10.18,10.18,0,0,0,247,309.43Z" transform="translate(-0.55)"/><path class="cls-2" d="M211.4,286.91a10.18,10.18,0,1,0,.58-14.38A10.19,10.19,0,0,0,211.4,286.91Z" transform="translate(-0.55)"/><path class="cls-2" d="M229.82,186.8l-13.81-15a81.43,81.43,0,0,0-24.21,77.75l19.86-4.47a61.07,61.07,0,0,1,18.16-58.32Zm-13.81-15a10.18,10.18,0,1,0,14.38.58A10.19,10.19,0,0,0,216,171.84ZM191.8,249.59a10.18,10.18,0,1,0,7.69-12.16A10.18,10.18,0,0,0,191.8,249.59Z" transform="translate(-0.55)"/><path class="cls-2" d="M193.49,207.48a10.18,10.18,0,1,0,12.74-6.7,10.17,10.17,0,0,0-12.74,6.7Z" transform="translate(-0.55)"/><path class="cls-2" d="M253.33,152.24a10.18,10.18,0,1,0,12.17,7.69A10.18,10.18,0,0,0,253.33,152.24Z" transform="translate(-0.55)"/><path class="cls-3" d="M291.29,226.6l19.86-4.48a40.71,40.71,0,0,0-27.62-29.92l-6,19.44a20.34,20.34,0,0,1,13.81,15Zm19.86-4.48a10.18,10.18,0,1,0-7.69,12.17A10.18,10.18,0,0,0,311.15,222.12ZM283.53,192.2a10.18,10.18,0,1,0,6.7,12.74A10.18,10.18,0,0,0,283.53,192.2Z" transform="translate(-0.55)"/><path class="cls-3" d="M301.35,203.46a10.18,10.18,0,1,0-.58,14.38A10.19,10.19,0,0,0,301.35,203.46Z" transform="translate(-0.55)"/><path class="cls-3" d="M285.24,246,299,261a40.7,40.7,0,0,0,12.11-38.87l-19.86,4.48A20.38,20.38,0,0,1,285.24,246Zm13.81,15a10.18,10.18,0,1,0-14.39-.57A10.18,10.18,0,0,0,299.05,261Zm12.1-38.87a10.18,10.18,0,1,0-7.69,12.17A10.18,10.18,0,0,0,311.15,222.12Z" transform="translate(-0.55)"/><path class="cls-3" d="M310.3,243.18a10.18,10.18,0,1,0-12.74,6.69A10.17,10.17,0,0,0,310.3,243.18Z" transform="translate(-0.55)"/><path class="cls-3" d="M265.38,250.51,259.33,270a40.72,40.72,0,0,0,39.72-9l-13.81-15a20.35,20.35,0,0,1-19.86,4.47ZM259.33,270a10.18,10.18,0,1,0-6.7-12.74A10.17,10.17,0,0,0,259.33,270Zm39.72-9a10.18,10.18,0,1,0-14.39-.57A10.18,10.18,0,0,0,299.05,261Z" transform="translate(-0.55)"/><path class="cls-3" d="M280.39,270.79a10.18,10.18,0,1,0-12.17-7.69A10.18,10.18,0,0,0,280.39,270.79Z" transform="translate(-0.55)"/><path class="cls-3" d="M251.57,235.55,231.71,240A40.71,40.71,0,0,0,259.33,270l6.05-19.44a20.34,20.34,0,0,1-13.81-15ZM231.71,240a10.18,10.18,0,1,0,7.69-12.17A10.18,10.18,0,0,0,231.71,240ZM259.33,270a10.18,10.18,0,1,0-6.7-12.74A10.17,10.17,0,0,0,259.33,270Z" transform="translate(-0.55)"/><path class="cls-3" d="M241.51,258.69a10.18,10.18,0,1,0,.58-14.38A10.18,10.18,0,0,0,241.51,258.69Z" transform="translate(-0.55)"/><path class="cls-3" d="M257.62,216.12l-13.81-15A40.7,40.7,0,0,0,231.71,240l19.86-4.48a20.36,20.36,0,0,1,6.05-19.43Zm-13.81-15a10.18,10.18,0,1,0,14.39.57A10.17,10.17,0,0,0,243.81,201.16ZM231.71,240a10.18,10.18,0,1,0,7.69-12.17A10.18,10.18,0,0,0,231.71,240Z" transform="translate(-0.55)"/><path class="cls-3" d="M232.55,219a10.18,10.18,0,1,0,12.75-6.69A10.19,10.19,0,0,0,232.55,219Z" transform="translate(-0.55)"/><path class="cls-3" d="M277.48,211.64l6-19.44a40.72,40.72,0,0,0-39.72,9l13.81,15a20.35,20.35,0,0,1,19.86-4.48Zm6-19.44a10.18,10.18,0,1,0,6.7,12.74A10.18,10.18,0,0,0,283.53,192.2Zm-39.72,9a10.18,10.18,0,1,0,14.39.57A10.17,10.17,0,0,0,243.81,201.16Z" transform="translate(-0.55)"/><path class="cls-3" d="M262.47,191.36a10.18,10.18,0,1,0,12.17,7.69A10.18,10.18,0,0,0,262.47,191.36Z" transform="translate(-0.55)"/></svg>