<svg id="Layer_1" data-name="Layer 1" xmlns="http://www.w3.org/2000/svg" viewBox="0 0 580 436"><defs><style>.cls-1{fill:#520066;}.cls-2{fill:#2ad5b3;}.cls-3{fill:#ffc41f;}</style></defs><title>thing9</title><rect class="cls-1" width="580" height="436" rx="14.54"/><path class="cls-2" d="M425.24,54.4a8.75,8.75,0,1,0,11.95,3.2A8.75,8.75,0,0,0,425.24,54.4Z" transform="translate(-0.55)"/><path class="cls-2" d="M414.78,88.75,399.63,80a70,70,0,0,0,0,70l15.15-8.74a52.48,52.48,0,0,1,0-52.47ZM399.63,80a8.75,8.75,0,1,0,11.95-3.2A8.74,8.74,0,0,0,399.63,80Zm0,70a8.75,8.75,0,1,0,3.2-11.94A8.75,8.75,0,0,0,399.63,150Z" transform="translate(-0.55)"/><path class="cls-2" d="M390.26,115a8.75,8.75,0,1,0,8.75-8.75A8.74,8.74,0,0,0,390.26,115Z" transform="translate(-0.55)"/><path class="cls-2" d="M399.63,150l15.15-8.74a70,70,0,0,0-60.58-35v17.49A52.46,52.46,0,0,1,399.63,150Zm15.15-8.74a8.75,8.75,0,1,0-3.2,11.95A8.74,8.74,0,0,0,414.78,141.22Zm-60.58-35a8.75,8.75,0,1,0,8.74,8.75A8.75,8.75,0,0,0,354.2,106.24Z" transform="translate(-0.55)"/><path class="cls-2" d="M389.17,115.61a8.75,8.75,0,1,0,3.21,12,8.74,8.74,0,0,0-3.21-12Z" transform="translate(-0.55)"/><path class="cls-2" d="M354.2,106.24v17.49a70,70,0,0,0,60.58-35L399.63,80a52.46,52.46,0,0,1-45.43,26.23Zm0,17.49a8.75,8.75,0,1,0-8.75-8.74A8.74,8.74,0,0,0,354.2,123.73Zm60.58-35A8.75,8.75,0,1,0,402.83,92,8.74,8.74,0,0,0,414.78,88.75Z" transform="translate(-0.55)"/><path class="cls-2" d="M389.17,114.36a8.75,8.75,0,1,0-11.94-3.2A8.75,8.75,0,0,0,389.17,114.36Z" transform="translate(-0.55)"/><path class="cls-2" d="M393.55,121.93a8.74,8.74,0,1,0-11.95-3.2A8.74,8.74,0,0,0,393.55,121.93Z" transform="translate(-0.55)"/><path class="cls-2" d="M354.2,123.73V106.24a70,70,0,0,0-60.59,35L308.76,150a52.47,52.47,0,0,1,45.44-26.23Zm0-17.49a8.75,8.75,0,1,0,8.74,8.75A8.75,8.75,0,0,0,354.2,106.24Zm-60.59,35a8.75,8.75,0,1,0,11.95-3.2A8.76,8.76,0,0,0,293.61,141.22Z" transform="translate(-0.55)"/><path class="cls-2" d="M319.22,115.61a8.75,8.75,0,1,0,11.94,3.21,8.75,8.75,0,0,0-11.94-3.21Z" transform="translate(-0.55)"/><path class="cls-2" d="M354.2,106.24v17.49a70,70,0,0,0,60.58-35L399.63,80a52.46,52.46,0,0,1-45.43,26.23Zm0,17.49a8.75,8.75,0,1,0-8.75-8.74A8.74,8.74,0,0,0,354.2,123.73Zm60.58-35A8.75,8.75,0,1,0,402.83,92,8.74,8.74,0,0,0,414.78,88.75Z" transform="translate(-0.55)"/><path class="cls-2" d="M389.17,114.36a8.75,8.75,0,1,0-11.94-3.2A8.75,8.75,0,0,0,389.17,114.36Z" transform="translate(-0.55)"/><path class="cls-2" d="M354.2,123.73V106.24a70,70,0,0,0-60.59,35L308.76,150a52.47,52.47,0,0,1,45.44-26.23Zm0-17.49a8.75,8.75,0,1,0,8.74,8.75A8.75,8.75,0,0,0,354.2,106.24Zm-60.59,35a8.75,8.75,0,1,0,11.95-3.2A8.76,8.76,0,0,0,293.61,141.22Z" transform="translate(-0.55)"/><path class="cls-2" d="M319.22,115.61a8.75,8.75,0,1,0,11.94,3.21,8.75,8.75,0,0,0-11.94-3.21Z" transform="translate(-0.55)"/><path class="cls-2" d="M308.76,150l-15.15-8.74a70,70,0,0,0,0,70l15.15-8.75A52.48,52.48,0,0,1,308.76,150Zm-15.15-8.74a8.75,8.75,0,1,0,11.95-3.2A8.76,8.76,0,0,0,293.61,141.22Zm0,70a8.75,8.75,0,1,0,3.2-12A8.76,8.76,0,0,0,293.61,211.18Z" transform="translate(-0.55)"/><path class="cls-2" d="M284.24,176.2a8.75,8.75,0,1,0,8.74-8.75A8.74,8.74,0,0,0,284.24,176.2Z" transform="translate(-0.55)"/><path class="cls-2" d="M293.61,211.18l15.15-8.75a70,70,0,0,0-60.59-35v17.49a52.45,52.45,0,0,1,45.44,26.24Zm15.15-8.75a8.75,8.75,0,1,0-3.2,11.95A8.76,8.76,0,0,0,308.76,202.43Zm-60.59-35a8.75,8.75,0,1,0,8.75,8.75A8.75,8.75,0,0,0,248.17,167.45Z" transform="translate(-0.55)"/><path class="cls-2" d="M283.15,176.83a8.74,8.74,0,1,0,3.2,11.94A8.73,8.73,0,0,0,283.15,176.83Z" transform="translate(-0.55)"/><path class="cls-2" d="M248.17,167.45v17.49a70,70,0,0,0,60.59-35l-15.15-8.74a52.47,52.47,0,0,1-45.44,26.23Zm0,17.49a8.75,8.75,0,1,0-8.74-8.74A8.74,8.74,0,0,0,248.17,184.94Zm60.59-35a8.75,8.75,0,1,0-11.95,3.21A8.74,8.74,0,0,0,308.76,150Z" transform="translate(-0.55)"/><path class="cls-2" d="M283.15,175.57a8.75,8.75,0,1,0-11.94-3.2A8.73,8.73,0,0,0,283.15,175.57Z" transform="translate(-0.55)"/><path class="cls-2" d="M287.53,183.14a8.74,8.74,0,1,0-11.95-3.2A8.74,8.74,0,0,0,287.53,183.14Z" transform="translate(-0.55)"/><path class="cls-2" d="M248.17,184.94V167.45a70,70,0,0,0-60.58,35l15.15,8.75a52.45,52.45,0,0,1,45.43-26.24Zm0-17.49a8.75,8.75,0,1,0,8.75,8.75A8.75,8.75,0,0,0,248.17,167.45Zm-60.58,35a8.75,8.75,0,1,0,11.95-3.2A8.76,8.76,0,0,0,187.59,202.43Z" transform="translate(-0.55)"/><path class="cls-2" d="M213.2,176.83a8.74,8.74,0,1,0,11.94,3.2A8.73,8.73,0,0,0,213.2,176.83Z" transform="translate(-0.55)"/><path class="cls-2" d="M187.59,202.43l15.15,8.75a70,70,0,0,0,0-70L187.59,150A52.48,52.48,0,0,1,187.59,202.43Zm15.15,8.75a8.75,8.75,0,1,0-12,3.2A8.76,8.76,0,0,0,202.74,211.18Zm0-70a8.75,8.75,0,1,0-3.2,11.95A8.75,8.75,0,0,0,202.74,141.22Z" transform="translate(-0.55)"/><path class="cls-2" d="M212.11,176.2a8.75,8.75,0,1,0-8.75,8.74A8.75,8.75,0,0,0,212.11,176.2Z" transform="translate(-0.55)"/><path class="cls-2" d="M202.74,141.22,187.59,150a70,70,0,0,0,60.58,35V167.45a52.46,52.46,0,0,1-45.43-26.23ZM187.59,150a8.75,8.75,0,1,0,3.2-11.94A8.75,8.75,0,0,0,187.59,150Zm60.58,35a8.75,8.75,0,1,0-8.74-8.74A8.74,8.74,0,0,0,248.17,184.94Z" transform="translate(-0.55)"/><path class="cls-2" d="M213.2,175.57a8.75,8.75,0,1,0-3.2-11.94A8.74,8.74,0,0,0,213.2,175.57Z" transform="translate(-0.55)"/><path class="cls-2" d="M208.82,183.14a8.74,8.74,0,1,0-3.2-11.94A8.74,8.74,0,0,0,208.82,183.14Z" transform="translate(-0.55)"/><path class="cls-2" d="M248.17,167.45v17.49a70,70,0,0,0,60.59-35l-15.15-8.74a52.47,52.47,0,0,1-45.44,26.23Zm0,17.49a8.75,8.75,0,1,0-8.74-8.74A8.74,8.74,0,0,0,248.17,184.94Zm60.59-35a8.75,8.75,0,1,0-11.95,3.21A8.74,8.74,0,0,0,308.76,150Z" transform="translate(-0.55)"/><path class="cls-2" d="M283.15,175.57a8.75,8.75,0,1,0-11.94-3.2A8.73,8.73,0,0,0,283.15,175.57Z" transform="translate(-0.55)"/><path class="cls-2" d="M202.74,141.22,187.59,150a70,70,0,0,0,60.58,35V167.45a52.46,52.46,0,0,1-45.43-26.23ZM187.59,150a8.75,8.75,0,1,0,3.2-11.94A8.75,8.75,0,0,0,187.59,150Zm60.58,35a8.75,8.75,0,1,0-8.74-8.74A8.74,8.74,0,0,0,248.17,184.94Z" transform="translate(-0.55)"/><path class="cls-2" d="M213.2,175.57a8.75,8.75,0,1,0-3.2-11.94A8.74,8.74,0,0,0,213.2,175.57Z" transform="translate(-0.55)"/><path class="cls-2" d="M354.2,106.24v17.49a70,70,0,0,0,60.58-35L399.63,80a52.46,52.46,0,0,1-45.43,26.23Zm0,17.49a8.75,8.75,0,1,0-8.75-8.74A8.74,8.74,0,0,0,354.2,123.73Zm60.58-35A8.75,8.75,0,1,0,402.83,92,8.74,8.74,0,0,0,414.78,88.75Z" transform="translate(-0.55)"/><path class="cls-2" d="M389.17,114.36a8.75,8.75,0,1,0-11.94-3.2A8.75,8.75,0,0,0,389.17,114.36Z" transform="translate(-0.55)"/><path class="cls-2" d="M414.78,88.75,399.63,80a70,70,0,0,0,0,70l15.15-8.74a52.48,52.48,0,0,1,0-52.47ZM399.63,80a8.75,8.75,0,1,0,11.95-3.2A8.74,8.74,0,0,0,399.63,80Zm0,70a8.75,8.75,0,1,0,3.2-11.94A8.75,8.75,0,0,0,399.63,150Z" transform="translate(-0.55)"/><path class="cls-2" d="M390.26,115a8.75,8.75,0,1,0,8.75-8.75A8.74,8.74,0,0,0,390.26,115Z" transform="translate(-0.55)"/><path class="cls-2" d="M399.63,150l15.15-8.74a70,70,0,0,0-60.58-35v17.49A52.46,52.46,0,0,1,399.63,150Zm15.15-8.74a8.75,8.75,0,1,0-3.2,11.95A8.74,8.74,0,0,0,414.78,141.22Zm-60.58-35a8.75,8.75,0,1,0,8.74,8.75A8.75,8.75,0,0,0,354.2,106.24Z" transform="translate(-0.55)"/><path class="cls-2" d="M389.17,115.61a8.75,8.75,0,1,0,3.21,12,8.74,8.74,0,0,0-3.21-12Z" transform="translate(-0.55)"/><path class="cls-2" d="M393.55,108a8.75,8.75,0,1,0,3.2,11.95A8.76,8.76,0,0,0,393.55,108Z" transform="translate(-0.55)"/><path class="cls-2" d="M399.63,202.43l15.15,8.75a70,70,0,0,0,0-70L399.63,150A52.44,52.44,0,0,1,399.63,202.43Zm15.15,8.75a8.75,8.75,0,1,0-11.95,3.2A8.76,8.76,0,0,0,414.78,211.18Zm0-70a8.75,8.75,0,1,0-3.2,11.95A8.74,8.74,0,0,0,414.78,141.22Z" transform="translate(-0.55)"/><path class="cls-2" d="M424.15,176.2a8.75,8.75,0,1,0-8.74,8.74A8.74,8.74,0,0,0,424.15,176.2Z" transform="translate(-0.55)"/><path class="cls-2" d="M354.2,228.67v17.48a70,70,0,0,0,60.58-35l-15.15-8.75a52.45,52.45,0,0,1-45.43,26.24Zm0,17.48a8.74,8.74,0,1,0-8.75-8.74A8.74,8.74,0,0,0,354.2,246.15Zm60.58-35a8.75,8.75,0,1,0-11.95,3.2A8.76,8.76,0,0,0,414.78,211.18Z" transform="translate(-0.55)"/><path class="cls-2" d="M389.17,236.78a8.74,8.74,0,1,0-11.94-3.2A8.74,8.74,0,0,0,389.17,236.78Z" transform="translate(-0.55)"/><path class="cls-2" d="M354.2,246.15V228.67a70,70,0,0,0-60.59,35l15.15,8.75a52.45,52.45,0,0,1,45.44-26.24Zm0-17.48a8.74,8.74,0,1,0,8.74,8.74A8.74,8.74,0,0,0,354.2,228.67Zm-60.59,35a8.75,8.75,0,1,0,11.95-3.2A8.76,8.76,0,0,0,293.61,263.64Z" transform="translate(-0.55)"/><path class="cls-2" d="M319.22,238a8.74,8.74,0,1,0,11.94,3.2A8.74,8.74,0,0,0,319.22,238Z" transform="translate(-0.55)"/><path class="cls-2" d="M293.61,263.64l15.15,8.75a70,70,0,0,0,0-70l-15.15,8.75A52.47,52.47,0,0,1,293.61,263.64Zm15.15,8.75a8.75,8.75,0,1,0-11.95,3.2A8.76,8.76,0,0,0,308.76,272.39Zm0-70a8.75,8.75,0,1,0-3.2,11.95A8.76,8.76,0,0,0,308.76,202.43Z" transform="translate(-0.55)"/><path class="cls-2" d="M318.13,237.41a8.75,8.75,0,1,0-8.74,8.74A8.74,8.74,0,0,0,318.13,237.41Z" transform="translate(-0.55)"/><path class="cls-2" d="M308.76,202.43l-15.15,8.75a70,70,0,0,0,60.59,35V228.67a52.45,52.45,0,0,1-45.44-26.24Zm-15.15,8.75a8.75,8.75,0,1,0,3.2-12A8.76,8.76,0,0,0,293.61,211.18Zm60.59,35a8.74,8.74,0,1,0-8.75-8.74A8.74,8.74,0,0,0,354.2,246.15Z" transform="translate(-0.55)"/><path class="cls-2" d="M319.22,236.78a8.74,8.74,0,1,0-3.2-11.94A8.74,8.74,0,0,0,319.22,236.78Z" transform="translate(-0.55)"/><path class="cls-2" d="M314.85,244.36a8.75,8.75,0,1,0-3.2-12A8.74,8.74,0,0,0,314.85,244.36Z" transform="translate(-0.55)"/><path class="cls-2" d="M293.61,211.18l15.15-8.75a70,70,0,0,0-60.59-35v17.49a52.45,52.45,0,0,1,45.44,26.24Zm15.15-8.75a8.75,8.75,0,1,0-3.2,11.95A8.76,8.76,0,0,0,308.76,202.43Zm-60.59-35a8.75,8.75,0,1,0,8.75,8.75A8.75,8.75,0,0,0,248.17,167.45Z" transform="translate(-0.55)"/><path class="cls-2" d="M283.15,176.83a8.74,8.74,0,1,0,3.2,11.94A8.73,8.73,0,0,0,283.15,176.83Z" transform="translate(-0.55)"/><path class="cls-2" d="M248.17,167.45v17.49a70,70,0,0,0,60.59-35l-15.15-8.74a52.47,52.47,0,0,1-45.44,26.23Zm0,17.49a8.75,8.75,0,1,0-8.74-8.74A8.74,8.74,0,0,0,248.17,184.94Zm60.59-35a8.75,8.75,0,1,0-11.95,3.21A8.74,8.74,0,0,0,308.76,150Z" transform="translate(-0.55)"/><path class="cls-2" d="M283.15,175.57a8.75,8.75,0,1,0-11.94-3.2A8.73,8.73,0,0,0,283.15,175.57Z" transform="translate(-0.55)"/><path class="cls-2" d="M308.76,150l-15.15-8.74a70,70,0,0,0,0,70l15.15-8.75A52.48,52.48,0,0,1,308.76,150Zm-15.15-8.74a8.75,8.75,0,1,0,11.95-3.2A8.76,8.76,0,0,0,293.61,141.22Zm0,70a8.75,8.75,0,1,0,3.2-12A8.76,8.76,0,0,0,293.61,211.18Z" transform="translate(-0.55)"/><path class="cls-2" d="M284.24,176.2a8.75,8.75,0,1,0,8.74-8.75A8.74,8.74,0,0,0,284.24,176.2Z" transform="translate(-0.55)"/><path class="cls-2" d="M275.5,176.2a8.74,8.74,0,1,0,8.74-8.75A8.74,8.74,0,0,0,275.5,176.2Z" transform="translate(-0.55)"/><path class="cls-2" d="M354.2,123.73V106.24a70,70,0,0,0-60.59,35L308.76,150a52.47,52.47,0,0,1,45.44-26.23Zm0-17.49a8.75,8.75,0,1,0,8.74,8.75A8.75,8.75,0,0,0,354.2,106.24Zm-60.59,35a8.75,8.75,0,1,0,11.95-3.2A8.76,8.76,0,0,0,293.61,141.22Z" transform="translate(-0.55)"/><path class="cls-2" d="M319.22,115.61a8.75,8.75,0,1,0,11.94,3.21,8.75,8.75,0,0,0-11.94-3.21Z" transform="translate(-0.55)"/><path class="cls-2" d="M399.63,150l15.15-8.74a70,70,0,0,0-60.58-35v17.49A52.46,52.46,0,0,1,399.63,150Zm15.15-8.74a8.75,8.75,0,1,0-3.2,11.95A8.74,8.74,0,0,0,414.78,141.22Zm-60.58-35a8.75,8.75,0,1,0,8.74,8.75A8.75,8.75,0,0,0,354.2,106.24Z" transform="translate(-0.55)"/><path class="cls-2" d="M389.17,115.61a8.75,8.75,0,1,0,3.21,12,8.74,8.74,0,0,0-3.21-12Z" transform="translate(-0.55)"/><path class="cls-2" d="M399.63,202.43l15.15,8.75a70,70,0,0,0,0-70L399.63,150A52.44,52.44,0,0,1,399.63,202.43Zm15.15,8.75a8.75,8.75,0,1,0-11.95,3.2A8.76,8.76,0,0,0,414.78,211.18Zm0-70a8.75,8.75,0,1,0-3.2,11.95A8.74,8.74,0,0,0,414.78,141.22Z" transform="translate(-0.55)"/><path class="cls-2" d="M424.15,176.2a8.75,8.75,0,1,0-8.74,8.74A8.74,8.74,0,0,0,424.15,176.2Z" transform="translate(-0.55)"/><path class="cls-2" d="M354.2,228.67v17.48a70,70,0,0,0,60.58-35l-15.15-8.75a52.45,52.45,0,0,1-45.43,26.24Zm0,17.48a8.74,8.74,0,1,0-8.75-8.74A8.74,8.74,0,0,0,354.2,246.15Zm60.58-35a8.75,8.75,0,1,0-11.95,3.2A8.76,8.76,0,0,0,414.78,211.18Z" transform="translate(-0.55)"/><path class="cls-2" d="M389.17,236.78a8.74,8.74,0,1,0-11.94-3.2A8.74,8.74,0,0,0,389.17,236.78Z" transform="translate(-0.55)"/><path class="cls-2" d="M308.76,202.43l-15.15,8.75a70,70,0,0,0,60.59,35V228.67a52.45,52.45,0,0,1-45.44-26.24Zm-15.15,8.75a8.75,8.75,0,1,0,3.2-12A8.76,8.76,0,0,0,293.61,211.18Zm60.59,35a8.74,8.74,0,1,0-8.75-8.74A8.74,8.74,0,0,0,354.2,246.15Z" transform="translate(-0.55)"/><path class="cls-2" d="M319.22,236.78a8.74,8.74,0,1,0-3.2-11.94A8.74,8.74,0,0,0,319.22,236.78Z" transform="translate(-0.55)"/><path class="cls-2" d="M308.76,150l-15.15-8.74a70,70,0,0,0,0,70l15.15-8.75A52.48,52.48,0,0,1,308.76,150Zm-15.15-8.74a8.75,8.75,0,1,0,11.95-3.2A8.76,8.76,0,0,0,293.61,141.22Zm0,70a8.75,8.75,0,1,0,3.2-12A8.76,8.76,0,0,0,293.61,211.18Z" transform="translate(-0.55)"/><path class="cls-2" d="M284.24,176.2a8.75,8.75,0,1,0,8.74-8.75A8.74,8.74,0,0,0,284.24,176.2Z" transform="translate(-0.55)"/><path class="cls-2" d="M354.2,123.73V106.24a70,70,0,0,0-60.59,35L308.76,150a52.47,52.47,0,0,1,45.44-26.23Zm0-17.49a8.75,8.75,0,1,0,8.74,8.75A8.75,8.75,0,0,0,354.2,106.24Zm-60.59,35a8.75,8.75,0,1,0,11.95-3.2A8.76,8.76,0,0,0,293.61,141.22Z" transform="translate(-0.55)"/><path class="cls-2" d="M319.22,115.61a8.75,8.75,0,1,0,11.94,3.21,8.75,8.75,0,0,0-11.94-3.21Z" transform="translate(-0.55)"/><path class="cls-2" d="M248.17,167.45v17.49a70,70,0,0,0,60.59-35l-15.15-8.74a52.47,52.47,0,0,1-45.44,26.23Zm0,17.49a8.75,8.75,0,1,0-8.74-8.74A8.74,8.74,0,0,0,248.17,184.94Zm60.59-35a8.75,8.75,0,1,0-11.95,3.21A8.74,8.74,0,0,0,308.76,150Z" transform="translate(-0.55)"/><path class="cls-2" d="M283.15,175.57a8.75,8.75,0,1,0-11.94-3.2A8.73,8.73,0,0,0,283.15,175.57Z" transform="translate(-0.55)"/><path class="cls-2" d="M308.76,150l-15.15-8.74a70,70,0,0,0,0,70l15.15-8.75A52.48,52.48,0,0,1,308.76,150Zm-15.15-8.74a8.75,8.75,0,1,0,11.95-3.2A8.76,8.76,0,0,0,293.61,141.22Zm0,70a8.75,8.75,0,1,0,3.2-12A8.76,8.76,0,0,0,293.61,211.18Z" transform="translate(-0.55)"/><path class="cls-2" d="M284.24,176.2a8.75,8.75,0,1,0,8.74-8.75A8.74,8.74,0,0,0,284.24,176.2Z" transform="translate(-0.55)"/><path class="cls-2" d="M293.61,211.18l15.15-8.75a70,70,0,0,0-60.59-35v17.49a52.45,52.45,0,0,1,45.44,26.24Zm15.15-8.75a8.75,8.75,0,1,0-3.2,11.95A8.76,8.76,0,0,0,308.76,202.43Zm-60.59-35a8.75,8.75,0,1,0,8.75,8.75A8.75,8.75,0,0,0,248.17,167.45Z" transform="translate(-0.55)"/><path class="cls-2" d="M283.15,176.83a8.74,8.74,0,1,0,3.2,11.94A8.73,8.73,0,0,0,283.15,176.83Z" transform="translate(-0.55)"/><path class="cls-2" d="M287.53,169.25a8.75,8.75,0,1,0,3.2,11.95A8.75,8.75,0,0,0,287.53,169.25Z" transform="translate(-0.55)"/><path class="cls-2" d="M308.76,202.43l-15.15,8.75a70,70,0,0,0,60.59,35V228.67a52.45,52.45,0,0,1-45.44-26.24Zm-15.15,8.75a8.75,8.75,0,1,0,3.2-12A8.76,8.76,0,0,0,293.61,211.18Zm60.59,35a8.74,8.74,0,1,0-8.75-8.74A8.74,8.74,0,0,0,354.2,246.15Z" transform="translate(-0.55)"/><path class="cls-2" d="M319.22,236.78a8.74,8.74,0,1,0-3.2-11.94A8.74,8.74,0,0,0,319.22,236.78Z" transform="translate(-0.55)"/><path class="cls-2" d="M354.2,246.15V228.67a70,70,0,0,0-60.59,35l15.15,8.75a52.45,52.45,0,0,1,45.44-26.24Zm0-17.48a8.74,8.74,0,1,0,8.74,8.74A8.74,8.74,0,0,0,354.2,228.67Zm-60.59,35a8.75,8.75,0,1,0,11.95-3.2A8.76,8.76,0,0,0,293.61,263.64Z" transform="translate(-0.55)"/><path class="cls-2" d="M319.22,238a8.74,8.74,0,1,0,11.94,3.2A8.74,8.74,0,0,0,319.22,238Z" transform="translate(-0.55)"/><path class="cls-2" d="M293.61,263.64l15.15,8.75a70,70,0,0,0,0-70l-15.15,8.75A52.47,52.47,0,0,1,293.61,263.64Zm15.15,8.75a8.75,8.75,0,1,0-11.95,3.2A8.76,8.76,0,0,0,308.76,272.39Zm0-70a8.75,8.75,0,1,0-3.2,11.95A8.76,8.76,0,0,0,308.76,202.43Z" transform="translate(-0.55)"/><path class="cls-2" d="M318.13,237.41a8.75,8.75,0,1,0-8.74,8.74A8.74,8.74,0,0,0,318.13,237.41Z" transform="translate(-0.55)"/><path class="cls-2" d="M326.88,237.41a8.75,8.75,0,1,0-8.75,8.74A8.74,8.74,0,0,0,326.88,237.41Z" transform="translate(-0.55)"/><path class="cls-2" d="M174.06,359.83a8.75,8.75,0,1,0,8.74-8.74A8.74,8.74,0,0,0,174.06,359.83Z" transform="translate(-0.55)"/><path class="cls-2" d="M248.17,289.88v17.49a70,70,0,0,0,60.59-35l-15.15-8.75a52.45,52.45,0,0,1-45.44,26.24Zm0,17.49a8.75,8.75,0,1,0-8.74-8.75A8.75,8.75,0,0,0,248.17,307.37Zm60.59-35a8.75,8.75,0,1,0-11.95,3.2A8.76,8.76,0,0,0,308.76,272.39Z" transform="translate(-0.55)"/><path class="cls-2" d="M283.15,298a8.74,8.74,0,1,0-11.94-3.2A8.73,8.73,0,0,0,283.15,298Z" transform="translate(-0.55)"/><path class="cls-2" d="M181.5,126.93a8.75,8.75,0,1,0-11.94-3.2A8.74,8.74,0,0,0,181.5,126.93Z" transform="translate(-0.55)"/><path class="cls-2" d="M248.17,307.37V289.88a70,70,0,0,0-60.58,35l15.15,8.74a52.46,52.46,0,0,1,45.43-26.23Zm0-17.49a8.75,8.75,0,1,0,8.75,8.74A8.74,8.74,0,0,0,248.17,289.88Zm-60.58,35a8.75,8.75,0,1,0,11.95-3.21A8.74,8.74,0,0,0,187.59,324.86Z" transform="translate(-0.55)"/><path class="cls-2" d="M213.2,299.25a8.75,8.75,0,1,0,11.94,3.2A8.73,8.73,0,0,0,213.2,299.25Z" transform="translate(-0.55)"/><path class="cls-2" d="M187.59,324.86l15.15,8.74a70,70,0,0,0,0-70l-15.15,8.75A52.48,52.48,0,0,1,187.59,324.86Zm15.15,8.74a8.75,8.75,0,1,0-12,3.2A8.76,8.76,0,0,0,202.74,333.6Zm0-70a8.75,8.75,0,1,0-3.2,11.95A8.76,8.76,0,0,0,202.74,263.64Z" transform="translate(-0.55)"/><path class="cls-2" d="M212.11,298.62a8.75,8.75,0,1,0-8.75,8.75A8.74,8.74,0,0,0,212.11,298.62Z" transform="translate(-0.55)"/><path class="cls-2" d="M202.74,263.64l-15.15,8.75a70,70,0,0,0,60.58,35V289.88a52.45,52.45,0,0,1-45.43-26.24Zm-15.15,8.75a8.75,8.75,0,1,0,3.2-11.95A8.76,8.76,0,0,0,187.59,272.39Zm60.58,35a8.75,8.75,0,1,0-8.74-8.75A8.75,8.75,0,0,0,248.17,307.37Z" transform="translate(-0.55)"/><path class="cls-2" d="M213.2,298a8.74,8.74,0,1,0-3.2-11.94A8.73,8.73,0,0,0,213.2,298Z" transform="translate(-0.55)"/><path class="cls-2" d="M208.82,305.57a8.75,8.75,0,1,0-3.2-11.95A8.75,8.75,0,0,0,208.82,305.57Z" transform="translate(-0.55)"/><path class="cls-2" d="M202.74,211.18l-15.15-8.75a70,70,0,0,0,0,70l15.15-8.75A52.42,52.42,0,0,1,202.74,211.18Zm-15.15-8.75a8.75,8.75,0,1,0,11.95-3.2A8.76,8.76,0,0,0,187.59,202.43Zm0,70a8.75,8.75,0,1,0,3.2-11.95A8.76,8.76,0,0,0,187.59,272.39Z" transform="translate(-0.55)"/><path class="cls-2" d="M178.22,237.41a8.75,8.75,0,1,0,8.74-8.74A8.74,8.74,0,0,0,178.22,237.41Z" transform="translate(-0.55)"/><path class="cls-2" d="M187.59,202.43l15.15,8.75a70,70,0,0,0,0-70L187.59,150A52.48,52.48,0,0,1,187.59,202.43Zm15.15,8.75a8.75,8.75,0,1,0-12,3.2A8.76,8.76,0,0,0,202.74,211.18Zm0-70a8.75,8.75,0,1,0-3.2,11.95A8.75,8.75,0,0,0,202.74,141.22Z" transform="translate(-0.55)"/><path class="cls-2" d="M212.11,176.2a8.75,8.75,0,1,0-8.75,8.74A8.75,8.75,0,0,0,212.11,176.2Z" transform="translate(-0.55)"/><path class="cls-2" d="M202.74,141.22,187.59,150a70,70,0,0,0,60.58,35V167.45a52.46,52.46,0,0,1-45.43-26.23ZM187.59,150a8.75,8.75,0,1,0,3.2-11.94A8.75,8.75,0,0,0,187.59,150Zm60.58,35a8.75,8.75,0,1,0-8.74-8.74A8.74,8.74,0,0,0,248.17,184.94Z" transform="translate(-0.55)"/><path class="cls-2" d="M213.2,175.57a8.75,8.75,0,1,0-3.2-11.94A8.74,8.74,0,0,0,213.2,175.57Z" transform="translate(-0.55)"/><path class="cls-2" d="M248.17,184.94V167.45a70,70,0,0,0-60.58,35l15.15,8.75a52.45,52.45,0,0,1,45.43-26.24Zm0-17.49a8.75,8.75,0,1,0,8.75,8.75A8.75,8.75,0,0,0,248.17,167.45Zm-60.58,35a8.75,8.75,0,1,0,11.95-3.2A8.76,8.76,0,0,0,187.59,202.43Z" transform="translate(-0.55)"/><path class="cls-2" d="M213.2,176.83a8.74,8.74,0,1,0,11.94,3.2A8.73,8.73,0,0,0,213.2,176.83Z" transform="translate(-0.55)"/><path class="cls-2" d="M208.82,169.25a8.75,8.75,0,1,0,12,3.2A8.76,8.76,0,0,0,208.82,169.25Z" transform="translate(-0.55)"/><path class="cls-3" d="M263.32,228.67l15.15-8.75a35,35,0,0,0-30.3-17.49v17.49a17.47,17.47,0,0,1,15.15,8.75Zm15.15-8.75a8.75,8.75,0,1,0-3.2,12A8.76,8.76,0,0,0,278.47,219.92Zm-30.3-17.49a8.75,8.75,0,1,0,8.75,8.75A8.75,8.75,0,0,0,248.17,202.43Z" transform="translate(-0.55)"/><path class="cls-3" d="M265.66,207.12a8.74,8.74,0,1,0,3.2,11.94A8.74,8.74,0,0,0,265.66,207.12Z" transform="translate(-0.55)"/><path class="cls-3" d="M263.32,246.15l15.15,8.75a35,35,0,0,0,0-35l-15.15,8.75a17.49,17.49,0,0,1,0,17.48Zm15.15,8.75a8.75,8.75,0,1,0-12,3.2A8.76,8.76,0,0,0,278.47,254.9Zm0-35a8.75,8.75,0,1,0-3.2,12A8.76,8.76,0,0,0,278.47,219.92Z" transform="translate(-0.55)"/><path class="cls-3" d="M283.15,237.41a8.75,8.75,0,1,0-8.74,8.74A8.74,8.74,0,0,0,283.15,237.41Z" transform="translate(-0.55)"/><path class="cls-3" d="M248.17,254.9v17.49a35,35,0,0,0,30.3-17.49l-15.15-8.75a17.47,17.47,0,0,1-15.15,8.75Zm0,17.49a8.75,8.75,0,1,0-8.74-8.75A8.75,8.75,0,0,0,248.17,272.39Zm30.3-17.49a8.75,8.75,0,1,0-12,3.2A8.76,8.76,0,0,0,278.47,254.9Z" transform="translate(-0.55)"/><path class="cls-3" d="M265.66,267.7a8.74,8.74,0,1,0-11.94-3.2A8.73,8.73,0,0,0,265.66,267.7Z" transform="translate(-0.55)"/><path class="cls-3" d="M233,246.15l-15.15,8.75a35,35,0,0,0,30.29,17.49V254.9A17.47,17.47,0,0,1,233,246.15Zm-15.15,8.75a8.75,8.75,0,1,0,3.2-12A8.76,8.76,0,0,0,217.88,254.9Zm30.29,17.49a8.75,8.75,0,1,0-8.74-8.75A8.75,8.75,0,0,0,248.17,272.39Z" transform="translate(-0.55)"/><path class="cls-3" d="M230.69,267.7a8.74,8.74,0,1,0-3.2-11.94A8.74,8.74,0,0,0,230.69,267.7Z" transform="translate(-0.55)"/><path class="cls-3" d="M233,228.67l-15.15-8.75a35,35,0,0,0,0,35L233,246.15a17.44,17.44,0,0,1,0-17.48Zm-15.15-8.75a8.75,8.75,0,1,0,12-3.2A8.76,8.76,0,0,0,217.88,219.92Zm0,35a8.75,8.75,0,1,0,3.2-12A8.76,8.76,0,0,0,217.88,254.9Z" transform="translate(-0.55)"/><path class="cls-3" d="M213.2,237.41a8.75,8.75,0,1,0,8.74-8.74A8.74,8.74,0,0,0,213.2,237.41Z" transform="translate(-0.55)"/><path class="cls-3" d="M248.17,219.92V202.43a35,35,0,0,0-30.29,17.49L233,228.67a17.47,17.47,0,0,1,15.14-8.75Zm0-17.49a8.75,8.75,0,1,0,8.75,8.75A8.75,8.75,0,0,0,248.17,202.43Zm-30.29,17.49a8.75,8.75,0,1,0,12-3.2A8.76,8.76,0,0,0,217.88,219.92Z" transform="translate(-0.55)"/><path class="cls-3" d="M230.69,207.12a8.74,8.74,0,1,0,11.94,3.2A8.73,8.73,0,0,0,230.69,207.12Z" transform="translate(-0.55)"/><path class="cls-2" d="M293.61,211.18l15.15-8.75a70,70,0,0,0-60.59-35v17.49a52.45,52.45,0,0,1,45.44,26.24Zm15.15-8.75a8.75,8.75,0,1,0-3.2,11.95A8.76,8.76,0,0,0,308.76,202.43Zm-60.59-35a8.75,8.75,0,1,0,8.75,8.75A8.75,8.75,0,0,0,248.17,167.45Z" transform="translate(-0.55)"/><path class="cls-2" d="M283.15,176.83a8.74,8.74,0,1,0,3.2,11.94A8.73,8.73,0,0,0,283.15,176.83Z" transform="translate(-0.55)"/><path class="cls-2" d="M293.61,263.64l15.15,8.75a70,70,0,0,0,0-70l-15.15,8.75A52.47,52.47,0,0,1,293.61,263.64Zm15.15,8.75a8.75,8.75,0,1,0-11.95,3.2A8.76,8.76,0,0,0,308.76,272.39Zm0-70a8.75,8.75,0,1,0-3.2,11.95A8.76,8.76,0,0,0,308.76,202.43Z" transform="translate(-0.55)"/><path class="cls-2" d="M318.13,237.41a8.75,8.75,0,1,0-8.74,8.74A8.74,8.74,0,0,0,318.13,237.41Z" transform="translate(-0.55)"/><path class="cls-2" d="M248.17,289.88v17.49a70,70,0,0,0,60.59-35l-15.15-8.75a52.45,52.45,0,0,1-45.44,26.24Zm0,17.49a8.75,8.75,0,1,0-8.74-8.75A8.75,8.75,0,0,0,248.17,307.37Zm60.59-35a8.75,8.75,0,1,0-11.95,3.2A8.76,8.76,0,0,0,308.76,272.39Z" transform="translate(-0.55)"/><path class="cls-2" d="M283.15,298a8.74,8.74,0,1,0-11.94-3.2A8.73,8.73,0,0,0,283.15,298Z" transform="translate(-0.55)"/><path class="cls-2" d="M202.74,263.64l-15.15,8.75a70,70,0,0,0,60.58,35V289.88a52.45,52.45,0,0,1-45.43-26.24Zm-15.15,8.75a8.75,8.75,0,1,0,3.2-11.95A8.76,8.76,0,0,0,187.59,272.39Zm60.58,35a8.75,8.75,0,1,0-8.74-8.75A8.75,8.75,0,0,0,248.17,307.37Z" transform="translate(-0.55)"/><path class="cls-2" d="M213.2,298a8.74,8.74,0,1,0-3.2-11.94A8.73,8.73,0,0,0,213.2,298Z" transform="translate(-0.55)"/><path class="cls-2" d="M202.74,211.18l-15.15-8.75a70,70,0,0,0,0,70l15.15-8.75A52.42,52.42,0,0,1,202.74,211.18Zm-15.15-8.75a8.75,8.75,0,1,0,11.95-3.2A8.76,8.76,0,0,0,187.59,202.43Zm0,70a8.75,8.75,0,1,0,3.2-11.95A8.76,8.76,0,0,0,187.59,272.39Z" transform="translate(-0.55)"/><path class="cls-2" d="M178.22,237.41a8.75,8.75,0,1,0,8.74-8.74A8.74,8.74,0,0,0,178.22,237.41Z" transform="translate(-0.55)"/><path class="cls-2" d="M248.17,184.94V167.45a70,70,0,0,0-60.58,35l15.15,8.75a52.45,52.45,0,0,1,45.43-26.24Zm0-17.49a8.75,8.75,0,1,0,8.75,8.75A8.75,8.75,0,0,0,248.17,167.45Zm-60.58,35a8.75,8.75,0,1,0,11.95-3.2A8.76,8.76,0,0,0,187.59,202.43Z" transform="translate(-0.55)"/><path class="cls-2" d="M213.2,176.83a8.74,8.74,0,1,0,11.94,3.2A8.73,8.73,0,0,0,213.2,176.83Z" transform="translate(-0.55)"/></svg>