<svg id="Layer_1" data-name="Layer 1" xmlns="http://www.w3.org/2000/svg" viewBox="0 0 580 436"><defs><style>.cls-1{fill:#520066;}.cls-2{fill:#2ad5b3;}</style></defs><title>thing1</title><rect class="cls-1" width="580" height="436" rx="14.54"/><path class="cls-2" d="M222.55,140.12l10-5.79a46.4,46.4,0,0,0-40.17-23.2v11.6a34.8,34.8,0,0,1,30.13,17.39Zm10-5.79a5.79,5.79,0,1,0-2.12,7.92A5.8,5.8,0,0,0,232.59,134.33Zm-40.17-23.2a5.8,5.8,0,1,0,5.8,5.8A5.8,5.8,0,0,0,192.42,111.13Z"/><path class="cls-2" d="M215.61,117.35a5.8,5.8,0,1,0,2.12,7.92A5.8,5.8,0,0,0,215.61,117.35Z"/><path class="cls-2" d="M192.42,122.73v-11.6a46.4,46.4,0,0,0-40.17,23.2l10,5.79a34.8,34.8,0,0,1,30.13-17.39Zm0-11.6a5.8,5.8,0,1,0,5.8,5.8A5.8,5.8,0,0,0,192.42,111.13Zm-40.17,23.2a5.79,5.79,0,1,0,7.92-2.13A5.8,5.8,0,0,0,152.25,134.33Z"/><path class="cls-2" d="M169.23,117.35a5.8,5.8,0,1,0,7.92,2.12A5.8,5.8,0,0,0,169.23,117.35Z"/><path class="cls-2" d="M122.13,151.72v11.59a46.36,46.36,0,0,0,40.16-23.19l-10-5.79a34.78,34.78,0,0,1-30.12,17.39Zm0,11.59a5.8,5.8,0,1,0-5.8-5.79A5.79,5.79,0,0,0,122.13,163.31Zm40.16-23.19a5.79,5.79,0,1,0-7.92,2.13,5.78,5.78,0,0,0,7.92-2.13Z"/><path class="cls-2" d="M145.32,157.1A5.8,5.8,0,1,0,137.4,155,5.8,5.8,0,0,0,145.32,157.1Z"/><path class="cls-2" d="M122.13,163.31V151.72A46.38,46.38,0,0,0,82,174.91l10,5.8a34.8,34.8,0,0,1,30.13-17.4Zm0-11.59a5.8,5.8,0,1,0,5.79,5.8A5.8,5.8,0,0,0,122.13,151.72ZM82,174.91a5.8,5.8,0,1,0,7.92-2.12A5.8,5.8,0,0,0,82,174.91Z"/><path class="cls-2" d="M98.93,157.93a5.8,5.8,0,1,0,7.92,2.13,5.8,5.8,0,0,0-7.92-2.13Z"/><path class="cls-2" d="M122.13,151.72v11.59a46.36,46.36,0,0,0,40.16-23.19l-10-5.79a34.78,34.78,0,0,1-30.12,17.39Zm0,11.59a5.8,5.8,0,1,0-5.8-5.79A5.79,5.79,0,0,0,122.13,163.31Zm40.16-23.19a5.79,5.79,0,1,0-7.92,2.13,5.78,5.78,0,0,0,7.92-2.13Z"/><path class="cls-2" d="M145.32,157.1A5.8,5.8,0,1,0,137.4,155,5.8,5.8,0,0,0,145.32,157.1Z"/><path class="cls-2" d="M363.14,140.12l10-5.79A46.4,46.4,0,0,0,333,111.13v11.6a34.8,34.8,0,0,1,30.13,17.39Zm10-5.79a5.79,5.79,0,1,0-2.12,7.92A5.8,5.8,0,0,0,373.18,134.33ZM333,111.13a5.8,5.8,0,1,0,5.8,5.8A5.8,5.8,0,0,0,333,111.13Z"/><path class="cls-2" d="M356.2,117.35a5.8,5.8,0,1,0,2.12,7.92A5.8,5.8,0,0,0,356.2,117.35Z"/><path class="cls-2" d="M333,122.73v-11.6a46.4,46.4,0,0,0-40.17,23.2l10,5.79A34.8,34.8,0,0,1,333,122.73Zm0-11.6a5.8,5.8,0,1,0,5.8,5.8A5.8,5.8,0,0,0,333,111.13Zm-40.17,23.2a5.79,5.79,0,1,0,7.92-2.13A5.8,5.8,0,0,0,292.84,134.33Z"/><path class="cls-2" d="M309.82,117.35a5.8,5.8,0,1,0,7.92,2.12A5.8,5.8,0,0,0,309.82,117.35Z"/><path class="cls-2" d="M262.72,151.72v11.59a46.36,46.36,0,0,0,40.16-23.19l-10-5.79a34.78,34.78,0,0,1-30.12,17.39Zm0,11.59a5.8,5.8,0,1,0-5.8-5.79A5.79,5.79,0,0,0,262.72,163.31Zm40.16-23.19a5.79,5.79,0,1,0-7.92,2.13A5.78,5.78,0,0,0,302.88,140.12Z"/><path class="cls-2" d="M285.91,157.1A5.8,5.8,0,1,0,278,155,5.8,5.8,0,0,0,285.91,157.1Z"/><path class="cls-2" d="M232.59,134.33l-10,5.79a46.37,46.37,0,0,0,40.17,23.19V151.72a34.79,34.79,0,0,1-30.13-17.39Zm-10,5.79a5.79,5.79,0,1,0,2.12-7.92A5.79,5.79,0,0,0,222.55,140.12Zm40.17,23.19a5.8,5.8,0,1,0-5.8-5.79A5.79,5.79,0,0,0,262.72,163.31Z"/><path class="cls-2" d="M239.52,157.1a5.8,5.8,0,1,0-2.12-7.92A5.8,5.8,0,0,0,239.52,157.1Z"/><path class="cls-2" d="M262.72,151.72v11.59a46.36,46.36,0,0,0,40.16-23.19l-10-5.79a34.78,34.78,0,0,1-30.12,17.39Zm0,11.59a5.8,5.8,0,1,0-5.8-5.79A5.79,5.79,0,0,0,262.72,163.31Zm40.16-23.19a5.79,5.79,0,1,0-7.92,2.13A5.78,5.78,0,0,0,302.88,140.12Z"/><path class="cls-2" d="M285.91,157.1A5.8,5.8,0,1,0,278,155,5.8,5.8,0,0,0,285.91,157.1Z"/><path class="cls-2" d="M232.59,134.33l-10,5.79a46.37,46.37,0,0,0,40.17,23.19V151.72a34.79,34.79,0,0,1-30.13-17.39Zm-10,5.79a5.79,5.79,0,1,0,2.12-7.92A5.79,5.79,0,0,0,222.55,140.12Zm40.17,23.19a5.8,5.8,0,1,0-5.8-5.79A5.79,5.79,0,0,0,262.72,163.31Z"/><path class="cls-2" d="M239.52,157.1a5.8,5.8,0,1,0-2.12-7.92A5.8,5.8,0,0,0,239.52,157.1Z"/><path class="cls-2" d="M222.55,140.12l10-5.79a46.4,46.4,0,0,0-40.17-23.2v11.6a34.8,34.8,0,0,1,30.13,17.39Zm10-5.79a5.79,5.79,0,1,0-2.12,7.92A5.8,5.8,0,0,0,232.59,134.33Zm-40.17-23.2a5.8,5.8,0,1,0,5.8,5.8A5.8,5.8,0,0,0,192.42,111.13Z"/><path class="cls-2" d="M215.61,117.35a5.8,5.8,0,1,0,2.12,7.92A5.8,5.8,0,0,0,215.61,117.35Z"/><path class="cls-2" d="M192.42,122.73v-11.6a46.4,46.4,0,0,0-40.17,23.2l10,5.79a34.8,34.8,0,0,1,30.13-17.39Zm0-11.6a5.8,5.8,0,1,0,5.8,5.8A5.8,5.8,0,0,0,192.42,111.13Zm-40.17,23.2a5.79,5.79,0,1,0,7.92-2.13A5.8,5.8,0,0,0,152.25,134.33Z"/><path class="cls-2" d="M169.23,117.35a5.8,5.8,0,1,0,7.92,2.12A5.8,5.8,0,0,0,169.23,117.35Z"/><path class="cls-2" d="M222.55,140.12l10-5.79a46.4,46.4,0,0,0-40.17-23.2v11.6a34.8,34.8,0,0,1,30.13,17.39Zm10-5.79a5.79,5.79,0,1,0-2.12,7.92A5.8,5.8,0,0,0,232.59,134.33Zm-40.17-23.2a5.8,5.8,0,1,0,5.8,5.8A5.8,5.8,0,0,0,192.42,111.13Z"/><path class="cls-2" d="M215.61,117.35a5.8,5.8,0,1,0,2.12,7.92A5.8,5.8,0,0,0,215.61,117.35Z"/><path class="cls-2" d="M192.42,122.73v-11.6a46.4,46.4,0,0,0-40.17,23.2l10,5.79a34.8,34.8,0,0,1,30.13-17.39Zm0-11.6a5.8,5.8,0,1,0,5.8,5.8A5.8,5.8,0,0,0,192.42,111.13Zm-40.17,23.2a5.79,5.79,0,1,0,7.92-2.13A5.8,5.8,0,0,0,152.25,134.33Z"/><path class="cls-2" d="M169.23,117.35a5.8,5.8,0,1,0,7.92,2.12A5.8,5.8,0,0,0,169.23,117.35Z"/><path class="cls-2" d="M122.13,151.72v11.59a46.36,46.36,0,0,0,40.16-23.19l-10-5.79a34.78,34.78,0,0,1-30.12,17.39Zm0,11.59a5.8,5.8,0,1,0-5.8-5.79A5.79,5.79,0,0,0,122.13,163.31Zm40.16-23.19a5.79,5.79,0,1,0-7.92,2.13,5.78,5.78,0,0,0,7.92-2.13Z"/><path class="cls-2" d="M145.32,157.1A5.8,5.8,0,1,0,137.4,155,5.8,5.8,0,0,0,145.32,157.1Z"/><path class="cls-2" d="M82,256.08l10,5.8a46.36,46.36,0,0,0,0-46.38l-10,5.79a34.81,34.81,0,0,1,0,34.79Zm10,5.8A5.8,5.8,0,1,0,84.08,264,5.8,5.8,0,0,0,92,261.88Zm0-46.38a5.79,5.79,0,1,0-2.12,7.92A5.8,5.8,0,0,0,92,215.5Z"/><path class="cls-2" d="M98.21,238.69a5.8,5.8,0,1,0-5.79,5.79A5.79,5.79,0,0,0,98.21,238.69Z"/><path class="cls-2" d="M122.13,163.31V151.72A46.38,46.38,0,0,0,82,174.91l10,5.8a34.8,34.8,0,0,1,30.13-17.4Zm0-11.59a5.8,5.8,0,1,0,5.79,5.8A5.8,5.8,0,0,0,122.13,151.72ZM82,174.91a5.8,5.8,0,1,0,7.92-2.12A5.8,5.8,0,0,0,82,174.91Z"/><path class="cls-2" d="M98.93,157.93a5.8,5.8,0,1,0,7.92,2.13,5.8,5.8,0,0,0-7.92-2.13Z"/><path class="cls-2" d="M92,180.71l-10-5.8a46.36,46.36,0,0,0,0,46.38l10-5.79a34.81,34.81,0,0,1,0-34.79Zm-10-5.8a5.8,5.8,0,1,0,7.92-2.12A5.8,5.8,0,0,0,82,174.91Zm0,46.38a5.79,5.79,0,1,0,2.12-7.92A5.79,5.79,0,0,0,82,221.29Z"/><path class="cls-2" d="M75.74,198.1a5.8,5.8,0,1,0,5.8-5.8A5.8,5.8,0,0,0,75.74,198.1Z"/><path class="cls-2" d="M122.13,163.31V151.72A46.38,46.38,0,0,0,82,174.91l10,5.8a34.8,34.8,0,0,1,30.13-17.4Zm0-11.59a5.8,5.8,0,1,0,5.79,5.8A5.8,5.8,0,0,0,122.13,151.72ZM82,174.91a5.8,5.8,0,1,0,7.92-2.12A5.8,5.8,0,0,0,82,174.91Z"/><path class="cls-2" d="M98.93,157.93a5.8,5.8,0,1,0,7.92,2.13,5.8,5.8,0,0,0-7.92-2.13Z"/><path class="cls-2" d="M503.73,140.12l10-5.79a46.4,46.4,0,0,0-40.17-23.2v11.6a34.8,34.8,0,0,1,30.13,17.39Zm10-5.79a5.79,5.79,0,1,0-2.12,7.92A5.8,5.8,0,0,0,513.77,134.33Zm-40.17-23.2a5.8,5.8,0,1,0,5.8,5.8A5.8,5.8,0,0,0,473.6,111.13Z"/><path class="cls-2" d="M496.79,117.35a5.8,5.8,0,1,0,2.12,7.92A5.8,5.8,0,0,0,496.79,117.35Z"/><path class="cls-2" d="M473.6,122.73v-11.6a46.4,46.4,0,0,0-40.17,23.2l10,5.79a34.8,34.8,0,0,1,30.13-17.39Zm0-11.6a5.8,5.8,0,1,0,5.8,5.8A5.8,5.8,0,0,0,473.6,111.13Zm-40.17,23.2a5.79,5.79,0,1,0,7.92-2.13A5.8,5.8,0,0,0,433.43,134.33Z"/><path class="cls-2" d="M450.41,117.35a5.8,5.8,0,1,0,7.92,2.12A5.8,5.8,0,0,0,450.41,117.35Z"/><path class="cls-2" d="M403.31,151.72v11.59a46.36,46.36,0,0,0,40.16-23.19l-10-5.79a34.78,34.78,0,0,1-30.12,17.39Zm0,11.59a5.8,5.8,0,1,0-5.8-5.79A5.79,5.79,0,0,0,403.31,163.31Zm40.16-23.19a5.79,5.79,0,1,0-7.92,2.13A5.8,5.8,0,0,0,443.47,140.12Z"/><path class="cls-2" d="M426.5,157.1a5.8,5.8,0,1,0-7.92-2.12A5.8,5.8,0,0,0,426.5,157.1Z"/><path class="cls-2" d="M373.18,134.33l-10,5.79a46.37,46.37,0,0,0,40.17,23.19V151.72a34.79,34.79,0,0,1-30.13-17.39Zm-10,5.79a5.79,5.79,0,1,0,2.12-7.92A5.79,5.79,0,0,0,363.14,140.12Zm40.17,23.19a5.8,5.8,0,1,0-5.8-5.79A5.79,5.79,0,0,0,403.31,163.31Z"/><path class="cls-2" d="M380.11,157.1a5.8,5.8,0,1,0-2.12-7.92A5.8,5.8,0,0,0,380.11,157.1Z"/><path class="cls-2" d="M403.31,151.72v11.59a46.36,46.36,0,0,0,40.16-23.19l-10-5.79a34.78,34.78,0,0,1-30.12,17.39Zm0,11.59a5.8,5.8,0,1,0-5.8-5.79A5.79,5.79,0,0,0,403.31,163.31Zm40.16-23.19a5.79,5.79,0,1,0-7.92,2.13A5.8,5.8,0,0,0,443.47,140.12Z"/><path class="cls-2" d="M426.5,157.1a5.8,5.8,0,1,0-7.92-2.12A5.8,5.8,0,0,0,426.5,157.1Z"/><path class="cls-2" d="M373.18,134.33l-10,5.79a46.37,46.37,0,0,0,40.17,23.19V151.72a34.79,34.79,0,0,1-30.13-17.39Zm-10,5.79a5.79,5.79,0,1,0,2.12-7.92A5.79,5.79,0,0,0,363.14,140.12Zm40.17,23.19a5.8,5.8,0,1,0-5.8-5.79A5.79,5.79,0,0,0,403.31,163.31Z"/><path class="cls-2" d="M380.11,157.1a5.8,5.8,0,1,0-2.12-7.92A5.8,5.8,0,0,0,380.11,157.1Z"/><path class="cls-2" d="M363.14,140.12l10-5.79A46.4,46.4,0,0,0,333,111.13v11.6a34.8,34.8,0,0,1,30.13,17.39Zm10-5.79a5.79,5.79,0,1,0-2.12,7.92A5.8,5.8,0,0,0,373.18,134.33ZM333,111.13a5.8,5.8,0,1,0,5.8,5.8A5.8,5.8,0,0,0,333,111.13Z"/><path class="cls-2" d="M356.2,117.35a5.8,5.8,0,1,0,2.12,7.92A5.8,5.8,0,0,0,356.2,117.35Z"/><path class="cls-2" d="M363.14,221.29l10-5.79A46.38,46.38,0,0,0,333,192.3v11.6a34.8,34.8,0,0,1,30.13,17.39Zm10-5.79a5.79,5.79,0,1,0-2.12,7.92A5.8,5.8,0,0,0,373.18,215.5ZM333,192.3a5.8,5.8,0,1,0,5.8,5.8A5.8,5.8,0,0,0,333,192.3Z"/><path class="cls-2" d="M356.2,198.52a5.8,5.8,0,1,0,2.12,7.92A5.8,5.8,0,0,0,356.2,198.52Z"/><path class="cls-2" d="M333,203.9V192.3a46.38,46.38,0,0,0-40.17,23.2l10,5.79A34.8,34.8,0,0,1,333,203.9Zm0-11.6a5.8,5.8,0,1,0,5.8,5.8A5.8,5.8,0,0,0,333,192.3Zm-40.17,23.2a5.79,5.79,0,1,0,7.92-2.13A5.8,5.8,0,0,0,292.84,215.5Z"/><path class="cls-2" d="M309.82,198.52a5.8,5.8,0,1,0,7.92,2.12A5.8,5.8,0,0,0,309.82,198.52Z"/><path class="cls-2" d="M333,122.73v-11.6a46.4,46.4,0,0,0-40.17,23.2l10,5.79A34.8,34.8,0,0,1,333,122.73Zm0-11.6a5.8,5.8,0,1,0,5.8,5.8A5.8,5.8,0,0,0,333,111.13Zm-40.17,23.2a5.79,5.79,0,1,0,7.92-2.13A5.8,5.8,0,0,0,292.84,134.33Z"/><path class="cls-2" d="M309.82,117.35a5.8,5.8,0,1,0,7.92,2.12A5.8,5.8,0,0,0,309.82,117.35Z"/><path class="cls-2" d="M363.14,140.12l10-5.79A46.4,46.4,0,0,0,333,111.13v11.6a34.8,34.8,0,0,1,30.13,17.39Zm10-5.79a5.79,5.79,0,1,0-2.12,7.92A5.8,5.8,0,0,0,373.18,134.33ZM333,111.13a5.8,5.8,0,1,0,5.8,5.8A5.8,5.8,0,0,0,333,111.13Z"/><path class="cls-2" d="M356.2,117.35a5.8,5.8,0,1,0,2.12,7.92A5.8,5.8,0,0,0,356.2,117.35Z"/><path class="cls-2" d="M333,122.73v-11.6a46.4,46.4,0,0,0-40.17,23.2l10,5.79A34.8,34.8,0,0,1,333,122.73Zm0-11.6a5.8,5.8,0,1,0,5.8,5.8A5.8,5.8,0,0,0,333,111.13Zm-40.17,23.2a5.79,5.79,0,1,0,7.92-2.13A5.8,5.8,0,0,0,292.84,134.33Z"/><path class="cls-2" d="M309.82,117.35a5.8,5.8,0,1,0,7.92,2.12A5.8,5.8,0,0,0,309.82,117.35Z"/><path class="cls-2" d="M262.72,151.72v11.59a46.36,46.36,0,0,0,40.16-23.19l-10-5.79a34.78,34.78,0,0,1-30.12,17.39Zm0,11.59a5.8,5.8,0,1,0-5.8-5.79A5.79,5.79,0,0,0,262.72,163.31Zm40.16-23.19a5.79,5.79,0,1,0-7.92,2.13A5.78,5.78,0,0,0,302.88,140.12Z"/><path class="cls-2" d="M285.91,157.1A5.8,5.8,0,1,0,278,155,5.8,5.8,0,0,0,285.91,157.1Z"/><path class="cls-2" d="M302.88,221.29l-10-5.79a46.4,46.4,0,0,0,0,46.38l10-5.8a34.81,34.81,0,0,1,0-34.79Zm-10-5.79a5.79,5.79,0,1,0,7.92-2.13A5.8,5.8,0,0,0,292.84,215.5Zm0,46.38A5.8,5.8,0,1,0,295,254,5.8,5.8,0,0,0,292.84,261.88Z"/><path class="cls-2" d="M286.63,238.69a5.8,5.8,0,1,0,5.8-5.8A5.79,5.79,0,0,0,286.63,238.69Z"/><path class="cls-2" d="M292.84,261.88l10-5.8a46.36,46.36,0,0,0-40.16-23.19v11.59a34.77,34.77,0,0,1,30.12,17.4Zm10-5.8a5.8,5.8,0,1,0-2.12,7.92A5.8,5.8,0,0,0,302.88,256.08Zm-40.16-23.19a5.8,5.8,0,1,0,5.79,5.8A5.79,5.79,0,0,0,262.72,232.89Z"/><path class="cls-2" d="M285.91,239.1A5.8,5.8,0,1,0,288,247,5.8,5.8,0,0,0,285.91,239.1Z"/><path class="cls-2" d="M262.72,232.89v11.59a46.36,46.36,0,0,0,40.16-23.19l-10-5.79a34.78,34.78,0,0,1-30.12,17.39Zm0,11.59a5.8,5.8,0,1,0-5.8-5.79A5.79,5.79,0,0,0,262.72,244.48Zm40.16-23.19a5.79,5.79,0,1,0-7.92,2.13A5.78,5.78,0,0,0,302.88,221.29Z"/><path class="cls-2" d="M285.91,238.27a5.8,5.8,0,1,0-7.92-2.12A5.8,5.8,0,0,0,285.91,238.27Z"/><path class="cls-2" d="M288.81,243.29a5.8,5.8,0,1,0-7.92-2.12A5.8,5.8,0,0,0,288.81,243.29Z"/><path class="cls-2" d="M262.72,244.48V232.89a46.37,46.37,0,0,0-40.17,23.19l10,5.8a34.78,34.78,0,0,1,30.13-17.4Zm0-11.59a5.8,5.8,0,1,0,5.79,5.8A5.79,5.79,0,0,0,262.72,232.89Zm-40.17,23.19a5.8,5.8,0,1,0,7.92-2.12A5.8,5.8,0,0,0,222.55,256.08Z"/><path class="cls-2" d="M239.52,239.1a5.8,5.8,0,1,0,7.92,2.12A5.8,5.8,0,0,0,239.52,239.1Z"/><path class="cls-2" d="M232.59,134.33l-10,5.79a46.37,46.37,0,0,0,40.17,23.19V151.72a34.79,34.79,0,0,1-30.13-17.39Zm-10,5.79a5.79,5.79,0,1,0,2.12-7.92A5.79,5.79,0,0,0,222.55,140.12Zm40.17,23.19a5.8,5.8,0,1,0-5.8-5.79A5.79,5.79,0,0,0,262.72,163.31Z"/><path class="cls-2" d="M239.52,157.1a5.8,5.8,0,1,0-2.12-7.92A5.8,5.8,0,0,0,239.52,157.1Z"/><path class="cls-2" d="M262.72,232.89v11.59a46.36,46.36,0,0,0,40.16-23.19l-10-5.79a34.78,34.78,0,0,1-30.12,17.39Zm0,11.59a5.8,5.8,0,1,0-5.8-5.79A5.79,5.79,0,0,0,262.72,244.48Zm40.16-23.19a5.79,5.79,0,1,0-7.92,2.13A5.78,5.78,0,0,0,302.88,221.29Z"/><path class="cls-2" d="M285.91,238.27a5.8,5.8,0,1,0-7.92-2.12A5.8,5.8,0,0,0,285.91,238.27Z"/><path class="cls-2" d="M232.59,261.88l-10-5.8a46.36,46.36,0,0,0,0,46.38l10-5.8a34.79,34.79,0,0,1,0-34.78Zm-10-5.8a5.8,5.8,0,1,0,7.92-2.12A5.8,5.8,0,0,0,222.55,256.08Zm0,46.38a5.8,5.8,0,1,0,2.12-7.92A5.78,5.78,0,0,0,222.55,302.46Z"/><path class="cls-2" d="M216.33,279.27a5.8,5.8,0,1,0,5.8-5.8A5.8,5.8,0,0,0,216.33,279.27Z"/><path class="cls-2" d="M222.55,302.46l10-5.8a46.39,46.39,0,0,0-40.17-23.19v11.6a34.8,34.8,0,0,1,30.13,17.39Zm10-5.8a5.8,5.8,0,1,0-2.12,7.92A5.8,5.8,0,0,0,232.59,296.66Zm-40.17-23.19a5.8,5.8,0,1,0,5.8,5.8A5.8,5.8,0,0,0,192.42,273.47Z"/><path class="cls-2" d="M215.61,279.69a5.8,5.8,0,1,0,2.12,7.92A5.8,5.8,0,0,0,215.61,279.69Z"/><path class="cls-2" d="M192.42,273.47v11.6a46.39,46.39,0,0,0,40.17-23.19l-10-5.8A34.8,34.8,0,0,1,192.42,273.47Zm0,11.6a5.8,5.8,0,1,0-5.8-5.8A5.8,5.8,0,0,0,192.42,285.07Zm40.17-23.19a5.8,5.8,0,1,0-7.92,2.12A5.8,5.8,0,0,0,232.59,261.88Z"/><path class="cls-2" d="M215.61,278.86a5.8,5.8,0,1,0-7.92-2.13A5.79,5.79,0,0,0,215.61,278.86Z"/><path class="cls-2" d="M218.51,283.88a5.8,5.8,0,1,0-7.92-2.13A5.8,5.8,0,0,0,218.51,283.88Z"/><path class="cls-2" d="M192.42,285.07v-11.6a46.39,46.39,0,0,0-40.17,23.19l10,5.8a34.8,34.8,0,0,1,30.13-17.39Zm0-11.6a5.8,5.8,0,1,0,5.8,5.8A5.8,5.8,0,0,0,192.42,273.47Zm-40.17,23.19a5.8,5.8,0,1,0,7.92-2.12A5.8,5.8,0,0,0,152.25,296.66Z"/><path class="cls-2" d="M169.23,279.69a5.8,5.8,0,1,0,7.92,2.12A5.8,5.8,0,0,0,169.23,279.69Z"/><path class="cls-2" d="M192.42,273.47v11.6a46.39,46.39,0,0,0,40.17-23.19l-10-5.8A34.8,34.8,0,0,1,192.42,273.47Zm0,11.6a5.8,5.8,0,1,0-5.8-5.8A5.8,5.8,0,0,0,192.42,285.07Zm40.17-23.19a5.8,5.8,0,1,0-7.92,2.12A5.8,5.8,0,0,0,232.59,261.88Z"/><path class="cls-2" d="M215.61,278.86a5.8,5.8,0,1,0-7.92-2.13A5.79,5.79,0,0,0,215.61,278.86Z"/><path class="cls-2" d="M122.13,314.06v11.59a46.36,46.36,0,0,0,40.16-23.19l-10-5.8a34.77,34.77,0,0,1-30.12,17.4Zm0,11.59a5.8,5.8,0,1,0-5.8-5.79A5.79,5.79,0,0,0,122.13,325.65Zm40.16-23.19a5.8,5.8,0,1,0-7.92,2.12,5.78,5.78,0,0,0,7.92-2.12Z"/><path class="cls-2" d="M145.32,319.44a5.8,5.8,0,1,0-7.92-2.12A5.8,5.8,0,0,0,145.32,319.44Z"/><path class="cls-2" d="M92,296.66l-10,5.8a46.38,46.38,0,0,0,40.17,23.19V314.06A34.78,34.78,0,0,1,92,296.66Zm-10,5.8a5.8,5.8,0,1,0,2.12-7.92A5.78,5.78,0,0,0,82,302.46Zm40.17,23.19a5.8,5.8,0,1,0-5.8-5.79A5.79,5.79,0,0,0,122.13,325.65Z"/><path class="cls-2" d="M98.93,319.44a5.8,5.8,0,1,0-2.12-7.92,5.8,5.8,0,0,0,2.12,7.92Z"/><path class="cls-2" d="M82,256.08l10,5.8a46.36,46.36,0,0,0,0-46.38l-10,5.79a34.81,34.81,0,0,1,0,34.79Zm10,5.8A5.8,5.8,0,1,0,84.08,264,5.8,5.8,0,0,0,92,261.88Zm0-46.38a5.79,5.79,0,1,0-2.12,7.92A5.8,5.8,0,0,0,92,215.5Z"/><path class="cls-2" d="M98.21,238.69a5.8,5.8,0,1,0-5.79,5.79A5.79,5.79,0,0,0,98.21,238.69Z"/><path class="cls-2" d="M122.13,314.06v11.59a46.36,46.36,0,0,0,40.16-23.19l-10-5.8a34.77,34.77,0,0,1-30.12,17.4Zm0,11.59a5.8,5.8,0,1,0-5.8-5.79A5.79,5.79,0,0,0,122.13,325.65Zm40.16-23.19a5.8,5.8,0,1,0-7.92,2.12,5.78,5.78,0,0,0,7.92-2.12Z"/><path class="cls-2" d="M145.32,319.44a5.8,5.8,0,1,0-7.92-2.12A5.8,5.8,0,0,0,145.32,319.44Z"/><path class="cls-2" d="M92,296.66l-10,5.8a46.38,46.38,0,0,0,40.17,23.19V314.06A34.78,34.78,0,0,1,92,296.66Zm-10,5.8a5.8,5.8,0,1,0,2.12-7.92A5.78,5.78,0,0,0,82,302.46Zm40.17,23.19a5.8,5.8,0,1,0-5.8-5.79A5.79,5.79,0,0,0,122.13,325.65Z"/><path class="cls-2" d="M98.93,319.44a5.8,5.8,0,1,0-2.12-7.92,5.8,5.8,0,0,0,2.12,7.92Z"/><path class="cls-2" d="M92,261.88l-10-5.8a46.36,46.36,0,0,0,0,46.38l10-5.8a34.79,34.79,0,0,1,0-34.78Zm-10-5.8A5.8,5.8,0,1,0,89.88,254,5.8,5.8,0,0,0,82,256.08Zm0,46.38a5.8,5.8,0,1,0,2.12-7.92A5.78,5.78,0,0,0,82,302.46Z"/><path class="cls-2" d="M75.74,279.27a5.8,5.8,0,1,0,5.8-5.8A5.8,5.8,0,0,0,75.74,279.27Z"/><path class="cls-2" d="M503.73,174.91l10,5.8a46.4,46.4,0,0,0,0-46.38l-10,5.79a34.81,34.81,0,0,1,0,34.79Zm10,5.8a5.8,5.8,0,1,0-7.92,2.12A5.8,5.8,0,0,0,513.77,180.71Zm0-46.38a5.79,5.79,0,1,0-2.12,7.92A5.8,5.8,0,0,0,513.77,134.33Z"/><path class="cls-2" d="M520,157.52a5.8,5.8,0,1,0-5.8,5.79A5.79,5.79,0,0,0,520,157.52Z"/><path class="cls-2" d="M503.73,140.12l10-5.79a46.4,46.4,0,0,0-40.17-23.2v11.6a34.8,34.8,0,0,1,30.13,17.39Zm10-5.79a5.79,5.79,0,1,0-2.12,7.92A5.8,5.8,0,0,0,513.77,134.33Zm-40.17-23.2a5.8,5.8,0,1,0,5.8,5.8A5.8,5.8,0,0,0,473.6,111.13Z"/><path class="cls-2" d="M496.79,117.35a5.8,5.8,0,1,0,2.12,7.92A5.8,5.8,0,0,0,496.79,117.35Z"/><path class="cls-2" d="M473.6,203.9V192.3a46.38,46.38,0,0,0-40.17,23.2l10,5.79A34.8,34.8,0,0,1,473.6,203.9Zm0-11.6a5.8,5.8,0,1,0,5.8,5.8A5.8,5.8,0,0,0,473.6,192.3Zm-40.17,23.2a5.79,5.79,0,1,0,7.92-2.13A5.8,5.8,0,0,0,433.43,215.5Z"/><path class="cls-2" d="M450.41,198.52a5.8,5.8,0,1,0,7.92,2.12A5.8,5.8,0,0,0,450.41,198.52Z"/><path class="cls-2" d="M473.6,122.73v-11.6a46.4,46.4,0,0,0-40.17,23.2l10,5.79a34.8,34.8,0,0,1,30.13-17.39Zm0-11.6a5.8,5.8,0,1,0,5.8,5.8A5.8,5.8,0,0,0,473.6,111.13Zm-40.17,23.2a5.79,5.79,0,1,0,7.92-2.13A5.8,5.8,0,0,0,433.43,134.33Z"/><path class="cls-2" d="M450.41,117.35a5.8,5.8,0,1,0,7.92,2.12A5.8,5.8,0,0,0,450.41,117.35Z"/><path class="cls-2" d="M503.73,140.12l10-5.79a46.4,46.4,0,0,0-40.17-23.2v11.6a34.8,34.8,0,0,1,30.13,17.39Zm10-5.79a5.79,5.79,0,1,0-2.12,7.92A5.8,5.8,0,0,0,513.77,134.33Zm-40.17-23.2a5.8,5.8,0,1,0,5.8,5.8A5.8,5.8,0,0,0,473.6,111.13Z"/><path class="cls-2" d="M496.79,117.35a5.8,5.8,0,1,0,2.12,7.92A5.8,5.8,0,0,0,496.79,117.35Z"/><path class="cls-2" d="M503.73,174.91l10,5.8a46.4,46.4,0,0,0,0-46.38l-10,5.79a34.81,34.81,0,0,1,0,34.79Zm10,5.8a5.8,5.8,0,1,0-7.92,2.12A5.8,5.8,0,0,0,513.77,180.71Zm0-46.38a5.79,5.79,0,1,0-2.12,7.92A5.8,5.8,0,0,0,513.77,134.33Z"/><path class="cls-2" d="M520,157.52a5.8,5.8,0,1,0-5.8,5.79A5.79,5.79,0,0,0,520,157.52Z"/><path class="cls-2" d="M473.6,122.73v-11.6a46.4,46.4,0,0,0-40.17,23.2l10,5.79a34.8,34.8,0,0,1,30.13-17.39Zm0-11.6a5.8,5.8,0,1,0,5.8,5.8A5.8,5.8,0,0,0,473.6,111.13Zm-40.17,23.2a5.79,5.79,0,1,0,7.92-2.13A5.8,5.8,0,0,0,433.43,134.33Z"/><path class="cls-2" d="M450.41,117.35a5.8,5.8,0,1,0,7.92,2.12A5.8,5.8,0,0,0,450.41,117.35Z"/><path class="cls-2" d="M403.31,151.72v11.59a46.36,46.36,0,0,0,40.16-23.19l-10-5.79a34.78,34.78,0,0,1-30.12,17.39Zm0,11.59a5.8,5.8,0,1,0-5.8-5.79A5.79,5.79,0,0,0,403.31,163.31Zm40.16-23.19a5.79,5.79,0,1,0-7.92,2.13A5.8,5.8,0,0,0,443.47,140.12Z"/><path class="cls-2" d="M426.5,157.1a5.8,5.8,0,1,0-7.92-2.12A5.8,5.8,0,0,0,426.5,157.1Z"/><path class="cls-2" d="M403.31,232.89v11.59a46.36,46.36,0,0,0,40.16-23.19l-10-5.79a34.78,34.78,0,0,1-30.12,17.39Zm0,11.59a5.8,5.8,0,1,0-5.8-5.79A5.79,5.79,0,0,0,403.31,244.48Zm40.16-23.19a5.79,5.79,0,1,0-7.92,2.13A5.8,5.8,0,0,0,443.47,221.29Z"/><path class="cls-2" d="M426.5,238.27a5.8,5.8,0,1,0-7.92-2.12A5.8,5.8,0,0,0,426.5,238.27Z"/><path class="cls-2" d="M403.31,244.48V232.89a46.37,46.37,0,0,0-40.17,23.19l10,5.8a34.78,34.78,0,0,1,30.13-17.4Zm0-11.59a5.8,5.8,0,1,0,5.79,5.8A5.79,5.79,0,0,0,403.31,232.89Zm-40.17,23.19a5.8,5.8,0,1,0,7.92-2.12A5.8,5.8,0,0,0,363.14,256.08Z"/><path class="cls-2" d="M380.11,239.1a5.8,5.8,0,1,0,7.92,2.12A5.8,5.8,0,0,0,380.11,239.1Z"/><path class="cls-2" d="M363.14,256.08l10,5.8a46.4,46.4,0,0,0,0-46.38l-10,5.79a34.81,34.81,0,0,1,0,34.79Zm10,5.8a5.8,5.8,0,1,0-7.92,2.12A5.8,5.8,0,0,0,373.18,261.88Zm0-46.38a5.79,5.79,0,1,0-2.12,7.92A5.8,5.8,0,0,0,373.18,215.5Z"/><path class="cls-2" d="M379.39,238.69a5.8,5.8,0,1,0-5.79,5.79A5.79,5.79,0,0,0,379.39,238.69Z"/><path class="cls-2" d="M373.18,215.5l-10,5.79a46.37,46.37,0,0,0,40.17,23.19V232.89a34.79,34.79,0,0,1-30.13-17.39Zm-10,5.79a5.79,5.79,0,1,0,2.12-7.92A5.79,5.79,0,0,0,363.14,221.29Zm40.17,23.19a5.8,5.8,0,1,0-5.8-5.79A5.79,5.79,0,0,0,403.31,244.48Z"/><path class="cls-2" d="M380.11,238.27a5.8,5.8,0,1,0-2.12-7.92A5.8,5.8,0,0,0,380.11,238.27Z"/><path class="cls-2" d="M377.22,243.29a5.79,5.79,0,1,0-2.13-7.92A5.8,5.8,0,0,0,377.22,243.29Z"/><path class="cls-2" d="M373.18,134.33l-10,5.79a46.37,46.37,0,0,0,40.17,23.19V151.72a34.79,34.79,0,0,1-30.13-17.39Zm-10,5.79a5.79,5.79,0,1,0,2.12-7.92A5.79,5.79,0,0,0,363.14,140.12Zm40.17,23.19a5.8,5.8,0,1,0-5.8-5.79A5.79,5.79,0,0,0,403.31,163.31Z"/><path class="cls-2" d="M380.11,157.1a5.8,5.8,0,1,0-2.12-7.92A5.8,5.8,0,0,0,380.11,157.1Z"/><path class="cls-2" d="M403.31,232.89v11.59a46.36,46.36,0,0,0,40.16-23.19l-10-5.79a34.78,34.78,0,0,1-30.12,17.39Zm0,11.59a5.8,5.8,0,1,0-5.8-5.79A5.79,5.79,0,0,0,403.31,244.48Zm40.16-23.19a5.79,5.79,0,1,0-7.92,2.13A5.8,5.8,0,0,0,443.47,221.29Z"/><path class="cls-2" d="M426.5,238.27a5.8,5.8,0,1,0-7.92-2.12A5.8,5.8,0,0,0,426.5,238.27Z"/><path class="cls-2" d="M373.18,215.5l-10,5.79a46.37,46.37,0,0,0,40.17,23.19V232.89a34.79,34.79,0,0,1-30.13-17.39Zm-10,5.79a5.79,5.79,0,1,0,2.12-7.92A5.79,5.79,0,0,0,363.14,221.29Zm40.17,23.19a5.8,5.8,0,1,0-5.8-5.79A5.79,5.79,0,0,0,403.31,244.48Z"/><path class="cls-2" d="M380.11,238.27a5.8,5.8,0,1,0-2.12-7.92A5.8,5.8,0,0,0,380.11,238.27Z"/><path class="cls-2" d="M363.14,221.29l10-5.79A46.38,46.38,0,0,0,333,192.3v11.6a34.8,34.8,0,0,1,30.13,17.39Zm10-5.79a5.79,5.79,0,1,0-2.12,7.92A5.8,5.8,0,0,0,373.18,215.5ZM333,192.3a5.8,5.8,0,1,0,5.8,5.8A5.8,5.8,0,0,0,333,192.3Z"/><path class="cls-2" d="M356.2,198.52a5.8,5.8,0,1,0,2.12,7.92A5.8,5.8,0,0,0,356.2,198.52Z"/><path class="cls-2" d="M373.18,261.88l-10-5.8a46.36,46.36,0,0,0,0,46.38l10-5.8a34.75,34.75,0,0,1,0-34.78Zm-10-5.8a5.8,5.8,0,1,0,7.92-2.12A5.8,5.8,0,0,0,363.14,256.08Zm0,46.38a5.8,5.8,0,1,0,2.12-7.92A5.78,5.78,0,0,0,363.14,302.46Z"/><path class="cls-2" d="M356.92,279.27a5.8,5.8,0,1,0,5.8-5.8A5.8,5.8,0,0,0,356.92,279.27Z"/><path class="cls-2" d="M363.14,302.46l10-5.8A46.39,46.39,0,0,0,333,273.47v11.6a34.8,34.8,0,0,1,30.13,17.39Zm10-5.8a5.8,5.8,0,1,0-2.12,7.92A5.8,5.8,0,0,0,373.18,296.66ZM333,273.47a5.8,5.8,0,1,0,5.8,5.8A5.8,5.8,0,0,0,333,273.47Z"/><path class="cls-2" d="M356.2,279.69a5.8,5.8,0,1,0,2.12,7.92A5.8,5.8,0,0,0,356.2,279.69Z"/><path class="cls-2" d="M333,273.47v11.6a46.39,46.39,0,0,0,40.17-23.19l-10-5.8A34.8,34.8,0,0,1,333,273.47Zm0,11.6a5.8,5.8,0,1,0-5.8-5.8A5.8,5.8,0,0,0,333,285.07Zm40.17-23.19a5.8,5.8,0,1,0-7.92,2.12A5.8,5.8,0,0,0,373.18,261.88Z"/><path class="cls-2" d="M356.2,278.86a5.8,5.8,0,1,0-7.92-2.13A5.79,5.79,0,0,0,356.2,278.86Z"/><path class="cls-2" d="M359.1,283.88a5.8,5.8,0,1,0-7.92-2.13A5.8,5.8,0,0,0,359.1,283.88Z"/><path class="cls-2" d="M333,285.07v-11.6a46.39,46.39,0,0,0-40.17,23.19l10,5.8A34.8,34.8,0,0,1,333,285.07Zm0-11.6a5.8,5.8,0,1,0,5.8,5.8A5.8,5.8,0,0,0,333,273.47Zm-40.17,23.19a5.8,5.8,0,1,0,7.92-2.12A5.8,5.8,0,0,0,292.84,296.66Z"/><path class="cls-2" d="M309.82,279.69a5.8,5.8,0,1,0,7.92,2.12A5.8,5.8,0,0,0,309.82,279.69Z"/><path class="cls-2" d="M292.84,296.66l10,5.8a46.36,46.36,0,0,0,0-46.38l-10,5.8A34.75,34.75,0,0,1,292.84,296.66Zm10,5.8a5.8,5.8,0,1,0-7.92,2.12A5.78,5.78,0,0,0,302.88,302.46Zm0-46.38a5.8,5.8,0,1,0-2.12,7.92A5.8,5.8,0,0,0,302.88,256.08Z"/><path class="cls-2" d="M309.1,279.27a5.8,5.8,0,1,0-5.8,5.8A5.8,5.8,0,0,0,309.1,279.27Z"/><path class="cls-2" d="M302.88,256.08l-10,5.8A46.39,46.39,0,0,0,333,285.07v-11.6a34.8,34.8,0,0,1-30.13-17.39Zm-10,5.8A5.8,5.8,0,1,0,295,254,5.8,5.8,0,0,0,292.84,261.88ZM333,285.07a5.8,5.8,0,1,0-5.8-5.8A5.8,5.8,0,0,0,333,285.07Z"/><path class="cls-2" d="M309.82,278.86a5.8,5.8,0,1,0-2.12-7.92A5.8,5.8,0,0,0,309.82,278.86Z"/><path class="cls-2" d="M306.92,283.88A5.8,5.8,0,1,0,304.8,276,5.8,5.8,0,0,0,306.92,283.88Z"/><path class="cls-2" d="M333,203.9V192.3a46.38,46.38,0,0,0-40.17,23.2l10,5.79A34.8,34.8,0,0,1,333,203.9Zm0-11.6a5.8,5.8,0,1,0,5.8,5.8A5.8,5.8,0,0,0,333,192.3Zm-40.17,23.2a5.79,5.79,0,1,0,7.92-2.13A5.8,5.8,0,0,0,292.84,215.5Z"/><path class="cls-2" d="M309.82,198.52a5.8,5.8,0,1,0,7.92,2.12A5.8,5.8,0,0,0,309.82,198.52Z"/><path class="cls-2" d="M363.14,221.29l10-5.79A46.38,46.38,0,0,0,333,192.3v11.6a34.8,34.8,0,0,1,30.13,17.39Zm10-5.79a5.79,5.79,0,1,0-2.12,7.92A5.8,5.8,0,0,0,373.18,215.5ZM333,192.3a5.8,5.8,0,1,0,5.8,5.8A5.8,5.8,0,0,0,333,192.3Z"/><path class="cls-2" d="M356.2,198.52a5.8,5.8,0,1,0,2.12,7.92A5.8,5.8,0,0,0,356.2,198.52Z"/><path class="cls-2" d="M363.14,256.08l10,5.8a46.4,46.4,0,0,0,0-46.38l-10,5.79a34.81,34.81,0,0,1,0,34.79Zm10,5.8a5.8,5.8,0,1,0-7.92,2.12A5.8,5.8,0,0,0,373.18,261.88Zm0-46.38a5.79,5.79,0,1,0-2.12,7.92A5.8,5.8,0,0,0,373.18,215.5Z"/><path class="cls-2" d="M379.39,238.69a5.8,5.8,0,1,0-5.79,5.79A5.79,5.79,0,0,0,379.39,238.69Z"/><path class="cls-2" d="M333,273.47v11.6a46.39,46.39,0,0,0,40.17-23.19l-10-5.8A34.8,34.8,0,0,1,333,273.47Zm0,11.6a5.8,5.8,0,1,0-5.8-5.8A5.8,5.8,0,0,0,333,285.07Zm40.17-23.19a5.8,5.8,0,1,0-7.92,2.12A5.8,5.8,0,0,0,373.18,261.88Z"/><path class="cls-2" d="M356.2,278.86a5.8,5.8,0,1,0-7.92-2.13A5.79,5.79,0,0,0,356.2,278.86Z"/><path class="cls-2" d="M302.88,256.08l-10,5.8A46.39,46.39,0,0,0,333,285.07v-11.6a34.8,34.8,0,0,1-30.13-17.39Zm-10,5.8A5.8,5.8,0,1,0,295,254,5.8,5.8,0,0,0,292.84,261.88ZM333,285.07a5.8,5.8,0,1,0-5.8-5.8A5.8,5.8,0,0,0,333,285.07Z"/><path class="cls-2" d="M309.82,278.86a5.8,5.8,0,1,0-2.12-7.92A5.8,5.8,0,0,0,309.82,278.86Z"/><path class="cls-2" d="M302.88,221.29l-10-5.79a46.4,46.4,0,0,0,0,46.38l10-5.8a34.81,34.81,0,0,1,0-34.79Zm-10-5.79a5.79,5.79,0,1,0,7.92-2.13A5.8,5.8,0,0,0,292.84,215.5Zm0,46.38A5.8,5.8,0,1,0,295,254,5.8,5.8,0,0,0,292.84,261.88Z"/><path class="cls-2" d="M286.63,238.69a5.8,5.8,0,1,0,5.8-5.8A5.79,5.79,0,0,0,286.63,238.69Z"/><path class="cls-2" d="M333,203.9V192.3a46.38,46.38,0,0,0-40.17,23.2l10,5.79A34.8,34.8,0,0,1,333,203.9Zm0-11.6a5.8,5.8,0,1,0,5.8,5.8A5.8,5.8,0,0,0,333,192.3Zm-40.17,23.2a5.79,5.79,0,1,0,7.92-2.13A5.8,5.8,0,0,0,292.84,215.5Z"/><path class="cls-2" d="M309.82,198.52a5.8,5.8,0,1,0,7.92,2.12A5.8,5.8,0,0,0,309.82,198.52Z"/><path class="cls-2" d="M262.72,232.89v11.59a46.36,46.36,0,0,0,40.16-23.19l-10-5.79a34.78,34.78,0,0,1-30.12,17.39Zm0,11.59a5.8,5.8,0,1,0-5.8-5.79A5.79,5.79,0,0,0,262.72,244.48Zm40.16-23.19a5.79,5.79,0,1,0-7.92,2.13A5.78,5.78,0,0,0,302.88,221.29Z"/><path class="cls-2" d="M285.91,238.27a5.8,5.8,0,1,0-7.92-2.12A5.8,5.8,0,0,0,285.91,238.27Z"/><path class="cls-2" d="M302.88,221.29l-10-5.79a46.4,46.4,0,0,0,0,46.38l10-5.8a34.81,34.81,0,0,1,0-34.79Zm-10-5.79a5.79,5.79,0,1,0,7.92-2.13A5.8,5.8,0,0,0,292.84,215.5Zm0,46.38A5.8,5.8,0,1,0,295,254,5.8,5.8,0,0,0,292.84,261.88Z"/><path class="cls-2" d="M286.63,238.69a5.8,5.8,0,1,0,5.8-5.8A5.79,5.79,0,0,0,286.63,238.69Z"/><path class="cls-2" d="M292.84,261.88l10-5.8a46.36,46.36,0,0,0-40.16-23.19v11.59a34.77,34.77,0,0,1,30.12,17.4Zm10-5.8a5.8,5.8,0,1,0-2.12,7.92A5.8,5.8,0,0,0,302.88,256.08Zm-40.16-23.19a5.8,5.8,0,1,0,5.79,5.8A5.79,5.79,0,0,0,262.72,232.89Z"/><path class="cls-2" d="M285.91,239.1A5.8,5.8,0,1,0,288,247,5.8,5.8,0,0,0,285.91,239.1Z"/><path class="cls-2" d="M288.81,234.08a5.8,5.8,0,1,0,2.12,7.92A5.8,5.8,0,0,0,288.81,234.08Z"/><path class="cls-2" d="M262.72,314.06v11.59a46.36,46.36,0,0,0,40.16-23.19l-10-5.8a34.77,34.77,0,0,1-30.12,17.4Zm0,11.59a5.8,5.8,0,1,0-5.8-5.79A5.79,5.79,0,0,0,262.72,325.65Zm40.16-23.19a5.8,5.8,0,1,0-7.92,2.12A5.78,5.78,0,0,0,302.88,302.46Z"/><path class="cls-2" d="M285.91,319.44a5.8,5.8,0,1,0-7.92-2.12A5.8,5.8,0,0,0,285.91,319.44Z"/><path class="cls-2" d="M232.59,296.66l-10,5.8a46.37,46.37,0,0,0,40.17,23.19V314.06a34.78,34.78,0,0,1-30.13-17.4Zm-10,5.8a5.8,5.8,0,1,0,2.12-7.92A5.78,5.78,0,0,0,222.55,302.46Zm40.17,23.19a5.8,5.8,0,1,0-5.8-5.79A5.79,5.79,0,0,0,262.72,325.65Z"/><path class="cls-2" d="M239.52,319.44a5.8,5.8,0,1,0-2.12-7.92A5.8,5.8,0,0,0,239.52,319.44Z"/><path class="cls-2" d="M262.72,244.48V232.89a46.37,46.37,0,0,0-40.17,23.19l10,5.8a34.78,34.78,0,0,1,30.13-17.4Zm0-11.59a5.8,5.8,0,1,0,5.79,5.8A5.79,5.79,0,0,0,262.72,232.89Zm-40.17,23.19a5.8,5.8,0,1,0,7.92-2.12A5.8,5.8,0,0,0,222.55,256.08Z"/><path class="cls-2" d="M239.52,239.1a5.8,5.8,0,1,0,7.92,2.12A5.8,5.8,0,0,0,239.52,239.1Z"/><path class="cls-2" d="M292.84,261.88l10-5.8a46.36,46.36,0,0,0-40.16-23.19v11.59a34.77,34.77,0,0,1,30.12,17.4Zm10-5.8a5.8,5.8,0,1,0-2.12,7.92A5.8,5.8,0,0,0,302.88,256.08Zm-40.16-23.19a5.8,5.8,0,1,0,5.79,5.8A5.79,5.79,0,0,0,262.72,232.89Z"/><path class="cls-2" d="M285.91,239.1A5.8,5.8,0,1,0,288,247,5.8,5.8,0,0,0,285.91,239.1Z"/><path class="cls-2" d="M292.84,296.66l10,5.8a46.36,46.36,0,0,0,0-46.38l-10,5.8A34.75,34.75,0,0,1,292.84,296.66Zm10,5.8a5.8,5.8,0,1,0-7.92,2.12A5.78,5.78,0,0,0,302.88,302.46Zm0-46.38a5.8,5.8,0,1,0-2.12,7.92A5.8,5.8,0,0,0,302.88,256.08Z"/><path class="cls-2" d="M309.1,279.27a5.8,5.8,0,1,0-5.8,5.8A5.8,5.8,0,0,0,309.1,279.27Z"/><path class="cls-2" d="M262.72,314.06v11.59a46.36,46.36,0,0,0,40.16-23.19l-10-5.8a34.77,34.77,0,0,1-30.12,17.4Zm0,11.59a5.8,5.8,0,1,0-5.8-5.79A5.79,5.79,0,0,0,262.72,325.65Zm40.16-23.19a5.8,5.8,0,1,0-7.92,2.12A5.78,5.78,0,0,0,302.88,302.46Z"/><path class="cls-2" d="M285.91,319.44a5.8,5.8,0,1,0-7.92-2.12A5.8,5.8,0,0,0,285.91,319.44Z"/><path class="cls-2" d="M232.59,296.66l-10,5.8a46.37,46.37,0,0,0,40.17,23.19V314.06a34.78,34.78,0,0,1-30.13-17.4Zm-10,5.8a5.8,5.8,0,1,0,2.12-7.92A5.78,5.78,0,0,0,222.55,302.46Zm40.17,23.19a5.8,5.8,0,1,0-5.8-5.79A5.79,5.79,0,0,0,262.72,325.65Z"/><path class="cls-2" d="M239.52,319.44a5.8,5.8,0,1,0-2.12-7.92A5.8,5.8,0,0,0,239.52,319.44Z"/><path class="cls-2" d="M232.59,261.88l-10-5.8a46.36,46.36,0,0,0,0,46.38l10-5.8a34.79,34.79,0,0,1,0-34.78Zm-10-5.8a5.8,5.8,0,1,0,7.92-2.12A5.8,5.8,0,0,0,222.55,256.08Zm0,46.38a5.8,5.8,0,1,0,2.12-7.92A5.78,5.78,0,0,0,222.55,302.46Z"/><path class="cls-2" d="M216.33,279.27a5.8,5.8,0,1,0,5.8-5.8A5.8,5.8,0,0,0,216.33,279.27Z"/><path class="cls-2" d="M262.72,244.48V232.89a46.37,46.37,0,0,0-40.17,23.19l10,5.8a34.78,34.78,0,0,1,30.13-17.4Zm0-11.59a5.8,5.8,0,1,0,5.79,5.8A5.79,5.79,0,0,0,262.72,232.89Zm-40.17,23.19a5.8,5.8,0,1,0,7.92-2.12A5.8,5.8,0,0,0,222.55,256.08Z"/><path class="cls-2" d="M239.52,239.1a5.8,5.8,0,1,0,7.92,2.12A5.8,5.8,0,0,0,239.52,239.1Z"/><path class="cls-2" d="M192.42,273.47v11.6a46.39,46.39,0,0,0,40.17-23.19l-10-5.8A34.8,34.8,0,0,1,192.42,273.47Zm0,11.6a5.8,5.8,0,1,0-5.8-5.8A5.8,5.8,0,0,0,192.42,285.07Zm40.17-23.19a5.8,5.8,0,1,0-7.92,2.12A5.8,5.8,0,0,0,232.59,261.88Z"/><path class="cls-2" d="M215.61,278.86a5.8,5.8,0,1,0-7.92-2.13A5.79,5.79,0,0,0,215.61,278.86Z"/><path class="cls-2" d="M232.59,261.88l-10-5.8a46.36,46.36,0,0,0,0,46.38l10-5.8a34.79,34.79,0,0,1,0-34.78Zm-10-5.8a5.8,5.8,0,1,0,7.92-2.12A5.8,5.8,0,0,0,222.55,256.08Zm0,46.38a5.8,5.8,0,1,0,2.12-7.92A5.78,5.78,0,0,0,222.55,302.46Z"/><path class="cls-2" d="M216.33,279.27a5.8,5.8,0,1,0,5.8-5.8A5.8,5.8,0,0,0,216.33,279.27Z"/><path class="cls-2" d="M222.55,302.46l10-5.8a46.39,46.39,0,0,0-40.17-23.19v11.6a34.8,34.8,0,0,1,30.13,17.39Zm10-5.8a5.8,5.8,0,1,0-2.12,7.92A5.8,5.8,0,0,0,232.59,296.66Zm-40.17-23.19a5.8,5.8,0,1,0,5.8,5.8A5.8,5.8,0,0,0,192.42,273.47Z"/><path class="cls-2" d="M215.61,279.69a5.8,5.8,0,1,0,2.12,7.92A5.8,5.8,0,0,0,215.61,279.69Z"/><path class="cls-2" d="M218.51,274.67a5.8,5.8,0,1,0,2.12,7.92A5.8,5.8,0,0,0,218.51,274.67Z"/><path class="cls-2" d="M192.42,285.07v-11.6a46.39,46.39,0,0,0-40.17,23.19l10,5.8a34.8,34.8,0,0,1,30.13-17.39Zm0-11.6a5.8,5.8,0,1,0,5.8,5.8A5.8,5.8,0,0,0,192.42,273.47Zm-40.17,23.19a5.8,5.8,0,1,0,7.92-2.12A5.8,5.8,0,0,0,152.25,296.66Z"/><path class="cls-2" d="M169.23,279.69a5.8,5.8,0,1,0,7.92,2.12A5.8,5.8,0,0,0,169.23,279.69Z"/><path class="cls-2" d="M222.55,302.46l10-5.8a46.39,46.39,0,0,0-40.17-23.19v11.6a34.8,34.8,0,0,1,30.13,17.39Zm10-5.8a5.8,5.8,0,1,0-2.12,7.92A5.8,5.8,0,0,0,232.59,296.66Zm-40.17-23.19a5.8,5.8,0,1,0,5.8,5.8A5.8,5.8,0,0,0,192.42,273.47Z"/><path class="cls-2" d="M215.61,279.69a5.8,5.8,0,1,0,2.12,7.92A5.8,5.8,0,0,0,215.61,279.69Z"/><path class="cls-2" d="M192.42,285.07v-11.6a46.39,46.39,0,0,0-40.17,23.19l10,5.8a34.8,34.8,0,0,1,30.13-17.39Zm0-11.6a5.8,5.8,0,1,0,5.8,5.8A5.8,5.8,0,0,0,192.42,273.47Zm-40.17,23.19a5.8,5.8,0,1,0,7.92-2.12A5.8,5.8,0,0,0,152.25,296.66Z"/><path class="cls-2" d="M169.23,279.69a5.8,5.8,0,1,0,7.92,2.12A5.8,5.8,0,0,0,169.23,279.69Z"/><path class="cls-2" d="M122.13,314.06v11.59a46.36,46.36,0,0,0,40.16-23.19l-10-5.8a34.77,34.77,0,0,1-30.12,17.4Zm0,11.59a5.8,5.8,0,1,0-5.8-5.79A5.79,5.79,0,0,0,122.13,325.65Zm40.16-23.19a5.8,5.8,0,1,0-7.92,2.12,5.78,5.78,0,0,0,7.92-2.12Z"/><path class="cls-2" d="M145.32,319.44a5.8,5.8,0,1,0-7.92-2.12A5.8,5.8,0,0,0,145.32,319.44Z"/><path class="cls-2" d="M92,296.66l-10,5.8a46.38,46.38,0,0,0,40.17,23.19V314.06A34.78,34.78,0,0,1,92,296.66Zm-10,5.8a5.8,5.8,0,1,0,2.12-7.92A5.78,5.78,0,0,0,82,302.46Zm40.17,23.19a5.8,5.8,0,1,0-5.8-5.79A5.79,5.79,0,0,0,122.13,325.65Z"/><path class="cls-2" d="M98.93,319.44a5.8,5.8,0,1,0-2.12-7.92,5.8,5.8,0,0,0,2.12,7.92Z"/><path class="cls-2" d="M503.73,174.91l10,5.8a46.4,46.4,0,0,0,0-46.38l-10,5.79a34.81,34.81,0,0,1,0,34.79Zm10,5.8a5.8,5.8,0,1,0-7.92,2.12A5.8,5.8,0,0,0,513.77,180.71Zm0-46.38a5.79,5.79,0,1,0-2.12,7.92A5.8,5.8,0,0,0,513.77,134.33Z"/><path class="cls-2" d="M520,157.52a5.8,5.8,0,1,0-5.8,5.79A5.79,5.79,0,0,0,520,157.52Z"/><path class="cls-2" d="M473.6,203.9V192.3a46.38,46.38,0,0,0-40.17,23.2l10,5.79A34.8,34.8,0,0,1,473.6,203.9Zm0-11.6a5.8,5.8,0,1,0,5.8,5.8A5.8,5.8,0,0,0,473.6,192.3Zm-40.17,23.2a5.79,5.79,0,1,0,7.92-2.13A5.8,5.8,0,0,0,433.43,215.5Z"/><path class="cls-2" d="M450.41,198.52a5.8,5.8,0,1,0,7.92,2.12A5.8,5.8,0,0,0,450.41,198.52Z"/><path class="cls-2" d="M473.6,203.9V192.3a46.38,46.38,0,0,0-40.17,23.2l10,5.79A34.8,34.8,0,0,1,473.6,203.9Zm0-11.6a5.8,5.8,0,1,0,5.8,5.8A5.8,5.8,0,0,0,473.6,192.3Zm-40.17,23.2a5.79,5.79,0,1,0,7.92-2.13A5.8,5.8,0,0,0,433.43,215.5Z"/><path class="cls-2" d="M450.41,198.52a5.8,5.8,0,1,0,7.92,2.12A5.8,5.8,0,0,0,450.41,198.52Z"/><path class="cls-2" d="M403.31,232.89v11.59a46.36,46.36,0,0,0,40.16-23.19l-10-5.79a34.78,34.78,0,0,1-30.12,17.39Zm0,11.59a5.8,5.8,0,1,0-5.8-5.79A5.79,5.79,0,0,0,403.31,244.48Zm40.16-23.19a5.79,5.79,0,1,0-7.92,2.13A5.8,5.8,0,0,0,443.47,221.29Z"/><path class="cls-2" d="M426.5,238.27a5.8,5.8,0,1,0-7.92-2.12A5.8,5.8,0,0,0,426.5,238.27Z"/><path class="cls-2" d="M374.32,323.58a5.8,5.8,0,1,0-2.13-7.92A5.8,5.8,0,0,0,374.32,323.58Z"/><path class="cls-2" d="M363.14,256.08l10,5.8a46.4,46.4,0,0,0,0-46.38l-10,5.79a34.81,34.81,0,0,1,0,34.79Zm10,5.8a5.8,5.8,0,1,0-7.92,2.12A5.8,5.8,0,0,0,373.18,261.88Zm0-46.38a5.79,5.79,0,1,0-2.12,7.92A5.8,5.8,0,0,0,373.18,215.5Z"/><path class="cls-2" d="M379.39,238.69a5.8,5.8,0,1,0-5.79,5.79A5.79,5.79,0,0,0,379.39,238.69Z"/><path class="cls-2" d="M373.18,215.5l-10,5.79a46.37,46.37,0,0,0,40.17,23.19V232.89a34.79,34.79,0,0,1-30.13-17.39Zm-10,5.79a5.79,5.79,0,1,0,2.12-7.92A5.79,5.79,0,0,0,363.14,221.29Zm40.17,23.19a5.8,5.8,0,1,0-5.8-5.79A5.79,5.79,0,0,0,403.31,244.48Z"/><path class="cls-2" d="M380.11,238.27a5.8,5.8,0,1,0-2.12-7.92A5.8,5.8,0,0,0,380.11,238.27Z"/><path class="cls-2" d="M403.31,244.48V232.89a46.37,46.37,0,0,0-40.17,23.19l10,5.8a34.78,34.78,0,0,1,30.13-17.4Zm0-11.59a5.8,5.8,0,1,0,5.79,5.8A5.79,5.79,0,0,0,403.31,232.89Zm-40.17,23.19a5.8,5.8,0,1,0,7.92-2.12A5.8,5.8,0,0,0,363.14,256.08Z"/><path class="cls-2" d="M380.11,239.1a5.8,5.8,0,1,0,7.92,2.12A5.8,5.8,0,0,0,380.11,239.1Z"/><path class="cls-2" d="M377.22,234.08a5.79,5.79,0,1,0,7.92,2.12A5.8,5.8,0,0,0,377.22,234.08Z"/><path class="cls-2" d="M373.18,261.88l-10-5.8a46.36,46.36,0,0,0,0,46.38l10-5.8a34.75,34.75,0,0,1,0-34.78Zm-10-5.8a5.8,5.8,0,1,0,7.92-2.12A5.8,5.8,0,0,0,363.14,256.08Zm0,46.38a5.8,5.8,0,1,0,2.12-7.92A5.78,5.78,0,0,0,363.14,302.46Z"/><path class="cls-2" d="M356.92,279.27a5.8,5.8,0,1,0,5.8-5.8A5.8,5.8,0,0,0,356.92,279.27Z"/><path class="cls-2" d="M403.31,244.48V232.89a46.37,46.37,0,0,0-40.17,23.19l10,5.8a34.78,34.78,0,0,1,30.13-17.4Zm0-11.59a5.8,5.8,0,1,0,5.79,5.8A5.79,5.79,0,0,0,403.31,232.89Zm-40.17,23.19a5.8,5.8,0,1,0,7.92-2.12A5.8,5.8,0,0,0,363.14,256.08Z"/><path class="cls-2" d="M380.11,239.1a5.8,5.8,0,1,0,7.92,2.12A5.8,5.8,0,0,0,380.11,239.1Z"/><path class="cls-2" d="M333,273.47v11.6a46.39,46.39,0,0,0,40.17-23.19l-10-5.8A34.8,34.8,0,0,1,333,273.47Zm0,11.6a5.8,5.8,0,1,0-5.8-5.8A5.8,5.8,0,0,0,333,285.07Zm40.17-23.19a5.8,5.8,0,1,0-7.92,2.12A5.8,5.8,0,0,0,373.18,261.88Z"/><path class="cls-2" d="M356.2,278.86a5.8,5.8,0,1,0-7.92-2.13A5.79,5.79,0,0,0,356.2,278.86Z"/><path class="cls-2" d="M373.18,261.88l-10-5.8a46.36,46.36,0,0,0,0,46.38l10-5.8a34.75,34.75,0,0,1,0-34.78Zm-10-5.8a5.8,5.8,0,1,0,7.92-2.12A5.8,5.8,0,0,0,363.14,256.08Zm0,46.38a5.8,5.8,0,1,0,2.12-7.92A5.78,5.78,0,0,0,363.14,302.46Z"/><path class="cls-2" d="M356.92,279.27a5.8,5.8,0,1,0,5.8-5.8A5.8,5.8,0,0,0,356.92,279.27Z"/><path class="cls-2" d="M363.14,302.46l10-5.8A46.39,46.39,0,0,0,333,273.47v11.6a34.8,34.8,0,0,1,30.13,17.39Zm10-5.8a5.8,5.8,0,1,0-2.12,7.92A5.8,5.8,0,0,0,373.18,296.66ZM333,273.47a5.8,5.8,0,1,0,5.8,5.8A5.8,5.8,0,0,0,333,273.47Z"/><path class="cls-2" d="M356.2,279.69a5.8,5.8,0,1,0,2.12,7.92A5.8,5.8,0,0,0,356.2,279.69Z"/><path class="cls-2" d="M359.1,274.67a5.8,5.8,0,1,0,2.12,7.92A5.8,5.8,0,0,0,359.1,274.67Z"/><path class="cls-2" d="M292.84,296.66l10,5.8a46.36,46.36,0,0,0,0-46.38l-10,5.8A34.75,34.75,0,0,1,292.84,296.66Zm10,5.8a5.8,5.8,0,1,0-7.92,2.12A5.78,5.78,0,0,0,302.88,302.46Zm0-46.38a5.8,5.8,0,1,0-2.12,7.92A5.8,5.8,0,0,0,302.88,256.08Z"/><path class="cls-2" d="M309.1,279.27a5.8,5.8,0,1,0-5.8,5.8A5.8,5.8,0,0,0,309.1,279.27Z"/><path class="cls-2" d="M302.88,256.08l-10,5.8A46.39,46.39,0,0,0,333,285.07v-11.6a34.8,34.8,0,0,1-30.13-17.39Zm-10,5.8A5.8,5.8,0,1,0,295,254,5.8,5.8,0,0,0,292.84,261.88ZM333,285.07a5.8,5.8,0,1,0-5.8-5.8A5.8,5.8,0,0,0,333,285.07Z"/><path class="cls-2" d="M309.82,278.86a5.8,5.8,0,1,0-2.12-7.92A5.8,5.8,0,0,0,309.82,278.86Z"/><path class="cls-2" d="M333,285.07v-11.6a46.39,46.39,0,0,0-40.17,23.19l10,5.8A34.8,34.8,0,0,1,333,285.07Zm0-11.6a5.8,5.8,0,1,0,5.8,5.8A5.8,5.8,0,0,0,333,273.47Zm-40.17,23.19a5.8,5.8,0,1,0,7.92-2.12A5.8,5.8,0,0,0,292.84,296.66Z"/><path class="cls-2" d="M309.82,279.69a5.8,5.8,0,1,0,7.92,2.12A5.8,5.8,0,0,0,309.82,279.69Z"/><path class="cls-2" d="M306.92,274.67a5.8,5.8,0,1,0,7.92,2.12A5.8,5.8,0,0,0,306.92,274.67Z"/><path class="cls-2" d="M363.14,302.46l10-5.8A46.39,46.39,0,0,0,333,273.47v11.6a34.8,34.8,0,0,1,30.13,17.39Zm10-5.8a5.8,5.8,0,1,0-2.12,7.92A5.8,5.8,0,0,0,373.18,296.66ZM333,273.47a5.8,5.8,0,1,0,5.8,5.8A5.8,5.8,0,0,0,333,273.47Z"/><path class="cls-2" d="M356.2,279.69a5.8,5.8,0,1,0,2.12,7.92A5.8,5.8,0,0,0,356.2,279.69Z"/><path class="cls-2" d="M333,285.07v-11.6a46.39,46.39,0,0,0-40.17,23.19l10,5.8A34.8,34.8,0,0,1,333,285.07Zm0-11.6a5.8,5.8,0,1,0,5.8,5.8A5.8,5.8,0,0,0,333,273.47Zm-40.17,23.19a5.8,5.8,0,1,0,7.92-2.12A5.8,5.8,0,0,0,292.84,296.66Z"/><path class="cls-2" d="M309.82,279.69a5.8,5.8,0,1,0,7.92,2.12A5.8,5.8,0,0,0,309.82,279.69Z"/><path class="cls-2" d="M262.72,314.06v11.59a46.36,46.36,0,0,0,40.16-23.19l-10-5.8a34.77,34.77,0,0,1-30.12,17.4Zm0,11.59a5.8,5.8,0,1,0-5.8-5.79A5.79,5.79,0,0,0,262.72,325.65Zm40.16-23.19a5.8,5.8,0,1,0-7.92,2.12A5.78,5.78,0,0,0,302.88,302.46Z"/><path class="cls-2" d="M285.91,319.44a5.8,5.8,0,1,0-7.92-2.12A5.8,5.8,0,0,0,285.91,319.44Z"/><path class="cls-2" d="M232.59,296.66l-10,5.8a46.37,46.37,0,0,0,40.17,23.19V314.06a34.78,34.78,0,0,1-30.13-17.4Zm-10,5.8a5.8,5.8,0,1,0,2.12-7.92A5.78,5.78,0,0,0,222.55,302.46Zm40.17,23.19a5.8,5.8,0,1,0-5.8-5.79A5.79,5.79,0,0,0,262.72,325.65Z"/><path class="cls-2" d="M239.52,319.44a5.8,5.8,0,1,0-2.12-7.92A5.8,5.8,0,0,0,239.52,319.44Z"/><path class="cls-2" d="M473.6,192.3v11.6a46.39,46.39,0,0,0,40.17-23.19l-10-5.8A34.8,34.8,0,0,1,473.6,192.3Zm0,11.6a5.8,5.8,0,1,0-5.8-5.8A5.8,5.8,0,0,0,473.6,203.9Zm40.17-23.19a5.8,5.8,0,1,0-7.92,2.12A5.8,5.8,0,0,0,513.77,180.71Z"/><path class="cls-2" d="M53.13,360.54A5.8,5.8,0,1,0,51,352.62a5.8,5.8,0,0,0,2.12,7.92Z"/><path class="cls-2" d="M529.11,87A5.8,5.8,0,1,0,527,79.1,5.8,5.8,0,0,0,529.11,87Z"/></svg>